<svg xmlns="http://www.w3.org/2000/svg" xmlns:xlink="http://www.w3.org/1999/xlink" width="111" zoomAndPan="magnify" viewBox="0 0 83.25 121.499994" height="162" preserveAspectRatio="xMidYMid meet" version="1.0"><defs><clipPath id="4f27b0c96c"><path d="M 1.875 29.5 L 46 29.5 L 46 57.75 L 1.875 57.75 Z M 1.875 29.5 " clip-rule="nonzero"/></clipPath><clipPath id="25d686d7c2"><path d="M 19.628906 32.246094 C 14.660156 32.839844 12.074219 34.332031 10.433594 35.574219 C 8.996094 36.667969 7.949219 37.910156 6.90625 39.300781 C 5.8125 40.742188 4.472656 42.679688 4.125 44.269531 C 3.777344 45.511719 3.628906 46.753906 4.273438 47.945312 C 5.21875 49.6875 8.945312 51.625 11.03125 52.71875 C 12.621094 53.5625 13.964844 53.859375 15.554688 54.308594 C 17.34375 54.855469 19.378906 55.351562 21.316406 55.550781 C 23.355469 55.796875 25.839844 55.699219 27.628906 55.601562 C 28.921875 55.550781 29.765625 55.550781 31.007812 55.300781 C 32.597656 54.953125 34.933594 54.257812 36.375 53.613281 C 37.46875 53.113281 38.261719 52.667969 39.058594 51.921875 C 39.953125 51.128906 40.796875 49.886719 41.394531 48.839844 C 41.988281 47.945312 42.335938 47.203125 42.734375 46.160156 C 43.230469 44.71875 43.777344 42.234375 43.929688 41.039062 C 43.976562 40.34375 44.175781 39.996094 43.878906 39.449219 C 43.332031 38.40625 41.292969 37.261719 38.957031 36.269531 C 34.484375 34.382812 20.027344 32.941406 17.890625 31.5 C 17.390625 31.152344 17.242188 30.804688 17.242188 30.503906 C 17.242188 30.207031 17.492188 29.859375 17.738281 29.710938 C 17.9375 29.5625 18.386719 29.511719 18.632812 29.660156 C 18.882812 29.761719 19.179688 30.109375 19.230469 30.40625 C 19.230469 30.65625 19.132812 31.101562 18.933594 31.25 C 18.734375 31.449219 18.285156 31.597656 18.039062 31.5 C 17.691406 31.449219 17.292969 30.902344 17.242188 30.605469 C 17.195312 30.304688 17.34375 29.957031 17.640625 29.761719 C 18.039062 29.460938 18.882812 29.511719 20.027344 29.609375 C 23.15625 29.859375 33.292969 32.246094 37.269531 33.535156 C 39.503906 34.28125 41.09375 34.976562 42.335938 35.722656 C 43.230469 36.21875 43.828125 36.617188 44.375 37.214844 C 44.972656 37.761719 45.566406 38.40625 45.816406 39.203125 C 46.113281 40.097656 45.914062 41.339844 45.765625 42.480469 C 45.566406 43.871094 45.21875 45.414062 44.574219 46.953125 C 43.777344 48.792969 42.585938 51.175781 41.09375 52.667969 C 39.652344 54.160156 37.515625 55.152344 35.777344 55.949219 C 34.238281 56.59375 32.746094 56.992188 31.304688 57.238281 C 30.0625 57.488281 29.070312 57.539062 27.628906 57.585938 C 25.589844 57.6875 22.660156 57.785156 20.273438 57.488281 C 17.988281 57.191406 15.753906 56.644531 13.566406 55.847656 C 11.230469 55.003906 8.695312 53.859375 6.757812 52.519531 C 4.96875 51.277344 2.882812 49.539062 2.234375 48.097656 C 1.789062 47.152344 1.9375 46.207031 1.988281 45.265625 C 2.039062 44.371094 2.1875 43.574219 2.535156 42.628906 C 3.082031 41.238281 4.324219 39.398438 5.367188 38.058594 C 6.261719 36.816406 7.007812 35.871094 8.296875 34.777344 C 10.136719 33.335938 13.464844 31.152344 15.703125 30.503906 C 17.292969 30.058594 19.378906 29.957031 20.074219 30.355469 C 20.421875 30.554688 20.671875 31.050781 20.621094 31.351562 C 20.523438 31.699219 19.628906 32.246094 19.628906 32.246094 " clip-rule="nonzero"/></clipPath><clipPath id="43315dbae5"><path d="M 0.875 0.5 L 45 0.5 L 45 28.75 L 0.875 28.75 Z M 0.875 0.5 " clip-rule="nonzero"/></clipPath><clipPath id="9dbc28e5b8"><path d="M 18.628906 3.246094 C 13.660156 3.839844 11.074219 5.332031 9.433594 6.574219 C 7.996094 7.667969 6.949219 8.910156 5.90625 10.300781 C 4.8125 11.742188 3.472656 13.679688 3.125 15.269531 C 2.777344 16.511719 2.628906 17.753906 3.273438 18.945312 C 4.21875 20.6875 7.945312 22.625 10.03125 23.71875 C 11.621094 24.5625 12.964844 24.859375 14.554688 25.308594 C 16.34375 25.855469 18.378906 26.351562 20.316406 26.550781 C 22.355469 26.796875 24.839844 26.699219 26.628906 26.601562 C 27.921875 26.550781 28.765625 26.550781 30.007812 26.300781 C 31.597656 25.953125 33.933594 25.257812 35.375 24.613281 C 36.46875 24.113281 37.261719 23.667969 38.058594 22.921875 C 38.953125 22.128906 39.796875 20.886719 40.394531 19.839844 C 40.988281 18.945312 41.335938 18.203125 41.734375 17.160156 C 42.230469 15.71875 42.777344 13.234375 42.929688 12.039062 C 42.976562 11.34375 43.175781 10.996094 42.878906 10.449219 C 42.332031 9.40625 40.292969 8.261719 37.957031 7.269531 C 33.484375 5.382812 19.027344 3.941406 16.890625 2.5 C 16.390625 2.152344 16.242188 1.804688 16.242188 1.503906 C 16.242188 1.207031 16.492188 0.859375 16.738281 0.710938 C 16.9375 0.5625 17.386719 0.511719 17.632812 0.660156 C 17.882812 0.761719 18.179688 1.109375 18.230469 1.40625 C 18.230469 1.65625 18.132812 2.101562 17.933594 2.25 C 17.734375 2.449219 17.285156 2.597656 17.039062 2.5 C 16.691406 2.449219 16.292969 1.902344 16.242188 1.605469 C 16.195312 1.304688 16.34375 0.957031 16.640625 0.761719 C 17.039062 0.460938 17.882812 0.511719 19.027344 0.609375 C 22.15625 0.859375 32.292969 3.246094 36.269531 4.535156 C 38.503906 5.28125 40.09375 5.976562 41.335938 6.722656 C 42.230469 7.21875 42.828125 7.617188 43.375 8.214844 C 43.972656 8.761719 44.566406 9.40625 44.816406 10.203125 C 45.113281 11.097656 44.914062 12.339844 44.765625 13.480469 C 44.566406 14.871094 44.21875 16.414062 43.574219 17.953125 C 42.777344 19.792969 41.585938 22.175781 40.09375 23.667969 C 38.652344 25.160156 36.515625 26.152344 34.777344 26.949219 C 33.238281 27.59375 31.746094 27.992188 30.304688 28.238281 C 29.0625 28.488281 28.070312 28.539062 26.628906 28.585938 C 24.589844 28.6875 21.660156 28.785156 19.273438 28.488281 C 16.988281 28.191406 14.753906 27.644531 12.566406 26.847656 C 10.230469 26.003906 7.695312 24.859375 5.757812 23.519531 C 3.96875 22.277344 1.882812 20.539062 1.234375 19.097656 C 0.789062 18.152344 0.9375 17.207031 0.988281 16.265625 C 1.039062 15.371094 1.1875 14.574219 1.535156 13.628906 C 2.082031 12.238281 3.324219 10.398438 4.367188 9.058594 C 5.261719 7.816406 6.007812 6.871094 7.296875 5.777344 C 9.136719 4.335938 12.464844 2.152344 14.703125 1.503906 C 16.292969 1.058594 18.378906 0.957031 19.074219 1.355469 C 19.421875 1.554688 19.671875 2.050781 19.621094 2.351562 C 19.523438 2.699219 18.628906 3.246094 18.628906 3.246094 " clip-rule="nonzero"/></clipPath><clipPath id="f1c646f8db"><rect x="0" width="45" y="0" height="29"/></clipPath><clipPath id="f8eff8eb1c"><path d="M 22.488281 55.765625 L 26.1875 55.765625 L 26.1875 105.742188 L 22.488281 105.742188 Z M 22.488281 55.765625 " clip-rule="nonzero"/></clipPath><clipPath id="e3fe5ed19c"><path d="M 26.1875 56.792969 C 25.988281 97.339844 25.542969 103.601562 24.5 105.144531 C 24.199219 105.589844 23.753906 105.789062 23.453125 105.6875 C 23.105469 105.640625 22.558594 104.84375 22.660156 104.496094 C 22.710938 104.199219 23.554688 103.703125 23.851562 103.75 C 24.199219 103.851562 24.648438 104.695312 24.546875 105.042969 C 24.5 105.339844 23.902344 105.738281 23.554688 105.738281 C 23.207031 105.6875 22.808594 105.242188 22.609375 104.644531 C 22.0625 102.757812 24 97.140625 24.347656 91.824219 C 24.945312 83.03125 22.710938 60.121094 24.199219 56.792969 C 24.5 56.097656 24.945312 55.75 25.292969 55.796875 C 25.589844 55.796875 26.1875 56.792969 26.1875 56.792969 " clip-rule="nonzero"/></clipPath><clipPath id="b654c46f86"><path d="M 0.488281 0.765625 L 4.1875 0.765625 L 4.1875 50.742188 L 0.488281 50.742188 Z M 0.488281 0.765625 " clip-rule="nonzero"/></clipPath><clipPath id="071908157f"><path d="M 4.1875 1.792969 C 3.988281 42.339844 3.542969 48.601562 2.5 50.144531 C 2.199219 50.589844 1.753906 50.789062 1.453125 50.6875 C 1.105469 50.640625 0.558594 49.84375 0.660156 49.496094 C 0.710938 49.199219 1.554688 48.703125 1.851562 48.75 C 2.199219 48.851562 2.648438 49.695312 2.546875 50.042969 C 2.5 50.339844 1.902344 50.738281 1.554688 50.738281 C 1.207031 50.6875 0.808594 50.242188 0.609375 49.644531 C 0.0625 47.757812 2 42.140625 2.347656 36.824219 C 2.945312 28.03125 0.710938 5.121094 2.199219 1.792969 C 2.5 1.097656 2.945312 0.75 3.292969 0.796875 C 3.589844 0.796875 4.1875 1.792969 4.1875 1.792969 " clip-rule="nonzero"/></clipPath><clipPath id="564512389b"><rect x="0" width="5" y="0" height="51"/></clipPath><clipPath id="425145e3de"><path d="M 13.261719 100.816406 L 38.394531 100.816406 L 38.394531 118.464844 L 13.261719 118.464844 Z M 13.261719 100.816406 " clip-rule="nonzero"/></clipPath><clipPath id="98a3ec2ba6"><path d="M 13.316406 116.472656 C 22.011719 102.757812 23.355469 101.117188 24.347656 100.871094 C 24.894531 100.769531 25.292969 100.917969 25.789062 101.367188 C 26.785156 102.210938 27.378906 105.242188 28.921875 107.328125 C 31.058594 110.261719 37.515625 114.980469 38.113281 116.820312 C 38.363281 117.367188 38.261719 117.914062 38.015625 118.113281 C 37.765625 118.359375 36.773438 118.210938 36.523438 118.011719 C 36.324219 117.8125 36.324219 117.316406 36.425781 117.019531 C 36.523438 116.769531 36.820312 116.472656 37.121094 116.421875 C 37.417969 116.375 38.0625 116.671875 38.214844 116.917969 C 38.363281 117.167969 38.363281 117.617188 38.214844 117.863281 C 38.0625 118.113281 37.714844 118.359375 37.46875 118.410156 C 37.121094 118.410156 36.523438 118.0625 36.425781 117.765625 C 36.273438 117.464844 36.472656 116.820312 36.722656 116.621094 C 36.921875 116.421875 37.417969 116.375 37.667969 116.472656 C 37.964844 116.570312 38.363281 117.167969 38.3125 117.515625 C 38.3125 117.8125 37.964844 118.3125 37.617188 118.359375 C 37.121094 118.460938 36.375 117.964844 35.53125 117.316406 C 33.640625 115.875 29.667969 111.703125 27.679688 108.917969 C 26.039062 106.683594 23.800781 102.460938 24 102.261719 C 24.101562 102.160156 24.894531 102.558594 24.945312 102.855469 C 24.945312 103.402344 23.355469 104.199219 22.363281 105.441406 C 20.421875 107.925781 16.648438 116.375 15.007812 117.515625 C 14.511719 117.863281 14.011719 117.914062 13.714844 117.714844 C 13.417969 117.566406 13.316406 116.472656 13.316406 116.472656 " clip-rule="nonzero"/></clipPath><clipPath id="b1a85d23fd"><path d="M 0.261719 0.816406 L 25.394531 0.816406 L 25.394531 18.464844 L 0.261719 18.464844 Z M 0.261719 0.816406 " clip-rule="nonzero"/></clipPath><clipPath id="b7c982ba39"><path d="M 0.316406 16.472656 C 9.011719 2.757812 10.355469 1.117188 11.347656 0.871094 C 11.894531 0.769531 12.292969 0.917969 12.789062 1.367188 C 13.785156 2.210938 14.378906 5.242188 15.921875 7.328125 C 18.058594 10.261719 24.515625 14.980469 25.113281 16.820312 C 25.363281 17.367188 25.261719 17.914062 25.015625 18.113281 C 24.765625 18.359375 23.773438 18.210938 23.523438 18.011719 C 23.324219 17.8125 23.324219 17.316406 23.425781 17.019531 C 23.523438 16.769531 23.820312 16.472656 24.121094 16.421875 C 24.417969 16.375 25.0625 16.671875 25.214844 16.917969 C 25.363281 17.167969 25.363281 17.617188 25.214844 17.863281 C 25.0625 18.113281 24.714844 18.359375 24.46875 18.410156 C 24.121094 18.410156 23.523438 18.0625 23.425781 17.765625 C 23.273438 17.464844 23.472656 16.820312 23.722656 16.621094 C 23.921875 16.421875 24.417969 16.375 24.667969 16.472656 C 24.964844 16.570312 25.363281 17.167969 25.3125 17.515625 C 25.3125 17.8125 24.964844 18.3125 24.617188 18.359375 C 24.121094 18.460938 23.375 17.964844 22.53125 17.316406 C 20.640625 15.875 16.667969 11.703125 14.679688 8.917969 C 13.039062 6.683594 10.800781 2.460938 11 2.261719 C 11.101562 2.160156 11.894531 2.558594 11.945312 2.855469 C 11.945312 3.402344 10.355469 4.199219 9.363281 5.441406 C 7.421875 7.925781 3.648438 16.375 2.007812 17.515625 C 1.511719 17.863281 1.011719 17.914062 0.714844 17.714844 C 0.417969 17.566406 0.316406 16.472656 0.316406 16.472656 " clip-rule="nonzero"/></clipPath><clipPath id="7ec44e38fa"><rect x="0" width="26" y="0" height="19"/></clipPath><clipPath id="047780fd44"><path d="M 12.566406 69.703125 L 44.589844 69.703125 L 44.589844 78.515625 L 12.566406 78.515625 Z M 12.566406 69.703125 " clip-rule="nonzero"/></clipPath><clipPath id="9d6553a262"><path d="M 13.765625 69.710938 C 25.195312 74.382812 28.921875 76.621094 32.5 76.570312 C 36.125 76.570312 41.742188 72.496094 43.480469 72.792969 C 44.078125 72.941406 44.523438 73.390625 44.574219 73.738281 C 44.625 74.035156 44.226562 74.632812 43.929688 74.730469 C 43.679688 74.832031 43.230469 74.78125 42.984375 74.582031 C 42.785156 74.433594 42.585938 74.035156 42.585938 73.785156 C 42.585938 73.488281 42.835938 73.089844 43.082031 72.941406 C 43.28125 72.792969 43.730469 72.792969 43.976562 72.894531 C 44.226562 72.992188 44.523438 73.339844 44.574219 73.636719 C 44.574219 73.9375 44.425781 74.332031 44.027344 74.679688 C 42.734375 75.824219 36.175781 77.960938 33.742188 78.359375 C 32.449219 78.558594 32.050781 78.558594 30.660156 78.257812 C 27.179688 77.5625 14.808594 73.242188 13.070312 71.550781 C 12.621094 71.105469 12.472656 70.65625 12.621094 70.359375 C 12.722656 70.011719 13.765625 69.710938 13.765625 69.710938 " clip-rule="nonzero"/></clipPath><clipPath id="b6770ce9c7"><path d="M 0.566406 0.703125 L 32.589844 0.703125 L 32.589844 9.515625 L 0.566406 9.515625 Z M 0.566406 0.703125 " clip-rule="nonzero"/></clipPath><clipPath id="b5169b9b6b"><path d="M 1.765625 0.710938 C 13.195312 5.382812 16.921875 7.621094 20.5 7.570312 C 24.125 7.570312 29.742188 3.496094 31.480469 3.792969 C 32.078125 3.941406 32.523438 4.390625 32.574219 4.738281 C 32.625 5.035156 32.226562 5.632812 31.929688 5.730469 C 31.679688 5.832031 31.230469 5.78125 30.984375 5.582031 C 30.785156 5.433594 30.585938 5.035156 30.585938 4.785156 C 30.585938 4.488281 30.835938 4.089844 31.082031 3.941406 C 31.28125 3.792969 31.730469 3.792969 31.976562 3.894531 C 32.226562 3.992188 32.523438 4.339844 32.574219 4.636719 C 32.574219 4.9375 32.425781 5.332031 32.027344 5.679688 C 30.734375 6.824219 24.175781 8.960938 21.742188 9.359375 C 20.449219 9.558594 20.050781 9.558594 18.660156 9.257812 C 15.179688 8.5625 2.808594 4.242188 1.070312 2.550781 C 0.621094 2.105469 0.472656 1.65625 0.621094 1.359375 C 0.722656 1.011719 1.765625 0.710938 1.765625 0.710938 " clip-rule="nonzero"/></clipPath><clipPath id="62679c45f9"><rect x="0" width="33" y="0" height="10"/></clipPath><clipPath id="f898fe6586"><path d="M 39.269531 2.800781 L 50.851562 2.800781 L 50.851562 24.421875 L 39.269531 24.421875 Z M 39.269531 2.800781 " clip-rule="nonzero"/></clipPath><clipPath id="a386e6b5f3"><path d="M 40.300781 2.828125 C 44.574219 3.222656 45.765625 3.921875 46.761719 4.714844 C 47.804688 5.511719 48.945312 6.703125 49.59375 7.746094 C 50.089844 8.589844 50.488281 9.585938 50.535156 10.429688 C 50.636719 11.074219 50.488281 11.671875 50.238281 12.21875 C 50.039062 12.714844 49.742188 13.113281 49.292969 13.558594 C 48.746094 14.105469 48.003906 14.554688 47.109375 15 C 45.816406 15.648438 43.382812 16.640625 42.238281 16.742188 C 41.59375 16.789062 41.046875 16.789062 40.746094 16.542969 C 40.5 16.292969 40.351562 15.746094 40.449219 15.449219 C 40.546875 15.199219 40.847656 14.953125 41.144531 14.800781 C 41.542969 14.652344 42.039062 14.753906 42.734375 14.800781 C 43.929688 14.902344 46.3125 14.953125 47.65625 15.648438 C 48.847656 16.242188 49.941406 17.238281 50.4375 18.378906 C 50.933594 19.523438 50.882812 21.511719 50.535156 22.457031 C 50.339844 23.050781 50.039062 23.398438 49.492188 23.699219 C 48.5 24.242188 46.066406 24.441406 44.722656 24.394531 C 43.730469 24.394531 42.636719 24.394531 42.140625 23.996094 C 41.789062 23.699219 41.542969 22.953125 41.691406 22.605469 C 41.742188 22.355469 42.1875 22.105469 42.4375 22.105469 C 42.734375 22.058594 43.132812 22.207031 43.28125 22.457031 C 43.480469 22.652344 43.578125 23.101562 43.53125 23.351562 C 43.382812 23.648438 42.882812 24.09375 42.535156 24.09375 C 42.1875 24.046875 41.542969 23.351562 41.542969 23.050781 C 41.542969 22.703125 41.890625 22.304688 42.335938 22.105469 C 43.382812 21.609375 47.804688 22.902344 48.597656 22.007812 C 49.195312 21.3125 48.699219 19.324219 48.203125 18.53125 C 47.753906 17.832031 47.058594 17.484375 46.214844 17.1875 C 44.921875 16.691406 41.742188 17.289062 40.945312 16.691406 C 40.546875 16.394531 40.300781 15.847656 40.449219 15.449219 C 40.847656 14.453125 46.3125 13.3125 47.503906 12.46875 C 48.003906 12.121094 48.203125 11.921875 48.398438 11.523438 C 48.550781 11.125 48.648438 10.726562 48.550781 10.179688 C 48.351562 9.386719 47.554688 8.09375 46.859375 7.300781 C 46.164062 6.503906 45.320312 5.859375 44.324219 5.410156 C 43.035156 4.863281 40.25 5.164062 39.652344 4.566406 C 39.304688 4.269531 39.257812 3.722656 39.355469 3.421875 C 39.457031 3.175781 40.300781 2.828125 40.300781 2.828125 " clip-rule="nonzero"/></clipPath><clipPath id="6366c029e7"><path d="M 0.269531 0.800781 L 11.851562 0.800781 L 11.851562 22.421875 L 0.269531 22.421875 Z M 0.269531 0.800781 " clip-rule="nonzero"/></clipPath><clipPath id="be8c1ace69"><path d="M 1.300781 0.828125 C 5.574219 1.222656 6.765625 1.921875 7.761719 2.714844 C 8.804688 3.511719 9.945312 4.703125 10.59375 5.746094 C 11.089844 6.589844 11.488281 7.585938 11.535156 8.429688 C 11.636719 9.074219 11.488281 9.671875 11.238281 10.21875 C 11.039062 10.714844 10.742188 11.113281 10.292969 11.558594 C 9.746094 12.105469 9.003906 12.554688 8.109375 13 C 6.816406 13.648438 4.382812 14.640625 3.238281 14.742188 C 2.59375 14.789062 2.046875 14.789062 1.746094 14.542969 C 1.5 14.292969 1.351562 13.746094 1.449219 13.449219 C 1.546875 13.199219 1.847656 12.953125 2.144531 12.800781 C 2.542969 12.652344 3.039062 12.753906 3.734375 12.800781 C 4.929688 12.902344 7.3125 12.953125 8.65625 13.648438 C 9.847656 14.242188 10.941406 15.238281 11.4375 16.378906 C 11.933594 17.523438 11.882812 19.511719 11.535156 20.457031 C 11.339844 21.050781 11.039062 21.398438 10.492188 21.699219 C 9.5 22.242188 7.066406 22.441406 5.722656 22.394531 C 4.730469 22.394531 3.636719 22.394531 3.140625 21.996094 C 2.789062 21.699219 2.542969 20.953125 2.691406 20.605469 C 2.742188 20.355469 3.1875 20.105469 3.4375 20.105469 C 3.734375 20.058594 4.132812 20.207031 4.28125 20.457031 C 4.480469 20.652344 4.578125 21.101562 4.53125 21.351562 C 4.382812 21.648438 3.882812 22.09375 3.535156 22.09375 C 3.1875 22.046875 2.542969 21.351562 2.542969 21.050781 C 2.542969 20.703125 2.890625 20.304688 3.335938 20.105469 C 4.382812 19.609375 8.804688 20.902344 9.597656 20.007812 C 10.195312 19.3125 9.699219 17.324219 9.203125 16.53125 C 8.753906 15.832031 8.058594 15.484375 7.214844 15.1875 C 5.921875 14.691406 2.742188 15.289062 1.945312 14.691406 C 1.546875 14.394531 1.300781 13.847656 1.449219 13.449219 C 1.847656 12.453125 7.3125 11.3125 8.503906 10.46875 C 9.003906 10.121094 9.203125 9.921875 9.398438 9.523438 C 9.550781 9.125 9.648438 8.726562 9.550781 8.179688 C 9.351562 7.386719 8.554688 6.09375 7.859375 5.300781 C 7.164062 4.503906 6.320312 3.859375 5.324219 3.410156 C 4.035156 2.863281 1.25 3.164062 0.652344 2.566406 C 0.304688 2.269531 0.257812 1.722656 0.355469 1.421875 C 0.457031 1.175781 1.300781 0.828125 1.300781 0.828125 " clip-rule="nonzero"/></clipPath><clipPath id="7d4219ff35"><rect x="0" width="12" y="0" height="23"/></clipPath><clipPath id="8801a425a3"><path d="M 55.636719 13.003906 L 65.550781 13.003906 L 65.550781 24.09375 L 55.636719 24.09375 Z M 55.636719 13.003906 " clip-rule="nonzero"/></clipPath><clipPath id="2a09da0597"><path d="M 59.976562 16.890625 C 57.941406 18.332031 57.941406 18.628906 57.839844 19.074219 C 57.742188 19.621094 57.59375 20.617188 57.792969 21.0625 C 57.941406 21.460938 58.238281 21.710938 58.636719 21.859375 C 59.132812 22.058594 60.175781 22.15625 60.722656 22.007812 C 61.21875 21.859375 61.519531 21.609375 61.917969 21.164062 C 62.511719 20.515625 63.753906 18.925781 63.507812 17.933594 C 63.207031 16.691406 59.582031 15.546875 59.132812 14.652344 C 58.886719 14.207031 58.984375 13.710938 59.132812 13.460938 C 59.28125 13.210938 59.730469 13.015625 59.976562 13.0625 C 60.277344 13.0625 60.625 13.3125 60.773438 13.558594 C 60.921875 13.757812 60.921875 14.207031 60.824219 14.453125 C 60.675781 14.703125 60.324219 15 60.078125 15.050781 C 59.78125 15.050781 59.382812 14.902344 59.183594 14.703125 C 58.984375 14.503906 58.886719 14.105469 58.933594 13.808594 C 59.035156 13.558594 59.28125 13.210938 59.582031 13.113281 C 59.828125 13.015625 60.078125 13.0625 60.476562 13.210938 C 61.371094 13.609375 63.507812 15.152344 64.351562 16.144531 C 64.996094 16.9375 65.492188 17.683594 65.542969 18.53125 C 65.542969 19.523438 64.796875 20.863281 64.054688 21.757812 C 63.355469 22.703125 62.265625 23.648438 61.171875 23.945312 C 59.976562 24.242188 58.089844 23.945312 57.195312 23.351562 C 56.449219 22.851562 56.003906 21.910156 55.804688 21.0625 C 55.605469 20.320312 55.65625 19.472656 55.902344 18.679688 C 56.152344 17.785156 56.699219 16.640625 57.445312 15.996094 C 58.089844 15.449219 59.332031 14.851562 59.878906 15 C 60.226562 15.101562 60.523438 15.597656 60.574219 15.894531 C 60.574219 16.195312 59.976562 16.890625 59.976562 16.890625 " clip-rule="nonzero"/></clipPath><clipPath id="ba348a3607"><path d="M 0.636719 0.00390625 L 10.550781 0.00390625 L 10.550781 11.09375 L 0.636719 11.09375 Z M 0.636719 0.00390625 " clip-rule="nonzero"/></clipPath><clipPath id="48aa91b196"><path d="M 4.976562 3.890625 C 2.941406 5.332031 2.941406 5.628906 2.839844 6.074219 C 2.742188 6.621094 2.59375 7.617188 2.792969 8.0625 C 2.941406 8.460938 3.238281 8.710938 3.636719 8.859375 C 4.132812 9.058594 5.175781 9.15625 5.722656 9.007812 C 6.21875 8.859375 6.519531 8.609375 6.917969 8.164062 C 7.511719 7.515625 8.753906 5.925781 8.507812 4.933594 C 8.207031 3.691406 4.582031 2.546875 4.132812 1.652344 C 3.886719 1.207031 3.984375 0.710938 4.132812 0.460938 C 4.28125 0.210938 4.730469 0.015625 4.976562 0.0625 C 5.277344 0.0625 5.625 0.3125 5.773438 0.558594 C 5.921875 0.757812 5.921875 1.207031 5.824219 1.453125 C 5.675781 1.703125 5.324219 2 5.078125 2.050781 C 4.78125 2.050781 4.382812 1.902344 4.183594 1.703125 C 3.984375 1.503906 3.886719 1.105469 3.933594 0.808594 C 4.035156 0.558594 4.28125 0.210938 4.582031 0.113281 C 4.828125 0.015625 5.078125 0.0625 5.476562 0.210938 C 6.371094 0.609375 8.507812 2.152344 9.351562 3.144531 C 9.996094 3.9375 10.492188 4.683594 10.542969 5.53125 C 10.542969 6.523438 9.796875 7.863281 9.054688 8.757812 C 8.355469 9.703125 7.265625 10.648438 6.171875 10.945312 C 4.976562 11.242188 3.089844 10.945312 2.195312 10.351562 C 1.449219 9.851562 1.003906 8.910156 0.804688 8.0625 C 0.605469 7.320312 0.65625 6.472656 0.902344 5.679688 C 1.152344 4.785156 1.699219 3.640625 2.445312 2.996094 C 3.089844 2.449219 4.332031 1.851562 4.878906 2 C 5.226562 2.101562 5.523438 2.597656 5.574219 2.894531 C 5.574219 3.195312 4.976562 3.890625 4.976562 3.890625 " clip-rule="nonzero"/></clipPath><clipPath id="953efb8c5f"><rect x="0" width="11" y="0" height="12"/></clipPath><clipPath id="99646d175d"><path d="M 68.535156 4.671875 L 80.382812 4.671875 L 80.382812 27.210938 L 68.535156 27.210938 Z M 68.535156 4.671875 " clip-rule="nonzero"/></clipPath><clipPath id="01733e30c6"><path d="M 70.8125 5.710938 C 71.257812 18.132812 72.449219 22.503906 72.003906 23.945312 C 71.855469 24.492188 71.507812 24.890625 71.207031 24.988281 C 70.910156 25.039062 70.414062 24.890625 70.164062 24.492188 C 69.617188 23.699219 69.71875 20.167969 69.867188 18.679688 C 69.964844 17.734375 70.117188 17.089844 70.511719 16.394531 C 70.910156 15.695312 71.554688 14.902344 72.203125 14.652344 C 72.796875 14.40625 73.496094 14.554688 74.191406 14.605469 C 75.035156 14.652344 76.027344 14.703125 76.875 15 C 77.71875 15.25 78.664062 15.5 79.210938 16.34375 C 80.203125 17.832031 80.402344 22.902344 80.351562 24.542969 C 80.351562 25.238281 80.300781 25.734375 80.003906 26.082031 C 79.753906 26.429688 79.359375 26.480469 78.710938 26.628906 C 77.421875 26.925781 73.792969 27.574219 72.449219 26.878906 C 71.40625 26.382812 70.5625 24.789062 70.5625 24.144531 C 70.5625 23.699219 70.960938 23.199219 71.308594 23.152344 C 71.605469 23.101562 72.402344 23.597656 72.550781 23.894531 C 72.648438 24.144531 72.449219 24.59375 72.300781 24.789062 C 72.101562 24.988281 71.65625 25.1875 71.40625 25.089844 C 71.058594 24.988281 70.5625 24.242188 70.5625 23.894531 C 70.613281 23.597656 71.207031 23.152344 71.507812 23.152344 C 71.804688 23.101562 72.402344 23.546875 72.5 23.796875 C 72.550781 24.046875 72.101562 24.441406 72.203125 24.640625 C 72.300781 24.839844 72.847656 24.941406 73.445312 25.039062 C 74.539062 25.238281 77.570312 25.882812 78.363281 25.039062 C 79.308594 23.996094 78.066406 19.523438 77.667969 18.230469 C 77.519531 17.734375 77.46875 17.4375 77.074219 17.1875 C 76.277344 16.640625 73.496094 15.996094 72.648438 16.492188 C 72.054688 16.839844 72.003906 17.785156 71.855469 18.679688 C 71.605469 20.070312 72.402344 23.199219 72.003906 24.195312 C 71.804688 24.640625 71.507812 24.941406 71.207031 24.988281 C 70.910156 25.039062 70.464844 24.890625 70.164062 24.492188 C 69.371094 23.398438 69.320312 18.378906 69.070312 15.300781 C 68.824219 12.121094 68.175781 7.199219 68.824219 5.710938 C 69.070312 5.113281 69.617188 4.714844 69.917969 4.714844 C 70.265625 4.765625 70.8125 5.710938 70.8125 5.710938 " clip-rule="nonzero"/></clipPath><clipPath id="ff722700f4"><path d="M 0.535156 0.671875 L 12.382812 0.671875 L 12.382812 23.210938 L 0.535156 23.210938 Z M 0.535156 0.671875 " clip-rule="nonzero"/></clipPath><clipPath id="60a4358291"><path d="M 2.8125 1.710938 C 3.257812 14.132812 4.449219 18.503906 4.003906 19.945312 C 3.855469 20.492188 3.507812 20.890625 3.207031 20.988281 C 2.910156 21.039062 2.414062 20.890625 2.164062 20.492188 C 1.617188 19.699219 1.71875 16.167969 1.867188 14.679688 C 1.964844 13.734375 2.117188 13.089844 2.511719 12.394531 C 2.910156 11.695312 3.554688 10.902344 4.203125 10.652344 C 4.796875 10.40625 5.496094 10.554688 6.191406 10.605469 C 7.035156 10.652344 8.027344 10.703125 8.875 11 C 9.71875 11.25 10.664062 11.5 11.210938 12.34375 C 12.203125 13.832031 12.402344 18.902344 12.351562 20.542969 C 12.351562 21.238281 12.300781 21.734375 12.003906 22.082031 C 11.753906 22.429688 11.359375 22.480469 10.710938 22.628906 C 9.421875 22.925781 5.792969 23.574219 4.449219 22.878906 C 3.40625 22.382812 2.5625 20.789062 2.5625 20.144531 C 2.5625 19.699219 2.960938 19.199219 3.308594 19.152344 C 3.605469 19.101562 4.402344 19.597656 4.550781 19.894531 C 4.648438 20.144531 4.449219 20.59375 4.300781 20.789062 C 4.101562 20.988281 3.65625 21.1875 3.40625 21.089844 C 3.058594 20.988281 2.5625 20.242188 2.5625 19.894531 C 2.613281 19.597656 3.207031 19.152344 3.507812 19.152344 C 3.804688 19.101562 4.402344 19.546875 4.5 19.796875 C 4.550781 20.046875 4.101562 20.441406 4.203125 20.640625 C 4.300781 20.839844 4.847656 20.941406 5.445312 21.039062 C 6.539062 21.238281 9.570312 21.882812 10.363281 21.039062 C 11.308594 19.996094 10.066406 15.523438 9.667969 14.230469 C 9.519531 13.734375 9.46875 13.4375 9.074219 13.1875 C 8.277344 12.640625 5.496094 11.996094 4.648438 12.492188 C 4.054688 12.839844 4.003906 13.785156 3.855469 14.679688 C 3.605469 16.070312 4.402344 19.199219 4.003906 20.195312 C 3.804688 20.640625 3.507812 20.941406 3.207031 20.988281 C 2.910156 21.039062 2.464844 20.890625 2.164062 20.492188 C 1.371094 19.398438 1.320312 14.378906 1.070312 11.300781 C 0.824219 8.121094 0.175781 3.199219 0.824219 1.710938 C 1.070312 1.113281 1.617188 0.714844 1.917969 0.714844 C 2.265625 0.765625 2.8125 1.710938 2.8125 1.710938 " clip-rule="nonzero"/></clipPath><clipPath id="7d23f830fd"><rect x="0" width="13" y="0" height="24"/></clipPath><clipPath id="93f4be1da6"><path d="M 43.949219 25.554688 L 52.257812 25.554688 L 52.257812 34.152344 L 43.949219 34.152344 Z M 43.949219 25.554688 " clip-rule="nonzero"/></clipPath><clipPath id="f71f6a441c"><path d="M 46.859375 26.679688 C 46.761719 33.089844 50.339844 30.554688 51.332031 30.804688 C 51.828125 30.902344 52.175781 31.300781 52.226562 31.597656 C 52.277344 31.945312 51.929688 32.542969 51.628906 32.691406 C 51.332031 32.792969 50.488281 32.441406 50.289062 32.144531 C 50.1875 31.898438 50.238281 31.449219 50.4375 31.199219 C 50.585938 31.003906 50.984375 30.703125 51.234375 30.753906 C 51.582031 30.851562 52.175781 31.5 52.226562 31.847656 C 52.277344 32.09375 52.027344 32.394531 51.730469 32.640625 C 51.234375 33.039062 50.089844 33.238281 49.097656 33.488281 C 48.050781 33.785156 46.363281 34.230469 45.566406 34.132812 C 45.070312 34.082031 44.722656 34.082031 44.472656 33.734375 C 44.027344 33.238281 43.976562 31.796875 43.976562 30.65625 C 44.027344 29.3125 44.324219 26.976562 44.921875 26.230469 C 45.21875 25.785156 45.765625 25.535156 46.066406 25.585938 C 46.414062 25.683594 46.859375 26.679688 46.859375 26.679688 " clip-rule="nonzero"/></clipPath><clipPath id="5f8ff4a049"><path d="M 0.949219 0.554688 L 9.257812 0.554688 L 9.257812 9.152344 L 0.949219 9.152344 Z M 0.949219 0.554688 " clip-rule="nonzero"/></clipPath><clipPath id="889f559ff3"><path d="M 3.859375 1.679688 C 3.761719 8.089844 7.339844 5.554688 8.332031 5.804688 C 8.828125 5.902344 9.175781 6.300781 9.226562 6.597656 C 9.277344 6.945312 8.929688 7.542969 8.628906 7.691406 C 8.332031 7.792969 7.488281 7.441406 7.289062 7.144531 C 7.1875 6.898438 7.238281 6.449219 7.4375 6.199219 C 7.585938 6.003906 7.984375 5.703125 8.234375 5.753906 C 8.582031 5.851562 9.175781 6.5 9.226562 6.847656 C 9.277344 7.09375 9.027344 7.394531 8.730469 7.640625 C 8.234375 8.039062 7.089844 8.238281 6.097656 8.488281 C 5.050781 8.785156 3.363281 9.230469 2.566406 9.132812 C 2.070312 9.082031 1.722656 9.082031 1.472656 8.734375 C 1.027344 8.238281 0.976562 6.796875 0.976562 5.65625 C 1.027344 4.3125 1.324219 1.976562 1.921875 1.230469 C 2.21875 0.785156 2.765625 0.535156 3.066406 0.585938 C 3.414062 0.683594 3.859375 1.679688 3.859375 1.679688 " clip-rule="nonzero"/></clipPath><clipPath id="dc27603e9b"><rect x="0" width="10" y="0" height="10"/></clipPath><clipPath id="aaa4448385"><path d="M 17.175781 41.527344 L 20.121094 41.527344 L 20.121094 44.027344 L 17.175781 44.027344 Z M 17.175781 41.527344 " clip-rule="nonzero"/></clipPath><clipPath id="e3c0ec6254"><path d="M 20.121094 42.425781 C 18.8125 44.503906 17.582031 44.117188 17.273438 43.65625 C 17.042969 43.273438 17.273438 41.964844 17.65625 41.65625 C 18.042969 41.347656 19.734375 41.808594 19.734375 41.808594 " clip-rule="nonzero"/></clipPath><clipPath id="a684e8d691"><path d="M 0.175781 0.527344 L 3.121094 0.527344 L 3.121094 3.027344 L 0.175781 3.027344 Z M 0.175781 0.527344 " clip-rule="nonzero"/></clipPath><clipPath id="7bfdcaf81b"><path d="M 3.121094 1.425781 C 1.8125 3.503906 0.582031 3.117188 0.273438 2.65625 C 0.0429688 2.273438 0.273438 0.964844 0.65625 0.65625 C 1.042969 0.347656 2.734375 0.808594 2.734375 0.808594 " clip-rule="nonzero"/></clipPath><clipPath id="d02342243a"><rect x="0" width="4" y="0" height="4"/></clipPath><clipPath id="388a42303e"><path d="M 32.636719 41.527344 L 35.515625 41.527344 L 35.515625 44.027344 L 32.636719 44.027344 Z M 32.636719 41.527344 " clip-rule="nonzero"/></clipPath><clipPath id="51f70d05bb"><path d="M 35.503906 42.425781 C 34.195312 44.503906 32.964844 44.117188 32.734375 43.65625 C 32.503906 43.273438 32.734375 41.964844 33.117188 41.65625 C 33.503906 41.347656 35.117188 41.808594 35.117188 41.808594 " clip-rule="nonzero"/></clipPath><clipPath id="635f7f085e"><path d="M 0.636719 0.527344 L 3.515625 0.527344 L 3.515625 3.027344 L 0.636719 3.027344 Z M 0.636719 0.527344 " clip-rule="nonzero"/></clipPath><clipPath id="58704e804a"><path d="M 3.503906 1.425781 C 2.195312 3.503906 0.964844 3.117188 0.734375 2.65625 C 0.503906 2.273438 0.734375 0.964844 1.117188 0.65625 C 1.503906 0.347656 3.117188 0.808594 3.117188 0.808594 " clip-rule="nonzero"/></clipPath><clipPath id="c69e697243"><rect x="0" width="4" y="0" height="4"/></clipPath><clipPath id="9140ed2dca"><path d="M 38.875 3.242188 L 43.859375 3.242188 L 43.859375 23.421875 L 38.875 23.421875 Z M 38.875 3.242188 " clip-rule="nonzero"/></clipPath><clipPath id="1f86150a4f"><path d="M 40.511719 4.085938 C 41.480469 13.300781 44.527344 21.253906 43.707031 22.667969 C 43.484375 23.113281 42.59375 23.261719 42.445312 23.113281 C 42.296875 22.964844 42.445312 22.074219 42.667969 22 C 42.816406 21.851562 43.707031 22.296875 43.707031 22.519531 C 43.785156 22.742188 43.261719 23.335938 43.039062 23.410156 C 42.816406 23.410156 42.222656 22.890625 42.222656 22.667969 C 42.222656 22.371094 42.742188 21.851562 43.039062 21.925781 C 43.261719 21.925781 43.707031 22.742188 43.707031 22.667969 C 43.785156 22.667969 43.558594 22.148438 43.558594 22.148438 C 43.484375 22.148438 43.707031 22.964844 43.558594 23.113281 C 43.410156 23.335938 42.816406 23.410156 42.59375 23.261719 C 42.148438 23.039062 42 22.296875 41.703125 21.480469 C 41.03125 19.324219 39.917969 13.078125 39.472656 9.882812 C 39.175781 7.578125 38.65625 4.828125 39.027344 3.863281 C 39.25 3.492188 39.546875 3.195312 39.84375 3.269531 C 40.066406 3.269531 40.511719 4.085938 40.511719 4.085938 " clip-rule="nonzero"/></clipPath><clipPath id="a8a8616c19"><path d="M 0.875 0.242188 L 5.859375 0.242188 L 5.859375 20.421875 L 0.875 20.421875 Z M 0.875 0.242188 " clip-rule="nonzero"/></clipPath><clipPath id="8005f53c99"><path d="M 2.511719 1.085938 C 3.480469 10.300781 6.527344 18.253906 5.707031 19.667969 C 5.484375 20.113281 4.59375 20.261719 4.445312 20.113281 C 4.296875 19.964844 4.445312 19.074219 4.667969 19 C 4.816406 18.851562 5.707031 19.296875 5.707031 19.519531 C 5.785156 19.742188 5.261719 20.335938 5.039062 20.410156 C 4.816406 20.410156 4.222656 19.890625 4.222656 19.667969 C 4.222656 19.371094 4.742188 18.851562 5.039062 18.925781 C 5.261719 18.925781 5.707031 19.742188 5.707031 19.667969 C 5.785156 19.667969 5.558594 19.148438 5.558594 19.148438 C 5.484375 19.148438 5.707031 19.964844 5.558594 20.113281 C 5.410156 20.335938 4.816406 20.410156 4.59375 20.261719 C 4.148438 20.039062 4 19.296875 3.703125 18.480469 C 3.03125 16.324219 1.917969 10.078125 1.472656 6.882812 C 1.175781 4.578125 0.65625 1.828125 1.027344 0.863281 C 1.25 0.492188 1.546875 0.195312 1.84375 0.269531 C 2.066406 0.269531 2.511719 1.085938 2.511719 1.085938 " clip-rule="nonzero"/></clipPath><clipPath id="48b9d0791b"><rect x="0" width="6" y="0" height="21"/></clipPath></defs><g clip-path="url(#4f27b0c96c)"><g clip-path="url(#25d686d7c2)"><g transform="matrix(1, 0, 0, 1, 1, 29)"><g clip-path="url(#f1c646f8db)"><g clip-path="url(#43315dbae5)"><g clip-path="url(#9dbc28e5b8)"><rect x="-19.315" width="119.88" fill="#000000" height="174.959991" y="-55.729999" fill-opacity="1"/></g></g></g></g></g></g><g clip-path="url(#f8eff8eb1c)"><g clip-path="url(#e3fe5ed19c)"><g transform="matrix(1, 0, 0, 1, 22, 55)"><g clip-path="url(#564512389b)"><g clip-path="url(#b654c46f86)"><g clip-path="url(#071908157f)"><rect x="-40.315" width="119.88" fill="#000000" height="174.959991" y="-81.729999" fill-opacity="1"/></g></g></g></g></g></g><g clip-path="url(#425145e3de)"><g clip-path="url(#98a3ec2ba6)"><g transform="matrix(1, 0, 0, 1, 13, 100)"><g clip-path="url(#7ec44e38fa)"><g clip-path="url(#b1a85d23fd)"><g clip-path="url(#b7c982ba39)"><rect x="-31.315" width="119.88" fill="#000000" height="174.959991" y="-126.729999" fill-opacity="1"/></g></g></g></g></g></g><g clip-path="url(#047780fd44)"><g clip-path="url(#9d6553a262)"><g transform="matrix(1, 0, 0, 1, 12, 69)"><g clip-path="url(#62679c45f9)"><g clip-path="url(#b6770ce9c7)"><g clip-path="url(#b5169b9b6b)"><rect x="-30.315" width="119.88" fill="#000000" height="174.959991" y="-95.729999" fill-opacity="1"/></g></g></g></g></g></g><g clip-path="url(#f898fe6586)"><g clip-path="url(#a386e6b5f3)"><g transform="matrix(1, 0, 0, 1, 39, 2)"><g clip-path="url(#7d4219ff35)"><g clip-path="url(#6366c029e7)"><g clip-path="url(#be8c1ace69)"><rect x="-57.315" width="119.88" fill="#000000" height="174.959991" y="-28.729999" fill-opacity="1"/></g></g></g></g></g></g><g clip-path="url(#8801a425a3)"><g clip-path="url(#2a09da0597)"><g transform="matrix(1, 0, 0, 1, 55, 13)"><g clip-path="url(#953efb8c5f)"><g clip-path="url(#ba348a3607)"><g clip-path="url(#48aa91b196)"><rect x="-73.315" width="119.88" fill="#000000" height="174.959991" y="-39.729999" fill-opacity="1"/></g></g></g></g></g></g><g clip-path="url(#99646d175d)"><g clip-path="url(#01733e30c6)"><g transform="matrix(1, 0, 0, 1, 68, 4)"><g clip-path="url(#7d23f830fd)"><g clip-path="url(#ff722700f4)"><g clip-path="url(#60a4358291)"><rect x="-86.315" width="119.88" fill="#000000" height="174.959991" y="-30.729999" fill-opacity="1"/></g></g></g></g></g></g><g clip-path="url(#93f4be1da6)"><g clip-path="url(#f71f6a441c)"><g transform="matrix(1, 0, 0, 1, 43, 25)"><g clip-path="url(#dc27603e9b)"><g clip-path="url(#5f8ff4a049)"><g clip-path="url(#889f559ff3)"><rect x="-61.315" width="119.88" fill="#000000" height="174.959991" y="-51.729999" fill-opacity="1"/></g></g></g></g></g></g><g clip-path="url(#aaa4448385)"><g clip-path="url(#e3c0ec6254)"><g transform="matrix(1, 0, 0, 1, 17, 41)"><g clip-path="url(#d02342243a)"><g clip-path="url(#a684e8d691)"><g clip-path="url(#7bfdcaf81b)"><rect x="-35.315" width="119.88" fill="#000000" height="174.959991" y="-67.729999" fill-opacity="1"/></g></g></g></g></g></g><g clip-path="url(#388a42303e)"><g clip-path="url(#51f70d05bb)"><g transform="matrix(1, 0, 0, 1, 32, 41)"><g clip-path="url(#c69e697243)"><g clip-path="url(#635f7f085e)"><g clip-path="url(#58704e804a)"><rect x="-50.315" width="119.88" fill="#000000" height="174.959991" y="-67.729999" fill-opacity="1"/></g></g></g></g></g></g><g clip-path="url(#9140ed2dca)"><g clip-path="url(#1f86150a4f)"><g transform="matrix(1, 0, 0, 1, 38, 3)"><g clip-path="url(#48b9d0791b)"><g clip-path="url(#a8a8616c19)"><g clip-path="url(#8005f53c99)"><rect x="-56.315" width="119.88" fill="#000000" height="174.959991" y="-29.729999" fill-opacity="1"/></g></g></g></g></g></g></svg>