<svg xmlns="http://www.w3.org/2000/svg" xmlns:xlink="http://www.w3.org/1999/xlink" width="163" zoomAndPan="magnify" viewBox="0 0 122.25 187.499992" height="250" preserveAspectRatio="xMidYMid meet" version="1.0"><defs><clipPath id="24429de2cc"><path d="M 44.585938 0.324219 L 80.667969 0.324219 L 80.667969 36.40625 L 44.585938 36.40625 Z M 44.585938 0.324219 " clip-rule="nonzero"/></clipPath><clipPath id="1596ade269"><path d="M 62.625 0.324219 C 52.660156 0.324219 44.585938 8.402344 44.585938 18.363281 C 44.585938 28.328125 52.660156 36.40625 62.625 36.40625 C 72.589844 36.40625 80.667969 28.328125 80.667969 18.363281 C 80.667969 8.402344 72.589844 0.324219 62.625 0.324219 Z M 62.625 0.324219 " clip-rule="nonzero"/></clipPath><clipPath id="1663953483"><path d="M 0.585938 0.324219 L 36.667969 0.324219 L 36.667969 36.40625 L 0.585938 36.40625 Z M 0.585938 0.324219 " clip-rule="nonzero"/></clipPath><clipPath id="986e3e1e28"><path d="M 18.625 0.324219 C 8.660156 0.324219 0.585938 8.402344 0.585938 18.363281 C 0.585938 28.328125 8.660156 36.40625 18.625 36.40625 C 28.589844 36.40625 36.667969 28.328125 36.667969 18.363281 C 36.667969 8.402344 28.589844 0.324219 18.625 0.324219 Z M 18.625 0.324219 " clip-rule="nonzero"/></clipPath><clipPath id="0a39a917aa"><rect x="0" width="37" y="0" height="37"/></clipPath><clipPath id="f93b62a2a1"><path d="M 26.632812 36.40625 L 98.621094 36.40625 L 98.621094 111.394531 L 26.632812 111.394531 Z M 26.632812 36.40625 " clip-rule="nonzero"/></clipPath><clipPath id="6bc72627c9"><path d="M 0.632812 0.40625 L 72.621094 0.40625 L 72.621094 75.394531 L 0.632812 75.394531 Z M 0.632812 0.40625 " clip-rule="nonzero"/></clipPath><clipPath id="26af8da87a"><rect x="0" width="73" y="0" height="76"/></clipPath><clipPath id="c274c1c25f"><path d="M 33.964844 111.394531 L 55.203125 111.394531 L 55.203125 186.382812 L 33.964844 186.382812 Z M 33.964844 111.394531 " clip-rule="nonzero"/></clipPath><clipPath id="7de9c48181"><path d="M 0.964844 0.394531 L 22.203125 0.394531 L 22.203125 75.382812 L 0.964844 75.382812 Z M 0.964844 0.394531 " clip-rule="nonzero"/></clipPath><clipPath id="b8696c46ff"><rect x="0" width="23" y="0" height="76"/></clipPath><clipPath id="ae52d5ec41"><path d="M 70.050781 111.394531 L 91.285156 111.394531 L 91.285156 186.382812 L 70.050781 186.382812 Z M 70.050781 111.394531 " clip-rule="nonzero"/></clipPath><clipPath id="2a7751ebff"><path d="M 0.0507812 0.394531 L 21.285156 0.394531 L 21.285156 75.382812 L 0.0507812 75.382812 Z M 0.0507812 0.394531 " clip-rule="nonzero"/></clipPath><clipPath id="258358b3ef"><rect x="0" width="22" y="0" height="76"/></clipPath><clipPath id="34eb5e9e47"><path d="M 0 45 L 45 45 L 45 119 L 0 119 Z M 0 45 " clip-rule="nonzero"/></clipPath><clipPath id="a61f609e6b"><path d="M 33.183594 45.25 L 44.582031 50.875 L 11.398438 118.117188 L 0 112.492188 Z M 33.183594 45.25 " clip-rule="nonzero"/></clipPath><clipPath id="1d45213491"><path d="M 0 0.167969 L 44.605469 0.167969 L 44.605469 73.160156 L 0 73.160156 Z M 0 0.167969 " clip-rule="nonzero"/></clipPath><clipPath id="422f4f9f8f"><path d="M 33.183594 0.25 L 44.582031 5.875 L 11.398438 73.117188 L 0 67.492188 Z M 33.183594 0.25 " clip-rule="nonzero"/></clipPath><clipPath id="3f3a6e855c"><rect x="0" width="45" y="0" height="74"/></clipPath><clipPath id="782bda0495"><path d="M 76 45 L 121.503906 45 L 121.503906 119 L 76 119 Z M 76 45 " clip-rule="nonzero"/></clipPath><clipPath id="f19bd52d30"><path d="M 76.140625 51.074219 L 87.503906 45.378906 L 121.097656 112.421875 L 109.734375 118.117188 Z M 76.140625 51.074219 " clip-rule="nonzero"/></clipPath><clipPath id="08b2d636c5"><path d="M 0.09375 0.167969 L 45.175781 0.167969 L 45.175781 73.160156 L 0.09375 73.160156 Z M 0.09375 0.167969 " clip-rule="nonzero"/></clipPath><clipPath id="f7cb53f78a"><path d="M 0.140625 6.074219 L 11.503906 0.378906 L 45.097656 67.421875 L 33.734375 73.117188 Z M 0.140625 6.074219 " clip-rule="nonzero"/></clipPath><clipPath id="f6aa3b7998"><rect x="0" width="46" y="0" height="74"/></clipPath><clipPath id="41fd2c5464"><path d="M 49.367188 6.296875 L 75.851562 6.296875 L 75.851562 32.78125 L 49.367188 32.78125 Z M 49.367188 6.296875 " clip-rule="nonzero"/></clipPath><clipPath id="8166dd5ea2"><path d="M 62.609375 6.296875 C 55.296875 6.296875 49.367188 12.226562 49.367188 19.539062 C 49.367188 26.851562 55.296875 32.78125 62.609375 32.78125 C 69.921875 32.78125 75.851562 26.851562 75.851562 19.539062 C 75.851562 12.226562 69.921875 6.296875 62.609375 6.296875 Z M 62.609375 6.296875 " clip-rule="nonzero"/></clipPath><clipPath id="1f020fa119"><path d="M 0.367188 0.296875 L 26.851562 0.296875 L 26.851562 26.78125 L 0.367188 26.78125 Z M 0.367188 0.296875 " clip-rule="nonzero"/></clipPath><clipPath id="ddfbfd31de"><path d="M 13.609375 0.296875 C 6.296875 0.296875 0.367188 6.226562 0.367188 13.539062 C 0.367188 20.851562 6.296875 26.78125 13.609375 26.78125 C 20.921875 26.78125 26.851562 20.851562 26.851562 13.539062 C 26.851562 6.226562 20.921875 0.296875 13.609375 0.296875 Z M 13.609375 0.296875 " clip-rule="nonzero"/></clipPath><clipPath id="7d33dff471"><rect x="0" width="27" y="0" height="27"/></clipPath><clipPath id="11b923d2c6"><path d="M 52.910156 9.835938 L 72.3125 9.835938 L 72.3125 29.238281 L 52.910156 29.238281 Z M 52.910156 9.835938 " clip-rule="nonzero"/></clipPath><clipPath id="990032ab2c"><path d="M 62.609375 9.835938 C 57.25 9.835938 52.910156 14.179688 52.910156 19.539062 C 52.910156 24.898438 57.25 29.238281 62.609375 29.238281 C 67.96875 29.238281 72.3125 24.898438 72.3125 19.539062 C 72.3125 14.179688 67.96875 9.835938 62.609375 9.835938 Z M 62.609375 9.835938 " clip-rule="nonzero"/></clipPath><clipPath id="170f16016e"><path d="M 0.910156 0.835938 L 20.3125 0.835938 L 20.3125 20.238281 L 0.910156 20.238281 Z M 0.910156 0.835938 " clip-rule="nonzero"/></clipPath><clipPath id="b4991a6bc1"><path d="M 10.609375 0.835938 C 5.25 0.835938 0.910156 5.179688 0.910156 10.539062 C 0.910156 15.898438 5.25 20.238281 10.609375 20.238281 C 15.96875 20.238281 20.3125 15.898438 20.3125 10.539062 C 20.3125 5.179688 15.96875 0.835938 10.609375 0.835938 Z M 10.609375 0.835938 " clip-rule="nonzero"/></clipPath><clipPath id="694396a7e4"><rect x="0" width="21" y="0" height="21"/></clipPath><clipPath id="4b3f40328e"><path d="M 62.609375 9.835938 L 73.292969 9.835938 L 73.292969 20.519531 L 62.609375 20.519531 Z M 62.609375 9.835938 " clip-rule="nonzero"/></clipPath><clipPath id="abaca62d6b"><path d="M 0.609375 0.835938 L 11.292969 0.835938 L 11.292969 11.519531 L 0.609375 11.519531 Z M 0.609375 0.835938 " clip-rule="nonzero"/></clipPath><clipPath id="f579407f87"><rect x="0" width="12" y="0" height="12"/></clipPath><clipPath id="14cc8454fb"><path d="M 52.910156 20.445312 L 62.609375 20.445312 L 62.609375 30.148438 L 52.910156 30.148438 Z M 52.910156 20.445312 " clip-rule="nonzero"/></clipPath><clipPath id="3141ed86cb"><path d="M 0.910156 0.445312 L 10.609375 0.445312 L 10.609375 10.148438 L 0.910156 10.148438 Z M 0.910156 0.445312 " clip-rule="nonzero"/></clipPath><clipPath id="7c6c5b57e3"><rect x="0" width="11" y="0" height="11"/></clipPath><clipPath id="da733b4e8d"><path d="M 49.898438 28.332031 L 58.261719 28.332031 L 58.261719 34.847656 L 49.898438 34.847656 Z M 49.898438 28.332031 " clip-rule="nonzero"/></clipPath><clipPath id="bf7ca156d1"><path d="M 52 28.347656 C 58.410156 33.269531 58.1875 34.089844 57.8125 34.460938 C 57.515625 34.757812 56.472656 34.832031 56.023438 34.609375 C 55.652344 34.386719 55.351562 33.789062 55.351562 33.417969 C 55.351562 32.96875 55.578125 32.300781 55.949219 32.148438 C 56.398438 31.925781 57.738281 32.148438 58.113281 32.523438 C 58.335938 32.894531 58.261719 33.9375 57.960938 34.3125 C 57.664062 34.683594 57.21875 34.90625 56.621094 34.832031 C 55.351562 34.683594 51.328125 32.222656 50.433594 30.882812 C 49.988281 30.136719 49.761719 29.09375 50.0625 28.722656 C 50.359375 28.273438 52 28.347656 52 28.347656 " clip-rule="nonzero"/></clipPath><clipPath id="1d28222ec0"><path d="M 0.898438 0.332031 L 9.261719 0.332031 L 9.261719 6.847656 L 0.898438 6.847656 Z M 0.898438 0.332031 " clip-rule="nonzero"/></clipPath><clipPath id="284cc0ba9a"><path d="M 3 0.347656 C 9.410156 5.269531 9.1875 6.089844 8.8125 6.460938 C 8.515625 6.757812 7.472656 6.832031 7.023438 6.609375 C 6.652344 6.386719 6.351562 5.789062 6.351562 5.417969 C 6.351562 4.96875 6.578125 4.300781 6.949219 4.148438 C 7.398438 3.925781 8.738281 4.148438 9.113281 4.523438 C 9.335938 4.894531 9.261719 5.9375 8.960938 6.3125 C 8.664062 6.683594 8.21875 6.90625 7.621094 6.832031 C 6.351562 6.683594 2.328125 4.222656 1.433594 2.882812 C 0.988281 2.136719 0.761719 1.09375 1.0625 0.722656 C 1.359375 0.273438 3 0.347656 3 0.347656 " clip-rule="nonzero"/></clipPath><clipPath id="c94cd24406"><rect x="0" width="10" y="0" height="7"/></clipPath><clipPath id="9cfb9741c7"><path d="M 49.707031 27.550781 L 58.777344 27.550781 L 58.777344 34.785156 L 49.707031 34.785156 Z M 49.707031 27.550781 " clip-rule="nonzero"/></clipPath><clipPath id="746c7e6ea5"><path d="M 52.074219 27.828125 C 58.78125 32.894531 58.707031 33.9375 58.335938 34.386719 C 58.113281 34.683594 57.441406 34.832031 56.992188 34.683594 C 56.621094 34.609375 56.097656 34.238281 55.949219 33.789062 C 55.800781 33.34375 56.097656 32.375 56.472656 32.074219 C 56.769531 31.777344 57.441406 31.628906 57.8125 31.851562 C 58.261719 32.074219 58.855469 33.34375 58.707031 33.863281 C 58.558594 34.238281 57.886719 34.757812 57.140625 34.757812 C 55.652344 34.683594 50.730469 31.40625 49.988281 29.914062 C 49.613281 29.167969 49.6875 28.050781 50.0625 27.675781 C 50.433594 27.378906 52.074219 27.828125 52.074219 27.828125 " clip-rule="nonzero"/></clipPath><clipPath id="125187d3d1"><path d="M 0.707031 0.550781 L 9.777344 0.550781 L 9.777344 7.785156 L 0.707031 7.785156 Z M 0.707031 0.550781 " clip-rule="nonzero"/></clipPath><clipPath id="a75e8d7972"><path d="M 3.074219 0.828125 C 9.78125 5.894531 9.707031 6.9375 9.335938 7.386719 C 9.113281 7.683594 8.441406 7.832031 7.992188 7.683594 C 7.621094 7.609375 7.097656 7.238281 6.949219 6.789062 C 6.800781 6.34375 7.097656 5.375 7.472656 5.074219 C 7.769531 4.777344 8.441406 4.628906 8.8125 4.851562 C 9.261719 5.074219 9.855469 6.34375 9.707031 6.863281 C 9.558594 7.238281 8.886719 7.757812 8.140625 7.757812 C 6.652344 7.683594 1.730469 4.40625 0.988281 2.914062 C 0.613281 2.167969 0.6875 1.050781 1.0625 0.675781 C 1.433594 0.378906 3.074219 0.828125 3.074219 0.828125 " clip-rule="nonzero"/></clipPath><clipPath id="52c1eb48fe"><rect x="0" width="10" y="0" height="8"/></clipPath><clipPath id="0a8e29a47d"><path d="M 70.382812 6.804688 L 76.242188 6.804688 L 76.242188 12.574219 L 70.382812 12.574219 Z M 70.382812 6.804688 " clip-rule="nonzero"/></clipPath><clipPath id="2ebe8b17f6"><path d="M 73.988281 12.46875 C 70.335938 8.074219 70.710938 7.328125 71.082031 7.027344 C 71.453125 6.804688 72.5 6.878906 72.871094 7.179688 C 73.242188 7.402344 73.394531 8.074219 73.394531 8.519531 C 73.316406 8.894531 72.945312 9.414062 72.574219 9.636719 C 72.199219 9.785156 71.527344 9.785156 71.15625 9.5625 C 70.785156 9.414062 70.410156 8.816406 70.410156 8.445312 C 70.335938 8 70.632812 7.402344 70.933594 7.105469 C 71.304688 6.878906 71.828125 6.730469 72.347656 6.878906 C 73.316406 7.179688 75.554688 9.265625 76 10.308594 C 76.300781 10.980469 76.300781 11.949219 75.925781 12.320312 C 75.628906 12.695312 73.988281 12.46875 73.988281 12.46875 " clip-rule="nonzero"/></clipPath><clipPath id="8ce33ee17d"><path d="M 0.382812 0.804688 L 6.242188 0.804688 L 6.242188 6.574219 L 0.382812 6.574219 Z M 0.382812 0.804688 " clip-rule="nonzero"/></clipPath><clipPath id="cfdab444d9"><path d="M 3.988281 6.46875 C 0.335938 2.074219 0.710938 1.328125 1.082031 1.027344 C 1.453125 0.804688 2.5 0.878906 2.871094 1.179688 C 3.242188 1.402344 3.394531 2.074219 3.394531 2.519531 C 3.316406 2.894531 2.945312 3.414062 2.574219 3.636719 C 2.199219 3.785156 1.527344 3.785156 1.15625 3.5625 C 0.785156 3.414062 0.410156 2.816406 0.410156 2.445312 C 0.335938 2 0.632812 1.402344 0.933594 1.105469 C 1.304688 0.878906 1.828125 0.730469 2.347656 0.878906 C 3.316406 1.179688 5.554688 3.265625 6 4.308594 C 6.300781 4.980469 6.300781 5.949219 5.925781 6.320312 C 5.628906 6.695312 3.988281 6.46875 3.988281 6.46875 " clip-rule="nonzero"/></clipPath><clipPath id="439031ea4a"><rect x="0" width="7" y="0" height="7"/></clipPath><clipPath id="291edefc2a"><path d="M 32.296875 41.644531 L 91.871094 41.644531 L 91.871094 101.21875 L 32.296875 101.21875 Z M 32.296875 41.644531 " clip-rule="nonzero"/></clipPath><clipPath id="ce9f0f529e"><path d="M 62.082031 41.644531 C 45.632812 41.644531 32.296875 54.980469 32.296875 71.429688 C 32.296875 87.882812 45.632812 101.21875 62.082031 101.21875 C 78.535156 101.21875 91.871094 87.882812 91.871094 71.429688 C 91.871094 54.980469 78.535156 41.644531 62.082031 41.644531 Z M 62.082031 41.644531 " clip-rule="nonzero"/></clipPath><clipPath id="9de193affb"><path d="M 0.296875 0.644531 L 59.871094 0.644531 L 59.871094 60.21875 L 0.296875 60.21875 Z M 0.296875 0.644531 " clip-rule="nonzero"/></clipPath><clipPath id="fcf34efa62"><path d="M 30.082031 0.644531 C 13.632812 0.644531 0.296875 13.980469 0.296875 30.429688 C 0.296875 46.882812 13.632812 60.21875 30.082031 60.21875 C 46.535156 60.21875 59.871094 46.882812 59.871094 30.429688 C 59.871094 13.980469 46.535156 0.644531 30.082031 0.644531 Z M 30.082031 0.644531 " clip-rule="nonzero"/></clipPath><clipPath id="860636127e"><rect x="0" width="60" y="0" height="61"/></clipPath><clipPath id="769f601de4"><path d="M 40.261719 49.609375 L 83.90625 49.609375 L 83.90625 93.253906 L 40.261719 93.253906 Z M 40.261719 49.609375 " clip-rule="nonzero"/></clipPath><clipPath id="e3327deba9"><path d="M 62.082031 49.609375 C 50.03125 49.609375 40.261719 59.378906 40.261719 71.429688 C 40.261719 83.484375 50.03125 93.253906 62.082031 93.253906 C 74.136719 93.253906 83.90625 83.484375 83.90625 71.429688 C 83.90625 59.378906 74.136719 49.609375 62.082031 49.609375 Z M 62.082031 49.609375 " clip-rule="nonzero"/></clipPath><clipPath id="fb1e5b396c"><path d="M 0.261719 0.609375 L 43.90625 0.609375 L 43.90625 44.253906 L 0.261719 44.253906 Z M 0.261719 0.609375 " clip-rule="nonzero"/></clipPath><clipPath id="4711a4f27c"><path d="M 22.082031 0.609375 C 10.03125 0.609375 0.261719 10.378906 0.261719 22.429688 C 0.261719 34.484375 10.03125 44.253906 22.082031 44.253906 C 34.136719 44.253906 43.90625 34.484375 43.90625 22.429688 C 43.90625 10.378906 34.136719 0.609375 22.082031 0.609375 Z M 22.082031 0.609375 " clip-rule="nonzero"/></clipPath><clipPath id="023469b644"><rect x="0" width="44" y="0" height="45"/></clipPath><clipPath id="9375540ea9"><path d="M 62.082031 49.609375 L 86.113281 49.609375 L 86.113281 73.640625 L 62.082031 73.640625 Z M 62.082031 49.609375 " clip-rule="nonzero"/></clipPath><clipPath id="d9aacfdddd"><path d="M 0.0820312 0.609375 L 24.113281 0.609375 L 24.113281 24.640625 L 0.0820312 24.640625 Z M 0.0820312 0.609375 " clip-rule="nonzero"/></clipPath><clipPath id="51c39eb6fb"><rect x="0" width="25" y="0" height="25"/></clipPath><clipPath id="58bd8a508d"><path d="M 40.261719 73.472656 L 62.082031 73.472656 L 62.082031 95.292969 L 40.261719 95.292969 Z M 40.261719 73.472656 " clip-rule="nonzero"/></clipPath><clipPath id="f563df4627"><path d="M 0.261719 0.472656 L 22.082031 0.472656 L 22.082031 22.292969 L 0.261719 22.292969 Z M 0.261719 0.472656 " clip-rule="nonzero"/></clipPath><clipPath id="a053e82a58"><rect x="0" width="23" y="0" height="23"/></clipPath><clipPath id="4db7bc6415"><path d="M 33.492188 91.210938 L 52.304688 91.210938 L 52.304688 105.867188 L 33.492188 105.867188 Z M 33.492188 91.210938 " clip-rule="nonzero"/></clipPath><clipPath id="8141f12761"><path d="M 38.214844 91.246094 C 52.636719 102.3125 52.132812 104.15625 51.292969 104.996094 C 50.625 105.667969 48.277344 105.835938 47.269531 105.332031 C 46.429688 104.828125 45.761719 103.488281 45.761719 102.648438 C 45.761719 101.640625 46.261719 100.132812 47.101562 99.796875 C 48.109375 99.292969 51.125 99.796875 51.964844 100.636719 C 52.46875 101.476562 52.300781 103.820312 51.628906 104.660156 C 50.957031 105.5 49.953125 106.003906 48.609375 105.835938 C 45.761719 105.5 36.707031 99.964844 34.695312 96.949219 C 33.6875 95.269531 33.183594 92.921875 33.855469 92.085938 C 34.527344 91.078125 38.214844 91.246094 38.214844 91.246094 " clip-rule="nonzero"/></clipPath><clipPath id="26b7b6a31f"><path d="M 0.492188 0.210938 L 19.304688 0.210938 L 19.304688 14.867188 L 0.492188 14.867188 Z M 0.492188 0.210938 " clip-rule="nonzero"/></clipPath><clipPath id="ff2fbb664b"><path d="M 5.214844 0.246094 C 19.636719 11.3125 19.132812 13.15625 18.292969 13.996094 C 17.625 14.667969 15.277344 14.835938 14.269531 14.332031 C 13.429688 13.828125 12.761719 12.488281 12.761719 11.648438 C 12.761719 10.640625 13.261719 9.132812 14.101562 8.796875 C 15.109375 8.292969 18.125 8.796875 18.964844 9.636719 C 19.46875 10.476562 19.300781 12.820312 18.628906 13.660156 C 17.957031 14.5 16.953125 15.003906 15.609375 14.835938 C 12.761719 14.5 3.707031 8.964844 1.695312 5.949219 C 0.6875 4.269531 0.183594 1.921875 0.855469 1.085938 C 1.527344 0.078125 5.214844 0.246094 5.214844 0.246094 " clip-rule="nonzero"/></clipPath><clipPath id="431bf8f9f5"><rect x="0" width="20" y="0" height="15"/></clipPath><clipPath id="a368bd0255"><path d="M 33.054688 89.449219 L 53.457031 89.449219 L 53.457031 105.726562 L 33.054688 105.726562 Z M 33.054688 89.449219 " clip-rule="nonzero"/></clipPath><clipPath id="5b72c035a2"><path d="M 38.382812 90.074219 C 53.472656 101.476562 53.304688 103.820312 52.46875 104.828125 C 51.964844 105.5 50.457031 105.835938 49.449219 105.5 C 48.609375 105.332031 47.4375 104.492188 47.101562 103.488281 C 46.765625 102.480469 47.4375 100.300781 48.277344 99.628906 C 48.945312 98.960938 50.457031 98.625 51.292969 99.128906 C 52.300781 99.628906 53.640625 102.480469 53.304688 103.65625 C 52.972656 104.492188 51.460938 105.667969 49.785156 105.667969 C 46.429688 105.5 35.363281 98.121094 33.6875 94.765625 C 32.847656 93.089844 33.015625 90.574219 33.855469 89.738281 C 34.695312 89.066406 38.382812 90.074219 38.382812 90.074219 " clip-rule="nonzero"/></clipPath><clipPath id="c07378f93b"><path d="M 0.0546875 0.449219 L 20.457031 0.449219 L 20.457031 16.726562 L 0.0546875 16.726562 Z M 0.0546875 0.449219 " clip-rule="nonzero"/></clipPath><clipPath id="a5fe90cd72"><path d="M 5.382812 1.074219 C 20.472656 12.476562 20.304688 14.820312 19.46875 15.828125 C 18.964844 16.5 17.457031 16.835938 16.449219 16.5 C 15.609375 16.332031 14.4375 15.492188 14.101562 14.488281 C 13.765625 13.480469 14.4375 11.300781 15.277344 10.628906 C 15.945312 9.960938 17.457031 9.625 18.292969 10.128906 C 19.300781 10.628906 20.640625 13.480469 20.304688 14.65625 C 19.972656 15.492188 18.460938 16.667969 16.785156 16.667969 C 13.429688 16.5 2.363281 9.121094 0.6875 5.765625 C -0.152344 4.089844 0.015625 1.574219 0.855469 0.738281 C 1.695312 0.0664062 5.382812 1.074219 5.382812 1.074219 " clip-rule="nonzero"/></clipPath><clipPath id="48de974e4a"><rect x="0" width="21" y="0" height="17"/></clipPath><clipPath id="4d5cea67da"><path d="M 79.566406 42.789062 L 92.746094 42.789062 L 92.746094 55.765625 L 79.566406 55.765625 Z M 79.566406 42.789062 " clip-rule="nonzero"/></clipPath><clipPath id="b3e21c2f4a"><path d="M 87.679688 55.53125 C 79.464844 45.636719 80.300781 43.960938 81.140625 43.289062 C 81.980469 42.789062 84.328125 42.953125 85.164062 43.625 C 86.003906 44.128906 86.339844 45.636719 86.339844 46.644531 C 86.171875 47.480469 85.332031 48.65625 84.496094 49.160156 C 83.65625 49.496094 82.148438 49.496094 81.308594 48.992188 C 80.46875 48.65625 79.632812 47.316406 79.632812 46.476562 C 79.464844 45.46875 80.132812 44.128906 80.804688 43.457031 C 81.644531 42.953125 82.816406 42.621094 83.992188 42.953125 C 86.171875 43.625 91.203125 48.320312 92.207031 50.667969 C 92.878906 52.175781 92.878906 54.355469 92.039062 55.195312 C 91.367188 56.035156 87.679688 55.53125 87.679688 55.53125 " clip-rule="nonzero"/></clipPath><clipPath id="af9b7a4ada"><path d="M 0.566406 0.789062 L 13.746094 0.789062 L 13.746094 13.765625 L 0.566406 13.765625 Z M 0.566406 0.789062 " clip-rule="nonzero"/></clipPath><clipPath id="046705e69a"><path d="M 8.679688 13.53125 C 0.464844 3.636719 1.300781 1.960938 2.140625 1.289062 C 2.980469 0.789062 5.328125 0.953125 6.164062 1.625 C 7.003906 2.128906 7.339844 3.636719 7.339844 4.644531 C 7.171875 5.480469 6.332031 6.65625 5.496094 7.160156 C 4.65625 7.496094 3.148438 7.496094 2.308594 6.992188 C 1.46875 6.65625 0.632812 5.316406 0.632812 4.476562 C 0.464844 3.46875 1.132812 2.128906 1.804688 1.457031 C 2.644531 0.953125 3.816406 0.621094 4.992188 0.953125 C 7.171875 1.625 12.203125 6.320312 13.207031 8.667969 C 13.878906 10.175781 13.878906 12.355469 13.039062 13.195312 C 12.367188 14.035156 8.679688 13.53125 8.679688 13.53125 " clip-rule="nonzero"/></clipPath><clipPath id="79148075bb"><rect x="0" width="14" y="0" height="14"/></clipPath></defs><g clip-path="url(#24429de2cc)"><g clip-path="url(#1596ade269)"><g transform="matrix(1, 0, 0, 1, 44, -0.000000000000008493)"><g clip-path="url(#0a39a917aa)"><g clip-path="url(#1663953483)"><g clip-path="url(#986e3e1e28)"><path fill="#ffde59" d="M 0.585938 0.324219 L 36.667969 0.324219 L 36.667969 36.40625 L 0.585938 36.40625 Z M 0.585938 0.324219 " fill-opacity="1" fill-rule="nonzero"/></g></g></g></g></g></g><g clip-path="url(#f93b62a2a1)"><g transform="matrix(1, 0, 0, 1, 26, 36)"><g clip-path="url(#26af8da87a)"><g clip-path="url(#6bc72627c9)"><path fill="#ffde59" d="M 0.632812 0.40625 L 72.621094 0.40625 L 72.621094 75.488281 L 0.632812 75.488281 Z M 0.632812 0.40625 " fill-opacity="1" fill-rule="nonzero"/></g></g></g></g><g clip-path="url(#c274c1c25f)"><g transform="matrix(1, 0, 0, 1, 33, 111)"><g clip-path="url(#b8696c46ff)"><g clip-path="url(#7de9c48181)"><path fill="#ffde59" d="M 0.964844 0.394531 L 22.203125 0.394531 L 22.203125 75.390625 L 0.964844 75.390625 Z M 0.964844 0.394531 " fill-opacity="1" fill-rule="nonzero"/></g></g></g></g><g clip-path="url(#ae52d5ec41)"><g transform="matrix(1, 0, 0, 1, 70, 111)"><g clip-path="url(#258358b3ef)"><g clip-path="url(#2a7751ebff)"><path fill="#ffde59" d="M 0.0507812 0.394531 L 21.285156 0.394531 L 21.285156 75.390625 L 0.0507812 75.390625 Z M 0.0507812 0.394531 " fill-opacity="1" fill-rule="nonzero"/></g></g></g></g><g clip-path="url(#34eb5e9e47)"><g clip-path="url(#a61f609e6b)"><g transform="matrix(1, 0, 0, 1, 0, 45)"><g clip-path="url(#3f3a6e855c)"><g clip-path="url(#1d45213491)"><g clip-path="url(#422f4f9f8f)"><path fill="#ffde59" d="M 33.183594 0.25 L 44.582031 5.875 L 11.402344 73.105469 L 0.00390625 67.480469 Z M 33.183594 0.25 " fill-opacity="1" fill-rule="nonzero"/></g></g></g></g></g></g><g clip-path="url(#782bda0495)"><g clip-path="url(#f19bd52d30)"><g transform="matrix(1, 0, 0, 1, 76, 45)"><g clip-path="url(#f6aa3b7998)"><g clip-path="url(#08b2d636c5)"><g clip-path="url(#f7cb53f78a)"><path fill="#ffde59" d="M 0.140625 6.074219 L 11.503906 0.378906 L 45.09375 67.410156 L 33.730469 73.101562 Z M 0.140625 6.074219 " fill-opacity="1" fill-rule="nonzero"/></g></g></g></g></g></g><g clip-path="url(#41fd2c5464)"><g clip-path="url(#8166dd5ea2)"><g transform="matrix(1, 0, 0, 1, 49, 6)"><g clip-path="url(#7d33dff471)"><g clip-path="url(#1f020fa119)"><g clip-path="url(#ddfbfd31de)"><path fill="#000000" d="M 0.367188 0.296875 L 26.851562 0.296875 L 26.851562 26.78125 L 0.367188 26.78125 Z M 0.367188 0.296875 " fill-opacity="1" fill-rule="nonzero"/></g></g></g></g></g></g><g clip-path="url(#11b923d2c6)"><g clip-path="url(#990032ab2c)"><g transform="matrix(1, 0, 0, 1, 52, 9)"><g clip-path="url(#694396a7e4)"><g clip-path="url(#170f16016e)"><g clip-path="url(#b4991a6bc1)"><path fill="#ffde59" d="M 0.910156 0.835938 L 20.3125 0.835938 L 20.3125 20.238281 L 0.910156 20.238281 Z M 0.910156 0.835938 " fill-opacity="1" fill-rule="nonzero"/></g></g></g></g></g></g><g clip-path="url(#4b3f40328e)"><g transform="matrix(1, 0, 0, 1, 62, 9)"><g clip-path="url(#f579407f87)"><g clip-path="url(#abaca62d6b)"><path fill="#000000" d="M 0.609375 0.835938 L 11.292969 0.835938 L 11.292969 11.519531 L 0.609375 11.519531 Z M 0.609375 0.835938 " fill-opacity="1" fill-rule="nonzero"/></g></g></g></g><g clip-path="url(#14cc8454fb)"><g transform="matrix(1, 0, 0, 1, 52, 20)"><g clip-path="url(#7c6c5b57e3)"><g clip-path="url(#3141ed86cb)"><path fill="#000000" d="M 0.910156 0.445312 L 10.609375 0.445312 L 10.609375 10.148438 L 0.910156 10.148438 Z M 0.910156 0.445312 " fill-opacity="1" fill-rule="nonzero"/></g></g></g></g><g clip-path="url(#da733b4e8d)"><g clip-path="url(#bf7ca156d1)"><g transform="matrix(1, 0, 0, 1, 49, 28)"><g clip-path="url(#c94cd24406)"><g clip-path="url(#1d28222ec0)"><g clip-path="url(#284cc0ba9a)"><rect x="-75.895" width="176.04" fill="#ffde59" height="269.999988" y="-69.249998" fill-opacity="1"/></g></g></g></g></g></g><g clip-path="url(#9cfb9741c7)"><g clip-path="url(#746c7e6ea5)"><g transform="matrix(1, 0, 0, 1, 49, 27)"><g clip-path="url(#52c1eb48fe)"><g clip-path="url(#125187d3d1)"><g clip-path="url(#a75e8d7972)"><rect x="-75.895" width="176.04" fill="#ffde59" height="269.999988" y="-68.249998" fill-opacity="1"/></g></g></g></g></g></g><g clip-path="url(#0a8e29a47d)"><g clip-path="url(#2ebe8b17f6)"><g transform="matrix(1, 0, 0, 1, 70, 6)"><g clip-path="url(#439031ea4a)"><g clip-path="url(#8ce33ee17d)"><g clip-path="url(#cfdab444d9)"><rect x="-96.895" width="176.04" fill="#ffde59" height="269.999988" y="-47.249998" fill-opacity="1"/></g></g></g></g></g></g><g clip-path="url(#291edefc2a)"><g clip-path="url(#ce9f0f529e)"><g transform="matrix(1, 0, 0, 1, 32, 41)"><g clip-path="url(#860636127e)"><g clip-path="url(#9de193affb)"><g clip-path="url(#fcf34efa62)"><path fill="#000000" d="M 0.296875 0.644531 L 59.871094 0.644531 L 59.871094 60.21875 L 0.296875 60.21875 Z M 0.296875 0.644531 " fill-opacity="1" fill-rule="nonzero"/></g></g></g></g></g></g><g clip-path="url(#769f601de4)"><g clip-path="url(#e3327deba9)"><g transform="matrix(1, 0, 0, 1, 40, 49)"><g clip-path="url(#023469b644)"><g clip-path="url(#fb1e5b396c)"><g clip-path="url(#4711a4f27c)"><path fill="#ffde59" d="M 0.261719 0.609375 L 43.90625 0.609375 L 43.90625 44.253906 L 0.261719 44.253906 Z M 0.261719 0.609375 " fill-opacity="1" fill-rule="nonzero"/></g></g></g></g></g></g><g clip-path="url(#9375540ea9)"><g transform="matrix(1, 0, 0, 1, 62, 49)"><g clip-path="url(#51c39eb6fb)"><g clip-path="url(#d9aacfdddd)"><path fill="#000000" d="M 0.0820312 0.609375 L 24.113281 0.609375 L 24.113281 24.640625 L 0.0820312 24.640625 Z M 0.0820312 0.609375 " fill-opacity="1" fill-rule="nonzero"/></g></g></g></g><g clip-path="url(#58bd8a508d)"><g transform="matrix(1, 0, 0, 1, 40, 73)"><g clip-path="url(#a053e82a58)"><g clip-path="url(#f563df4627)"><path fill="#000000" d="M 0.261719 0.472656 L 22.082031 0.472656 L 22.082031 22.292969 L 0.261719 22.292969 Z M 0.261719 0.472656 " fill-opacity="1" fill-rule="nonzero"/></g></g></g></g><g clip-path="url(#4db7bc6415)"><g clip-path="url(#8141f12761)"><g transform="matrix(1, 0, 0, 1, 33, 91)"><g clip-path="url(#431bf8f9f5)"><g clip-path="url(#26b7b6a31f)"><g clip-path="url(#ff2fbb664b)"><rect x="-59.895" width="176.04" fill="#ffde59" height="269.999988" y="-132.249998" fill-opacity="1"/></g></g></g></g></g></g><g clip-path="url(#a368bd0255)"><g clip-path="url(#5b72c035a2)"><g transform="matrix(1, 0, 0, 1, 33, 89)"><g clip-path="url(#48de974e4a)"><g clip-path="url(#c07378f93b)"><g clip-path="url(#a5fe90cd72)"><rect x="-59.895" width="176.04" fill="#ffde59" height="269.999988" y="-130.249998" fill-opacity="1"/></g></g></g></g></g></g><g clip-path="url(#4d5cea67da)"><g clip-path="url(#b3e21c2f4a)"><g transform="matrix(1, 0, 0, 1, 79, 42)"><g clip-path="url(#79148075bb)"><g clip-path="url(#af9b7a4ada)"><g clip-path="url(#046705e69a)"><rect x="-105.895" width="176.04" fill="#ffde59" height="269.999988" y="-83.249998" fill-opacity="1"/></g></g></g></g></g></g></svg>