<svg xmlns="http://www.w3.org/2000/svg" xmlns:xlink="http://www.w3.org/1999/xlink" width="118" zoomAndPan="magnify" viewBox="0 0 88.5 188.250001" height="251" preserveAspectRatio="xMidYMid meet" version="1.0"><defs><clipPath id="881038d87f"><path d="M 14.9375 55.289062 L 67.886719 55.289062 L 67.886719 171.121094 L 14.9375 171.121094 Z M 14.9375 55.289062 " clip-rule="nonzero"/></clipPath><clipPath id="e176e636ab"><path d="M 0.9375 0.289062 L 53.886719 0.289062 L 53.886719 116.121094 L 0.9375 116.121094 Z M 0.9375 0.289062 " clip-rule="nonzero"/></clipPath><clipPath id="9ba3072db9"><rect x="0" width="54" y="0" height="117"/></clipPath><clipPath id="7c23b258a8"><path d="M 32.835938 39.625 L 49.988281 39.625 L 49.988281 55.289062 L 32.835938 55.289062 Z M 32.835938 39.625 " clip-rule="nonzero"/></clipPath><clipPath id="4327cdb651"><path d="M 0.835938 0.625 L 17.988281 0.625 L 17.988281 16.289062 L 0.835938 16.289062 Z M 0.835938 0.625 " clip-rule="nonzero"/></clipPath><clipPath id="5c7dde1839"><rect x="0" width="18" y="0" height="17"/></clipPath><clipPath id="2ab7b33d41"><path d="M 26.503906 9.074219 L 55.726562 9.074219 L 55.726562 39.625 L 26.503906 39.625 Z M 26.503906 9.074219 " clip-rule="nonzero"/></clipPath><clipPath id="fb35755f3d"><path d="M 0.503906 0.0742188 L 29.726562 0.0742188 L 29.726562 30.625 L 0.503906 30.625 Z M 0.503906 0.0742188 " clip-rule="nonzero"/></clipPath><clipPath id="ec0f3c2622"><rect x="0" width="30" y="0" height="31"/></clipPath><clipPath id="0478c70f46"><path d="M 14.9375 109.433594 L 67.886719 109.433594 L 67.886719 171.121094 L 14.9375 171.121094 Z M 14.9375 109.433594 " clip-rule="nonzero"/></clipPath><clipPath id="6728e7b6d0"><path d="M 0.9375 0.433594 L 53.886719 0.433594 L 53.886719 62.121094 L 0.9375 62.121094 Z M 0.9375 0.433594 " clip-rule="nonzero"/></clipPath><clipPath id="a18e97dd9b"><rect x="0" width="54" y="0" height="63"/></clipPath><clipPath id="a420f0659a"><path d="M 31.121094 18.34375 L 37.128906 18.34375 L 37.128906 24.351562 L 31.121094 24.351562 Z M 31.121094 18.34375 " clip-rule="nonzero"/></clipPath><clipPath id="d5dc99b573"><path d="M 34.125 18.34375 C 32.464844 18.34375 31.121094 19.6875 31.121094 21.347656 C 31.121094 23.003906 32.464844 24.351562 34.125 24.351562 C 35.785156 24.351562 37.128906 23.003906 37.128906 21.347656 C 37.128906 19.6875 35.785156 18.34375 34.125 18.34375 Z M 34.125 18.34375 " clip-rule="nonzero"/></clipPath><clipPath id="d481ec69bf"><path d="M 0.121094 0.34375 L 6.128906 0.34375 L 6.128906 6.351562 L 0.121094 6.351562 Z M 0.121094 0.34375 " clip-rule="nonzero"/></clipPath><clipPath id="15c1828d33"><path d="M 3.125 0.34375 C 1.464844 0.34375 0.121094 1.6875 0.121094 3.347656 C 0.121094 5.003906 1.464844 6.351562 3.125 6.351562 C 4.785156 6.351562 6.128906 5.003906 6.128906 3.347656 C 6.128906 1.6875 4.785156 0.34375 3.125 0.34375 Z M 3.125 0.34375 " clip-rule="nonzero"/></clipPath><clipPath id="54ccddfda2"><rect x="0" width="7" y="0" height="7"/></clipPath><clipPath id="3090e1a889"><path d="M 32.621094 19.707031 L 35.625 19.707031 L 35.625 22.710938 L 32.621094 22.710938 Z M 32.621094 19.707031 " clip-rule="nonzero"/></clipPath><clipPath id="5db9cf16ef"><path d="M 34.125 19.707031 C 33.292969 19.707031 32.621094 20.378906 32.621094 21.207031 C 32.621094 22.039062 33.292969 22.710938 34.125 22.710938 C 34.953125 22.710938 35.625 22.039062 35.625 21.207031 C 35.625 20.378906 34.953125 19.707031 34.125 19.707031 Z M 34.125 19.707031 " clip-rule="nonzero"/></clipPath><clipPath id="77af6f3338"><path d="M 0.621094 0.707031 L 3.625 0.707031 L 3.625 3.710938 L 0.621094 3.710938 Z M 0.621094 0.707031 " clip-rule="nonzero"/></clipPath><clipPath id="6add5e2a99"><path d="M 2.125 0.707031 C 1.292969 0.707031 0.621094 1.378906 0.621094 2.207031 C 0.621094 3.039062 1.292969 3.710938 2.125 3.710938 C 2.953125 3.710938 3.625 3.039062 3.625 2.207031 C 3.625 1.378906 2.953125 0.707031 2.125 0.707031 Z M 2.125 0.707031 " clip-rule="nonzero"/></clipPath><clipPath id="f7742d0b2f"><rect x="0" width="4" y="0" height="4"/></clipPath><clipPath id="c5245ec6c6"><path d="M 45.523438 18.203125 L 51.53125 18.203125 L 51.53125 24.210938 L 45.523438 24.210938 Z M 45.523438 18.203125 " clip-rule="nonzero"/></clipPath><clipPath id="ead2dd836a"><path d="M 48.527344 18.203125 C 46.867188 18.203125 45.523438 19.550781 45.523438 21.207031 C 45.523438 22.867188 46.867188 24.210938 48.527344 24.210938 C 50.1875 24.210938 51.53125 22.867188 51.53125 21.207031 C 51.53125 19.550781 50.1875 18.203125 48.527344 18.203125 Z M 48.527344 18.203125 " clip-rule="nonzero"/></clipPath><clipPath id="8a26cd33c1"><path d="M 0.523438 0.203125 L 6.53125 0.203125 L 6.53125 6.210938 L 0.523438 6.210938 Z M 0.523438 0.203125 " clip-rule="nonzero"/></clipPath><clipPath id="d809bdd7dc"><path d="M 3.527344 0.203125 C 1.867188 0.203125 0.523438 1.550781 0.523438 3.207031 C 0.523438 4.867188 1.867188 6.210938 3.527344 6.210938 C 5.1875 6.210938 6.53125 4.867188 6.53125 3.207031 C 6.53125 1.550781 5.1875 0.203125 3.527344 0.203125 Z M 3.527344 0.203125 " clip-rule="nonzero"/></clipPath><clipPath id="0c65b14816"><rect x="0" width="7" y="0" height="7"/></clipPath><clipPath id="ea11ba5fd5"><path d="M 47.027344 19.84375 L 50.03125 19.84375 L 50.03125 22.847656 L 47.027344 22.847656 Z M 47.027344 19.84375 " clip-rule="nonzero"/></clipPath><clipPath id="5ddd4d1f3e"><path d="M 48.527344 19.84375 C 47.699219 19.84375 47.027344 20.515625 47.027344 21.347656 C 47.027344 22.175781 47.699219 22.847656 48.527344 22.847656 C 49.355469 22.847656 50.03125 22.175781 50.03125 21.347656 C 50.03125 20.515625 49.355469 19.84375 48.527344 19.84375 Z M 48.527344 19.84375 " clip-rule="nonzero"/></clipPath><clipPath id="b4d0145a7d"><path d="M 0.0273438 0.84375 L 3.03125 0.84375 L 3.03125 3.847656 L 0.0273438 3.847656 Z M 0.0273438 0.84375 " clip-rule="nonzero"/></clipPath><clipPath id="339788811c"><path d="M 1.527344 0.84375 C 0.699219 0.84375 0.0273438 1.515625 0.0273438 2.347656 C 0.0273438 3.175781 0.699219 3.847656 1.527344 3.847656 C 2.355469 3.847656 3.03125 3.175781 3.03125 2.347656 C 3.03125 1.515625 2.355469 0.84375 1.527344 0.84375 Z M 1.527344 0.84375 " clip-rule="nonzero"/></clipPath><clipPath id="e96dbcb5ca"><rect x="0" width="4" y="0" height="4"/></clipPath><clipPath id="bc2beb5a51"><path d="M 0 57 L 26 57 L 26 107 L 0 107 Z M 0 57 " clip-rule="nonzero"/></clipPath><clipPath id="ff29018cb5"><path d="M 19.074219 57.578125 L 25.324219 60.152344 L 6.25 106.480469 L 0 103.910156 Z M 19.074219 57.578125 " clip-rule="nonzero"/></clipPath><clipPath id="f73e9b1f4e"><path d="M 0 0.433594 L 25.535156 0.433594 L 25.535156 49.59375 L 0 49.59375 Z M 0 0.433594 " clip-rule="nonzero"/></clipPath><clipPath id="5c63173968"><path d="M 19.074219 0.578125 L 25.324219 3.152344 L 6.25 49.480469 L 0 46.910156 Z M 19.074219 0.578125 " clip-rule="nonzero"/></clipPath><clipPath id="62c0a8f97c"><rect x="0" width="26" y="0" height="50"/></clipPath><clipPath id="695a5a9f00"><path d="M 58 57 L 88 57 L 88 107 L 58 107 Z M 58 57 " clip-rule="nonzero"/></clipPath><clipPath id="bfe85f3cb5"><path d="M 58.128906 60.621094 L 64.164062 57.578125 L 87.273438 103.441406 L 81.234375 106.480469 Z M 58.128906 60.621094 " clip-rule="nonzero"/></clipPath><clipPath id="1f51d7edfe"><path d="M 0 0.433594 L 29.347656 0.433594 L 29.347656 49.59375 L 0 49.59375 Z M 0 0.433594 " clip-rule="nonzero"/></clipPath><clipPath id="f0710f7b97"><path d="M 0.128906 3.621094 L 6.164062 0.578125 L 29.273438 46.441406 L 23.234375 49.480469 Z M 0.128906 3.621094 " clip-rule="nonzero"/></clipPath><clipPath id="c4304a3945"><rect x="0" width="30" y="0" height="50"/></clipPath><clipPath id="b9db9100f4"><path d="M 29.371094 171.121094 L 35.871094 171.121094 L 35.871094 186.648438 L 29.371094 186.648438 Z M 29.371094 171.121094 " clip-rule="nonzero"/></clipPath><clipPath id="9b05f38ed8"><path d="M 0.371094 0.121094 L 6.871094 0.121094 L 6.871094 15.648438 L 0.371094 15.648438 Z M 0.371094 0.121094 " clip-rule="nonzero"/></clipPath><clipPath id="46e16bcf52"><rect x="0" width="7" y="0" height="16"/></clipPath><clipPath id="59940b4f87"><path d="M 54.875 171.121094 L 61.375 171.121094 L 61.375 186.648438 L 54.875 186.648438 Z M 54.875 171.121094 " clip-rule="nonzero"/></clipPath><clipPath id="ff3e0879db"><path d="M 0.875 0.121094 L 7.375 0.121094 L 7.375 15.648438 L 0.875 15.648438 Z M 0.875 0.121094 " clip-rule="nonzero"/></clipPath><clipPath id="9af1d629d6"><rect x="0" width="8" y="0" height="16"/></clipPath><clipPath id="295c35e054"><path d="M 45.175781 180.074219 L 54.867188 180.074219 L 54.867188 186.574219 L 45.175781 186.574219 Z M 45.175781 180.074219 " clip-rule="nonzero"/></clipPath><clipPath id="835b738f3c"><path d="M 0.175781 0.0742188 L 9.867188 0.0742188 L 9.867188 6.574219 L 0.175781 6.574219 Z M 0.175781 0.0742188 " clip-rule="nonzero"/></clipPath><clipPath id="87e9d32654"><rect x="0" width="10" y="0" height="7"/></clipPath><clipPath id="3977e10d0b"><path d="M 19.671875 180.074219 L 29.363281 180.074219 L 29.363281 186.574219 L 19.671875 186.574219 Z M 19.671875 180.074219 " clip-rule="nonzero"/></clipPath><clipPath id="242054a3d3"><path d="M 0.671875 0.0742188 L 10.363281 0.0742188 L 10.363281 6.574219 L 0.671875 6.574219 Z M 0.671875 0.0742188 " clip-rule="nonzero"/></clipPath><clipPath id="ea9fc23256"><rect x="0" width="11" y="0" height="7"/></clipPath><clipPath id="2328f3a5c2"><path d="M 19.371094 3.027344 L 59.761719 3.027344 L 59.761719 20.816406 L 19.371094 20.816406 Z M 19.371094 3.027344 " clip-rule="nonzero"/></clipPath><clipPath id="cc4c912260"><path d="M 19.390625 11.789062 C 19.6875 9.476562 20.433594 9.105469 20.882812 8.734375 C 21.402344 8.433594 21.851562 8.210938 22.296875 7.910156 C 22.894531 7.539062 23.492188 7.242188 24.164062 6.941406 C 24.832031 6.570312 25.652344 6.195312 26.398438 5.898438 C 27.21875 5.601562 27.964844 5.300781 28.785156 5.152344 C 29.832031 4.929688 31.769531 4.855469 32.21875 4.929688 C 32.367188 4.929688 32.441406 5.003906 32.515625 5.003906 C 32.589844 5.003906 32.589844 5.003906 32.664062 5.003906 C 32.886719 4.929688 34.007812 4.554688 34.679688 4.480469 C 35.273438 4.40625 36.09375 4.480469 36.46875 4.40625 C 36.691406 4.40625 36.691406 4.332031 36.839844 4.257812 C 37.289062 4.109375 38.332031 3.585938 39.078125 3.363281 C 39.601562 3.214844 40.195312 2.988281 40.644531 3.140625 C 40.941406 3.214844 41.089844 3.585938 41.316406 3.660156 C 41.464844 3.734375 41.464844 3.660156 41.6875 3.660156 C 42.285156 3.660156 44.222656 3.585938 44.820312 3.886719 C 45.195312 4.035156 45.195312 4.480469 45.417969 4.554688 C 45.640625 4.554688 45.789062 4.40625 46.015625 4.40625 C 46.386719 4.40625 46.835938 4.78125 47.207031 4.855469 C 47.503906 4.929688 47.878906 4.855469 48.027344 4.929688 C 48.101562 4.929688 48.101562 4.929688 48.175781 4.929688 C 48.476562 4.929688 50.488281 5.300781 50.785156 5.527344 C 50.863281 5.601562 50.785156 5.675781 50.863281 5.675781 C 51.011719 5.824219 51.90625 5.601562 52.128906 5.449219 C 52.277344 5.375 52.203125 5.226562 52.351562 5.152344 C 52.726562 5.003906 54.292969 5.078125 54.890625 5.449219 C 55.335938 5.824219 55.632812 7.316406 55.710938 7.316406 C 55.710938 7.316406 55.859375 7.316406 55.859375 7.316406 C 55.859375 7.316406 56.007812 7.316406 56.007812 7.390625 C 56.082031 7.390625 56.230469 7.390625 56.230469 7.390625 C 56.230469 7.390625 56.304688 7.464844 56.378906 7.464844 C 56.453125 7.539062 56.53125 7.539062 56.53125 7.539062 C 56.53125 7.539062 56.605469 7.6875 56.679688 7.6875 C 56.679688 7.761719 56.828125 7.835938 56.828125 7.835938 C 56.828125 7.835938 56.902344 7.910156 56.902344 7.988281 C 56.902344 7.988281 56.976562 7.988281 57.050781 7.988281 C 57.050781 7.988281 57.199219 7.988281 57.199219 7.988281 C 57.199219 7.988281 57.351562 7.988281 57.351562 7.988281 C 57.425781 8.0625 57.574219 8.0625 57.574219 8.0625 C 57.574219 8.0625 57.648438 8.136719 57.722656 8.136719 C 57.796875 8.136719 57.871094 8.210938 57.871094 8.210938 C 57.871094 8.210938 57.945312 8.285156 58.019531 8.359375 C 58.019531 8.359375 58.171875 8.433594 58.171875 8.433594 C 58.171875 8.433594 58.171875 8.582031 58.246094 8.582031 C 58.246094 8.65625 58.320312 8.734375 58.320312 8.734375 C 58.320312 8.734375 58.394531 8.882812 58.394531 8.957031 C 58.394531 8.957031 58.46875 9.105469 58.46875 9.105469 C 58.46875 9.105469 58.46875 9.253906 58.46875 9.253906 C 58.46875 9.328125 58.542969 9.476562 58.542969 9.476562 C 58.542969 9.628906 59.4375 10.222656 59.585938 10.746094 C 59.8125 11.34375 59.738281 12.238281 59.738281 12.984375 C 59.660156 13.730469 59.511719 14.996094 59.289062 15.222656 C 59.214844 15.296875 58.992188 15.144531 58.992188 15.222656 C 58.914062 15.296875 59.066406 15.519531 59.066406 15.742188 C 59.140625 16.191406 59.214844 17.605469 59.214844 17.605469 C 59.214844 17.605469 59.214844 17.757812 59.140625 17.832031 C 59.140625 17.832031 59.140625 17.980469 59.140625 17.980469 C 59.140625 17.980469 59.140625 18.054688 59.140625 18.128906 C 59.066406 18.203125 59.066406 18.277344 59.066406 18.351562 C 59.066406 18.351562 58.992188 18.425781 58.992188 18.503906 C 58.914062 18.503906 58.839844 18.652344 58.839844 18.652344 C 58.839844 18.652344 58.839844 18.652344 58.765625 18.652344 C 58.765625 18.726562 58.839844 18.800781 58.839844 18.800781 C 58.839844 18.800781 58.839844 18.875 58.839844 18.949219 C 58.839844 19.023438 58.914062 19.097656 58.914062 19.097656 C 58.914062 19.097656 58.914062 19.246094 58.914062 19.324219 C 58.914062 19.398438 58.914062 19.472656 58.914062 19.472656 C 58.914062 19.472656 58.914062 19.621094 58.839844 19.695312 C 58.839844 19.695312 58.839844 19.84375 58.839844 19.84375 C 58.839844 19.84375 58.765625 19.917969 58.765625 19.992188 C 58.691406 20.070312 58.691406 20.144531 58.691406 20.144531 C 58.691406 20.144531 58.617188 20.21875 58.542969 20.292969 C 58.542969 20.367188 58.46875 20.441406 58.46875 20.441406 C 58.46875 20.441406 58.320312 20.515625 58.320312 20.515625 C 58.246094 20.589844 58.171875 20.664062 58.171875 20.664062 C 58.171875 20.664062 58.019531 20.664062 57.945312 20.738281 C 57.945312 20.738281 57.796875 20.738281 57.796875 20.738281 C 57.796875 20.738281 57.722656 20.8125 57.648438 20.8125 C 57.574219 20.8125 57.425781 20.8125 57.425781 20.8125 C 57.425781 20.8125 57.351562 20.8125 57.273438 20.8125 C 57.199219 20.8125 57.125 20.8125 57.125 20.8125 C 57.125 20.8125 56.976562 20.738281 56.902344 20.738281 C 56.902344 20.664062 56.753906 20.664062 56.753906 20.664062 C 56.753906 20.664062 56.679688 20.589844 56.605469 20.589844 C 56.53125 20.515625 56.453125 20.441406 56.453125 20.441406 C 56.453125 20.441406 56.378906 20.367188 56.304688 20.292969 C 56.304688 20.292969 56.230469 20.21875 56.230469 20.21875 C 56.230469 20.21875 56.15625 20.070312 56.15625 20.070312 C 56.082031 19.992188 56.082031 19.917969 56.007812 19.84375 C 56.007812 19.84375 56.007812 19.84375 56.007812 19.769531 C 55.933594 19.472656 55.632812 18.351562 55.484375 17.832031 C 55.410156 17.457031 55.410156 17.160156 55.335938 16.9375 C 55.335938 16.785156 55.335938 16.636719 55.261719 16.636719 C 55.261719 16.636719 55.1875 16.5625 55.1875 16.5625 C 55.1875 16.5625 55.113281 16.5625 55.039062 16.488281 C 54.964844 16.488281 54.890625 16.414062 54.890625 16.414062 C 54.890625 16.414062 54.8125 16.339844 54.738281 16.265625 C 54.738281 16.191406 54.664062 16.117188 54.664062 16.117188 C 54.664062 16.117188 54.589844 16.042969 54.589844 15.964844 C 54.515625 15.890625 54.515625 15.890625 54.441406 15.816406 C 54.367188 15.59375 54.070312 14.921875 53.917969 14.476562 C 53.769531 14.101562 53.769531 13.730469 53.621094 13.429688 C 53.546875 13.132812 53.398438 12.835938 53.171875 12.757812 C 52.949219 12.683594 52.277344 12.984375 52.054688 12.910156 C 51.90625 12.835938 51.90625 12.609375 51.832031 12.609375 C 51.757812 12.535156 51.683594 12.609375 51.683594 12.609375 C 51.683594 12.609375 51.53125 12.609375 51.457031 12.609375 C 51.382812 12.609375 51.308594 12.609375 51.308594 12.609375 C 51.308594 12.609375 51.234375 12.609375 51.160156 12.609375 C 51.160156 12.609375 51.085938 12.683594 51.085938 12.683594 C 51.085938 12.683594 50.9375 12.757812 50.9375 12.757812 C 50.863281 12.835938 50.785156 12.835938 50.785156 12.835938 C 50.785156 12.835938 50.636719 12.910156 50.5625 12.910156 C 50.5625 12.910156 50.414062 12.984375 50.414062 12.984375 C 50.414062 12.984375 50.265625 12.984375 50.265625 12.984375 C 50.191406 12.984375 50.042969 12.984375 50.042969 12.984375 C 50.042969 12.984375 49.964844 12.910156 49.890625 12.910156 C 49.816406 12.910156 49.816406 12.910156 49.742188 12.910156 C 49.667969 12.910156 49.667969 12.910156 49.59375 12.984375 C 49.59375 12.984375 49.445312 12.984375 49.445312 12.984375 C 49.445312 12.984375 49.296875 13.058594 49.296875 13.058594 C 49.222656 13.058594 49.070312 13.058594 49.070312 13.058594 C 49.070312 13.058594 48.996094 13.058594 48.921875 13.058594 C 48.847656 13.058594 48.699219 13.058594 48.699219 13.058594 C 48.699219 13.058594 48.625 12.984375 48.550781 12.984375 C 48.476562 12.984375 48.402344 12.910156 48.402344 12.910156 C 48.402344 12.910156 48.324219 12.835938 48.25 12.835938 C 48.175781 12.757812 48.101562 12.757812 48.101562 12.757812 C 48.101562 12.757812 48.027344 12.609375 47.953125 12.609375 C 47.953125 12.609375 47.953125 12.535156 47.953125 12.535156 C 47.878906 12.535156 47.878906 12.535156 47.878906 12.535156 C 47.878906 12.535156 47.730469 12.609375 47.730469 12.609375 C 47.730469 12.609375 47.578125 12.609375 47.578125 12.609375 C 47.503906 12.609375 47.355469 12.683594 47.355469 12.683594 C 47.355469 12.683594 47.28125 12.609375 47.207031 12.609375 C 47.132812 12.609375 46.984375 12.609375 46.984375 12.609375 C 46.984375 12.609375 46.910156 12.535156 46.835938 12.535156 C 46.757812 12.535156 46.683594 12.460938 46.683594 12.460938 C 46.683594 12.460938 46.609375 12.386719 46.535156 12.386719 C 46.460938 12.3125 46.386719 12.238281 46.386719 12.238281 C 46.386719 12.238281 46.3125 12.164062 46.238281 12.089844 C 46.089844 12.089844 45.492188 12.835938 45.269531 13.132812 C 45.117188 13.355469 44.820312 13.65625 44.820312 13.65625 C 44.820312 13.65625 44.746094 13.730469 44.671875 13.730469 C 44.597656 13.804688 44.523438 13.878906 44.523438 13.878906 C 44.523438 13.878906 44.449219 13.953125 44.375 13.953125 C 44.296875 13.953125 44.222656 14.027344 44.222656 14.027344 C 44.222656 14.027344 44.074219 14.027344 44 14.101562 C 44 14.101562 43.851562 14.101562 43.851562 14.101562 C 43.851562 14.101562 43.703125 14.101562 43.703125 14.101562 C 43.628906 14.101562 43.476562 14.101562 43.476562 14.101562 C 43.476562 14.101562 43.402344 14.027344 43.328125 14.027344 C 43.253906 14.027344 43.179688 14.027344 43.179688 14.027344 C 43.179688 14.027344 43.03125 13.953125 42.957031 13.878906 C 42.957031 13.878906 42.808594 13.804688 42.808594 13.804688 C 42.808594 13.804688 42.734375 13.730469 42.734375 13.730469 C 42.65625 13.65625 42.582031 13.578125 42.582031 13.578125 C 42.582031 13.578125 42.507812 13.503906 42.507812 13.429688 C 42.433594 13.355469 42.359375 13.28125 42.359375 13.28125 C 42.359375 13.28125 42.359375 13.132812 42.285156 13.132812 C 42.285156 13.058594 42.285156 12.910156 42.285156 12.910156 C 42.285156 12.910156 42.285156 12.835938 42.210938 12.757812 C 42.210938 12.683594 42.210938 12.609375 42.210938 12.535156 C 42.210938 12.535156 42.210938 12.460938 42.285156 12.386719 C 42.285156 12.3125 42.285156 12.238281 42.285156 12.238281 C 42.210938 12.164062 40.941406 13.28125 40.941406 13.28125 C 40.941406 13.28125 40.867188 13.355469 40.792969 13.429688 C 40.792969 13.503906 40.71875 13.578125 40.71875 13.578125 C 40.71875 13.578125 40.570312 13.578125 40.570312 13.65625 C 40.496094 13.65625 40.347656 13.730469 40.347656 13.730469 C 40.347656 13.730469 40.269531 13.730469 40.195312 13.804688 C 40.121094 13.804688 40.046875 13.804688 40.046875 13.804688 C 40.046875 13.804688 39.898438 13.804688 39.824219 13.804688 C 39.824219 13.804688 39.675781 13.804688 39.675781 13.804688 C 39.675781 13.804688 39.527344 13.804688 39.527344 13.804688 C 39.449219 13.730469 39.300781 13.730469 39.300781 13.730469 C 39.300781 13.730469 39.226562 13.65625 39.152344 13.65625 C 39.078125 13.65625 39.003906 13.578125 39.003906 13.578125 C 39.003906 13.578125 38.929688 13.503906 38.855469 13.429688 C 38.78125 13.429688 38.707031 13.355469 38.707031 13.355469 C 38.707031 13.355469 38.628906 13.207031 38.628906 13.207031 C 38.554688 13.132812 38.480469 13.058594 38.480469 13.058594 C 38.480469 13.058594 38.480469 12.910156 38.480469 12.910156 C 38.40625 12.910156 38.109375 13.132812 38.109375 13.132812 C 38.109375 13.132812 37.960938 13.207031 37.960938 13.28125 C 37.886719 13.28125 37.808594 13.355469 37.808594 13.355469 C 37.808594 13.355469 37.660156 13.355469 37.585938 13.429688 C 37.585938 13.429688 37.4375 13.429688 37.4375 13.429688 C 37.4375 13.429688 37.289062 13.503906 37.289062 13.503906 C 37.214844 13.503906 37.066406 13.503906 37.066406 13.503906 C 37.066406 13.503906 36.988281 13.503906 36.914062 13.429688 C 36.839844 13.429688 36.691406 13.429688 36.691406 13.429688 C 36.691406 13.429688 36.617188 13.355469 36.542969 13.355469 C 36.46875 13.355469 36.394531 13.28125 36.394531 13.28125 C 36.394531 13.28125 36.320312 13.207031 36.242188 13.207031 C 36.167969 13.132812 36.09375 13.058594 36.09375 13.058594 C 36.09375 13.058594 36.019531 12.984375 36.019531 12.910156 C 35.945312 12.910156 35.871094 12.835938 35.871094 12.835938 C 35.871094 12.835938 35.796875 12.683594 35.796875 12.609375 C 35.796875 12.609375 35.722656 12.460938 35.722656 12.460938 C 35.722656 12.460938 35.722656 12.386719 35.648438 12.3125 C 35.648438 12.238281 35.648438 12.164062 35.648438 12.164062 C 35.648438 12.164062 35.648438 12.089844 35.648438 12.089844 C 35.574219 12.015625 35.273438 12.089844 34.976562 12.015625 C 34.527344 12.015625 33.558594 11.9375 33.039062 11.9375 C 32.664062 11.9375 32.21875 12.015625 32.066406 11.9375 C 31.992188 11.9375 31.992188 11.863281 31.917969 11.789062 C 31.769531 11.714844 31.246094 11.640625 31.097656 11.640625 C 30.949219 11.640625 30.949219 11.714844 30.800781 11.714844 C 30.5 11.789062 29.753906 12.015625 29.234375 12.089844 C 28.710938 12.164062 28.039062 12.238281 27.742188 12.238281 C 27.519531 12.3125 27.445312 12.3125 27.371094 12.238281 C 27.21875 12.238281 27.070312 12.238281 26.996094 12.164062 C 26.996094 12.164062 26.996094 12.164062 26.921875 12.164062 C 26.773438 12.164062 25.878906 12.683594 25.503906 12.757812 C 25.355469 12.835938 25.207031 12.683594 25.058594 12.835938 C 24.90625 12.910156 24.984375 13.503906 24.757812 13.730469 C 24.460938 14.027344 23.34375 14.324219 22.894531 14.175781 C 22.671875 14.101562 22.523438 13.730469 22.445312 13.65625 C 22.445312 13.65625 22.296875 13.65625 22.296875 13.65625 C 22.296875 13.65625 22.222656 13.578125 22.148438 13.578125 C 22.074219 13.503906 21.777344 13.65625 21.625 13.503906 C 21.476562 13.429688 21.550781 12.984375 21.402344 12.835938 C 21.253906 12.757812 21.03125 12.910156 20.804688 12.835938 C 20.433594 12.683594 19.390625 11.789062 19.390625 11.789062 M 43.179688 8.507812 C 43.179688 8.507812 43.253906 8.507812 43.253906 8.507812 C 43.253906 8.507812 43.179688 8.507812 43.179688 8.507812 " clip-rule="nonzero"/></clipPath><clipPath id="1f5cb6f290"><path d="M 0.371094 0.0273438 L 40.761719 0.0273438 L 40.761719 17.816406 L 0.371094 17.816406 Z M 0.371094 0.0273438 " clip-rule="nonzero"/></clipPath><clipPath id="4294535e85"><path d="M 0.390625 8.789062 C 0.6875 6.476562 1.433594 6.105469 1.882812 5.734375 C 2.402344 5.433594 2.851562 5.210938 3.296875 4.910156 C 3.894531 4.539062 4.492188 4.242188 5.164062 3.941406 C 5.832031 3.570312 6.652344 3.195312 7.398438 2.898438 C 8.21875 2.601562 8.964844 2.300781 9.785156 2.152344 C 10.832031 1.929688 12.769531 1.855469 13.21875 1.929688 C 13.367188 1.929688 13.441406 2.003906 13.515625 2.003906 C 13.589844 2.003906 13.589844 2.003906 13.664062 2.003906 C 13.886719 1.929688 15.007812 1.554688 15.679688 1.480469 C 16.273438 1.40625 17.09375 1.480469 17.46875 1.40625 C 17.691406 1.40625 17.691406 1.332031 17.839844 1.257812 C 18.289062 1.109375 19.332031 0.585938 20.078125 0.363281 C 20.601562 0.214844 21.195312 -0.0117188 21.644531 0.140625 C 21.941406 0.214844 22.089844 0.585938 22.316406 0.660156 C 22.464844 0.734375 22.464844 0.660156 22.6875 0.660156 C 23.285156 0.660156 25.222656 0.585938 25.820312 0.886719 C 26.195312 1.035156 26.195312 1.480469 26.417969 1.554688 C 26.640625 1.554688 26.789062 1.40625 27.015625 1.40625 C 27.386719 1.40625 27.835938 1.78125 28.207031 1.855469 C 28.503906 1.929688 28.878906 1.855469 29.027344 1.929688 C 29.101562 1.929688 29.101562 1.929688 29.175781 1.929688 C 29.476562 1.929688 31.488281 2.300781 31.785156 2.527344 C 31.863281 2.601562 31.785156 2.675781 31.863281 2.675781 C 32.011719 2.824219 32.90625 2.601562 33.128906 2.449219 C 33.277344 2.375 33.203125 2.226562 33.351562 2.152344 C 33.726562 2.003906 35.292969 2.078125 35.890625 2.449219 C 36.335938 2.824219 36.632812 4.316406 36.710938 4.316406 C 36.710938 4.316406 36.859375 4.316406 36.859375 4.316406 C 36.859375 4.316406 37.007812 4.316406 37.007812 4.390625 C 37.082031 4.390625 37.230469 4.390625 37.230469 4.390625 C 37.230469 4.390625 37.304688 4.464844 37.378906 4.464844 C 37.453125 4.539062 37.53125 4.539062 37.53125 4.539062 C 37.53125 4.539062 37.605469 4.6875 37.679688 4.6875 C 37.679688 4.761719 37.828125 4.835938 37.828125 4.835938 C 37.828125 4.835938 37.902344 4.910156 37.902344 4.988281 C 37.902344 4.988281 37.976562 4.988281 38.050781 4.988281 C 38.050781 4.988281 38.199219 4.988281 38.199219 4.988281 C 38.199219 4.988281 38.351562 4.988281 38.351562 4.988281 C 38.425781 5.0625 38.574219 5.0625 38.574219 5.0625 C 38.574219 5.0625 38.648438 5.136719 38.722656 5.136719 C 38.796875 5.136719 38.871094 5.210938 38.871094 5.210938 C 38.871094 5.210938 38.945312 5.285156 39.019531 5.359375 C 39.019531 5.359375 39.171875 5.433594 39.171875 5.433594 C 39.171875 5.433594 39.171875 5.582031 39.246094 5.582031 C 39.246094 5.65625 39.320312 5.734375 39.320312 5.734375 C 39.320312 5.734375 39.394531 5.882812 39.394531 5.957031 C 39.394531 5.957031 39.46875 6.105469 39.46875 6.105469 C 39.46875 6.105469 39.46875 6.253906 39.46875 6.253906 C 39.46875 6.328125 39.542969 6.476562 39.542969 6.476562 C 39.542969 6.628906 40.4375 7.222656 40.585938 7.746094 C 40.8125 8.34375 40.738281 9.238281 40.738281 9.984375 C 40.660156 10.730469 40.511719 11.996094 40.289062 12.222656 C 40.214844 12.296875 39.992188 12.144531 39.992188 12.222656 C 39.914062 12.296875 40.066406 12.519531 40.066406 12.742188 C 40.140625 13.191406 40.214844 14.605469 40.214844 14.605469 C 40.214844 14.605469 40.214844 14.757812 40.140625 14.832031 C 40.140625 14.832031 40.140625 14.980469 40.140625 14.980469 C 40.140625 14.980469 40.140625 15.054688 40.140625 15.128906 C 40.066406 15.203125 40.066406 15.277344 40.066406 15.351562 C 40.066406 15.351562 39.992188 15.425781 39.992188 15.503906 C 39.914062 15.503906 39.839844 15.652344 39.839844 15.652344 C 39.839844 15.652344 39.839844 15.652344 39.765625 15.652344 C 39.765625 15.726562 39.839844 15.800781 39.839844 15.800781 C 39.839844 15.800781 39.839844 15.875 39.839844 15.949219 C 39.839844 16.023438 39.914062 16.097656 39.914062 16.097656 C 39.914062 16.097656 39.914062 16.246094 39.914062 16.324219 C 39.914062 16.398438 39.914062 16.472656 39.914062 16.472656 C 39.914062 16.472656 39.914062 16.621094 39.839844 16.695312 C 39.839844 16.695312 39.839844 16.84375 39.839844 16.84375 C 39.839844 16.84375 39.765625 16.917969 39.765625 16.992188 C 39.691406 17.070312 39.691406 17.144531 39.691406 17.144531 C 39.691406 17.144531 39.617188 17.21875 39.542969 17.292969 C 39.542969 17.367188 39.46875 17.441406 39.46875 17.441406 C 39.46875 17.441406 39.320312 17.515625 39.320312 17.515625 C 39.246094 17.589844 39.171875 17.664062 39.171875 17.664062 C 39.171875 17.664062 39.019531 17.664062 38.945312 17.738281 C 38.945312 17.738281 38.796875 17.738281 38.796875 17.738281 C 38.796875 17.738281 38.722656 17.8125 38.648438 17.8125 C 38.574219 17.8125 38.425781 17.8125 38.425781 17.8125 C 38.425781 17.8125 38.351562 17.8125 38.273438 17.8125 C 38.199219 17.8125 38.125 17.8125 38.125 17.8125 C 38.125 17.8125 37.976562 17.738281 37.902344 17.738281 C 37.902344 17.664062 37.753906 17.664062 37.753906 17.664062 C 37.753906 17.664062 37.679688 17.589844 37.605469 17.589844 C 37.53125 17.515625 37.453125 17.441406 37.453125 17.441406 C 37.453125 17.441406 37.378906 17.367188 37.304688 17.292969 C 37.304688 17.292969 37.230469 17.21875 37.230469 17.21875 C 37.230469 17.21875 37.15625 17.070312 37.15625 17.070312 C 37.082031 16.992188 37.082031 16.917969 37.007812 16.84375 C 37.007812 16.84375 37.007812 16.84375 37.007812 16.769531 C 36.933594 16.472656 36.632812 15.351562 36.484375 14.832031 C 36.410156 14.457031 36.410156 14.160156 36.335938 13.9375 C 36.335938 13.785156 36.335938 13.636719 36.261719 13.636719 C 36.261719 13.636719 36.1875 13.5625 36.1875 13.5625 C 36.1875 13.5625 36.113281 13.5625 36.039062 13.488281 C 35.964844 13.488281 35.890625 13.414062 35.890625 13.414062 C 35.890625 13.414062 35.8125 13.339844 35.738281 13.265625 C 35.738281 13.191406 35.664062 13.117188 35.664062 13.117188 C 35.664062 13.117188 35.589844 13.042969 35.589844 12.964844 C 35.515625 12.890625 35.515625 12.890625 35.441406 12.816406 C 35.367188 12.59375 35.070312 11.921875 34.917969 11.476562 C 34.769531 11.101562 34.769531 10.730469 34.621094 10.429688 C 34.546875 10.132812 34.398438 9.835938 34.171875 9.757812 C 33.949219 9.683594 33.277344 9.984375 33.054688 9.910156 C 32.90625 9.835938 32.90625 9.609375 32.832031 9.609375 C 32.757812 9.535156 32.683594 9.609375 32.683594 9.609375 C 32.683594 9.609375 32.53125 9.609375 32.457031 9.609375 C 32.382812 9.609375 32.308594 9.609375 32.308594 9.609375 C 32.308594 9.609375 32.234375 9.609375 32.160156 9.609375 C 32.160156 9.609375 32.085938 9.683594 32.085938 9.683594 C 32.085938 9.683594 31.9375 9.757812 31.9375 9.757812 C 31.863281 9.835938 31.785156 9.835938 31.785156 9.835938 C 31.785156 9.835938 31.636719 9.910156 31.5625 9.910156 C 31.5625 9.910156 31.414062 9.984375 31.414062 9.984375 C 31.414062 9.984375 31.265625 9.984375 31.265625 9.984375 C 31.191406 9.984375 31.042969 9.984375 31.042969 9.984375 C 31.042969 9.984375 30.964844 9.910156 30.890625 9.910156 C 30.816406 9.910156 30.816406 9.910156 30.742188 9.910156 C 30.667969 9.910156 30.667969 9.910156 30.59375 9.984375 C 30.59375 9.984375 30.445312 9.984375 30.445312 9.984375 C 30.445312 9.984375 30.296875 10.058594 30.296875 10.058594 C 30.222656 10.058594 30.070312 10.058594 30.070312 10.058594 C 30.070312 10.058594 29.996094 10.058594 29.921875 10.058594 C 29.847656 10.058594 29.699219 10.058594 29.699219 10.058594 C 29.699219 10.058594 29.625 9.984375 29.550781 9.984375 C 29.476562 9.984375 29.402344 9.910156 29.402344 9.910156 C 29.402344 9.910156 29.324219 9.835938 29.25 9.835938 C 29.175781 9.757812 29.101562 9.757812 29.101562 9.757812 C 29.101562 9.757812 29.027344 9.609375 28.953125 9.609375 C 28.953125 9.609375 28.953125 9.535156 28.953125 9.535156 C 28.878906 9.535156 28.878906 9.535156 28.878906 9.535156 C 28.878906 9.535156 28.730469 9.609375 28.730469 9.609375 C 28.730469 9.609375 28.578125 9.609375 28.578125 9.609375 C 28.503906 9.609375 28.355469 9.683594 28.355469 9.683594 C 28.355469 9.683594 28.28125 9.609375 28.207031 9.609375 C 28.132812 9.609375 27.984375 9.609375 27.984375 9.609375 C 27.984375 9.609375 27.910156 9.535156 27.835938 9.535156 C 27.757812 9.535156 27.683594 9.460938 27.683594 9.460938 C 27.683594 9.460938 27.609375 9.386719 27.535156 9.386719 C 27.460938 9.3125 27.386719 9.238281 27.386719 9.238281 C 27.386719 9.238281 27.3125 9.164062 27.238281 9.089844 C 27.089844 9.089844 26.492188 9.835938 26.269531 10.132812 C 26.117188 10.355469 25.820312 10.65625 25.820312 10.65625 C 25.820312 10.65625 25.746094 10.730469 25.671875 10.730469 C 25.597656 10.804688 25.523438 10.878906 25.523438 10.878906 C 25.523438 10.878906 25.449219 10.953125 25.375 10.953125 C 25.296875 10.953125 25.222656 11.027344 25.222656 11.027344 C 25.222656 11.027344 25.074219 11.027344 25 11.101562 C 25 11.101562 24.851562 11.101562 24.851562 11.101562 C 24.851562 11.101562 24.703125 11.101562 24.703125 11.101562 C 24.628906 11.101562 24.476562 11.101562 24.476562 11.101562 C 24.476562 11.101562 24.402344 11.027344 24.328125 11.027344 C 24.253906 11.027344 24.179688 11.027344 24.179688 11.027344 C 24.179688 11.027344 24.03125 10.953125 23.957031 10.878906 C 23.957031 10.878906 23.808594 10.804688 23.808594 10.804688 C 23.808594 10.804688 23.734375 10.730469 23.734375 10.730469 C 23.65625 10.65625 23.582031 10.578125 23.582031 10.578125 C 23.582031 10.578125 23.507812 10.503906 23.507812 10.429688 C 23.433594 10.355469 23.359375 10.28125 23.359375 10.28125 C 23.359375 10.28125 23.359375 10.132812 23.285156 10.132812 C 23.285156 10.058594 23.285156 9.910156 23.285156 9.910156 C 23.285156 9.910156 23.285156 9.835938 23.210938 9.757812 C 23.210938 9.683594 23.210938 9.609375 23.210938 9.535156 C 23.210938 9.535156 23.210938 9.460938 23.285156 9.386719 C 23.285156 9.3125 23.285156 9.238281 23.285156 9.238281 C 23.210938 9.164062 21.941406 10.28125 21.941406 10.28125 C 21.941406 10.28125 21.867188 10.355469 21.792969 10.429688 C 21.792969 10.503906 21.71875 10.578125 21.71875 10.578125 C 21.71875 10.578125 21.570312 10.578125 21.570312 10.65625 C 21.496094 10.65625 21.347656 10.730469 21.347656 10.730469 C 21.347656 10.730469 21.269531 10.730469 21.195312 10.804688 C 21.121094 10.804688 21.046875 10.804688 21.046875 10.804688 C 21.046875 10.804688 20.898438 10.804688 20.824219 10.804688 C 20.824219 10.804688 20.675781 10.804688 20.675781 10.804688 C 20.675781 10.804688 20.527344 10.804688 20.527344 10.804688 C 20.449219 10.730469 20.300781 10.730469 20.300781 10.730469 C 20.300781 10.730469 20.226562 10.65625 20.152344 10.65625 C 20.078125 10.65625 20.003906 10.578125 20.003906 10.578125 C 20.003906 10.578125 19.929688 10.503906 19.855469 10.429688 C 19.78125 10.429688 19.707031 10.355469 19.707031 10.355469 C 19.707031 10.355469 19.628906 10.207031 19.628906 10.207031 C 19.554688 10.132812 19.480469 10.058594 19.480469 10.058594 C 19.480469 10.058594 19.480469 9.910156 19.480469 9.910156 C 19.40625 9.910156 19.109375 10.132812 19.109375 10.132812 C 19.109375 10.132812 18.960938 10.207031 18.960938 10.28125 C 18.886719 10.28125 18.808594 10.355469 18.808594 10.355469 C 18.808594 10.355469 18.660156 10.355469 18.585938 10.429688 C 18.585938 10.429688 18.4375 10.429688 18.4375 10.429688 C 18.4375 10.429688 18.289062 10.503906 18.289062 10.503906 C 18.214844 10.503906 18.066406 10.503906 18.066406 10.503906 C 18.066406 10.503906 17.988281 10.503906 17.914062 10.429688 C 17.839844 10.429688 17.691406 10.429688 17.691406 10.429688 C 17.691406 10.429688 17.617188 10.355469 17.542969 10.355469 C 17.46875 10.355469 17.394531 10.28125 17.394531 10.28125 C 17.394531 10.28125 17.320312 10.207031 17.242188 10.207031 C 17.167969 10.132812 17.09375 10.058594 17.09375 10.058594 C 17.09375 10.058594 17.019531 9.984375 17.019531 9.910156 C 16.945312 9.910156 16.871094 9.835938 16.871094 9.835938 C 16.871094 9.835938 16.796875 9.683594 16.796875 9.609375 C 16.796875 9.609375 16.722656 9.460938 16.722656 9.460938 C 16.722656 9.460938 16.722656 9.386719 16.648438 9.3125 C 16.648438 9.238281 16.648438 9.164062 16.648438 9.164062 C 16.648438 9.164062 16.648438 9.089844 16.648438 9.089844 C 16.574219 9.015625 16.273438 9.089844 15.976562 9.015625 C 15.527344 9.015625 14.558594 8.9375 14.039062 8.9375 C 13.664062 8.9375 13.21875 9.015625 13.066406 8.9375 C 12.992188 8.9375 12.992188 8.863281 12.917969 8.789062 C 12.769531 8.714844 12.246094 8.640625 12.097656 8.640625 C 11.949219 8.640625 11.949219 8.714844 11.800781 8.714844 C 11.5 8.789062 10.753906 9.015625 10.234375 9.089844 C 9.710938 9.164062 9.039062 9.238281 8.742188 9.238281 C 8.519531 9.3125 8.445312 9.3125 8.371094 9.238281 C 8.21875 9.238281 8.070312 9.238281 7.996094 9.164062 C 7.996094 9.164062 7.996094 9.164062 7.921875 9.164062 C 7.773438 9.164062 6.878906 9.683594 6.503906 9.757812 C 6.355469 9.835938 6.207031 9.683594 6.058594 9.835938 C 5.90625 9.910156 5.984375 10.503906 5.757812 10.730469 C 5.460938 11.027344 4.34375 11.324219 3.894531 11.175781 C 3.671875 11.101562 3.523438 10.730469 3.445312 10.65625 C 3.445312 10.65625 3.296875 10.65625 3.296875 10.65625 C 3.296875 10.65625 3.222656 10.578125 3.148438 10.578125 C 3.074219 10.503906 2.777344 10.65625 2.625 10.503906 C 2.476562 10.429688 2.550781 9.984375 2.402344 9.835938 C 2.253906 9.757812 2.03125 9.910156 1.804688 9.835938 C 1.433594 9.683594 0.390625 8.789062 0.390625 8.789062 M 24.179688 5.507812 C 24.179688 5.507812 24.253906 5.507812 24.253906 5.507812 C 24.253906 5.507812 24.179688 5.507812 24.179688 5.507812 " clip-rule="nonzero"/></clipPath><clipPath id="d40d937e30"><rect x="0" width="41" y="0" height="18"/></clipPath><clipPath id="3e76af8837"><path d="M 18.9375 9.847656 L 29.371094 9.847656 L 29.371094 15.714844 L 18.9375 15.714844 Z M 18.9375 9.847656 " clip-rule="nonzero"/></clipPath><clipPath id="daa66cf52a"><path d="M 23.789062 12.984375 C 22.074219 12.683594 23.34375 11.714844 23.566406 11.863281 C 23.863281 12.015625 23.566406 13.804688 23.789062 13.804688 C 23.9375 13.878906 24.238281 12.835938 24.683594 12.460938 C 25.207031 12.089844 26.25 11.714844 26.699219 11.863281 C 27.070312 12.015625 27.445312 12.609375 27.519531 12.984375 C 27.519531 13.429688 27.371094 13.953125 26.996094 14.324219 C 26.472656 14.773438 24.90625 15.519531 24.238281 15.296875 C 23.714844 15.144531 23.042969 14.175781 23.117188 13.65625 C 23.191406 13.207031 24.3125 12.460938 24.984375 12.460938 C 25.652344 12.386719 26.773438 13.65625 27.292969 13.355469 C 27.890625 13.058594 27.519531 10.222656 27.964844 10.074219 C 28.339844 9.925781 29.160156 10.746094 29.308594 11.195312 C 29.382812 11.640625 29.011719 12.460938 28.710938 12.757812 C 28.414062 12.984375 27.964844 13.132812 27.667969 12.984375 C 27.21875 12.835938 26.324219 11.863281 26.324219 11.34375 C 26.398438 10.820312 27.59375 10 28.113281 10.074219 C 28.5625 10.074219 29.234375 10.894531 29.308594 11.417969 C 29.382812 11.789062 29.085938 12.460938 28.785156 12.683594 C 28.488281 12.984375 27.816406 13.058594 27.445312 12.984375 C 26.996094 12.835938 26.472656 12.386719 26.398438 12.015625 C 26.324219 11.492188 26.996094 10.222656 27.445312 10.074219 C 27.964844 10 29.234375 11.269531 29.308594 11.269531 C 29.308594 11.195312 27.964844 10.074219 27.964844 10.074219 C 28.039062 10 28.933594 10.449219 29.160156 10.820312 C 29.382812 11.195312 29.382812 11.714844 29.160156 12.238281 C 28.859375 12.984375 27.445312 14.625 26.699219 14.773438 C 26.101562 14.847656 25.429688 14.324219 25.132812 13.953125 C 24.832031 13.503906 24.683594 12.757812 24.832031 12.238281 C 24.984375 11.640625 25.652344 10.671875 26.027344 10.671875 C 26.550781 10.746094 27.742188 12.757812 27.519531 13.578125 C 27.371094 14.324219 25.726562 15.222656 24.984375 15.296875 C 24.386719 15.371094 23.640625 15.070312 23.34375 14.699219 C 23.117188 14.402344 23.042969 13.730469 23.191406 13.355469 C 23.34375 12.910156 23.789062 12.386719 24.3125 12.164062 C 24.90625 11.863281 26.25 11.492188 26.699219 11.863281 C 27.144531 12.164062 27.445312 13.578125 27.21875 14.027344 C 26.996094 14.402344 26.25 14.699219 25.804688 14.625 C 25.28125 14.625 24.386719 14.027344 24.460938 13.878906 C 24.460938 13.804688 26.027344 13.878906 26.027344 14.027344 C 26.027344 14.175781 24.984375 14.773438 24.386719 14.847656 C 23.789062 14.847656 22.894531 14.699219 22.523438 14.25 C 22.222656 13.730469 22.148438 12.386719 22.523438 11.863281 C 22.894531 11.417969 24.011719 11.042969 24.609375 11.117188 C 25.132812 11.195312 25.878906 11.789062 26.027344 12.238281 C 26.175781 12.757812 25.804688 13.804688 25.429688 14.175781 C 25.058594 14.625 24.535156 14.773438 23.9375 14.847656 C 22.894531 14.996094 20.582031 14.847656 19.835938 14.175781 C 19.316406 13.730469 19.164062 12.683594 19.316406 12.164062 C 19.464844 11.714844 19.984375 11.269531 20.507812 11.117188 C 21.402344 10.894531 23.492188 11.417969 24.085938 12.015625 C 24.535156 12.460938 24.609375 13.207031 24.535156 13.730469 C 24.535156 14.25 24.3125 14.921875 23.863281 15.222656 C 23.417969 15.59375 22.445312 15.742188 21.777344 15.667969 C 21.179688 15.519531 20.507812 14.996094 20.058594 14.476562 C 19.539062 13.953125 18.941406 13.058594 18.941406 12.386719 C 18.941406 11.640625 19.390625 10.671875 20.058594 10.296875 C 21.03125 9.703125 23.9375 9.703125 24.757812 10.296875 C 25.28125 10.597656 25.578125 11.417969 25.429688 11.863281 C 25.28125 12.3125 23.789062 12.984375 23.789062 12.984375 " clip-rule="nonzero"/></clipPath><clipPath id="149645a68a"><path d="M 0.9375 0.847656 L 11.371094 0.847656 L 11.371094 6.714844 L 0.9375 6.714844 Z M 0.9375 0.847656 " clip-rule="nonzero"/></clipPath><clipPath id="e37c1456cc"><path d="M 5.789062 3.984375 C 4.074219 3.683594 5.34375 2.714844 5.566406 2.863281 C 5.863281 3.015625 5.566406 4.804688 5.789062 4.804688 C 5.9375 4.878906 6.238281 3.835938 6.683594 3.460938 C 7.207031 3.089844 8.25 2.714844 8.699219 2.863281 C 9.070312 3.015625 9.445312 3.609375 9.519531 3.984375 C 9.519531 4.429688 9.371094 4.953125 8.996094 5.324219 C 8.472656 5.773438 6.90625 6.519531 6.238281 6.296875 C 5.714844 6.144531 5.042969 5.175781 5.117188 4.65625 C 5.191406 4.207031 6.3125 3.460938 6.984375 3.460938 C 7.652344 3.386719 8.773438 4.65625 9.292969 4.355469 C 9.890625 4.058594 9.519531 1.222656 9.964844 1.074219 C 10.339844 0.925781 11.160156 1.746094 11.308594 2.195312 C 11.382812 2.640625 11.011719 3.460938 10.710938 3.757812 C 10.414062 3.984375 9.964844 4.132812 9.667969 3.984375 C 9.21875 3.835938 8.324219 2.863281 8.324219 2.34375 C 8.398438 1.820312 9.59375 1 10.113281 1.074219 C 10.5625 1.074219 11.234375 1.894531 11.308594 2.417969 C 11.382812 2.789062 11.085938 3.460938 10.785156 3.683594 C 10.488281 3.984375 9.816406 4.058594 9.445312 3.984375 C 8.996094 3.835938 8.472656 3.386719 8.398438 3.015625 C 8.324219 2.492188 8.996094 1.222656 9.445312 1.074219 C 9.964844 1 11.234375 2.269531 11.308594 2.269531 C 11.308594 2.195312 9.964844 1.074219 9.964844 1.074219 C 10.039062 1 10.933594 1.449219 11.160156 1.820312 C 11.382812 2.195312 11.382812 2.714844 11.160156 3.238281 C 10.859375 3.984375 9.445312 5.625 8.699219 5.773438 C 8.101562 5.847656 7.429688 5.324219 7.132812 4.953125 C 6.832031 4.503906 6.683594 3.757812 6.832031 3.238281 C 6.984375 2.640625 7.652344 1.671875 8.027344 1.671875 C 8.550781 1.746094 9.742188 3.757812 9.519531 4.578125 C 9.371094 5.324219 7.726562 6.222656 6.984375 6.296875 C 6.386719 6.371094 5.640625 6.070312 5.34375 5.699219 C 5.117188 5.402344 5.042969 4.730469 5.191406 4.355469 C 5.34375 3.910156 5.789062 3.386719 6.3125 3.164062 C 6.90625 2.863281 8.25 2.492188 8.699219 2.863281 C 9.144531 3.164062 9.445312 4.578125 9.21875 5.027344 C 8.996094 5.402344 8.25 5.699219 7.804688 5.625 C 7.28125 5.625 6.386719 5.027344 6.460938 4.878906 C 6.460938 4.804688 8.027344 4.878906 8.027344 5.027344 C 8.027344 5.175781 6.984375 5.773438 6.386719 5.847656 C 5.789062 5.847656 4.894531 5.699219 4.523438 5.25 C 4.222656 4.730469 4.148438 3.386719 4.523438 2.863281 C 4.894531 2.417969 6.011719 2.042969 6.609375 2.117188 C 7.132812 2.195312 7.878906 2.789062 8.027344 3.238281 C 8.175781 3.757812 7.804688 4.804688 7.429688 5.175781 C 7.058594 5.625 6.535156 5.773438 5.9375 5.847656 C 4.894531 5.996094 2.582031 5.847656 1.835938 5.175781 C 1.316406 4.730469 1.164062 3.683594 1.316406 3.164062 C 1.464844 2.714844 1.984375 2.269531 2.507812 2.117188 C 3.402344 1.894531 5.492188 2.417969 6.085938 3.015625 C 6.535156 3.460938 6.609375 4.207031 6.535156 4.730469 C 6.535156 5.25 6.3125 5.921875 5.863281 6.222656 C 5.417969 6.59375 4.445312 6.742188 3.777344 6.667969 C 3.179688 6.519531 2.507812 5.996094 2.058594 5.476562 C 1.539062 4.953125 0.941406 4.058594 0.941406 3.386719 C 0.941406 2.640625 1.390625 1.671875 2.058594 1.296875 C 3.03125 0.703125 5.9375 0.703125 6.757812 1.296875 C 7.28125 1.597656 7.578125 2.417969 7.429688 2.863281 C 7.28125 3.3125 5.789062 3.984375 5.789062 3.984375 " clip-rule="nonzero"/></clipPath><clipPath id="416027a690"><rect x="0" width="12" y="0" height="7"/></clipPath><clipPath id="04850ef876"><path d="M 19.453125 12 L 28.972656 12 L 28.972656 22.160156 L 19.453125 22.160156 Z M 19.453125 12 " clip-rule="nonzero"/></clipPath><clipPath id="dc0e6ace91"><path d="M 28.414062 14.996094 C 26.996094 16.265625 26.027344 15.890625 25.804688 15.519531 C 25.578125 15.222656 26.25 14.027344 26.027344 13.953125 C 25.726562 13.804688 24.085938 16.414062 23.191406 16.636719 C 22.597656 16.710938 21.476562 16.191406 21.476562 16.042969 C 21.476562 15.890625 22.597656 15.59375 23.042969 15.742188 C 23.492188 15.890625 24.011719 16.863281 24.011719 16.863281 C 24.085938 16.785156 22.894531 15.371094 23.042969 14.847656 C 23.117188 14.476562 23.789062 14.175781 24.164062 14.101562 C 24.609375 14.101562 25.207031 14.25 25.503906 14.699219 C 25.953125 15.371094 26.175781 18.351562 25.578125 19.023438 C 25.28125 19.546875 24.011719 19.695312 23.789062 19.472656 C 23.417969 19.097656 24.085938 16.863281 24.683594 16.488281 C 25.132812 16.265625 26.398438 16.5625 26.773438 17.160156 C 27.371094 17.832031 27.292969 20.890625 26.921875 21.039062 C 26.773438 21.1875 26.398438 20.589844 26.175781 20.589844 C 25.953125 20.664062 25.878906 21.632812 25.578125 21.859375 C 25.207031 22.082031 24.535156 22.15625 24.164062 22.007812 C 23.789062 21.859375 23.265625 21.113281 23.191406 20.664062 C 23.191406 20.21875 23.492188 19.621094 23.863281 19.398438 C 24.238281 19.171875 24.832031 19.097656 25.28125 19.246094 C 25.652344 19.398438 26.101562 19.84375 26.175781 20.292969 C 26.25 20.664062 26.101562 21.335938 25.804688 21.632812 C 25.503906 21.933594 24.90625 22.15625 24.460938 22.082031 C 24.085938 22.007812 23.566406 21.632812 23.34375 21.261719 C 23.191406 20.890625 23.191406 20.21875 23.417969 19.84375 C 23.714844 19.472656 24.609375 19.097656 25.132812 19.171875 C 25.503906 19.246094 26.027344 19.695312 26.101562 20.144531 C 26.25 20.515625 26.101562 21.261719 25.804688 21.632812 C 25.578125 21.933594 24.90625 22.230469 24.535156 22.082031 C 24.085938 22.007812 23.191406 20.664062 23.191406 20.589844 C 23.265625 20.589844 23.789062 21.1875 23.9375 21.039062 C 24.386719 20.890625 23.640625 17.757812 24.164062 17.011719 C 24.460938 16.5625 25.207031 16.191406 25.726562 16.265625 C 26.175781 16.414062 26.699219 16.9375 26.921875 17.457031 C 27.144531 18.277344 26.921875 20.292969 26.324219 20.964844 C 25.878906 21.558594 24.683594 21.933594 24.085938 21.710938 C 23.417969 21.484375 22.820312 19.992188 22.597656 19.023438 C 22.371094 17.980469 22.523438 16.414062 22.820312 15.59375 C 23.042969 14.921875 23.417969 14.324219 23.863281 14.175781 C 24.3125 14.101562 25.355469 14.476562 25.652344 14.996094 C 26.027344 15.519531 25.878906 16.863281 25.726562 17.683594 C 25.578125 18.425781 25.28125 19.246094 24.757812 19.621094 C 24.238281 19.992188 23.265625 20.144531 22.746094 19.992188 C 22.222656 19.769531 21.625 19.171875 21.402344 18.503906 C 21.179688 17.683594 21.328125 16.042969 21.777344 15.222656 C 22.222656 14.625 23.265625 14.027344 23.863281 14.027344 C 24.460938 14.027344 25.132812 14.550781 25.355469 15.070312 C 25.652344 15.667969 25.578125 16.636719 25.28125 17.234375 C 25.058594 17.832031 24.535156 18.277344 24.011719 18.503906 C 23.492188 18.800781 22.671875 18.875 22 18.800781 C 21.328125 18.800781 20.433594 18.726562 19.984375 18.277344 C 19.613281 17.832031 19.390625 16.785156 19.539062 16.191406 C 19.6875 15.667969 20.058594 15.296875 20.65625 14.773438 C 21.851562 13.878906 25.355469 12.015625 26.773438 12.015625 C 27.59375 12.089844 28.265625 12.460938 28.636719 13.058594 C 29.085938 13.804688 28.933594 15.445312 28.636719 16.339844 C 28.414062 17.085938 27.890625 17.832031 27.371094 18.128906 C 26.847656 18.425781 26.175781 18.503906 25.726562 18.277344 C 25.132812 18.128906 24.386719 17.605469 24.238281 17.085938 C 24.011719 16.339844 24.609375 14.921875 25.132812 14.175781 C 25.726562 13.503906 27.144531 12.535156 27.742188 12.683594 C 28.191406 12.683594 28.5625 13.28125 28.710938 13.65625 C 28.785156 14.101562 28.414062 14.996094 28.414062 14.996094 " clip-rule="nonzero"/></clipPath><clipPath id="2c818d1cdc"><path d="M 0.453125 0 L 9.972656 0 L 9.972656 10.160156 L 0.453125 10.160156 Z M 0.453125 0 " clip-rule="nonzero"/></clipPath><clipPath id="8cc5b30058"><path d="M 9.414062 2.996094 C 7.996094 4.265625 7.027344 3.890625 6.804688 3.519531 C 6.578125 3.222656 7.25 2.027344 7.027344 1.953125 C 6.726562 1.804688 5.085938 4.414062 4.191406 4.636719 C 3.597656 4.710938 2.476562 4.191406 2.476562 4.042969 C 2.476562 3.890625 3.597656 3.59375 4.042969 3.742188 C 4.492188 3.890625 5.011719 4.863281 5.011719 4.863281 C 5.085938 4.785156 3.894531 3.371094 4.042969 2.847656 C 4.117188 2.476562 4.789062 2.175781 5.164062 2.101562 C 5.609375 2.101562 6.207031 2.25 6.503906 2.699219 C 6.953125 3.371094 7.175781 6.351562 6.578125 7.023438 C 6.28125 7.546875 5.011719 7.695312 4.789062 7.472656 C 4.417969 7.097656 5.085938 4.863281 5.683594 4.488281 C 6.132812 4.265625 7.398438 4.5625 7.773438 5.160156 C 8.371094 5.832031 8.292969 8.890625 7.921875 9.039062 C 7.773438 9.1875 7.398438 8.589844 7.175781 8.589844 C 6.953125 8.664062 6.878906 9.632812 6.578125 9.859375 C 6.207031 10.082031 5.535156 10.15625 5.164062 10.007812 C 4.789062 9.859375 4.265625 9.113281 4.191406 8.664062 C 4.191406 8.21875 4.492188 7.621094 4.863281 7.398438 C 5.238281 7.171875 5.832031 7.097656 6.28125 7.246094 C 6.652344 7.398438 7.101562 7.84375 7.175781 8.292969 C 7.25 8.664062 7.101562 9.335938 6.804688 9.632812 C 6.503906 9.933594 5.90625 10.15625 5.460938 10.082031 C 5.085938 10.007812 4.566406 9.632812 4.34375 9.261719 C 4.191406 8.890625 4.191406 8.21875 4.417969 7.84375 C 4.714844 7.472656 5.609375 7.097656 6.132812 7.171875 C 6.503906 7.246094 7.027344 7.695312 7.101562 8.144531 C 7.25 8.515625 7.101562 9.261719 6.804688 9.632812 C 6.578125 9.933594 5.90625 10.230469 5.535156 10.082031 C 5.085938 10.007812 4.191406 8.664062 4.191406 8.589844 C 4.265625 8.589844 4.789062 9.1875 4.9375 9.039062 C 5.386719 8.890625 4.640625 5.757812 5.164062 5.011719 C 5.460938 4.5625 6.207031 4.191406 6.726562 4.265625 C 7.175781 4.414062 7.699219 4.9375 7.921875 5.457031 C 8.144531 6.277344 7.921875 8.292969 7.324219 8.964844 C 6.878906 9.558594 5.683594 9.933594 5.085938 9.710938 C 4.417969 9.484375 3.820312 7.992188 3.597656 7.023438 C 3.371094 5.980469 3.523438 4.414062 3.820312 3.59375 C 4.042969 2.921875 4.417969 2.324219 4.863281 2.175781 C 5.3125 2.101562 6.355469 2.476562 6.652344 2.996094 C 7.027344 3.519531 6.878906 4.863281 6.726562 5.683594 C 6.578125 6.425781 6.28125 7.246094 5.757812 7.621094 C 5.238281 7.992188 4.265625 8.144531 3.746094 7.992188 C 3.222656 7.769531 2.625 7.171875 2.402344 6.503906 C 2.179688 5.683594 2.328125 4.042969 2.777344 3.222656 C 3.222656 2.625 4.265625 2.027344 4.863281 2.027344 C 5.460938 2.027344 6.132812 2.550781 6.355469 3.070312 C 6.652344 3.667969 6.578125 4.636719 6.28125 5.234375 C 6.058594 5.832031 5.535156 6.277344 5.011719 6.503906 C 4.492188 6.800781 3.671875 6.875 3 6.800781 C 2.328125 6.800781 1.433594 6.726562 0.984375 6.277344 C 0.613281 5.832031 0.390625 4.785156 0.539062 4.191406 C 0.6875 3.667969 1.058594 3.296875 1.65625 2.773438 C 2.851562 1.878906 6.355469 0.015625 7.773438 0.015625 C 8.59375 0.0898438 9.265625 0.460938 9.636719 1.058594 C 10.085938 1.804688 9.933594 3.445312 9.636719 4.339844 C 9.414062 5.085938 8.890625 5.832031 8.371094 6.128906 C 7.847656 6.425781 7.175781 6.503906 6.726562 6.277344 C 6.132812 6.128906 5.386719 5.605469 5.238281 5.085938 C 5.011719 4.339844 5.609375 2.921875 6.132812 2.175781 C 6.726562 1.503906 8.144531 0.535156 8.742188 0.683594 C 9.191406 0.683594 9.5625 1.28125 9.710938 1.65625 C 9.785156 2.101562 9.414062 2.996094 9.414062 2.996094 " clip-rule="nonzero"/></clipPath><clipPath id="7248617eac"><rect x="0" width="10" y="0" height="11"/></clipPath><clipPath id="d2b776b1a6"><path d="M 22.5625 19.898438 L 25.761719 19.898438 L 25.761719 24.800781 L 22.5625 24.800781 Z M 22.5625 19.898438 " clip-rule="nonzero"/></clipPath><clipPath id="fdae55e284"><path d="M 25.726562 21.335938 C 24.535156 24.839844 23.640625 24.765625 23.265625 24.542969 C 22.894531 24.320312 22.597656 23.722656 22.597656 23.273438 C 22.671875 22.828125 23.042969 22.15625 23.417969 21.933594 C 23.789062 21.785156 24.460938 21.785156 24.832031 22.007812 C 25.207031 22.15625 25.578125 22.753906 25.578125 23.125 C 25.652344 23.574219 25.355469 24.171875 25.058594 24.46875 C 24.757812 24.691406 24.085938 24.839844 23.714844 24.691406 C 23.265625 24.617188 22.820312 24.171875 22.671875 23.722656 C 22.597656 23.351562 22.671875 22.679688 22.96875 22.378906 C 23.191406 22.082031 23.863281 21.710938 24.238281 21.785156 C 24.757812 21.933594 25.652344 23.125 25.578125 23.648438 C 25.503906 24.09375 24.757812 24.691406 24.3125 24.765625 C 23.863281 24.839844 23.042969 24.46875 22.820312 24.019531 C 22.445312 23.199219 22.820312 20.664062 23.417969 20.144531 C 23.789062 19.769531 24.683594 19.917969 25.132812 20.144531 C 25.503906 20.367188 25.726562 21.335938 25.726562 21.335938 " clip-rule="nonzero"/></clipPath><clipPath id="0d3650497f"><path d="M 0.5625 0.898438 L 3.761719 0.898438 L 3.761719 5.800781 L 0.5625 5.800781 Z M 0.5625 0.898438 " clip-rule="nonzero"/></clipPath><clipPath id="14a9662111"><path d="M 3.726562 2.335938 C 2.535156 5.839844 1.640625 5.765625 1.265625 5.542969 C 0.894531 5.320312 0.597656 4.722656 0.597656 4.273438 C 0.671875 3.828125 1.042969 3.15625 1.417969 2.933594 C 1.789062 2.785156 2.460938 2.785156 2.832031 3.007812 C 3.207031 3.15625 3.578125 3.753906 3.578125 4.125 C 3.652344 4.574219 3.355469 5.171875 3.058594 5.46875 C 2.757812 5.691406 2.085938 5.839844 1.714844 5.691406 C 1.265625 5.617188 0.820312 5.171875 0.671875 4.722656 C 0.597656 4.351562 0.671875 3.679688 0.96875 3.378906 C 1.191406 3.082031 1.863281 2.710938 2.238281 2.785156 C 2.757812 2.933594 3.652344 4.125 3.578125 4.648438 C 3.503906 5.09375 2.757812 5.691406 2.3125 5.765625 C 1.863281 5.839844 1.042969 5.46875 0.820312 5.019531 C 0.445312 4.199219 0.820312 1.664062 1.417969 1.144531 C 1.789062 0.769531 2.683594 0.917969 3.132812 1.144531 C 3.503906 1.367188 3.726562 2.335938 3.726562 2.335938 " clip-rule="nonzero"/></clipPath><clipPath id="d2e1f970de"><rect x="0" width="4" y="0" height="6"/></clipPath><clipPath id="3bf21e9bed"><path d="M 33.777344 26.476562 L 50.945312 26.476562 L 50.945312 31.070312 L 33.777344 31.070312 Z M 33.777344 26.476562 " clip-rule="nonzero"/></clipPath><clipPath id="b7bb63ff57"><path d="M 35.050781 28.046875 C 38.035156 26.480469 38.257812 27.824219 39.003906 28.046875 C 40.121094 28.347656 42.285156 27.078125 43.925781 27.003906 C 45.714844 27.003906 48.324219 27.378906 49.519531 27.898438 C 50.191406 28.199219 50.785156 28.570312 50.863281 29.09375 C 50.9375 29.539062 50.191406 30.734375 49.667969 30.882812 C 49.296875 31.03125 48.625 30.734375 48.324219 30.433594 C 48.101562 30.136719 47.804688 29.464844 47.953125 29.09375 C 48.175781 28.644531 49.296875 27.898438 49.816406 27.972656 C 50.265625 28.046875 50.9375 28.867188 50.9375 29.390625 C 50.9375 29.839844 50.488281 30.585938 49.816406 30.808594 C 48.625 31.328125 45.269531 29.839844 43.328125 29.914062 C 41.761719 29.914062 40.347656 30.734375 39.152344 30.585938 C 38.109375 30.433594 36.914062 29.988281 36.394531 29.390625 C 36.019531 28.867188 35.945312 27.972656 36.09375 27.527344 C 36.242188 27.078125 36.691406 26.632812 37.066406 26.558594 C 37.511719 26.40625 38.40625 26.707031 38.707031 27.003906 C 39.003906 27.378906 39.003906 28.046875 38.929688 28.496094 C 38.855469 29.019531 38.554688 29.613281 38.109375 29.988281 C 37.4375 30.507812 35.945312 31.179688 35.199219 31.03125 C 34.601562 30.882812 33.859375 30.136719 33.78125 29.613281 C 33.78125 29.167969 35.050781 28.046875 35.050781 28.046875 " clip-rule="nonzero"/></clipPath><clipPath id="be527b7d92"><path d="M 0.777344 0.476562 L 17.945312 0.476562 L 17.945312 5.070312 L 0.777344 5.070312 Z M 0.777344 0.476562 " clip-rule="nonzero"/></clipPath><clipPath id="5c9feb9010"><path d="M 2.050781 2.046875 C 5.035156 0.480469 5.257812 1.824219 6.003906 2.046875 C 7.121094 2.347656 9.285156 1.078125 10.925781 1.003906 C 12.714844 1.003906 15.324219 1.378906 16.519531 1.898438 C 17.191406 2.199219 17.785156 2.570312 17.863281 3.09375 C 17.9375 3.539062 17.191406 4.734375 16.667969 4.882812 C 16.296875 5.03125 15.625 4.734375 15.324219 4.433594 C 15.101562 4.136719 14.804688 3.464844 14.953125 3.09375 C 15.175781 2.644531 16.296875 1.898438 16.816406 1.972656 C 17.265625 2.046875 17.9375 2.867188 17.9375 3.390625 C 17.9375 3.839844 17.488281 4.585938 16.816406 4.808594 C 15.625 5.328125 12.269531 3.839844 10.328125 3.914062 C 8.761719 3.914062 7.347656 4.734375 6.152344 4.585938 C 5.109375 4.433594 3.914062 3.988281 3.394531 3.390625 C 3.019531 2.867188 2.945312 1.972656 3.09375 1.527344 C 3.242188 1.078125 3.691406 0.632812 4.066406 0.558594 C 4.511719 0.40625 5.40625 0.707031 5.707031 1.003906 C 6.003906 1.378906 6.003906 2.046875 5.929688 2.496094 C 5.855469 3.019531 5.554688 3.613281 5.109375 3.988281 C 4.4375 4.507812 2.945312 5.179688 2.199219 5.03125 C 1.601562 4.882812 0.859375 4.136719 0.78125 3.613281 C 0.78125 3.167969 2.050781 2.046875 2.050781 2.046875 " clip-rule="nonzero"/></clipPath><clipPath id="ce35f90fdd"><rect x="0" width="18" y="0" height="6"/></clipPath><clipPath id="9c2006f261"><path d="M 31.441406 32.957031 L 49 32.957031 L 49 42.558594 L 31.441406 42.558594 Z M 31.441406 32.957031 " clip-rule="nonzero"/></clipPath><clipPath id="3eb57edef1"><path d="M 34.378906 34.3125 C 34.230469 34.984375 32.886719 34.238281 32.960938 34.089844 C 32.960938 33.867188 34.828125 33.34375 35.421875 33.789062 C 36.242188 34.3125 36.839844 37.59375 36.46875 38.5625 C 36.242188 39.160156 35.199219 39.832031 34.976562 39.683594 C 34.601562 39.457031 35.050781 36.027344 35.648438 35.429688 C 36.019531 35.132812 36.691406 35.207031 37.066406 35.355469 C 37.4375 35.507812 37.734375 35.953125 37.960938 36.402344 C 38.183594 37.074219 38.257812 38.339844 37.960938 38.9375 C 37.734375 39.457031 36.988281 39.980469 36.691406 39.90625 C 36.46875 39.832031 36.09375 38.789062 36.320312 38.339844 C 36.617188 37.742188 38.40625 36.921875 39.003906 37.148438 C 39.527344 37.445312 39.898438 39.160156 39.675781 39.832031 C 39.375 40.355469 38.183594 41.023438 37.660156 40.875 C 37.214844 40.726562 36.765625 40.054688 36.691406 39.457031 C 36.542969 38.5625 37.140625 36.328125 37.808594 35.878906 C 38.332031 35.507812 39.601562 35.65625 40.046875 36.101562 C 40.570312 36.625 40.71875 38.714844 40.347656 39.085938 C 40.046875 39.308594 38.929688 39.011719 38.628906 38.636719 C 38.183594 38.042969 38.257812 35.878906 38.628906 35.355469 C 38.929688 34.984375 39.527344 34.761719 39.972656 34.835938 C 40.347656 34.910156 40.867188 35.207031 41.089844 35.65625 C 41.390625 36.175781 41.539062 37.667969 41.242188 38.042969 C 41.015625 38.414062 39.898438 38.5625 39.75 38.339844 C 39.601562 38.117188 40.195312 36.625 40.71875 36.328125 C 41.167969 36.027344 42.359375 36.027344 42.65625 36.402344 C 43.03125 36.773438 42.433594 38.636719 42.582031 38.636719 C 42.65625 38.636719 42.957031 37.074219 43.105469 37.074219 C 43.328125 37.074219 44.148438 40.128906 43.851562 40.429688 C 43.554688 40.652344 42.507812 40.429688 42.285156 40.128906 C 42.0625 39.757812 42.210938 38.488281 42.582031 38.265625 C 42.957031 37.96875 43.925781 38.117188 44.375 38.414062 C 44.746094 38.636719 44.894531 39.308594 44.96875 39.832031 C 45.042969 40.429688 44.894531 41.472656 44.523438 41.921875 C 44.222656 42.292969 43.703125 42.589844 43.253906 42.515625 C 42.808594 42.441406 42.0625 41.769531 41.835938 41.175781 C 41.539062 40.277344 41.6875 38.042969 42.210938 37.371094 C 42.507812 36.996094 43.105469 36.847656 43.476562 36.847656 C 43.925781 36.921875 44.375 37.222656 44.671875 37.667969 C 44.96875 38.191406 45.042969 39.535156 44.820312 40.128906 C 44.671875 40.578125 44.375 41.023438 43.925781 41.175781 C 43.476562 41.25 42.359375 40.949219 42.0625 40.429688 C 41.761719 39.90625 42.0625 38.488281 42.433594 37.816406 C 42.734375 37.222656 43.328125 36.625 43.851562 36.476562 C 44.296875 36.328125 45.269531 36.476562 45.34375 36.699219 C 45.417969 36.921875 44.296875 37.894531 44.296875 37.894531 C 44.296875 37.894531 46.460938 34.535156 47.355469 34.460938 C 47.953125 34.386719 48.921875 35.207031 48.921875 35.65625 C 48.996094 36.175781 48.101562 37.371094 47.578125 37.445312 C 47.132812 37.519531 46.3125 36.996094 46.164062 36.550781 C 45.9375 36.101562 46.164062 35.132812 46.535156 34.761719 C 46.910156 34.460938 47.953125 34.460938 48.324219 34.761719 C 48.699219 34.984375 48.996094 35.582031 48.996094 35.953125 C 48.996094 36.402344 48.625 36.996094 48.324219 37.222656 C 47.953125 37.445312 47.28125 37.519531 46.910156 37.296875 C 46.535156 37.148438 46.089844 36.625 46.015625 36.253906 C 45.9375 35.804688 46.089844 35.207031 46.460938 34.910156 C 46.757812 34.609375 48.25 34.761719 48.25 34.609375 C 48.25 34.609375 47.355469 34.460938 47.355469 34.460938 C 47.355469 34.535156 48.402344 34.6875 48.625 34.984375 C 48.921875 35.355469 49.070312 35.878906 48.921875 36.402344 C 48.699219 37.222656 47.429688 39.160156 46.535156 39.683594 C 46.015625 39.980469 45.34375 39.535156 44.894531 39.757812 C 44.449219 39.980469 44.375 41.023438 43.925781 41.175781 C 43.476562 41.324219 42.433594 40.949219 42.0625 40.429688 C 41.6875 39.832031 41.761719 37.894531 42.210938 37.371094 C 42.507812 36.921875 43.402344 36.847656 43.851562 36.921875 C 44.222656 37.074219 44.597656 37.519531 44.746094 37.96875 C 45.042969 38.789062 45.117188 40.875 44.746094 41.621094 C 44.449219 42.144531 43.703125 42.589844 43.253906 42.515625 C 42.808594 42.441406 41.761719 41.25 41.835938 40.800781 C 41.988281 40.277344 44.523438 39.308594 44.746094 39.609375 C 45.042969 39.832031 44 42.21875 43.253906 42.441406 C 42.65625 42.664062 41.613281 42.21875 41.089844 41.695312 C 40.570312 41.023438 40.347656 39.308594 40.421875 38.339844 C 40.421875 37.519531 40.570312 36.402344 41.015625 36.101562 C 41.390625 35.878906 42.359375 36.101562 42.65625 36.402344 C 43.03125 36.699219 43.105469 37.296875 43.105469 37.742188 C 43.03125 38.414062 42.507812 39.382812 41.988281 39.980469 C 41.539062 40.503906 40.792969 41.097656 40.195312 41.023438 C 39.675781 41.023438 38.929688 40.355469 38.554688 39.683594 C 38.109375 38.9375 38.109375 37.148438 38.257812 36.328125 C 38.332031 35.804688 38.554688 35.28125 38.929688 35.058594 C 39.375 34.910156 40.644531 35.132812 41.089844 35.65625 C 41.613281 36.328125 41.390625 38.414062 41.089844 39.308594 C 40.867188 39.90625 40.496094 40.503906 40.046875 40.652344 C 39.449219 40.875 38.332031 40.800781 37.886719 40.277344 C 37.289062 39.535156 37.289062 36.476562 37.808594 35.878906 C 38.183594 35.429688 39.078125 35.429688 39.527344 35.65625 C 39.898438 35.878906 40.269531 36.550781 40.269531 37.148438 C 40.347656 38.042969 39.75 40.203125 39.078125 40.726562 C 38.628906 41.023438 37.734375 40.949219 37.363281 40.726562 C 36.988281 40.503906 36.542969 39.757812 36.691406 39.457031 C 36.914062 39.085938 38.929688 38.714844 39.226562 39.011719 C 39.527344 39.308594 39.152344 40.503906 38.78125 41.097656 C 38.480469 41.621094 38.035156 42.21875 37.511719 42.367188 C 36.914062 42.441406 35.945312 42.21875 35.5 41.621094 C 34.828125 40.800781 34.679688 37.742188 34.976562 36.699219 C 35.125 36.027344 35.574219 35.429688 36.019531 35.28125 C 36.394531 35.132812 37.289062 35.28125 37.585938 35.730469 C 38.183594 36.550781 38.109375 39.457031 37.660156 40.578125 C 37.363281 41.25 36.839844 41.921875 36.242188 41.996094 C 35.648438 42.144531 34.679688 41.769531 34.230469 41.175781 C 33.632812 40.503906 33.484375 37.96875 33.707031 37.816406 C 33.933594 37.742188 34.902344 38.863281 34.828125 38.9375 C 34.753906 39.011719 33.78125 38.636719 33.410156 38.265625 C 33.113281 37.894531 32.886719 37.148438 32.886719 36.550781 C 32.886719 36.101562 32.960938 35.28125 33.261719 35.132812 C 33.632812 34.910156 35.199219 35.507812 35.199219 35.804688 C 35.199219 36.101562 34.007812 36.921875 33.410156 36.921875 C 32.8125 36.847656 31.769531 36.027344 31.546875 35.429688 C 31.320312 34.761719 31.769531 33.492188 32.21875 33.121094 C 32.515625 32.894531 33.261719 32.96875 33.558594 33.121094 C 33.933594 33.34375 34.378906 34.3125 34.378906 34.3125 " clip-rule="nonzero"/></clipPath><clipPath id="e418d07617"><path d="M 0.441406 0.957031 L 18 0.957031 L 18 10.558594 L 0.441406 10.558594 Z M 0.441406 0.957031 " clip-rule="nonzero"/></clipPath><clipPath id="df8b214bf1"><path d="M 3.378906 2.3125 C 3.230469 2.984375 1.886719 2.238281 1.960938 2.089844 C 1.960938 1.867188 3.828125 1.34375 4.421875 1.789062 C 5.242188 2.3125 5.839844 5.59375 5.46875 6.5625 C 5.242188 7.160156 4.199219 7.832031 3.976562 7.683594 C 3.601562 7.457031 4.050781 4.027344 4.648438 3.429688 C 5.019531 3.132812 5.691406 3.207031 6.066406 3.355469 C 6.4375 3.507812 6.734375 3.953125 6.960938 4.402344 C 7.183594 5.074219 7.257812 6.339844 6.960938 6.9375 C 6.734375 7.457031 5.988281 7.980469 5.691406 7.90625 C 5.46875 7.832031 5.09375 6.789062 5.320312 6.339844 C 5.617188 5.742188 7.40625 4.921875 8.003906 5.148438 C 8.527344 5.445312 8.898438 7.160156 8.675781 7.832031 C 8.375 8.355469 7.183594 9.023438 6.660156 8.875 C 6.214844 8.726562 5.765625 8.054688 5.691406 7.457031 C 5.542969 6.5625 6.140625 4.328125 6.808594 3.878906 C 7.332031 3.507812 8.601562 3.65625 9.046875 4.101562 C 9.570312 4.625 9.71875 6.714844 9.347656 7.085938 C 9.046875 7.308594 7.929688 7.011719 7.628906 6.636719 C 7.183594 6.042969 7.257812 3.878906 7.628906 3.355469 C 7.929688 2.984375 8.527344 2.761719 8.972656 2.835938 C 9.347656 2.910156 9.867188 3.207031 10.089844 3.65625 C 10.390625 4.175781 10.539062 5.667969 10.242188 6.042969 C 10.015625 6.414062 8.898438 6.5625 8.75 6.339844 C 8.601562 6.117188 9.195312 4.625 9.71875 4.328125 C 10.167969 4.027344 11.359375 4.027344 11.65625 4.402344 C 12.03125 4.773438 11.433594 6.636719 11.582031 6.636719 C 11.65625 6.636719 11.957031 5.074219 12.105469 5.074219 C 12.328125 5.074219 13.148438 8.128906 12.851562 8.429688 C 12.554688 8.652344 11.507812 8.429688 11.285156 8.128906 C 11.0625 7.757812 11.210938 6.488281 11.582031 6.265625 C 11.957031 5.96875 12.925781 6.117188 13.375 6.414062 C 13.746094 6.636719 13.894531 7.308594 13.96875 7.832031 C 14.042969 8.429688 13.894531 9.472656 13.523438 9.921875 C 13.222656 10.292969 12.703125 10.589844 12.253906 10.515625 C 11.808594 10.441406 11.0625 9.769531 10.835938 9.175781 C 10.539062 8.277344 10.6875 6.042969 11.210938 5.371094 C 11.507812 4.996094 12.105469 4.847656 12.476562 4.847656 C 12.925781 4.921875 13.375 5.222656 13.671875 5.667969 C 13.96875 6.191406 14.042969 7.535156 13.820312 8.128906 C 13.671875 8.578125 13.375 9.023438 12.925781 9.175781 C 12.476562 9.25 11.359375 8.949219 11.0625 8.429688 C 10.761719 7.90625 11.0625 6.488281 11.433594 5.816406 C 11.734375 5.222656 12.328125 4.625 12.851562 4.476562 C 13.296875 4.328125 14.269531 4.476562 14.34375 4.699219 C 14.417969 4.921875 13.296875 5.894531 13.296875 5.894531 C 13.296875 5.894531 15.460938 2.535156 16.355469 2.460938 C 16.953125 2.386719 17.921875 3.207031 17.921875 3.65625 C 17.996094 4.175781 17.101562 5.371094 16.578125 5.445312 C 16.132812 5.519531 15.3125 4.996094 15.164062 4.550781 C 14.9375 4.101562 15.164062 3.132812 15.535156 2.761719 C 15.910156 2.460938 16.953125 2.460938 17.324219 2.761719 C 17.699219 2.984375 17.996094 3.582031 17.996094 3.953125 C 17.996094 4.402344 17.625 4.996094 17.324219 5.222656 C 16.953125 5.445312 16.28125 5.519531 15.910156 5.296875 C 15.535156 5.148438 15.089844 4.625 15.015625 4.253906 C 14.9375 3.804688 15.089844 3.207031 15.460938 2.910156 C 15.757812 2.609375 17.25 2.761719 17.25 2.609375 C 17.25 2.609375 16.355469 2.460938 16.355469 2.460938 C 16.355469 2.535156 17.402344 2.6875 17.625 2.984375 C 17.921875 3.355469 18.070312 3.878906 17.921875 4.402344 C 17.699219 5.222656 16.429688 7.160156 15.535156 7.683594 C 15.015625 7.980469 14.34375 7.535156 13.894531 7.757812 C 13.449219 7.980469 13.375 9.023438 12.925781 9.175781 C 12.476562 9.324219 11.433594 8.949219 11.0625 8.429688 C 10.6875 7.832031 10.761719 5.894531 11.210938 5.371094 C 11.507812 4.921875 12.402344 4.847656 12.851562 4.921875 C 13.222656 5.074219 13.597656 5.519531 13.746094 5.96875 C 14.042969 6.789062 14.117188 8.875 13.746094 9.621094 C 13.449219 10.144531 12.703125 10.589844 12.253906 10.515625 C 11.808594 10.441406 10.761719 9.25 10.835938 8.800781 C 10.988281 8.277344 13.523438 7.308594 13.746094 7.609375 C 14.042969 7.832031 13 10.21875 12.253906 10.441406 C 11.65625 10.664062 10.613281 10.21875 10.089844 9.695312 C 9.570312 9.023438 9.347656 7.308594 9.421875 6.339844 C 9.421875 5.519531 9.570312 4.402344 10.015625 4.101562 C 10.390625 3.878906 11.359375 4.101562 11.65625 4.402344 C 12.03125 4.699219 12.105469 5.296875 12.105469 5.742188 C 12.03125 6.414062 11.507812 7.382812 10.988281 7.980469 C 10.539062 8.503906 9.792969 9.097656 9.195312 9.023438 C 8.675781 9.023438 7.929688 8.355469 7.554688 7.683594 C 7.109375 6.9375 7.109375 5.148438 7.257812 4.328125 C 7.332031 3.804688 7.554688 3.28125 7.929688 3.058594 C 8.375 2.910156 9.644531 3.132812 10.089844 3.65625 C 10.613281 4.328125 10.390625 6.414062 10.089844 7.308594 C 9.867188 7.90625 9.496094 8.503906 9.046875 8.652344 C 8.449219 8.875 7.332031 8.800781 6.886719 8.277344 C 6.289062 7.535156 6.289062 4.476562 6.808594 3.878906 C 7.183594 3.429688 8.078125 3.429688 8.527344 3.65625 C 8.898438 3.878906 9.269531 4.550781 9.269531 5.148438 C 9.347656 6.042969 8.75 8.203125 8.078125 8.726562 C 7.628906 9.023438 6.734375 8.949219 6.363281 8.726562 C 5.988281 8.503906 5.542969 7.757812 5.691406 7.457031 C 5.914062 7.085938 7.929688 6.714844 8.226562 7.011719 C 8.527344 7.308594 8.152344 8.503906 7.78125 9.097656 C 7.480469 9.621094 7.035156 10.21875 6.511719 10.367188 C 5.914062 10.441406 4.945312 10.21875 4.5 9.621094 C 3.828125 8.800781 3.679688 5.742188 3.976562 4.699219 C 4.125 4.027344 4.574219 3.429688 5.019531 3.28125 C 5.394531 3.132812 6.289062 3.28125 6.585938 3.730469 C 7.183594 4.550781 7.109375 7.457031 6.660156 8.578125 C 6.363281 9.25 5.839844 9.921875 5.242188 9.996094 C 4.648438 10.144531 3.679688 9.769531 3.230469 9.175781 C 2.632812 8.503906 2.484375 5.96875 2.707031 5.816406 C 2.933594 5.742188 3.902344 6.863281 3.828125 6.9375 C 3.753906 7.011719 2.78125 6.636719 2.410156 6.265625 C 2.113281 5.894531 1.886719 5.148438 1.886719 4.550781 C 1.886719 4.101562 1.960938 3.28125 2.261719 3.132812 C 2.632812 2.910156 4.199219 3.507812 4.199219 3.804688 C 4.199219 4.101562 3.007812 4.921875 2.410156 4.921875 C 1.8125 4.847656 0.769531 4.027344 0.546875 3.429688 C 0.320312 2.761719 0.769531 1.492188 1.21875 1.121094 C 1.515625 0.894531 2.261719 0.96875 2.558594 1.121094 C 2.933594 1.34375 3.378906 2.3125 3.378906 2.3125 " clip-rule="nonzero"/></clipPath><clipPath id="09f853fed3"><rect x="0" width="18" y="0" height="11"/></clipPath><clipPath id="8b4222928e"><path d="M 34.515625 31.019531 L 46.472656 31.019531 L 46.472656 34.585938 L 34.515625 34.585938 Z M 34.515625 31.019531 " clip-rule="nonzero"/></clipPath><clipPath id="8c0400964a"><path d="M 36.019531 31.03125 C 46.164062 31.554688 46.460938 32.597656 46.3125 33.046875 C 46.238281 33.492188 45.269531 34.015625 44.820312 34.015625 C 44.375 34.015625 43.777344 33.640625 43.628906 33.195312 C 43.476562 32.820312 43.554688 31.777344 43.925781 31.480469 C 44.296875 31.105469 45.269531 31.03125 45.714844 31.253906 C 46.089844 31.40625 46.460938 32 46.460938 32.449219 C 46.386719 32.96875 45.789062 33.640625 44.96875 34.015625 C 43.328125 34.761719 37.660156 34.761719 36.019531 34.015625 C 35.199219 33.640625 34.527344 32.820312 34.527344 32.375 C 34.601562 31.851562 36.019531 31.03125 36.019531 31.03125 " clip-rule="nonzero"/></clipPath><clipPath id="5540e925ba"><path d="M 0.515625 0.0195312 L 12.472656 0.0195312 L 12.472656 3.585938 L 0.515625 3.585938 Z M 0.515625 0.0195312 " clip-rule="nonzero"/></clipPath><clipPath id="eb7d238cf4"><path d="M 2.019531 0.03125 C 12.164062 0.554688 12.460938 1.597656 12.3125 2.046875 C 12.238281 2.492188 11.269531 3.015625 10.820312 3.015625 C 10.375 3.015625 9.777344 2.640625 9.628906 2.195312 C 9.476562 1.820312 9.554688 0.777344 9.925781 0.480469 C 10.296875 0.105469 11.269531 0.03125 11.714844 0.253906 C 12.089844 0.40625 12.460938 1 12.460938 1.449219 C 12.386719 1.96875 11.789062 2.640625 10.96875 3.015625 C 9.328125 3.761719 3.660156 3.761719 2.019531 3.015625 C 1.199219 2.640625 0.527344 1.820312 0.527344 1.375 C 0.601562 0.851562 2.019531 0.03125 2.019531 0.03125 " clip-rule="nonzero"/></clipPath><clipPath id="90b3c0d100"><rect x="0" width="13" y="0" height="4"/></clipPath></defs><g clip-path="url(#881038d87f)"><g transform="matrix(1, 0, 0, 1, 14, 55)"><g clip-path="url(#9ba3072db9)"><g clip-path="url(#e176e636ab)"><path fill="#a6a6a6" d="M 0.9375 0.289062 L 53.886719 0.289062 L 53.886719 116.117188 L 0.9375 116.117188 Z M 0.9375 0.289062 " fill-opacity="1" fill-rule="nonzero"/></g></g></g></g><g clip-path="url(#7c23b258a8)"><g transform="matrix(1, 0, 0, 1, 32, 39)"><g clip-path="url(#5c7dde1839)"><g clip-path="url(#4327cdb651)"><path fill="#ffe7c2" d="M 0.835938 0.625 L 17.964844 0.625 L 17.964844 16.289062 L 0.835938 16.289062 Z M 0.835938 0.625 " fill-opacity="1" fill-rule="nonzero"/></g></g></g></g><g clip-path="url(#2ab7b33d41)"><g transform="matrix(1, 0, 0, 1, 26, 9)"><g clip-path="url(#ec0f3c2622)"><g clip-path="url(#fb35755f3d)"><path fill="#ffe7c2" d="M 0.503906 0.0742188 L 29.726562 0.0742188 L 29.726562 30.664062 L 0.503906 30.664062 Z M 0.503906 0.0742188 " fill-opacity="1" fill-rule="nonzero"/></g></g></g></g><g clip-path="url(#0478c70f46)"><g transform="matrix(1, 0, 0, 1, 14, 109)"><g clip-path="url(#a18e97dd9b)"><g clip-path="url(#6728e7b6d0)"><path fill="#a6a6a6" d="M 0.9375 0.433594 L 53.886719 0.433594 L 53.886719 62.070312 L 0.9375 62.070312 Z M 0.9375 0.433594 " fill-opacity="1" fill-rule="nonzero"/></g></g></g></g><g clip-path="url(#a420f0659a)"><g clip-path="url(#d5dc99b573)"><g transform="matrix(1, 0, 0, 1, 31, 18)"><g clip-path="url(#54ccddfda2)"><g clip-path="url(#d481ec69bf)"><g clip-path="url(#15c1828d33)"><path fill="#000000" d="M 0.121094 0.34375 L 6.128906 0.34375 L 6.128906 6.351562 L 0.121094 6.351562 Z M 0.121094 0.34375 " fill-opacity="1" fill-rule="nonzero"/></g></g></g></g></g></g><g clip-path="url(#3090e1a889)"><g clip-path="url(#5db9cf16ef)"><g transform="matrix(1, 0, 0, 1, 32, 19)"><g clip-path="url(#f7742d0b2f)"><g clip-path="url(#77af6f3338)"><g clip-path="url(#6add5e2a99)"><path fill="#ffffff" d="M 0.621094 0.707031 L 3.625 0.707031 L 3.625 3.710938 L 0.621094 3.710938 Z M 0.621094 0.707031 " fill-opacity="1" fill-rule="nonzero"/></g></g></g></g></g></g><g clip-path="url(#c5245ec6c6)"><g clip-path="url(#ead2dd836a)"><g transform="matrix(1, 0, 0, 1, 45, 18)"><g clip-path="url(#0c65b14816)"><g clip-path="url(#8a26cd33c1)"><g clip-path="url(#d809bdd7dc)"><path fill="#000000" d="M 0.523438 0.203125 L 6.53125 0.203125 L 6.53125 6.210938 L 0.523438 6.210938 Z M 0.523438 0.203125 " fill-opacity="1" fill-rule="nonzero"/></g></g></g></g></g></g><g clip-path="url(#ea11ba5fd5)"><g clip-path="url(#5ddd4d1f3e)"><g transform="matrix(1, 0, 0, 1, 47, 19)"><g clip-path="url(#e96dbcb5ca)"><g clip-path="url(#b4d0145a7d)"><g clip-path="url(#339788811c)"><path fill="#ffffff" d="M 0.0273438 0.84375 L 3.03125 0.84375 L 3.03125 3.847656 L 0.0273438 3.847656 Z M 0.0273438 0.84375 " fill-opacity="1" fill-rule="nonzero"/></g></g></g></g></g></g><g clip-path="url(#bc2beb5a51)"><g clip-path="url(#ff29018cb5)"><g transform="matrix(1, 0, 0, 1, 0, 57)"><g clip-path="url(#62c0a8f97c)"><g clip-path="url(#f73e9b1f4e)"><g clip-path="url(#5c63173968)"><path fill="#a6a6a6" d="M 19.074219 0.578125 L 25.324219 3.152344 L 6.246094 49.492188 L -0.0078125 46.917969 Z M 19.074219 0.578125 " fill-opacity="1" fill-rule="nonzero"/></g></g></g></g></g></g><g clip-path="url(#695a5a9f00)"><g clip-path="url(#bfe85f3cb5)"><g transform="matrix(1, 0, 0, 1, 58, 57)"><g clip-path="url(#c4304a3945)"><g clip-path="url(#1f51d7edfe)"><g clip-path="url(#f0710f7b97)"><path fill="#a6a6a6" d="M 0.128906 3.621094 L 6.164062 0.578125 L 29.273438 46.441406 L 23.238281 49.484375 Z M 0.128906 3.621094 " fill-opacity="1" fill-rule="nonzero"/></g></g></g></g></g></g><g clip-path="url(#b9db9100f4)"><g transform="matrix(1, 0, 0, 1, 29, 171)"><g clip-path="url(#46e16bcf52)"><g clip-path="url(#9b05f38ed8)"><path fill="#7a4900" d="M 0.371094 0.121094 L 6.871094 0.121094 L 6.871094 15.640625 L 0.371094 15.640625 Z M 0.371094 0.121094 " fill-opacity="1" fill-rule="nonzero"/></g></g></g></g><g clip-path="url(#59940b4f87)"><g transform="matrix(1, 0, 0, 1, 54, 171)"><g clip-path="url(#9af1d629d6)"><g clip-path="url(#ff3e0879db)"><path fill="#7a4900" d="M 0.875 0.121094 L 7.375 0.121094 L 7.375 15.640625 L 0.875 15.640625 Z M 0.875 0.121094 " fill-opacity="1" fill-rule="nonzero"/></g></g></g></g><g clip-path="url(#295c35e054)"><g transform="matrix(1, 0, 0, 1, 45, 180)"><g clip-path="url(#87e9d32654)"><g clip-path="url(#835b738f3c)"><path fill="#7a4900" d="M 9.867188 0.0742188 L 9.867188 6.574219 L 0.164062 6.574219 L 0.164062 0.0742188 Z M 9.867188 0.0742188 " fill-opacity="1" fill-rule="nonzero"/></g></g></g></g><g clip-path="url(#3977e10d0b)"><g transform="matrix(1, 0, 0, 1, 19, 180)"><g clip-path="url(#ea9fc23256)"><g clip-path="url(#242054a3d3)"><path fill="#7a4900" d="M 10.363281 0.0742188 L 10.363281 6.574219 L 0.660156 6.574219 L 0.660156 0.0742188 Z M 10.363281 0.0742188 " fill-opacity="1" fill-rule="nonzero"/></g></g></g></g><path stroke-linecap="butt" transform="matrix(0.745786, 0, 0, 0.745786, 29.159046, 15.22118)" fill="none" stroke-linejoin="miter" d="M 0.00148848 1.997566 L 13.310635 1.997566 " stroke="#000000" stroke-width="4" stroke-opacity="1" stroke-miterlimit="4"/><path stroke-linecap="butt" transform="matrix(-0.745786, 0, 0, -0.745786, 54.129431, 18.204325)" fill="none" stroke-linejoin="miter" d="M 0.00070407 2.002432 L 11.911368 2.002432 " stroke="#000000" stroke-width="4" stroke-opacity="1" stroke-miterlimit="4"/><g clip-path="url(#2328f3a5c2)"><g clip-path="url(#cc4c912260)"><g transform="matrix(1, 0, 0, 1, 19, 3)"><g clip-path="url(#d40d937e30)"><g clip-path="url(#1f5cb6f290)"><g clip-path="url(#4294535e85)"><rect x="-38.47" width="127.44" fill="#7a4900" height="271.080001" y="-44.415" fill-opacity="1"/></g></g></g></g></g></g><g clip-path="url(#3e76af8837)"><g clip-path="url(#daa66cf52a)"><g transform="matrix(1, 0, 0, 1, 18, 9)"><g clip-path="url(#416027a690)"><g clip-path="url(#149645a68a)"><g clip-path="url(#e37c1456cc)"><rect x="-37.47" width="127.44" fill="#7a4900" height="271.080001" y="-50.415" fill-opacity="1"/></g></g></g></g></g></g><g clip-path="url(#04850ef876)"><g clip-path="url(#dc0e6ace91)"><g transform="matrix(1, 0, 0, 1, 19, 12)"><g clip-path="url(#7248617eac)"><g clip-path="url(#2c818d1cdc)"><g clip-path="url(#8cc5b30058)"><rect x="-38.47" width="127.44" fill="#7a4900" height="271.080001" y="-53.415" fill-opacity="1"/></g></g></g></g></g></g><g clip-path="url(#d2b776b1a6)"><g clip-path="url(#fdae55e284)"><g transform="matrix(1, 0, 0, 1, 22, 19)"><g clip-path="url(#d2e1f970de)"><g clip-path="url(#0d3650497f)"><g clip-path="url(#14a9662111)"><rect x="-41.47" width="127.44" fill="#7a4900" height="271.080001" y="-60.415" fill-opacity="1"/></g></g></g></g></g></g><g clip-path="url(#3bf21e9bed)"><g clip-path="url(#b7bb63ff57)"><g transform="matrix(1, 0, 0, 1, 33, 26)"><g clip-path="url(#ce35f90fdd)"><g clip-path="url(#be527b7d92)"><g clip-path="url(#5c9feb9010)"><rect x="-52.47" width="127.44" fill="#7a4900" height="271.080001" y="-67.415" fill-opacity="1"/></g></g></g></g></g></g><g clip-path="url(#9c2006f261)"><g clip-path="url(#3eb57edef1)"><g transform="matrix(1, 0, 0, 1, 31, 32)"><g clip-path="url(#09f853fed3)"><g clip-path="url(#e418d07617)"><g clip-path="url(#df8b214bf1)"><rect x="-50.47" width="127.44" fill="#7a4900" height="271.080001" y="-73.415" fill-opacity="1"/></g></g></g></g></g></g><g clip-path="url(#8b4222928e)"><g clip-path="url(#8c0400964a)"><g transform="matrix(1, 0, 0, 1, 34, 31)"><g clip-path="url(#90b3c0d100)"><g clip-path="url(#5540e925ba)"><g clip-path="url(#eb7d238cf4)"><rect x="-53.47" width="127.44" fill="#000000" height="271.080001" y="-72.415" fill-opacity="1"/></g></g></g></g></g></g></svg>