<svg xmlns="http://www.w3.org/2000/svg" xmlns:xlink="http://www.w3.org/1999/xlink" width="132" zoomAndPan="magnify" viewBox="0 0 98.88 186.749996" height="249" preserveAspectRatio="xMidYMid meet" version="1.0"><defs><clipPath id="0a9fea50ba"><path d="M 27.371094 133.011719 L 35.589844 133.011719 L 35.589844 186.089844 L 27.371094 186.089844 Z M 27.371094 133.011719 " clip-rule="nonzero"/></clipPath><clipPath id="435f31bd26"><path d="M 0.371094 0.0117188 L 8.589844 0.0117188 L 8.589844 53.089844 L 0.371094 53.089844 Z M 0.371094 0.0117188 " clip-rule="nonzero"/></clipPath><clipPath id="671a516c9c"><rect x="0" width="9" y="0" height="54"/></clipPath><clipPath id="2d86ebccce"><path d="M 1 60 L 27 60 L 27 110 L 1 110 Z M 1 60 " clip-rule="nonzero"/></clipPath><clipPath id="b9dbc6a735"><path d="M 20.378906 60.355469 L 26.65625 62.941406 L 7.5 109.46875 L 1.222656 106.886719 Z M 20.378906 60.355469 " clip-rule="nonzero"/></clipPath><clipPath id="1bb08fa8c4"><path d="M 0.203125 0.160156 L 25.851562 0.160156 L 25.851562 49.535156 L 0.203125 49.535156 Z M 0.203125 0.160156 " clip-rule="nonzero"/></clipPath><clipPath id="bc65ebd5ed"><path d="M 19.378906 0.355469 L 25.65625 2.941406 L 6.5 49.46875 L 0.222656 46.886719 Z M 19.378906 0.355469 " clip-rule="nonzero"/></clipPath><clipPath id="03efc205d3"><rect x="0" width="26" y="0" height="50"/></clipPath><clipPath id="700f2786e8"><path d="M 13.9375 49.429688 L 35.132812 49.429688 L 35.132812 64.964844 L 13.9375 64.964844 Z M 13.9375 49.429688 " clip-rule="nonzero"/></clipPath><clipPath id="664b8e0161"><path d="M 0.9375 0.429688 L 22.132812 0.429688 L 22.132812 15.964844 L 0.9375 15.964844 Z M 0.9375 0.429688 " clip-rule="nonzero"/></clipPath><clipPath id="b3674ab011"><rect x="0" width="23" y="0" height="16"/></clipPath><clipPath id="a92ee5d2ea"><path d="M 69 56 L 98.753906 56 L 98.753906 106 L 69 106 Z M 69 56 " clip-rule="nonzero"/></clipPath><clipPath id="5f1f385e4a"><path d="M 69.171875 59.75 L 75.234375 56.695312 L 98.441406 102.753906 L 92.378906 105.808594 Z M 69.171875 59.75 " clip-rule="nonzero"/></clipPath><clipPath id="70a66d6909"><path d="M 0.0351562 0.5625 L 29.515625 0.5625 L 29.515625 49.9375 L 0.0351562 49.9375 Z M 0.0351562 0.5625 " clip-rule="nonzero"/></clipPath><clipPath id="a387faa5b0"><path d="M 0.171875 3.75 L 6.234375 0.695312 L 29.441406 46.753906 L 23.378906 49.808594 Z M 0.171875 3.75 " clip-rule="nonzero"/></clipPath><clipPath id="00e3a13831"><rect x="0" width="30" y="0" height="50"/></clipPath><clipPath id="75fb74b805"><path d="M 60.054688 49.429688 L 81.25 49.429688 L 81.25 64.964844 L 60.054688 64.964844 Z M 60.054688 49.429688 " clip-rule="nonzero"/></clipPath><clipPath id="1123210de7"><path d="M 0.0546875 0.429688 L 21.25 0.429688 L 21.25 15.964844 L 0.0546875 15.964844 Z M 0.0546875 0.429688 " clip-rule="nonzero"/></clipPath><clipPath id="029a659f68"><rect x="0" width="22" y="0" height="16"/></clipPath><clipPath id="52f6a4b410"><path d="M 17.820312 54.238281 L 77.867188 54.238281 L 77.867188 138.316406 L 17.820312 138.316406 Z M 17.820312 54.238281 " clip-rule="nonzero"/></clipPath><clipPath id="b5ff5bd9b3"><path d="M 0.820312 0.238281 L 60.867188 0.238281 L 60.867188 84.316406 L 0.820312 84.316406 Z M 0.820312 0.238281 " clip-rule="nonzero"/></clipPath><clipPath id="2a456730f4"><rect x="0" width="61" y="0" height="85"/></clipPath><clipPath id="f40f188968"><path d="M 40.089844 38.511719 L 57.316406 38.511719 L 57.316406 54.238281 L 40.089844 54.238281 Z M 40.089844 38.511719 " clip-rule="nonzero"/></clipPath><clipPath id="8fda3b2f08"><path d="M 0.0898438 0.511719 L 17.316406 0.511719 L 17.316406 16.238281 L 0.0898438 16.238281 Z M 0.0898438 0.511719 " clip-rule="nonzero"/></clipPath><clipPath id="50f72cf97e"><rect x="0" width="18" y="0" height="17"/></clipPath><clipPath id="deac45faac"><path d="M 33.730469 7.824219 L 63.078125 7.824219 L 63.078125 38.511719 L 33.730469 38.511719 Z M 33.730469 7.824219 " clip-rule="nonzero"/></clipPath><clipPath id="7beb40310c"><path d="M 0.730469 0.824219 L 30.078125 0.824219 L 30.078125 31.511719 L 0.730469 31.511719 Z M 0.730469 0.824219 " clip-rule="nonzero"/></clipPath><clipPath id="f48ec38a7f"><rect x="0" width="31" y="0" height="32"/></clipPath><clipPath id="62659707cd"><path d="M 38.367188 17.132812 L 44.398438 17.132812 L 44.398438 23.167969 L 38.367188 23.167969 Z M 38.367188 17.132812 " clip-rule="nonzero"/></clipPath><clipPath id="fddb0c78ad"><path d="M 41.382812 17.132812 C 39.71875 17.132812 38.367188 18.484375 38.367188 20.152344 C 38.367188 21.816406 39.71875 23.167969 41.382812 23.167969 C 43.050781 23.167969 44.398438 21.816406 44.398438 20.152344 C 44.398438 18.484375 43.050781 17.132812 41.382812 17.132812 Z M 41.382812 17.132812 " clip-rule="nonzero"/></clipPath><clipPath id="a10aa893ba"><path d="M 0.367188 0.132812 L 6.398438 0.132812 L 6.398438 6.167969 L 0.367188 6.167969 Z M 0.367188 0.132812 " clip-rule="nonzero"/></clipPath><clipPath id="3065645abc"><path d="M 3.382812 0.132812 C 1.71875 0.132812 0.367188 1.484375 0.367188 3.152344 C 0.367188 4.816406 1.71875 6.167969 3.382812 6.167969 C 5.050781 6.167969 6.398438 4.816406 6.398438 3.152344 C 6.398438 1.484375 5.050781 0.132812 3.382812 0.132812 Z M 3.382812 0.132812 " clip-rule="nonzero"/></clipPath><clipPath id="618f91e488"><rect x="0" width="7" y="0" height="7"/></clipPath><clipPath id="6568637928"><path d="M 39.875 18.503906 L 42.890625 18.503906 L 42.890625 21.519531 L 39.875 21.519531 Z M 39.875 18.503906 " clip-rule="nonzero"/></clipPath><clipPath id="87a0a25bf7"><path d="M 41.382812 18.503906 C 40.546875 18.503906 39.875 19.179688 39.875 20.011719 C 39.875 20.84375 40.546875 21.519531 41.382812 21.519531 C 42.214844 21.519531 42.890625 20.84375 42.890625 20.011719 C 42.890625 19.179688 42.214844 18.503906 41.382812 18.503906 Z M 41.382812 18.503906 " clip-rule="nonzero"/></clipPath><clipPath id="e6593b149d"><path d="M 0.875 0.503906 L 3.890625 0.503906 L 3.890625 3.519531 L 0.875 3.519531 Z M 0.875 0.503906 " clip-rule="nonzero"/></clipPath><clipPath id="018318388d"><path d="M 2.382812 0.503906 C 1.546875 0.503906 0.875 1.179688 0.875 2.011719 C 0.875 2.84375 1.546875 3.519531 2.382812 3.519531 C 3.214844 3.519531 3.890625 2.84375 3.890625 2.011719 C 3.890625 1.179688 3.214844 0.503906 2.382812 0.503906 Z M 2.382812 0.503906 " clip-rule="nonzero"/></clipPath><clipPath id="2a5c8dc3da"><rect x="0" width="4" y="0" height="4"/></clipPath><clipPath id="df822cbf7c"><path d="M 52.832031 16.996094 L 58.863281 16.996094 L 58.863281 23.027344 L 52.832031 23.027344 Z M 52.832031 16.996094 " clip-rule="nonzero"/></clipPath><clipPath id="9ea0440f96"><path d="M 55.847656 16.996094 C 54.183594 16.996094 52.832031 18.347656 52.832031 20.011719 C 52.832031 21.679688 54.183594 23.027344 55.847656 23.027344 C 57.515625 23.027344 58.863281 21.679688 58.863281 20.011719 C 58.863281 18.347656 57.515625 16.996094 55.847656 16.996094 Z M 55.847656 16.996094 " clip-rule="nonzero"/></clipPath><clipPath id="dcd018949f"><path d="M 0.832031 0.996094 L 6.863281 0.996094 L 6.863281 7.027344 L 0.832031 7.027344 Z M 0.832031 0.996094 " clip-rule="nonzero"/></clipPath><clipPath id="75fc4e1028"><path d="M 3.847656 0.996094 C 2.183594 0.996094 0.832031 2.347656 0.832031 4.011719 C 0.832031 5.679688 2.183594 7.027344 3.847656 7.027344 C 5.515625 7.027344 6.863281 5.679688 6.863281 4.011719 C 6.863281 2.347656 5.515625 0.996094 3.847656 0.996094 Z M 3.847656 0.996094 " clip-rule="nonzero"/></clipPath><clipPath id="2093e5ee1e"><rect x="0" width="7" y="0" height="8"/></clipPath><clipPath id="85d19e95e6"><path d="M 54.339844 18.644531 L 57.355469 18.644531 L 57.355469 21.660156 L 54.339844 21.660156 Z M 54.339844 18.644531 " clip-rule="nonzero"/></clipPath><clipPath id="e160ac8b1c"><path d="M 55.847656 18.644531 C 55.015625 18.644531 54.339844 19.316406 54.339844 20.152344 C 54.339844 20.984375 55.015625 21.660156 55.847656 21.660156 C 56.679688 21.660156 57.355469 20.984375 57.355469 20.152344 C 57.355469 19.316406 56.679688 18.644531 55.847656 18.644531 Z M 55.847656 18.644531 " clip-rule="nonzero"/></clipPath><clipPath id="115ff1dab0"><path d="M 0.339844 0.644531 L 3.355469 0.644531 L 3.355469 3.660156 L 0.339844 3.660156 Z M 0.339844 0.644531 " clip-rule="nonzero"/></clipPath><clipPath id="b2e5840481"><path d="M 1.847656 0.644531 C 1.015625 0.644531 0.339844 1.316406 0.339844 2.152344 C 0.339844 2.984375 1.015625 3.660156 1.847656 3.660156 C 2.679688 3.660156 3.355469 2.984375 3.355469 2.152344 C 3.355469 1.316406 2.679688 0.644531 1.847656 0.644531 Z M 1.847656 0.644531 " clip-rule="nonzero"/></clipPath><clipPath id="8fd3b43ef0"><rect x="0" width="4" y="0" height="4"/></clipPath><clipPath id="04bbda636c"><path d="M 59.605469 138.242188 L 67.824219 138.242188 L 67.824219 186.089844 L 59.605469 186.089844 Z M 59.605469 138.242188 " clip-rule="nonzero"/></clipPath><clipPath id="c497b22b57"><path d="M 0.605469 0.242188 L 8.824219 0.242188 L 8.824219 48.089844 L 0.605469 48.089844 Z M 0.605469 0.242188 " clip-rule="nonzero"/></clipPath><clipPath id="bec8ebfb5c"><rect x="0" width="9" y="0" height="49"/></clipPath><clipPath id="db37ead968"><path d="M 47.347656 179.484375 L 59.597656 179.484375 L 59.597656 186.015625 L 47.347656 186.015625 Z M 47.347656 179.484375 " clip-rule="nonzero"/></clipPath><clipPath id="a7ff077b8b"><path d="M 0.347656 0.484375 L 12.597656 0.484375 L 12.597656 7.015625 L 0.347656 7.015625 Z M 0.347656 0.484375 " clip-rule="nonzero"/></clipPath><clipPath id="837bdf4f17"><rect x="0" width="13" y="0" height="8"/></clipPath><clipPath id="59a0cd7018"><path d="M 15.113281 179.484375 L 27.363281 179.484375 L 27.363281 186.015625 L 15.113281 186.015625 Z M 15.113281 179.484375 " clip-rule="nonzero"/></clipPath><clipPath id="06b854d09b"><path d="M 0.113281 0.484375 L 12.363281 0.484375 L 12.363281 7.015625 L 0.113281 7.015625 Z M 0.113281 0.484375 " clip-rule="nonzero"/></clipPath><clipPath id="1e3f00547f"><rect x="0" width="13" y="0" height="8"/></clipPath><clipPath id="e867e475a9"><path d="M 41.777344 29.867188 L 53.785156 29.867188 L 53.785156 33.445312 L 41.777344 33.445312 Z M 41.777344 29.867188 " clip-rule="nonzero"/></clipPath><clipPath id="56c2485b6c"><path d="M 43.285156 29.878906 C 53.472656 30.402344 53.773438 31.449219 53.621094 31.898438 C 53.546875 32.347656 52.574219 32.875 52.125 32.875 C 51.675781 32.875 51.078125 32.5 50.925781 32.050781 C 50.777344 31.675781 50.851562 30.625 51.226562 30.328125 C 51.601562 29.953125 52.574219 29.878906 53.023438 30.101562 C 53.398438 30.253906 53.773438 30.851562 53.773438 31.300781 C 53.699219 31.824219 53.097656 32.5 52.273438 32.875 C 50.625 33.621094 44.933594 33.621094 43.285156 32.875 C 42.460938 32.5 41.789062 31.675781 41.789062 31.226562 C 41.863281 30.703125 43.285156 29.878906 43.285156 29.878906 " clip-rule="nonzero"/></clipPath><clipPath id="c61980f7ae"><path d="M 0.777344 0.867188 L 12.785156 0.867188 L 12.785156 4.445312 L 0.777344 4.445312 Z M 0.777344 0.867188 " clip-rule="nonzero"/></clipPath><clipPath id="9f66eb057f"><path d="M 2.285156 0.878906 C 12.472656 1.402344 12.773438 2.449219 12.621094 2.898438 C 12.546875 3.347656 11.574219 3.875 11.125 3.875 C 10.675781 3.875 10.078125 3.5 9.925781 3.050781 C 9.777344 2.675781 9.851562 1.625 10.226562 1.328125 C 10.601562 0.953125 11.574219 0.878906 12.023438 1.101562 C 12.398438 1.253906 12.773438 1.851562 12.773438 2.300781 C 12.699219 2.824219 12.097656 3.5 11.273438 3.875 C 9.625 4.621094 3.933594 4.621094 2.285156 3.875 C 1.460938 3.5 0.789062 2.675781 0.789062 2.226562 C 0.863281 1.703125 2.285156 0.878906 2.285156 0.878906 " clip-rule="nonzero"/></clipPath><clipPath id="552253b813"><rect x="0" width="13" y="0" height="5"/></clipPath><clipPath id="cc51c1b70f"><path d="M 24.199219 2.800781 L 70.722656 2.800781 L 70.722656 15.925781 L 24.199219 15.925781 Z M 24.199219 2.800781 " clip-rule="nonzero"/></clipPath><clipPath id="b2f28f0521"><path d="M 30.539062 8.238281 C 65.890625 7.9375 67.464844 7.039062 67.613281 7.339844 C 67.761719 7.488281 67.3125 8.164062 66.640625 8.539062 C 63.71875 9.960938 44.695312 8.164062 37.355469 9.210938 C 32.785156 9.886719 28.441406 12.207031 26.570312 12.132812 C 25.894531 12.132812 25.519531 11.984375 25.21875 11.683594 C 24.996094 11.382812 24.769531 10.785156 24.847656 10.335938 C 24.996094 9.960938 25.371094 9.4375 25.746094 9.289062 C 26.195312 9.136719 27.09375 9.886719 27.390625 9.660156 C 27.765625 9.4375 27.46875 8.6875 27.839844 8.238281 C 28.742188 7.117188 31.8125 5.691406 34.359375 4.867188 C 37.578125 3.820312 41.398438 3.21875 45.894531 2.996094 C 51.960938 2.695312 66.039062 2.847656 67.613281 4.492188 C 68.0625 5.019531 67.839844 5.917969 67.613281 6.292969 C 67.3125 6.589844 66.863281 6.441406 66.117188 6.515625 C 63.417969 6.816406 53.007812 7.640625 48.589844 7.640625 C 45.816406 7.640625 44.246094 7.039062 41.847656 7.265625 C 39 7.488281 34.433594 9.738281 32.710938 9.363281 C 31.886719 9.136719 31.210938 8.613281 31.136719 8.089844 C 31.0625 7.566406 31.585938 6.742188 32.261719 6.441406 C 33.234375 5.917969 36.378906 6.140625 37.054688 6.816406 C 37.503906 7.339844 37.503906 8.761719 37.128906 9.136719 C 36.753906 9.4375 36.003906 8.914062 35.105469 9.136719 C 33.308594 9.511719 28.816406 12.957031 27.167969 12.808594 C 26.417969 12.734375 25.667969 12.132812 25.59375 11.609375 C 25.445312 11.160156 25.894531 10.335938 26.570312 9.886719 C 27.765625 8.914062 32.859375 7.714844 34.058594 8.164062 C 34.507812 8.390625 34.808594 8.914062 34.882812 9.289062 C 34.882812 9.738281 34.734375 10.1875 34.433594 10.636719 C 33.757812 11.382812 31.210938 13.257812 30.761719 12.957031 C 30.386719 12.808594 30.539062 11.835938 30.6875 11.234375 C 30.761719 10.710938 31.0625 9.960938 31.511719 9.660156 C 32.109375 9.289062 33.683594 9.210938 34.132812 9.660156 C 34.433594 9.960938 34.507812 10.933594 34.28125 11.308594 C 34.058594 11.757812 32.710938 12.058594 32.710938 12.058594 C 32.710938 12.058594 34.207031 11.160156 34.28125 11.308594 C 34.433594 11.382812 33.910156 12.507812 33.535156 12.734375 C 33.085938 12.957031 32.1875 12.957031 31.8125 12.65625 C 31.4375 12.285156 31.210938 11.308594 31.4375 10.785156 C 31.585938 10.335938 32.484375 9.660156 33.011719 9.738281 C 33.460938 9.738281 34.132812 10.113281 34.359375 10.710938 C 34.808594 11.683594 34.359375 15.054688 33.609375 15.578125 C 33.160156 15.953125 31.8125 15.652344 31.4375 15.128906 C 30.988281 14.605469 31.210938 12.285156 31.585938 12.058594 C 31.960938 11.835938 33.460938 12.734375 33.382812 13.109375 C 33.382812 13.707031 29.863281 15.28125 28.816406 14.980469 C 28.140625 14.832031 27.46875 14.007812 27.390625 13.332031 C 27.242188 12.433594 28.214844 10.035156 28.589844 10.035156 C 28.890625 10.035156 29.414062 11.085938 29.339844 11.460938 C 29.265625 11.910156 28.515625 12.132812 27.992188 12.433594 C 27.390625 12.882812 26.570312 13.632812 25.96875 13.707031 C 25.371094 13.707031 24.695312 13.332031 24.394531 12.957031 C 24.171875 12.582031 24.171875 11.984375 24.394531 11.535156 C 24.621094 10.933594 25.820312 9.8125 26.34375 9.886719 C 26.867188 9.960938 27.691406 11.160156 27.542969 11.535156 C 27.390625 11.984375 25.59375 12.359375 24.996094 12.132812 C 24.621094 11.984375 24.320312 11.382812 24.246094 10.933594 C 24.171875 10.5625 24.320312 10.035156 24.769531 9.660156 C 25.59375 8.988281 28.816406 8.238281 29.789062 8.613281 C 30.386719 8.839844 30.835938 9.511719 30.914062 10.035156 C 30.914062 10.410156 30.613281 11.011719 30.238281 11.234375 C 29.9375 11.535156 29.265625 11.609375 28.890625 11.460938 C 28.515625 11.308594 27.992188 10.785156 27.917969 10.335938 C 27.917969 9.886719 28.664062 8.6875 29.191406 8.539062 C 29.640625 8.464844 30.539062 8.988281 30.761719 9.363281 C 30.988281 9.8125 30.835938 10.710938 30.386719 11.160156 C 29.5625 11.910156 25.894531 12.65625 24.996094 12.132812 C 24.472656 11.835938 24.171875 10.785156 24.320312 10.261719 C 24.546875 9.660156 25.667969 9.0625 26.34375 8.761719 C 26.867188 8.539062 27.46875 8.390625 27.992188 8.539062 C 28.515625 8.839844 29.339844 9.8125 29.414062 10.410156 C 29.414062 11.011719 28.890625 11.683594 28.367188 12.207031 C 27.691406 12.808594 26.34375 13.78125 25.59375 13.707031 C 24.996094 13.558594 24.246094 12.808594 24.246094 12.207031 C 24.171875 11.609375 25.144531 10.636719 25.96875 10.113281 C 26.941406 9.4375 28.964844 8.6875 29.9375 8.839844 C 30.539062 8.914062 31.210938 9.4375 31.363281 9.960938 C 31.585938 10.484375 31.289062 11.757812 30.835938 12.132812 C 30.539062 12.359375 29.265625 12.207031 29.265625 12.058594 C 29.265625 11.910156 31.8125 10.484375 32.710938 10.710938 C 33.460938 10.933594 34.28125 12.132812 34.433594 12.957031 C 34.582031 13.707031 34.28125 14.832031 33.910156 15.28125 C 33.609375 15.652344 33.011719 15.953125 32.636719 15.878906 C 32.109375 15.804688 31.4375 15.128906 31.210938 14.457031 C 30.914062 13.480469 31.136719 10.933594 31.738281 10.335938 C 32.261719 9.886719 33.535156 9.8125 33.984375 10.113281 C 34.359375 10.335938 34.433594 10.859375 34.433594 11.382812 C 34.433594 12.207031 33.910156 13.632812 33.382812 14.304688 C 32.933594 14.90625 32.261719 15.503906 31.738281 15.429688 C 31.136719 15.355469 30.238281 14.378906 30.089844 13.632812 C 29.9375 12.734375 30.761719 10.933594 31.511719 10.261719 C 32.109375 9.660156 33.382812 9.136719 33.832031 9.363281 C 34.207031 9.585938 34.507812 10.710938 34.28125 11.308594 C 33.984375 12.132812 32.109375 13.03125 31.210938 13.40625 C 30.613281 13.707031 30.015625 13.929688 29.5625 13.707031 C 29.039062 13.558594 28.292969 12.734375 28.292969 12.132812 C 28.292969 11.382812 29.414062 10.335938 30.238281 9.660156 C 31.0625 8.914062 32.558594 8.089844 33.308594 8.015625 C 33.757812 8.015625 34.132812 8.089844 34.359375 8.390625 C 34.65625 8.761719 34.808594 10.035156 34.433594 10.636719 C 33.757812 11.535156 30.6875 11.984375 29.191406 12.285156 C 28.140625 12.582031 27.09375 13.03125 26.492188 12.65625 C 25.96875 12.433594 25.445312 11.460938 25.59375 10.933594 C 25.820312 10.035156 27.691406 9.0625 28.964844 8.390625 C 30.3125 7.640625 32.109375 7.039062 33.535156 6.816406 C 34.808594 6.589844 36.457031 6.441406 37.054688 6.890625 C 37.503906 7.117188 37.652344 7.714844 37.578125 8.164062 C 37.578125 8.539062 37.277344 9.0625 36.828125 9.289062 C 36.003906 9.738281 33.308594 9.8125 32.335938 9.363281 C 31.660156 8.988281 31.136719 8.238281 31.136719 7.714844 C 31.136719 7.339844 31.4375 6.890625 31.886719 6.589844 C 32.785156 5.84375 34.433594 5.394531 36.828125 4.945312 C 42.671875 3.894531 63.195312 2.996094 67.464844 3.59375 C 68.585938 3.746094 69.113281 3.820312 69.484375 4.269531 C 69.933594 4.71875 70.160156 5.917969 69.859375 6.441406 C 69.5625 6.964844 68.4375 7.339844 67.613281 7.488281 C 66.640625 7.714844 65.816406 7.566406 64.316406 7.488281 C 61.023438 7.339844 51.585938 5.765625 48.289062 5.765625 C 46.867188 5.765625 46.566406 5.917969 45.21875 6.066406 C 42.820312 6.441406 38.328125 6.667969 35.332031 7.714844 C 32.410156 8.6875 29.039062 11.757812 27.242188 12.058594 C 26.417969 12.207031 25.371094 11.683594 25.296875 11.757812 C 25.296875 11.835938 26.117188 12.285156 26.195312 12.132812 C 26.269531 12.058594 24.769531 10.933594 24.847656 10.335938 C 24.921875 9.738281 25.96875 9.0625 27.019531 8.539062 C 28.964844 7.566406 32.484375 6.890625 36.605469 6.367188 C 43.644531 5.46875 59.972656 5.167969 65.515625 5.542969 C 67.761719 5.691406 69.484375 5.542969 70.234375 6.292969 C 70.757812 6.816406 70.757812 7.9375 70.535156 8.613281 C 70.308594 9.136719 69.859375 9.511719 69.261719 9.8125 C 68.136719 10.410156 66.640625 10.785156 64.09375 11.085938 C 57.875 11.910156 34.359375 12.957031 30.539062 11.234375 C 29.5625 10.785156 29.039062 10.113281 29.039062 9.585938 C 29.113281 9.0625 30.539062 8.238281 30.539062 8.238281 " clip-rule="nonzero"/></clipPath><clipPath id="a12359008f"><path d="M 0.199219 0.800781 L 46.722656 0.800781 L 46.722656 13.925781 L 0.199219 13.925781 Z M 0.199219 0.800781 " clip-rule="nonzero"/></clipPath><clipPath id="409a7731f5"><path d="M 6.539062 6.238281 C 41.890625 5.9375 43.464844 5.039062 43.613281 5.339844 C 43.761719 5.488281 43.3125 6.164062 42.640625 6.539062 C 39.71875 7.960938 20.695312 6.164062 13.355469 7.210938 C 8.785156 7.886719 4.441406 10.207031 2.570312 10.132812 C 1.894531 10.132812 1.519531 9.984375 1.21875 9.683594 C 0.996094 9.382812 0.769531 8.785156 0.847656 8.335938 C 0.996094 7.960938 1.371094 7.4375 1.746094 7.289062 C 2.195312 7.136719 3.09375 7.886719 3.390625 7.660156 C 3.765625 7.4375 3.46875 6.6875 3.839844 6.238281 C 4.742188 5.117188 7.8125 3.691406 10.359375 2.867188 C 13.578125 1.820312 17.398438 1.21875 21.894531 0.996094 C 27.960938 0.695312 42.039062 0.847656 43.613281 2.492188 C 44.0625 3.019531 43.839844 3.917969 43.613281 4.292969 C 43.3125 4.589844 42.863281 4.441406 42.117188 4.515625 C 39.417969 4.816406 29.007812 5.640625 24.589844 5.640625 C 21.816406 5.640625 20.246094 5.039062 17.847656 5.265625 C 15 5.488281 10.433594 7.738281 8.710938 7.363281 C 7.886719 7.136719 7.210938 6.613281 7.136719 6.089844 C 7.0625 5.566406 7.585938 4.742188 8.261719 4.441406 C 9.234375 3.917969 12.378906 4.140625 13.054688 4.816406 C 13.503906 5.339844 13.503906 6.761719 13.128906 7.136719 C 12.753906 7.4375 12.003906 6.914062 11.105469 7.136719 C 9.308594 7.511719 4.816406 10.957031 3.167969 10.808594 C 2.417969 10.734375 1.667969 10.132812 1.59375 9.609375 C 1.445312 9.160156 1.894531 8.335938 2.570312 7.886719 C 3.765625 6.914062 8.859375 5.714844 10.058594 6.164062 C 10.507812 6.390625 10.808594 6.914062 10.882812 7.289062 C 10.882812 7.738281 10.734375 8.1875 10.433594 8.636719 C 9.757812 9.382812 7.210938 11.257812 6.761719 10.957031 C 6.386719 10.808594 6.539062 9.835938 6.6875 9.234375 C 6.761719 8.710938 7.0625 7.960938 7.511719 7.660156 C 8.109375 7.289062 9.683594 7.210938 10.132812 7.660156 C 10.433594 7.960938 10.507812 8.933594 10.28125 9.308594 C 10.058594 9.757812 8.710938 10.058594 8.710938 10.058594 C 8.710938 10.058594 10.207031 9.160156 10.28125 9.308594 C 10.433594 9.382812 9.910156 10.507812 9.535156 10.734375 C 9.085938 10.957031 8.1875 10.957031 7.8125 10.65625 C 7.4375 10.285156 7.210938 9.308594 7.4375 8.785156 C 7.585938 8.335938 8.484375 7.660156 9.011719 7.738281 C 9.460938 7.738281 10.132812 8.113281 10.359375 8.710938 C 10.808594 9.683594 10.359375 13.054688 9.609375 13.578125 C 9.160156 13.953125 7.8125 13.652344 7.4375 13.128906 C 6.988281 12.605469 7.210938 10.285156 7.585938 10.058594 C 7.960938 9.835938 9.460938 10.734375 9.382812 11.109375 C 9.382812 11.707031 5.863281 13.28125 4.816406 12.980469 C 4.140625 12.832031 3.46875 12.007812 3.390625 11.332031 C 3.242188 10.433594 4.214844 8.035156 4.589844 8.035156 C 4.890625 8.035156 5.414062 9.085938 5.339844 9.460938 C 5.265625 9.910156 4.515625 10.132812 3.992188 10.433594 C 3.390625 10.882812 2.570312 11.632812 1.96875 11.707031 C 1.371094 11.707031 0.695312 11.332031 0.394531 10.957031 C 0.171875 10.582031 0.171875 9.984375 0.394531 9.535156 C 0.621094 8.933594 1.820312 7.8125 2.34375 7.886719 C 2.867188 7.960938 3.691406 9.160156 3.542969 9.535156 C 3.390625 9.984375 1.59375 10.359375 0.996094 10.132812 C 0.621094 9.984375 0.320312 9.382812 0.246094 8.933594 C 0.171875 8.5625 0.320312 8.035156 0.769531 7.660156 C 1.59375 6.988281 4.816406 6.238281 5.789062 6.613281 C 6.386719 6.839844 6.835938 7.511719 6.914062 8.035156 C 6.914062 8.410156 6.613281 9.011719 6.238281 9.234375 C 5.9375 9.535156 5.265625 9.609375 4.890625 9.460938 C 4.515625 9.308594 3.992188 8.785156 3.917969 8.335938 C 3.917969 7.886719 4.664062 6.6875 5.191406 6.539062 C 5.640625 6.464844 6.539062 6.988281 6.761719 7.363281 C 6.988281 7.8125 6.835938 8.710938 6.386719 9.160156 C 5.5625 9.910156 1.894531 10.65625 0.996094 10.132812 C 0.472656 9.835938 0.171875 8.785156 0.320312 8.261719 C 0.546875 7.660156 1.667969 7.0625 2.34375 6.761719 C 2.867188 6.539062 3.46875 6.390625 3.992188 6.539062 C 4.515625 6.839844 5.339844 7.8125 5.414062 8.410156 C 5.414062 9.011719 4.890625 9.683594 4.367188 10.207031 C 3.691406 10.808594 2.34375 11.78125 1.59375 11.707031 C 0.996094 11.558594 0.246094 10.808594 0.246094 10.207031 C 0.171875 9.609375 1.144531 8.636719 1.96875 8.113281 C 2.941406 7.4375 4.964844 6.6875 5.9375 6.839844 C 6.539062 6.914062 7.210938 7.4375 7.363281 7.960938 C 7.585938 8.484375 7.289062 9.757812 6.835938 10.132812 C 6.539062 10.359375 5.265625 10.207031 5.265625 10.058594 C 5.265625 9.910156 7.8125 8.484375 8.710938 8.710938 C 9.460938 8.933594 10.28125 10.132812 10.433594 10.957031 C 10.582031 11.707031 10.28125 12.832031 9.910156 13.28125 C 9.609375 13.652344 9.011719 13.953125 8.636719 13.878906 C 8.109375 13.804688 7.4375 13.128906 7.210938 12.457031 C 6.914062 11.480469 7.136719 8.933594 7.738281 8.335938 C 8.261719 7.886719 9.535156 7.8125 9.984375 8.113281 C 10.359375 8.335938 10.433594 8.859375 10.433594 9.382812 C 10.433594 10.207031 9.910156 11.632812 9.382812 12.304688 C 8.933594 12.90625 8.261719 13.503906 7.738281 13.429688 C 7.136719 13.355469 6.238281 12.378906 6.089844 11.632812 C 5.9375 10.734375 6.761719 8.933594 7.511719 8.261719 C 8.109375 7.660156 9.382812 7.136719 9.832031 7.363281 C 10.207031 7.585938 10.507812 8.710938 10.28125 9.308594 C 9.984375 10.132812 8.109375 11.03125 7.210938 11.40625 C 6.613281 11.707031 6.015625 11.929688 5.5625 11.707031 C 5.039062 11.558594 4.292969 10.734375 4.292969 10.132812 C 4.292969 9.382812 5.414062 8.335938 6.238281 7.660156 C 7.0625 6.914062 8.558594 6.089844 9.308594 6.015625 C 9.757812 6.015625 10.132812 6.089844 10.359375 6.390625 C 10.65625 6.761719 10.808594 8.035156 10.433594 8.636719 C 9.757812 9.535156 6.6875 9.984375 5.191406 10.285156 C 4.140625 10.582031 3.09375 11.03125 2.492188 10.65625 C 1.96875 10.433594 1.445312 9.460938 1.59375 8.933594 C 1.820312 8.035156 3.691406 7.0625 4.964844 6.390625 C 6.3125 5.640625 8.109375 5.039062 9.535156 4.816406 C 10.808594 4.589844 12.457031 4.441406 13.054688 4.890625 C 13.503906 5.117188 13.652344 5.714844 13.578125 6.164062 C 13.578125 6.539062 13.277344 7.0625 12.828125 7.289062 C 12.003906 7.738281 9.308594 7.8125 8.335938 7.363281 C 7.660156 6.988281 7.136719 6.238281 7.136719 5.714844 C 7.136719 5.339844 7.4375 4.890625 7.886719 4.589844 C 8.785156 3.84375 10.433594 3.394531 12.828125 2.945312 C 18.671875 1.894531 39.195312 0.996094 43.464844 1.59375 C 44.585938 1.746094 45.113281 1.820312 45.484375 2.269531 C 45.933594 2.71875 46.160156 3.917969 45.859375 4.441406 C 45.5625 4.964844 44.4375 5.339844 43.613281 5.488281 C 42.640625 5.714844 41.816406 5.566406 40.316406 5.488281 C 37.023438 5.339844 27.585938 3.765625 24.289062 3.765625 C 22.867188 3.765625 22.566406 3.917969 21.21875 4.066406 C 18.820312 4.441406 14.328125 4.667969 11.332031 5.714844 C 8.410156 6.6875 5.039062 9.757812 3.242188 10.058594 C 2.417969 10.207031 1.371094 9.683594 1.296875 9.757812 C 1.296875 9.835938 2.117188 10.285156 2.195312 10.132812 C 2.269531 10.058594 0.769531 8.933594 0.847656 8.335938 C 0.921875 7.738281 1.96875 7.0625 3.019531 6.539062 C 4.964844 5.566406 8.484375 4.890625 12.605469 4.367188 C 19.644531 3.46875 35.972656 3.167969 41.515625 3.542969 C 43.761719 3.691406 45.484375 3.542969 46.234375 4.292969 C 46.757812 4.816406 46.757812 5.9375 46.535156 6.613281 C 46.308594 7.136719 45.859375 7.511719 45.261719 7.8125 C 44.136719 8.410156 42.640625 8.785156 40.09375 9.085938 C 33.875 9.910156 10.359375 10.957031 6.539062 9.234375 C 5.5625 8.785156 5.039062 8.113281 5.039062 7.585938 C 5.113281 7.0625 6.539062 6.238281 6.539062 6.238281 " clip-rule="nonzero"/></clipPath><clipPath id="5089041904"><rect x="0" width="47" y="0" height="14"/></clipPath><clipPath id="1745af8e69"><path d="M 24.539062 138.242188 L 38.421875 138.242188 L 38.421875 174.816406 L 24.539062 174.816406 Z M 24.539062 138.242188 " clip-rule="nonzero"/></clipPath><clipPath id="ed7254258e"><path d="M 0.539062 0.242188 L 14.421875 0.242188 L 14.421875 36.816406 L 0.539062 36.816406 Z M 0.539062 0.242188 " clip-rule="nonzero"/></clipPath><clipPath id="1e9428dd70"><rect x="0" width="15" y="0" height="37"/></clipPath><clipPath id="519fcff23c"><path d="M 56.773438 138.242188 L 70.65625 138.242188 L 70.65625 174.816406 L 56.773438 174.816406 Z M 56.773438 138.242188 " clip-rule="nonzero"/></clipPath><clipPath id="ca575a536e"><path d="M 0.773438 0.242188 L 14.65625 0.242188 L 14.65625 36.816406 L 0.773438 36.816406 Z M 0.773438 0.242188 " clip-rule="nonzero"/></clipPath><clipPath id="524de8f6c8"><rect x="0" width="15" y="0" height="37"/></clipPath><clipPath id="2f04691a89"><path d="M 17.816406 125.128906 L 77.863281 125.128906 L 77.863281 138.023438 L 17.816406 138.023438 Z M 17.816406 125.128906 " clip-rule="nonzero"/></clipPath><clipPath id="157d02c81e"><path d="M 0.816406 0.128906 L 60.863281 0.128906 L 60.863281 13.023438 L 0.816406 13.023438 Z M 0.816406 0.128906 " clip-rule="nonzero"/></clipPath><clipPath id="dfe88b27ce"><rect x="0" width="61" y="0" height="14"/></clipPath><clipPath id="86049204fc"><path d="M 25.167969 63.75 L 46.363281 63.75 L 46.363281 79.285156 L 25.167969 79.285156 Z M 25.167969 63.75 " clip-rule="nonzero"/></clipPath><clipPath id="8d1d90d40b"><path d="M 0.167969 0.75 L 21.363281 0.75 L 21.363281 16.285156 L 0.167969 16.285156 Z M 0.167969 0.75 " clip-rule="nonzero"/></clipPath><clipPath id="23e9846362"><rect x="0" width="22" y="0" height="17"/></clipPath><clipPath id="7884904ec9"><path d="M 50.929688 63.976562 L 71.929688 63.976562 L 71.929688 79.507812 L 50.929688 79.507812 Z M 50.929688 63.976562 " clip-rule="nonzero"/></clipPath><clipPath id="9a9b6a1593"><path d="M 0.929688 0.976562 L 21.929688 0.976562 L 21.929688 16.507812 L 0.929688 16.507812 Z M 0.929688 0.976562 " clip-rule="nonzero"/></clipPath><clipPath id="afc690ff00"><rect x="0" width="22" y="0" height="17"/></clipPath><clipPath id="ebb3c7880b"><path d="M 33.722656 85.285156 L 46.359375 85.285156 L 46.359375 94.078125 L 33.722656 94.078125 Z M 33.722656 85.285156 " clip-rule="nonzero"/></clipPath><clipPath id="d34a5b4869"><path d="M 0.722656 0.285156 L 13.359375 0.285156 L 13.359375 9.078125 L 0.722656 9.078125 Z M 0.722656 0.285156 " clip-rule="nonzero"/></clipPath><clipPath id="24813da015"><rect x="0" width="14" y="0" height="10"/></clipPath><clipPath id="bba2ad51b1"><path d="M 49.359375 85.285156 L 61.429688 85.285156 L 61.429688 94.078125 L 49.359375 94.078125 Z M 49.359375 85.285156 " clip-rule="nonzero"/></clipPath><clipPath id="50e1560c1b"><path d="M 0.359375 0.285156 L 12.429688 0.285156 L 12.429688 9.078125 L 0.359375 9.078125 Z M 0.359375 0.285156 " clip-rule="nonzero"/></clipPath><clipPath id="548bdea4ad"><rect x="0" width="13" y="0" height="10"/></clipPath><clipPath id="1d2b78d572"><path d="M 33.546875 95.515625 L 46.183594 95.515625 L 46.183594 104.308594 L 33.546875 104.308594 Z M 33.546875 95.515625 " clip-rule="nonzero"/></clipPath><clipPath id="d60455143c"><path d="M 0.546875 0.515625 L 13.183594 0.515625 L 13.183594 9.308594 L 0.546875 9.308594 Z M 0.546875 0.515625 " clip-rule="nonzero"/></clipPath><clipPath id="3781d44257"><rect x="0" width="14" y="0" height="10"/></clipPath><clipPath id="2173b98ddb"><path d="M 49.359375 95.519531 L 61.429688 95.519531 L 61.429688 104.3125 L 49.359375 104.3125 Z M 49.359375 95.519531 " clip-rule="nonzero"/></clipPath><clipPath id="e95a4c49f7"><path d="M 0.359375 0.519531 L 12.429688 0.519531 L 12.429688 9.3125 L 0.359375 9.3125 Z M 0.359375 0.519531 " clip-rule="nonzero"/></clipPath><clipPath id="7e0f0bab6c"><rect x="0" width="13" y="0" height="10"/></clipPath><clipPath id="8a8762824e"><path d="M 33.832031 105.804688 L 46.472656 105.804688 L 46.472656 114.597656 L 33.832031 114.597656 Z M 33.832031 105.804688 " clip-rule="nonzero"/></clipPath><clipPath id="6052571328"><path d="M 0.832031 0.804688 L 13.472656 0.804688 L 13.472656 9.597656 L 0.832031 9.597656 Z M 0.832031 0.804688 " clip-rule="nonzero"/></clipPath><clipPath id="00943f566b"><rect x="0" width="14" y="0" height="10"/></clipPath><clipPath id="09599c84cc"><path d="M 49.644531 105.808594 L 61.714844 105.808594 L 61.714844 114.601562 L 49.644531 114.601562 Z M 49.644531 105.808594 " clip-rule="nonzero"/></clipPath><clipPath id="537c4fb887"><path d="M 0.644531 0.808594 L 12.714844 0.808594 L 12.714844 9.601562 L 0.644531 9.601562 Z M 0.644531 0.808594 " clip-rule="nonzero"/></clipPath><clipPath id="d1bb3f7973"><rect x="0" width="13" y="0" height="10"/></clipPath><clipPath id="d54fe3b31b"><path d="M 79 79 L 98.753906 79 L 98.753906 101 L 79 101 Z M 79 79 " clip-rule="nonzero"/></clipPath><clipPath id="4f178645ab"><path d="M 98.433594 95.351562 L 88.214844 100.816406 L 79.621094 84.738281 L 89.84375 79.277344 Z M 98.433594 95.351562 " clip-rule="nonzero"/></clipPath><clipPath id="4e399f82c1"><path d="M 0.578125 0.09375 L 19.515625 0.09375 L 19.515625 21.90625 L 0.578125 21.90625 Z M 0.578125 0.09375 " clip-rule="nonzero"/></clipPath><clipPath id="fcc8087850"><path d="M 19.433594 16.351562 L 9.214844 21.816406 L 0.621094 5.738281 L 10.84375 0.277344 Z M 19.433594 16.351562 " clip-rule="nonzero"/></clipPath><clipPath id="60a3d9b217"><rect x="0" width="20" y="0" height="22"/></clipPath><clipPath id="3ecbfb5c3a"><path d="M 0.0078125 84 L 19 84 L 19 106 L 0.0078125 106 Z M 0.0078125 84 " clip-rule="nonzero"/></clipPath><clipPath id="4ff879b4fc"><path d="M 10.566406 105.730469 L 0.0078125 100.957031 L 7.511719 84.347656 L 18.070312 89.117188 Z M 10.566406 105.730469 " clip-rule="nonzero"/></clipPath><clipPath id="d4a0e08de4"><path d="M 0.0078125 0.128906 L 18.222656 0.128906 L 18.222656 21.9375 L 0.0078125 21.9375 Z M 0.0078125 0.128906 " clip-rule="nonzero"/></clipPath><clipPath id="d20f2b543c"><path d="M 10.566406 21.730469 L 0.0078125 16.957031 L 7.511719 0.347656 L 18.070312 5.117188 Z M 10.566406 21.730469 " clip-rule="nonzero"/></clipPath><clipPath id="f8c63499d3"><rect x="0" width="19" y="0" height="22"/></clipPath></defs><g clip-path="url(#0a9fea50ba)"><g transform="matrix(1, 0, 0, 1, 27, 133)"><g clip-path="url(#671a516c9c)"><g clip-path="url(#435f31bd26)"><path fill="#7a4900" d="M 0.371094 0.0117188 L 8.589844 0.0117188 L 8.589844 53.101562 L 0.371094 53.101562 Z M 0.371094 0.0117188 " fill-opacity="1" fill-rule="nonzero"/></g></g></g></g><g clip-path="url(#2d86ebccce)"><g clip-path="url(#b9dbc6a735)"><g transform="matrix(1, 0, 0, 1, 1, 60)"><g clip-path="url(#03efc205d3)"><g clip-path="url(#1bb08fa8c4)"><g clip-path="url(#bc65ebd5ed)"><path fill="#a6a6a6" d="M 19.378906 0.355469 L 25.65625 2.941406 L 6.492188 49.480469 L 0.214844 46.898438 Z M 19.378906 0.355469 " fill-opacity="1" fill-rule="nonzero"/></g></g></g></g></g></g><g clip-path="url(#700f2786e8)"><g transform="matrix(1, 0, 0, 1, 13, 49)"><g clip-path="url(#b3674ab011)"><g clip-path="url(#664b8e0161)"><path fill="#d9d9d9" d="M 22.132812 0.429688 L 22.132812 15.964844 L 0.957031 15.964844 L 0.957031 0.429688 Z M 22.132812 0.429688 " fill-opacity="1" fill-rule="nonzero"/></g></g></g></g><g clip-path="url(#a92ee5d2ea)"><g clip-path="url(#5f1f385e4a)"><g transform="matrix(1, 0, 0, 1, 69, 56)"><g clip-path="url(#00e3a13831)"><g clip-path="url(#70a66d6909)"><g clip-path="url(#a387faa5b0)"><path fill="#a6a6a6" d="M 0.171875 3.75 L 6.234375 0.695312 L 29.441406 46.757812 L 23.378906 49.8125 Z M 0.171875 3.75 " fill-opacity="1" fill-rule="nonzero"/></g></g></g></g></g></g><g clip-path="url(#75fb74b805)"><g transform="matrix(1, 0, 0, 1, 60, 49)"><g clip-path="url(#029a659f68)"><g clip-path="url(#1123210de7)"><path fill="#d9d9d9" d="M 21.25 0.429688 L 21.25 15.964844 L 0.0742188 15.964844 L 0.0742188 0.429688 Z M 21.25 0.429688 " fill-opacity="1" fill-rule="nonzero"/></g></g></g></g><g clip-path="url(#52f6a4b410)"><g transform="matrix(1, 0, 0, 1, 17, 54)"><g clip-path="url(#2a456730f4)"><g clip-path="url(#b5ff5bd9b3)"><path fill="#a6a6a6" d="M 0.820312 0.238281 L 60.867188 0.238281 L 60.867188 84.214844 L 0.820312 84.214844 Z M 0.820312 0.238281 " fill-opacity="1" fill-rule="nonzero"/></g></g></g></g><g clip-path="url(#f40f188968)"><g transform="matrix(1, 0, 0, 1, 40, 38)"><g clip-path="url(#50f72cf97e)"><g clip-path="url(#8fda3b2f08)"><path fill="#ffe7c2" d="M 0.0898438 0.511719 L 17.292969 0.511719 L 17.292969 16.238281 L 0.0898438 16.238281 Z M 0.0898438 0.511719 " fill-opacity="1" fill-rule="nonzero"/></g></g></g></g><g clip-path="url(#deac45faac)"><g transform="matrix(1, 0, 0, 1, 33, 7)"><g clip-path="url(#f48ec38a7f)"><g clip-path="url(#7beb40310c)"><path fill="#ffe7c2" d="M 0.730469 0.824219 L 30.078125 0.824219 L 30.078125 31.546875 L 0.730469 31.546875 Z M 0.730469 0.824219 " fill-opacity="1" fill-rule="nonzero"/></g></g></g></g><g clip-path="url(#62659707cd)"><g clip-path="url(#fddb0c78ad)"><g transform="matrix(1, 0, 0, 1, 38, 17)"><g clip-path="url(#618f91e488)"><g clip-path="url(#a10aa893ba)"><g clip-path="url(#3065645abc)"><path fill="#000000" d="M 0.367188 0.132812 L 6.398438 0.132812 L 6.398438 6.167969 L 0.367188 6.167969 Z M 0.367188 0.132812 " fill-opacity="1" fill-rule="nonzero"/></g></g></g></g></g></g><g clip-path="url(#6568637928)"><g clip-path="url(#87a0a25bf7)"><g transform="matrix(1, 0, 0, 1, 39, 18)"><g clip-path="url(#2a5c8dc3da)"><g clip-path="url(#e6593b149d)"><g clip-path="url(#018318388d)"><path fill="#ffffff" d="M 0.875 0.503906 L 3.890625 0.503906 L 3.890625 3.519531 L 0.875 3.519531 Z M 0.875 0.503906 " fill-opacity="1" fill-rule="nonzero"/></g></g></g></g></g></g><g clip-path="url(#df822cbf7c)"><g clip-path="url(#9ea0440f96)"><g transform="matrix(1, 0, 0, 1, 52, 16)"><g clip-path="url(#2093e5ee1e)"><g clip-path="url(#dcd018949f)"><g clip-path="url(#75fc4e1028)"><path fill="#000000" d="M 0.832031 0.996094 L 6.863281 0.996094 L 6.863281 7.027344 L 0.832031 7.027344 Z M 0.832031 0.996094 " fill-opacity="1" fill-rule="nonzero"/></g></g></g></g></g></g><g clip-path="url(#85d19e95e6)"><g clip-path="url(#e160ac8b1c)"><g transform="matrix(1, 0, 0, 1, 54, 18)"><g clip-path="url(#8fd3b43ef0)"><g clip-path="url(#115ff1dab0)"><g clip-path="url(#b2e5840481)"><path fill="#ffffff" d="M 0.339844 0.644531 L 3.355469 0.644531 L 3.355469 3.660156 L 0.339844 3.660156 Z M 0.339844 0.644531 " fill-opacity="1" fill-rule="nonzero"/></g></g></g></g></g></g><g clip-path="url(#04bbda636c)"><g transform="matrix(1, 0, 0, 1, 59, 138)"><g clip-path="url(#bec8ebfb5c)"><g clip-path="url(#c497b22b57)"><path fill="#7a4900" d="M 0.605469 0.242188 L 8.824219 0.242188 L 8.824219 48.097656 L 0.605469 48.097656 Z M 0.605469 0.242188 " fill-opacity="1" fill-rule="nonzero"/></g></g></g></g><g clip-path="url(#db37ead968)"><g transform="matrix(1, 0, 0, 1, 47, 179)"><g clip-path="url(#837bdf4f17)"><g clip-path="url(#a7ff077b8b)"><path fill="#7a4900" d="M 12.597656 0.484375 L 12.597656 7.015625 L 0.355469 7.015625 L 0.355469 0.484375 Z M 12.597656 0.484375 " fill-opacity="1" fill-rule="nonzero"/></g></g></g></g><g clip-path="url(#59a0cd7018)"><g transform="matrix(1, 0, 0, 1, 15, 179)"><g clip-path="url(#1e3f00547f)"><g clip-path="url(#06b854d09b)"><path fill="#7a4900" d="M 12.363281 0.484375 L 12.363281 7.015625 L 0.121094 7.015625 L 0.121094 0.484375 Z M 12.363281 0.484375 " fill-opacity="1" fill-rule="nonzero"/></g></g></g></g><path stroke-linecap="butt" transform="matrix(0.748997, 0, 0, 0.748997, 36.395899, 13.999261)" fill="none" stroke-linejoin="miter" d="M -0.00182673 1.998449 L 13.312849 1.998449 " stroke="#000000" stroke-width="4" stroke-opacity="1" stroke-miterlimit="4"/><path stroke-linecap="butt" transform="matrix(-0.748997, 0, 0, -0.748997, 61.473788, 16.995249)" fill="none" stroke-linejoin="miter" d="M 0.00151167 2.00155 L 11.908055 2.00155 " stroke="#000000" stroke-width="4" stroke-opacity="1" stroke-miterlimit="4"/><g clip-path="url(#e867e475a9)"><g clip-path="url(#56c2485b6c)"><g transform="matrix(1, 0, 0, 1, 41, 29)"><g clip-path="url(#552253b813)"><g clip-path="url(#c61980f7ae)"><g clip-path="url(#9f66eb057f)"><rect x="-62.7536" width="142.3872" fill="#000000" height="268.919994" y="-70.084999" fill-opacity="1"/></g></g></g></g></g></g><g clip-path="url(#cc51c1b70f)"><g clip-path="url(#b2f28f0521)"><g transform="matrix(1, 0, 0, 1, 24, 2)"><g clip-path="url(#5089041904)"><g clip-path="url(#a12359008f)"><g clip-path="url(#409a7731f5)"><rect x="-45.7536" width="142.3872" fill="#7a4900" height="268.919994" y="-43.084999" fill-opacity="1"/></g></g></g></g></g></g><g clip-path="url(#1745af8e69)"><g transform="matrix(1, 0, 0, 1, 24, 138)"><g clip-path="url(#1e9428dd70)"><g clip-path="url(#ed7254258e)"><path fill="#d9d9d9" d="M 0.539062 0.242188 L 14.421875 0.242188 L 14.421875 36.792969 L 0.539062 36.792969 Z M 0.539062 0.242188 " fill-opacity="1" fill-rule="nonzero"/></g></g></g></g><g clip-path="url(#519fcff23c)"><g transform="matrix(1, 0, 0, 1, 56, 138)"><g clip-path="url(#524de8f6c8)"><g clip-path="url(#ca575a536e)"><path fill="#d9d9d9" d="M 0.773438 0.242188 L 14.65625 0.242188 L 14.65625 36.792969 L 0.773438 36.792969 Z M 0.773438 0.242188 " fill-opacity="1" fill-rule="nonzero"/></g></g></g></g><g clip-path="url(#2f04691a89)"><g transform="matrix(1, 0, 0, 1, 17, 125)"><g clip-path="url(#dfe88b27ce)"><g clip-path="url(#157d02c81e)"><path fill="#d9d9d9" d="M 60.863281 0.128906 L 60.863281 13.023438 L 0.835938 13.023438 L 0.835938 0.128906 Z M 60.863281 0.128906 " fill-opacity="1" fill-rule="nonzero"/></g></g></g></g><g clip-path="url(#86049204fc)"><g transform="matrix(1, 0, 0, 1, 25, 63)"><g clip-path="url(#23e9846362)"><g clip-path="url(#8d1d90d40b)"><path fill="#d9d9d9" d="M 21.363281 0.75 L 21.363281 16.285156 L 0.1875 16.285156 L 0.1875 0.75 Z M 21.363281 0.75 " fill-opacity="1" fill-rule="nonzero"/></g></g></g></g><g clip-path="url(#7884904ec9)"><g transform="matrix(1, 0, 0, 1, 50, 63)"><g clip-path="url(#afc690ff00)"><g clip-path="url(#9a9b6a1593)"><path fill="#d9d9d9" d="M 21.929688 0.976562 L 21.929688 16.507812 L 0.9375 16.507812 L 0.9375 0.976562 Z M 21.929688 0.976562 " fill-opacity="1" fill-rule="nonzero"/></g></g></g></g><g clip-path="url(#ebb3c7880b)"><g transform="matrix(1, 0, 0, 1, 33, 85)"><g clip-path="url(#24813da015)"><g clip-path="url(#d34a5b4869)"><path fill="#d9d9d9" d="M 13.359375 0.285156 L 13.359375 9.078125 L 0.722656 9.078125 L 0.722656 0.285156 Z M 13.359375 0.285156 " fill-opacity="1" fill-rule="nonzero"/></g></g></g></g><g clip-path="url(#bba2ad51b1)"><g transform="matrix(1, 0, 0, 1, 49, 85)"><g clip-path="url(#548bdea4ad)"><g clip-path="url(#50e1560c1b)"><path fill="#d9d9d9" d="M 12.429688 0.285156 L 12.429688 9.078125 L 0.375 9.078125 L 0.375 0.285156 Z M 12.429688 0.285156 " fill-opacity="1" fill-rule="nonzero"/></g></g></g></g><g clip-path="url(#1d2b78d572)"><g transform="matrix(1, 0, 0, 1, 33, 95)"><g clip-path="url(#3781d44257)"><g clip-path="url(#d60455143c)"><path fill="#d9d9d9" d="M 13.183594 0.515625 L 13.183594 9.308594 L 0.546875 9.308594 L 0.546875 0.515625 Z M 13.183594 0.515625 " fill-opacity="1" fill-rule="nonzero"/></g></g></g></g><g clip-path="url(#2173b98ddb)"><g transform="matrix(1, 0, 0, 1, 49, 95)"><g clip-path="url(#7e0f0bab6c)"><g clip-path="url(#e95a4c49f7)"><path fill="#d9d9d9" d="M 12.429688 0.519531 L 12.429688 9.3125 L 0.375 9.3125 L 0.375 0.519531 Z M 12.429688 0.519531 " fill-opacity="1" fill-rule="nonzero"/></g></g></g></g><g clip-path="url(#8a8762824e)"><g transform="matrix(1, 0, 0, 1, 33, 105)"><g clip-path="url(#00943f566b)"><g clip-path="url(#6052571328)"><path fill="#d9d9d9" d="M 13.472656 0.804688 L 13.472656 9.597656 L 0.832031 9.597656 L 0.832031 0.804688 Z M 13.472656 0.804688 " fill-opacity="1" fill-rule="nonzero"/></g></g></g></g><g clip-path="url(#09599c84cc)"><g transform="matrix(1, 0, 0, 1, 49, 105)"><g clip-path="url(#d1bb3f7973)"><g clip-path="url(#537c4fb887)"><path fill="#d9d9d9" d="M 12.714844 0.808594 L 12.714844 9.601562 L 0.660156 9.601562 L 0.660156 0.808594 Z M 12.714844 0.808594 " fill-opacity="1" fill-rule="nonzero"/></g></g></g></g><g clip-path="url(#d54fe3b31b)"><g clip-path="url(#4f178645ab)"><g transform="matrix(1, 0, 0, 1, 79, 79)"><g clip-path="url(#60a3d9b217)"><g clip-path="url(#4e399f82c1)"><g clip-path="url(#fcc8087850)"><path fill="#d9d9d9" d="M 19.433594 16.351562 L 9.214844 21.816406 L 0.617188 5.726562 L 10.835938 0.265625 Z M 19.433594 16.351562 " fill-opacity="1" fill-rule="nonzero"/></g></g></g></g></g></g><g clip-path="url(#3ecbfb5c3a)"><g clip-path="url(#4ff879b4fc)"><g transform="matrix(1, 0, 0, 1, 0.000000000000000001, 84)"><g clip-path="url(#f8c63499d3)"><g clip-path="url(#d4a0e08de4)"><g clip-path="url(#d20f2b543c)"><path fill="#d9d9d9" d="M 10.566406 21.730469 L 0.0078125 16.957031 L 7.519531 0.335938 L 18.078125 5.105469 Z M 10.566406 21.730469 " fill-opacity="1" fill-rule="nonzero"/></g></g></g></g></g></g></svg>