<svg xmlns="http://www.w3.org/2000/svg" xmlns:xlink="http://www.w3.org/1999/xlink" width="184" zoomAndPan="magnify" viewBox="0 0 138 89.999999" height="120" preserveAspectRatio="xMidYMid meet" version="1.0"><defs><clipPath id="baa977ecb1"><path d="M 47.285156 8.367188 L 49.742188 8.367188 L 49.742188 29.585938 L 47.285156 29.585938 Z M 47.285156 8.367188 " clip-rule="nonzero"/></clipPath><clipPath id="c087253121"><path d="M 49.714844 9.082031 C 49.015625 29.414062 48.785156 29.570312 48.550781 29.570312 C 48.394531 29.570312 47.929688 29.105469 47.929688 28.949219 C 47.929688 28.714844 48.394531 28.328125 48.550781 28.328125 C 48.785156 28.328125 49.171875 28.871094 49.171875 29.027344 C 49.09375 29.183594 48.164062 29.492188 48.085938 29.414062 C 48.007812 29.261719 48.316406 28.328125 48.472656 28.328125 C 48.628906 28.328125 49.09375 29.335938 48.9375 29.414062 C 48.859375 29.492188 48.164062 29.335938 47.929688 28.949219 C 46.765625 27.085938 47.464844 11.175781 48.316406 9.082031 C 48.472656 8.613281 48.707031 8.382812 48.9375 8.382812 C 49.171875 8.382812 49.714844 9.082031 49.714844 9.082031 " clip-rule="nonzero"/></clipPath><clipPath id="31beee549b"><path d="M 0.285156 0.367188 L 2.742188 0.367188 L 2.742188 21.585938 L 0.285156 21.585938 Z M 0.285156 0.367188 " clip-rule="nonzero"/></clipPath><clipPath id="21504bd9fa"><path d="M 2.714844 1.082031 C 2.015625 21.414062 1.785156 21.570312 1.550781 21.570312 C 1.394531 21.570312 0.929688 21.105469 0.929688 20.949219 C 0.929688 20.714844 1.394531 20.328125 1.550781 20.328125 C 1.785156 20.328125 2.171875 20.871094 2.171875 21.027344 C 2.09375 21.183594 1.164062 21.492188 1.085938 21.414062 C 1.007812 21.261719 1.316406 20.328125 1.472656 20.328125 C 1.628906 20.328125 2.09375 21.335938 1.9375 21.414062 C 1.859375 21.492188 1.164062 21.335938 0.929688 20.949219 C -0.234375 19.085938 0.464844 3.175781 1.316406 1.082031 C 1.472656 0.613281 1.707031 0.382812 1.9375 0.382812 C 2.171875 0.382812 2.714844 1.082031 2.714844 1.082031 " clip-rule="nonzero"/></clipPath><clipPath id="40c0d9506c"><rect x="0" width="3" y="0" height="22"/></clipPath><clipPath id="172a769a87"><path d="M 48.277344 8.03125 L 58.835938 8.03125 L 58.835938 18.980469 L 48.277344 18.980469 Z M 48.277344 8.03125 " clip-rule="nonzero"/></clipPath><clipPath id="fd78ea9580"><path d="M 49.40625 8.070312 C 57.476562 8.847656 58.71875 10.398438 58.796875 11.796875 C 58.875 13.425781 57.089844 16.066406 55.691406 17.308594 C 54.449219 18.316406 52.355469 19.09375 51.035156 18.9375 C 50.027344 18.859375 48.550781 17.695312 48.394531 17.152344 C 48.242188 16.84375 48.316406 16.453125 48.550781 16.375 C 48.785156 16.222656 50.027344 16.53125 50.101562 16.765625 C 50.101562 16.996094 49.328125 17.773438 49.015625 17.773438 C 48.785156 17.773438 48.316406 17.230469 48.316406 16.996094 C 48.316406 16.6875 48.550781 16.222656 48.9375 16.066406 C 49.480469 15.910156 50.800781 17.152344 51.65625 17.230469 C 52.199219 17.230469 52.664062 17.230469 53.207031 16.84375 C 54.371094 16.144531 57.011719 13.582031 57.242188 12.183594 C 57.320312 11.253906 56.777344 10.089844 55.925781 9.546875 C 54.683594 8.769531 50.179688 10.011719 49.25 9.46875 C 48.859375 9.3125 48.628906 8.925781 48.628906 8.691406 C 48.707031 8.460938 49.40625 8.070312 49.40625 8.070312 " clip-rule="nonzero"/></clipPath><clipPath id="9a835835c5"><path d="M 0.277344 0.03125 L 10.835938 0.03125 L 10.835938 10.980469 L 0.277344 10.980469 Z M 0.277344 0.03125 " clip-rule="nonzero"/></clipPath><clipPath id="62031f32fc"><path d="M 1.40625 0.0703125 C 9.476562 0.847656 10.71875 2.398438 10.796875 3.796875 C 10.875 5.425781 9.089844 8.066406 7.691406 9.308594 C 6.449219 10.316406 4.355469 11.09375 3.035156 10.9375 C 2.027344 10.859375 0.550781 9.695312 0.394531 9.152344 C 0.242188 8.84375 0.316406 8.453125 0.550781 8.375 C 0.785156 8.222656 2.027344 8.53125 2.101562 8.765625 C 2.101562 8.996094 1.328125 9.773438 1.015625 9.773438 C 0.785156 9.773438 0.316406 9.230469 0.316406 8.996094 C 0.316406 8.6875 0.550781 8.222656 0.9375 8.066406 C 1.480469 7.910156 2.800781 9.152344 3.65625 9.230469 C 4.199219 9.230469 4.664062 9.230469 5.207031 8.84375 C 6.371094 8.144531 9.011719 5.582031 9.242188 4.183594 C 9.320312 3.253906 8.777344 2.089844 7.925781 1.546875 C 6.683594 0.769531 2.179688 2.011719 1.25 1.46875 C 0.859375 1.3125 0.628906 0.925781 0.628906 0.691406 C 0.707031 0.460938 1.40625 0.0703125 1.40625 0.0703125 " clip-rule="nonzero"/></clipPath><clipPath id="397569d225"><rect x="0" width="11" y="0" height="11"/></clipPath><clipPath id="6fd4b6ef26"><path d="M 70.773438 17.214844 L 73.625 17.214844 L 73.625 31.410156 L 70.773438 31.410156 Z M 70.773438 17.214844 " clip-rule="nonzero"/></clipPath><clipPath id="55d2aff372"><path d="M 72.609375 18.007812 C 72.6875 27.628906 73.929688 30.113281 73.542969 30.890625 C 73.230469 31.277344 72.300781 31.433594 72.144531 31.277344 C 71.988281 31.121094 72.222656 30.347656 72.378906 30.269531 C 72.609375 30.113281 73.542969 30.578125 73.464844 30.8125 C 73.464844 30.96875 72.53125 31.511719 72.222656 31.355469 C 71.523438 30.96875 71.292969 27.863281 71.058594 25.84375 C 70.824219 23.4375 70.59375 18.78125 71.136719 17.773438 C 71.367188 17.386719 71.757812 17.230469 72.066406 17.230469 C 72.300781 17.308594 72.609375 18.007812 72.609375 18.007812 " clip-rule="nonzero"/></clipPath><clipPath id="45badad1af"><path d="M 0.773438 0.214844 L 3.625 0.214844 L 3.625 14.410156 L 0.773438 14.410156 Z M 0.773438 0.214844 " clip-rule="nonzero"/></clipPath><clipPath id="cc1aee2417"><path d="M 2.609375 1.007812 C 2.6875 10.628906 3.929688 13.113281 3.542969 13.890625 C 3.230469 14.277344 2.300781 14.433594 2.144531 14.277344 C 1.988281 14.121094 2.222656 13.347656 2.378906 13.269531 C 2.609375 13.113281 3.542969 13.578125 3.464844 13.8125 C 3.464844 13.96875 2.53125 14.511719 2.222656 14.355469 C 1.523438 13.96875 1.292969 10.863281 1.058594 8.84375 C 0.824219 6.4375 0.59375 1.78125 1.136719 0.773438 C 1.367188 0.386719 1.757812 0.230469 2.066406 0.230469 C 2.300781 0.308594 2.609375 1.007812 2.609375 1.007812 " clip-rule="nonzero"/></clipPath><clipPath id="c00399796d"><rect x="0" width="4" y="0" height="15"/></clipPath><clipPath id="886fc5da1e"><path d="M 70.234375 3.726562 L 71.707031 3.726562 L 71.707031 5.050781 L 70.234375 5.050781 Z M 70.234375 3.726562 " clip-rule="nonzero"/></clipPath><clipPath id="2b347acc59"><path d="M 71.679688 4.191406 C 71.058594 5.277344 70.4375 5.042969 70.28125 4.890625 C 70.203125 4.65625 70.28125 4.035156 70.515625 3.804688 C 70.671875 3.648438 71.523438 3.878906 71.523438 3.878906 " clip-rule="nonzero"/></clipPath><clipPath id="4fcf9b1e0b"><path d="M 0.234375 0.726562 L 1.707031 0.726562 L 1.707031 2.050781 L 0.234375 2.050781 Z M 0.234375 0.726562 " clip-rule="nonzero"/></clipPath><clipPath id="1863befd5f"><path d="M 1.679688 1.191406 C 1.058594 2.277344 0.4375 2.042969 0.28125 1.890625 C 0.203125 1.65625 0.28125 1.035156 0.515625 0.804688 C 0.671875 0.648438 1.523438 0.878906 1.523438 0.878906 " clip-rule="nonzero"/></clipPath><clipPath id="8fc20df5e4"><rect x="0" width="2" y="0" height="3"/></clipPath><clipPath id="daa0fe48a7"><path d="M 84.023438 3.085938 L 86.378906 3.085938 L 86.378906 30.910156 L 84.023438 30.910156 Z M 84.023438 3.085938 " clip-rule="nonzero"/></clipPath><clipPath id="a3d99d198b"><path d="M 86.347656 3.726562 C 85.417969 30.734375 85.027344 30.890625 84.875 30.8125 C 84.640625 30.734375 84.484375 29.957031 84.640625 29.878906 C 84.796875 29.726562 85.570312 29.878906 85.648438 30.035156 C 85.726562 30.191406 85.339844 30.890625 85.105469 30.890625 C 84.949219 30.890625 84.640625 30.65625 84.484375 30.269531 C 83.554688 27.941406 84.175781 6.054688 85.105469 3.726562 C 85.261719 3.257812 85.496094 3.105469 85.648438 3.105469 C 85.882812 3.105469 86.347656 3.726562 86.347656 3.726562 " clip-rule="nonzero"/></clipPath><clipPath id="d34fcc78aa"><path d="M 0.0234375 0.0859375 L 2.378906 0.0859375 L 2.378906 27.910156 L 0.0234375 27.910156 Z M 0.0234375 0.0859375 " clip-rule="nonzero"/></clipPath><clipPath id="e356258678"><path d="M 2.347656 0.726562 C 1.417969 27.734375 1.027344 27.890625 0.875 27.8125 C 0.640625 27.734375 0.484375 26.957031 0.640625 26.878906 C 0.796875 26.726562 1.570312 26.878906 1.648438 27.035156 C 1.726562 27.191406 1.339844 27.890625 1.105469 27.890625 C 0.949219 27.890625 0.640625 27.65625 0.484375 27.269531 C -0.445312 24.941406 0.175781 3.054688 1.105469 0.726562 C 1.261719 0.257812 1.496094 0.105469 1.648438 0.105469 C 1.882812 0.105469 2.347656 0.726562 2.347656 0.726562 " clip-rule="nonzero"/></clipPath><clipPath id="db3344aa3b"><rect x="0" width="3" y="0" height="28"/></clipPath><clipPath id="f2d2759ae2"><path d="M 89.761719 11.699219 L 107.898438 11.699219 L 107.898438 33.785156 L 89.761719 33.785156 Z M 89.761719 11.699219 " clip-rule="nonzero"/></clipPath><clipPath id="b00ce84be0"><path d="M 90.460938 24.914062 C 100.550781 24.449219 101.949219 23.828125 103.113281 22.816406 C 104.277344 21.886719 105.363281 20.644531 105.828125 19.246094 C 106.449219 17.695312 106.605469 14.824219 106.140625 13.96875 C 105.984375 13.660156 105.671875 13.503906 105.285156 13.425781 C 104.664062 13.273438 103.5 13.195312 102.722656 13.503906 C 101.871094 13.890625 101.09375 14.667969 100.242188 15.675781 C 99.078125 17.152344 97.367188 20.023438 96.59375 21.964844 C 96.050781 23.4375 95.660156 24.835938 95.582031 26.15625 C 95.582031 27.398438 95.894531 28.640625 96.359375 29.726562 C 96.746094 30.65625 97.136719 31.976562 98.066406 32.363281 C 99.542969 32.984375 103.8125 30.578125 104.820312 31.121094 C 105.285156 31.355469 105.519531 32.210938 105.441406 32.363281 C 105.285156 32.519531 104.277344 32.441406 104.121094 32.285156 C 104.042969 32.054688 104.507812 31.199219 104.742188 31.121094 C 104.976562 31.042969 105.519531 31.589844 105.59375 31.820312 C 105.671875 32.054688 105.441406 32.363281 105.128906 32.597656 C 104.042969 33.21875 98.921875 34.148438 97.367188 33.527344 C 96.359375 33.140625 96.050781 32.210938 95.582031 31.355469 C 94.960938 30.269531 94.496094 28.640625 94.34375 27.320312 C 94.1875 26.078125 94.265625 25.070312 94.574219 23.75 C 95.039062 22.042969 96.128906 19.867188 97.058594 18.160156 C 97.988281 16.53125 99.078125 14.667969 100.242188 13.582031 C 101.171875 12.726562 102.257812 12.03125 103.265625 11.796875 C 104.121094 11.640625 105.128906 11.640625 105.828125 12.03125 C 106.527344 12.339844 107.304688 13.039062 107.613281 13.96875 C 108.078125 15.289062 107.769531 18.082031 107.148438 19.714844 C 106.683594 21.03125 105.984375 22.042969 104.898438 23.050781 C 103.5 24.371094 101.171875 25.691406 98.921875 26.234375 C 96.4375 26.855469 91.46875 26.929688 90.304688 26.386719 C 89.917969 26.15625 89.761719 25.84375 89.761719 25.613281 C 89.761719 25.300781 90.460938 24.914062 90.460938 24.914062 " clip-rule="nonzero"/></clipPath><clipPath id="be761a1743"><path d="M 0.761719 0.699219 L 18.898438 0.699219 L 18.898438 22.785156 L 0.761719 22.785156 Z M 0.761719 0.699219 " clip-rule="nonzero"/></clipPath><clipPath id="8dee6b2466"><path d="M 1.460938 13.914062 C 11.550781 13.449219 12.949219 12.828125 14.113281 11.816406 C 15.277344 10.886719 16.363281 9.644531 16.828125 8.246094 C 17.449219 6.695312 17.605469 3.824219 17.140625 2.96875 C 16.984375 2.660156 16.671875 2.503906 16.285156 2.425781 C 15.664062 2.273438 14.5 2.195312 13.722656 2.503906 C 12.871094 2.890625 12.09375 3.667969 11.242188 4.675781 C 10.078125 6.152344 8.367188 9.023438 7.59375 10.964844 C 7.050781 12.4375 6.660156 13.835938 6.582031 15.15625 C 6.582031 16.398438 6.894531 17.640625 7.359375 18.726562 C 7.746094 19.65625 8.136719 20.976562 9.066406 21.363281 C 10.542969 21.984375 14.8125 19.578125 15.820312 20.121094 C 16.285156 20.355469 16.519531 21.210938 16.441406 21.363281 C 16.285156 21.519531 15.277344 21.441406 15.121094 21.285156 C 15.042969 21.054688 15.507812 20.199219 15.742188 20.121094 C 15.976562 20.042969 16.519531 20.589844 16.59375 20.820312 C 16.671875 21.054688 16.441406 21.363281 16.128906 21.597656 C 15.042969 22.21875 9.921875 23.148438 8.367188 22.527344 C 7.359375 22.140625 7.050781 21.210938 6.582031 20.355469 C 5.960938 19.269531 5.496094 17.640625 5.34375 16.320312 C 5.1875 15.078125 5.265625 14.070312 5.574219 12.75 C 6.039062 11.042969 7.128906 8.867188 8.058594 7.160156 C 8.988281 5.53125 10.078125 3.667969 11.242188 2.582031 C 12.171875 1.726562 13.257812 1.03125 14.265625 0.796875 C 15.121094 0.640625 16.128906 0.640625 16.828125 1.03125 C 17.527344 1.339844 18.304688 2.039062 18.613281 2.96875 C 19.078125 4.289062 18.769531 7.082031 18.148438 8.714844 C 17.683594 10.03125 16.984375 11.042969 15.898438 12.050781 C 14.5 13.371094 12.171875 14.691406 9.921875 15.234375 C 7.4375 15.855469 2.46875 15.929688 1.304688 15.386719 C 0.917969 15.15625 0.761719 14.84375 0.761719 14.613281 C 0.761719 14.300781 1.460938 13.914062 1.460938 13.914062 " clip-rule="nonzero"/></clipPath><clipPath id="aab13a1af5"><rect x="0" width="19" y="0" height="23"/></clipPath><clipPath id="f13959e748"><path d="M 120 11.433594 L 135.078125 11.433594 L 135.078125 35.859375 L 120 35.859375 Z M 120 11.433594 " clip-rule="nonzero"/></clipPath><clipPath id="ff0eb1cb7d"><path d="M 129.035156 16.53125 C 121.738281 26.777344 120.886719 31.355469 121.507812 32.90625 C 121.894531 33.605469 122.59375 33.917969 123.367188 34.148438 C 124.378906 34.382812 126.007812 34.382812 127.171875 33.992188 C 128.492188 33.527344 129.964844 32.285156 130.976562 31.277344 C 131.828125 30.425781 132.527344 29.726562 132.914062 28.328125 C 133.691406 25.921875 133.769531 19.558594 133.148438 17.152344 C 132.761719 15.910156 132.371094 15.210938 131.597656 14.511719 C 130.585938 13.660156 127.714844 13.503906 127.480469 12.804688 C 127.328125 12.417969 127.871094 11.488281 128.027344 11.488281 C 128.257812 11.488281 128.878906 12.417969 128.800781 12.574219 C 128.722656 12.804688 127.480469 12.882812 127.328125 12.652344 C 127.25 12.496094 127.558594 11.640625 127.949219 11.488281 C 128.800781 11.175781 132.0625 12.726562 133.148438 13.816406 C 133.925781 14.667969 134.15625 15.445312 134.46875 16.765625 C 135.011719 19.246094 135.320312 25.300781 134.546875 28.09375 C 134 29.878906 132.992188 31.121094 131.828125 32.285156 C 130.742188 33.527344 128.957031 34.769531 127.636719 35.3125 C 126.785156 35.703125 126.007812 35.855469 125.152344 35.855469 C 124.144531 35.855469 122.824219 35.703125 121.972656 35.160156 C 121.195312 34.691406 120.496094 33.992188 120.1875 33.0625 C 119.722656 31.589844 120.34375 28.792969 120.730469 26.929688 C 121.195312 25.144531 121.660156 23.59375 122.671875 21.964844 C 123.914062 19.867188 127.015625 16.144531 128.101562 15.601562 C 128.492188 15.445312 128.800781 15.445312 128.957031 15.601562 C 129.191406 15.753906 129.035156 16.53125 129.035156 16.53125 " clip-rule="nonzero"/></clipPath><clipPath id="65323d5489"><path d="M 0 0.433594 L 15.078125 0.433594 L 15.078125 24.859375 L 0 24.859375 Z M 0 0.433594 " clip-rule="nonzero"/></clipPath><clipPath id="cac3676438"><path d="M 9.035156 5.53125 C 1.738281 15.777344 0.886719 20.355469 1.507812 21.90625 C 1.894531 22.605469 2.59375 22.917969 3.367188 23.148438 C 4.378906 23.382812 6.007812 23.382812 7.171875 22.992188 C 8.492188 22.527344 9.964844 21.285156 10.976562 20.277344 C 11.828125 19.425781 12.527344 18.726562 12.914062 17.328125 C 13.691406 14.921875 13.769531 8.558594 13.148438 6.152344 C 12.761719 4.910156 12.371094 4.210938 11.597656 3.511719 C 10.585938 2.660156 7.714844 2.503906 7.480469 1.804688 C 7.328125 1.417969 7.871094 0.488281 8.027344 0.488281 C 8.257812 0.488281 8.878906 1.417969 8.800781 1.574219 C 8.722656 1.804688 7.480469 1.882812 7.328125 1.652344 C 7.25 1.496094 7.558594 0.640625 7.949219 0.488281 C 8.800781 0.175781 12.0625 1.726562 13.148438 2.816406 C 13.925781 3.667969 14.15625 4.445312 14.46875 5.765625 C 15.011719 8.246094 15.320312 14.300781 14.546875 17.09375 C 14 18.878906 12.992188 20.121094 11.828125 21.285156 C 10.742188 22.527344 8.957031 23.769531 7.636719 24.3125 C 6.785156 24.703125 6.007812 24.855469 5.152344 24.855469 C 4.144531 24.855469 2.824219 24.703125 1.972656 24.160156 C 1.195312 23.691406 0.496094 22.992188 0.1875 22.0625 C -0.277344 20.589844 0.34375 17.792969 0.730469 15.929688 C 1.195312 14.144531 1.660156 12.59375 2.671875 10.964844 C 3.914062 8.867188 7.015625 5.144531 8.101562 4.601562 C 8.492188 4.445312 8.800781 4.445312 8.957031 4.601562 C 9.191406 4.753906 9.035156 5.53125 9.035156 5.53125 " clip-rule="nonzero"/></clipPath><clipPath id="22ebba63e5"><rect x="0" width="16" y="0" height="25"/></clipPath><clipPath id="0cbc459886"><path d="M 71.941406 36.042969 L 79.824219 36.042969 L 79.824219 53.980469 L 71.941406 53.980469 Z M 71.941406 36.042969 " clip-rule="nonzero"/></clipPath><clipPath id="47b015ef52"><path d="M 74.242188 36.710938 C 75.015625 53.242188 77.265625 52.542969 77.8125 51.921875 C 78.277344 51.457031 78.429688 50.292969 77.964844 49.75 C 77.421875 48.894531 73.695312 49.359375 73.078125 48.742188 C 72.765625 48.429688 72.6875 47.964844 72.765625 47.730469 C 72.84375 47.5 73.386719 47.109375 73.621094 47.1875 C 73.929688 47.265625 74.394531 48.195312 74.316406 48.429688 C 74.242188 48.742188 73.308594 48.972656 73.152344 48.816406 C 72.921875 48.585938 72.921875 47.578125 73.308594 47.265625 C 74.007812 46.644531 77.65625 46.878906 78.742188 47.730469 C 79.519531 48.351562 79.671875 49.90625 79.75 50.757812 C 79.828125 51.457031 79.75 52.234375 79.441406 52.699219 C 79.128906 53.085938 78.664062 53.320312 78.042969 53.476562 C 76.878906 53.785156 74.164062 54.40625 73.078125 53.320312 C 71.136719 51.300781 72.222656 38.574219 72.921875 36.710938 C 73.078125 36.324219 73.230469 36.089844 73.464844 36.089844 C 73.695312 36.011719 74.242188 36.710938 74.242188 36.710938 " clip-rule="nonzero"/></clipPath><clipPath id="93c27df7fa"><path d="M 0.941406 0.0429688 L 8.824219 0.0429688 L 8.824219 17.980469 L 0.941406 17.980469 Z M 0.941406 0.0429688 " clip-rule="nonzero"/></clipPath><clipPath id="6a1dca19f0"><path d="M 3.242188 0.710938 C 4.015625 17.242188 6.265625 16.542969 6.8125 15.921875 C 7.277344 15.457031 7.429688 14.292969 6.964844 13.75 C 6.421875 12.894531 2.695312 13.359375 2.078125 12.742188 C 1.765625 12.429688 1.6875 11.964844 1.765625 11.730469 C 1.84375 11.5 2.386719 11.109375 2.621094 11.1875 C 2.929688 11.265625 3.394531 12.195312 3.316406 12.429688 C 3.242188 12.742188 2.308594 12.972656 2.152344 12.816406 C 1.921875 12.585938 1.921875 11.578125 2.308594 11.265625 C 3.007812 10.644531 6.65625 10.878906 7.742188 11.730469 C 8.519531 12.351562 8.671875 13.90625 8.75 14.757812 C 8.828125 15.457031 8.75 16.234375 8.441406 16.699219 C 8.128906 17.085938 7.664062 17.320312 7.042969 17.476562 C 5.878906 17.785156 3.164062 18.40625 2.078125 17.320312 C 0.136719 15.300781 1.222656 2.574219 1.921875 0.710938 C 2.078125 0.324219 2.230469 0.0898438 2.464844 0.0898438 C 2.695312 0.0117188 3.242188 0.710938 3.242188 0.710938 " clip-rule="nonzero"/></clipPath><clipPath id="9cf6e2b4c5"><rect x="0" width="9" y="0" height="18"/></clipPath><clipPath id="3d11a47620"><path d="M 83.296875 44.503906 L 94.355469 44.503906 L 94.355469 60.917969 L 83.296875 60.917969 Z M 83.296875 44.503906 " clip-rule="nonzero"/></clipPath><clipPath id="b0bdbb13a9"><path d="M 84.949219 47.652344 C 87.589844 59.917969 90.695312 56.347656 91.78125 54.5625 C 92.632812 53.085938 92.945312 51.144531 92.789062 49.828125 C 92.789062 48.742188 92.632812 47.652344 91.78125 47.03125 C 90.460938 46.023438 84.875 47.109375 83.863281 46.335938 C 83.476562 46.023438 83.398438 45.324219 83.554688 45.09375 C 83.632812 44.9375 84.640625 45.015625 84.796875 45.171875 C 84.875 45.402344 84.484375 46.257812 84.253906 46.335938 C 84.019531 46.410156 83.398438 45.867188 83.320312 45.636719 C 83.320312 45.402344 83.632812 45.015625 84.097656 44.859375 C 85.183594 44.316406 89.609375 44.550781 91.238281 45.171875 C 92.246094 45.480469 92.867188 46.101562 93.410156 46.878906 C 93.953125 47.652344 94.109375 48.742188 94.265625 49.75 C 94.34375 50.835938 94.34375 52.15625 94.03125 53.085938 C 93.796875 54.019531 93.410156 54.640625 92.789062 55.492188 C 91.703125 56.8125 89.140625 59.140625 87.746094 59.996094 C 86.96875 60.460938 86.191406 61.082031 85.648438 60.769531 C 84.253906 59.917969 83.011719 49.285156 83.554688 47.652344 C 83.710938 47.265625 84.097656 46.957031 84.328125 46.957031 C 84.5625 46.957031 84.949219 47.652344 84.949219 47.652344 " clip-rule="nonzero"/></clipPath><clipPath id="950ef6403c"><path d="M 0.296875 0.503906 L 11.355469 0.503906 L 11.355469 16.917969 L 0.296875 16.917969 Z M 0.296875 0.503906 " clip-rule="nonzero"/></clipPath><clipPath id="94b7201cae"><path d="M 1.949219 3.652344 C 4.589844 15.917969 7.695312 12.347656 8.78125 10.5625 C 9.632812 9.085938 9.945312 7.144531 9.789062 5.828125 C 9.789062 4.742188 9.632812 3.652344 8.78125 3.03125 C 7.460938 2.023438 1.875 3.109375 0.863281 2.335938 C 0.476562 2.023438 0.398438 1.324219 0.554688 1.09375 C 0.632812 0.9375 1.640625 1.015625 1.796875 1.171875 C 1.875 1.402344 1.484375 2.257812 1.253906 2.335938 C 1.019531 2.410156 0.398438 1.867188 0.320312 1.636719 C 0.320312 1.402344 0.632812 1.015625 1.097656 0.859375 C 2.183594 0.316406 6.609375 0.550781 8.238281 1.171875 C 9.246094 1.480469 9.867188 2.101562 10.410156 2.878906 C 10.953125 3.652344 11.109375 4.742188 11.265625 5.75 C 11.34375 6.835938 11.34375 8.15625 11.03125 9.085938 C 10.796875 10.019531 10.410156 10.640625 9.789062 11.492188 C 8.703125 12.8125 6.140625 15.140625 4.746094 15.996094 C 3.96875 16.460938 3.191406 17.082031 2.648438 16.769531 C 1.253906 15.917969 0.0117188 5.285156 0.554688 3.652344 C 0.710938 3.265625 1.097656 2.957031 1.328125 2.957031 C 1.5625 2.957031 1.949219 3.652344 1.949219 3.652344 " clip-rule="nonzero"/></clipPath><clipPath id="cba72979c9"><rect x="0" width="12" y="0" height="17"/></clipPath><clipPath id="dae88a483b"><path d="M 97.796875 39.085938 L 108.339844 39.085938 L 108.339844 61.238281 L 97.796875 61.238281 Z M 97.796875 39.085938 " clip-rule="nonzero"/></clipPath><clipPath id="83c62f39a1"><path d="M 99.929688 39.816406 C 101.40625 60.769531 104.042969 59.917969 105.050781 59.140625 C 105.984375 58.519531 106.527344 57.121094 106.683594 56.113281 C 106.761719 55.105469 106.449219 53.785156 105.75 53.085938 C 104.976562 52.386719 102.335938 52.929688 101.792969 52.3125 C 101.480469 51.921875 101.558594 50.992188 101.792969 50.835938 C 102.027344 50.757812 102.957031 51.222656 102.957031 51.535156 C 102.957031 51.765625 102.101562 52.464844 101.871094 52.386719 C 101.714844 52.234375 101.40625 51.144531 101.714844 50.914062 C 102.179688 50.371094 104.976562 50.601562 106.140625 51.300781 C 107.148438 51.921875 108 53.628906 108.234375 54.792969 C 108.46875 55.804688 108.234375 56.890625 107.847656 57.820312 C 107.457031 58.828125 106.835938 59.917969 105.828125 60.460938 C 104.664062 61.160156 102.335938 61.3125 101.09375 61.082031 C 100.242188 61.003906 99.542969 60.925781 99 60.070312 C 97.445312 57.664062 97.601562 41.988281 98.457031 39.816406 C 98.609375 39.347656 98.84375 39.117188 99.078125 39.117188 C 99.308594 39.117188 99.929688 39.816406 99.929688 39.816406 " clip-rule="nonzero"/></clipPath><clipPath id="f7efa2f922"><path d="M 0.796875 0.0859375 L 11.339844 0.0859375 L 11.339844 22.238281 L 0.796875 22.238281 Z M 0.796875 0.0859375 " clip-rule="nonzero"/></clipPath><clipPath id="6a85f4d121"><path d="M 2.929688 0.816406 C 4.40625 21.769531 7.042969 20.917969 8.050781 20.140625 C 8.984375 19.519531 9.527344 18.121094 9.683594 17.113281 C 9.761719 16.105469 9.449219 14.785156 8.75 14.085938 C 7.976562 13.386719 5.335938 13.929688 4.792969 13.3125 C 4.480469 12.921875 4.558594 11.992188 4.792969 11.835938 C 5.027344 11.757812 5.957031 12.222656 5.957031 12.535156 C 5.957031 12.765625 5.101562 13.464844 4.871094 13.386719 C 4.714844 13.234375 4.40625 12.144531 4.714844 11.914062 C 5.179688 11.371094 7.976562 11.601562 9.140625 12.300781 C 10.148438 12.921875 11 14.628906 11.234375 15.792969 C 11.46875 16.804688 11.234375 17.890625 10.847656 18.820312 C 10.457031 19.828125 9.835938 20.917969 8.828125 21.460938 C 7.664062 22.160156 5.335938 22.3125 4.09375 22.082031 C 3.242188 22.003906 2.542969 21.925781 2 21.070312 C 0.445312 18.664062 0.601562 2.988281 1.457031 0.816406 C 1.609375 0.347656 1.84375 0.117188 2.078125 0.117188 C 2.308594 0.117188 2.929688 0.816406 2.929688 0.816406 " clip-rule="nonzero"/></clipPath><clipPath id="f224af76ff"><rect x="0" width="12" y="0" height="23"/></clipPath><clipPath id="604b49a445"><path d="M 55.691406 33.839844 L 67.875 33.839844 L 67.875 45.148438 L 55.691406 45.148438 Z M 55.691406 33.839844 " clip-rule="nonzero"/></clipPath><clipPath id="64fbe42890"><path d="M 67.796875 35.234375 C 58.328125 43.230469 57.164062 42.609375 56.542969 41.988281 C 56 41.445312 55.535156 40.125 55.769531 39.738281 C 55.925781 39.425781 56.542969 39.195312 57.011719 39.347656 C 57.941406 39.582031 59.027344 42.765625 60.269531 43.074219 C 61.355469 43.386719 63.140625 41.753906 63.761719 41.988281 C 64.152344 42.144531 64.460938 42.6875 64.460938 42.996094 C 64.460938 43.308594 63.996094 43.773438 63.761719 43.773438 C 63.453125 43.773438 62.675781 42.917969 62.753906 42.609375 C 62.753906 42.375 63.917969 41.988281 64.152344 42.222656 C 64.304688 42.375 63.996094 43.695312 63.761719 43.773438 C 63.53125 43.773438 62.753906 42.765625 62.832031 42.453125 C 62.832031 42.222656 63.53125 41.910156 63.761719 41.988281 C 64.074219 42.144531 64.460938 42.609375 64.460938 42.996094 C 64.382812 43.539062 63.453125 44.628906 62.597656 44.9375 C 61.589844 45.246094 59.648438 45.171875 58.5625 44.472656 C 57.242188 43.617188 55.457031 40.359375 55.769531 39.738281 C 55.925781 39.347656 56.542969 39.195312 57.011719 39.347656 C 57.710938 39.582031 59.492188 41.910156 59.417969 42.066406 C 59.339844 42.144531 58.484375 41.988281 58.484375 41.675781 C 58.328125 40.746094 64.539062 35.625 66.167969 34.539062 C 66.789062 34.148438 67.332031 33.761719 67.644531 33.917969 C 67.875 34.070312 67.796875 35.234375 67.796875 35.234375 " clip-rule="nonzero"/></clipPath><clipPath id="991d89d3e0"><path d="M 0.691406 0.839844 L 12.875 0.839844 L 12.875 12.148438 L 0.691406 12.148438 Z M 0.691406 0.839844 " clip-rule="nonzero"/></clipPath><clipPath id="0ed4cd00b7"><path d="M 12.796875 2.234375 C 3.328125 10.230469 2.164062 9.609375 1.542969 8.988281 C 1 8.445312 0.535156 7.125 0.769531 6.738281 C 0.925781 6.425781 1.542969 6.195312 2.011719 6.347656 C 2.941406 6.582031 4.027344 9.765625 5.269531 10.074219 C 6.355469 10.386719 8.140625 8.753906 8.761719 8.988281 C 9.152344 9.144531 9.460938 9.6875 9.460938 9.996094 C 9.460938 10.308594 8.996094 10.773438 8.761719 10.773438 C 8.453125 10.773438 7.675781 9.917969 7.753906 9.609375 C 7.753906 9.375 8.917969 8.988281 9.152344 9.222656 C 9.304688 9.375 8.996094 10.695312 8.761719 10.773438 C 8.53125 10.773438 7.753906 9.765625 7.832031 9.453125 C 7.832031 9.222656 8.53125 8.910156 8.761719 8.988281 C 9.074219 9.144531 9.460938 9.609375 9.460938 9.996094 C 9.382812 10.539062 8.453125 11.628906 7.597656 11.9375 C 6.589844 12.246094 4.648438 12.171875 3.5625 11.472656 C 2.242188 10.617188 0.457031 7.359375 0.769531 6.738281 C 0.925781 6.347656 1.542969 6.195312 2.011719 6.347656 C 2.710938 6.582031 4.492188 8.910156 4.417969 9.066406 C 4.339844 9.144531 3.484375 8.988281 3.484375 8.675781 C 3.328125 7.746094 9.539062 2.625 11.167969 1.539062 C 11.789062 1.148438 12.332031 0.761719 12.644531 0.917969 C 12.875 1.070312 12.796875 2.234375 12.796875 2.234375 " clip-rule="nonzero"/></clipPath><clipPath id="236849238f"><rect x="0" width="13" y="0" height="13"/></clipPath><clipPath id="df414ef9e4"><path d="M 12 45 L 54 45 L 54 81 L 12 81 Z M 12 45 " clip-rule="nonzero"/></clipPath><clipPath id="ff70c2ad2f"><path d="M 23.871094 37.542969 L 59.46875 64.289062 L 42.34375 87.078125 L 6.746094 60.335938 Z M 23.871094 37.542969 " clip-rule="nonzero"/></clipPath><clipPath id="fb36d1810d"><path d="M 36.527344 50.519531 C 32.15625 47.988281 29.167969 47.625 27.09375 47.632812 C 25.269531 47.640625 23.675781 48.011719 21.988281 48.503906 C 20.234375 49 17.976562 49.753906 16.730469 50.824219 C 15.699219 51.617188 14.824219 52.527344 14.625 53.878906 C 14.332031 55.855469 16.164062 59.679688 17.183594 61.824219 C 17.953125 63.46875 18.855469 64.523438 19.867188 65.847656 C 20.980469 67.375 22.320312 69.007812 23.765625 70.34375 C 25.257812 71.78125 27.324219 73.207031 28.824219 74.210938 C 29.898438 74.953125 30.578125 75.464844 31.730469 76.015625 C 33.226562 76.699219 35.53125 77.554688 37.085938 77.90625 C 38.269531 78.167969 39.179688 78.289062 40.273438 78.171875 C 41.476562 78.070312 42.914062 77.582031 44.027344 77.101562 C 45.046875 76.742188 45.78125 76.351562 46.734375 75.75 C 48.007812 74.886719 49.957031 73.214844 50.796875 72.34375 C 51.261719 71.8125 51.632812 71.652344 51.722656 71.03125 C 51.914062 69.855469 50.964844 67.699219 49.679688 65.484375 C 47.21875 61.25 36.425781 51.320312 35.578125 48.863281 C 35.386719 48.28125 35.476562 47.910156 35.65625 47.671875 C 35.839844 47.429688 36.25 47.300781 36.539062 47.332031 C 36.792969 47.332031 37.183594 47.5625 37.292969 47.832031 C 37.433594 48.0625 37.460938 48.523438 37.320312 48.796875 C 37.171875 48.996094 36.820312 49.296875 36.570312 49.296875 C 36.289062 49.335938 35.835938 49.1875 35.695312 48.953125 C 35.445312 48.703125 35.457031 48.023438 35.597656 47.75 C 35.738281 47.480469 36.070312 47.289062 36.429688 47.3125 C 36.929688 47.3125 37.582031 47.863281 38.445312 48.636719 C 40.820312 50.734375 47.550781 58.800781 49.976562 62.253906 C 51.328125 64.210938 52.1875 65.734375 52.738281 67.089844 C 53.160156 68.03125 53.398438 68.714844 53.476562 69.527344 C 53.628906 70.328125 53.71875 71.210938 53.4375 72.003906 C 53.132812 72.90625 52.222656 73.789062 51.410156 74.621094 C 50.40625 75.621094 49.191406 76.652344 47.734375 77.503906 C 45.980469 78.507812 43.570312 79.707031 41.464844 80.007812 C 39.398438 80.335938 37.074219 79.84375 35.1875 79.429688 C 33.554688 79.015625 32.109375 78.433594 30.796875 77.761719 C 29.644531 77.207031 28.8125 76.644531 27.621094 75.8125 C 25.917969 74.660156 23.492188 72.960938 21.75 71.273438 C 20.085938 69.648438 18.613281 67.851562 17.332031 65.886719 C 15.957031 63.789062 14.605469 61.332031 13.855469 59.074219 C 13.167969 56.988281 12.539062 54.320312 12.890625 52.765625 C 13.101562 51.734375 13.792969 51.0625 14.40625 50.332031 C 14.988281 49.640625 15.589844 49.089844 16.441406 48.539062 C 17.726562 47.746094 19.84375 47.015625 21.5 46.566406 C 22.972656 46.105469 24.148438 45.796875 25.851562 45.699219 C 28.207031 45.648438 32.21875 45.902344 34.414062 46.738281 C 35.96875 47.339844 37.710938 48.527344 38.03125 49.269531 C 38.191406 49.640625 38.09375 50.191406 37.871094 50.402344 C 37.582031 50.621094 36.527344 50.519531 36.527344 50.519531 " clip-rule="nonzero"/></clipPath><clipPath id="24b1185fc8"><path d="M 0.480469 0.601562 L 41.761719 0.601562 L 41.761719 35.398438 L 0.480469 35.398438 Z M 0.480469 0.601562 " clip-rule="nonzero"/></clipPath><clipPath id="225a10ec1b"><path d="M 11.871094 -7.457031 L 47.46875 19.289062 L 30.34375 42.078125 L -5.253906 15.335938 Z M 11.871094 -7.457031 " clip-rule="nonzero"/></clipPath><clipPath id="599424d614"><path d="M 24.527344 5.519531 C 20.15625 2.988281 17.167969 2.625 15.09375 2.632812 C 13.269531 2.640625 11.675781 3.011719 9.988281 3.503906 C 8.234375 4 5.976562 4.753906 4.730469 5.824219 C 3.699219 6.617188 2.824219 7.527344 2.625 8.878906 C 2.332031 10.855469 4.164062 14.679688 5.183594 16.824219 C 5.953125 18.46875 6.855469 19.523438 7.867188 20.847656 C 8.980469 22.375 10.320312 24.007812 11.765625 25.34375 C 13.257812 26.78125 15.324219 28.207031 16.824219 29.210938 C 17.898438 29.953125 18.578125 30.464844 19.730469 31.015625 C 21.226562 31.699219 23.53125 32.554688 25.085938 32.90625 C 26.269531 33.167969 27.179688 33.289062 28.273438 33.171875 C 29.476562 33.070312 30.914062 32.582031 32.027344 32.101562 C 33.046875 31.742188 33.78125 31.351562 34.734375 30.75 C 36.007812 29.886719 37.957031 28.214844 38.796875 27.34375 C 39.261719 26.8125 39.632812 26.652344 39.722656 26.03125 C 39.914062 24.855469 38.964844 22.699219 37.679688 20.484375 C 35.21875 16.25 24.425781 6.320312 23.578125 3.863281 C 23.386719 3.28125 23.476562 2.910156 23.65625 2.671875 C 23.839844 2.429688 24.25 2.300781 24.539062 2.332031 C 24.792969 2.332031 25.183594 2.5625 25.292969 2.832031 C 25.433594 3.0625 25.460938 3.523438 25.320312 3.796875 C 25.171875 3.996094 24.820312 4.296875 24.570312 4.296875 C 24.289062 4.335938 23.835938 4.1875 23.695312 3.953125 C 23.445312 3.703125 23.457031 3.023438 23.597656 2.75 C 23.738281 2.480469 24.070312 2.289062 24.429688 2.3125 C 24.929688 2.3125 25.582031 2.863281 26.445312 3.636719 C 28.820312 5.734375 35.550781 13.800781 37.976562 17.253906 C 39.328125 19.210938 40.1875 20.734375 40.738281 22.089844 C 41.160156 23.03125 41.398438 23.714844 41.476562 24.527344 C 41.628906 25.328125 41.71875 26.210938 41.4375 27.003906 C 41.132812 27.90625 40.222656 28.789062 39.410156 29.621094 C 38.40625 30.621094 37.191406 31.652344 35.734375 32.503906 C 33.980469 33.507812 31.570312 34.707031 29.464844 35.007812 C 27.398438 35.335938 25.074219 34.84375 23.1875 34.429688 C 21.554688 34.015625 20.109375 33.433594 18.796875 32.761719 C 17.644531 32.207031 16.8125 31.644531 15.621094 30.8125 C 13.917969 29.660156 11.492188 27.960938 9.75 26.273438 C 8.085938 24.648438 6.613281 22.851562 5.332031 20.886719 C 3.957031 18.789062 2.605469 16.332031 1.855469 14.074219 C 1.167969 11.988281 0.539062 9.320312 0.890625 7.765625 C 1.101562 6.734375 1.792969 6.0625 2.40625 5.332031 C 2.988281 4.640625 3.589844 4.089844 4.441406 3.539062 C 5.726562 2.746094 7.84375 2.015625 9.5 1.566406 C 10.972656 1.105469 12.148438 0.796875 13.851562 0.699219 C 16.207031 0.648438 20.21875 0.902344 22.414062 1.738281 C 23.96875 2.339844 25.710938 3.527344 26.03125 4.269531 C 26.191406 4.640625 26.09375 5.191406 25.871094 5.402344 C 25.582031 5.621094 24.527344 5.519531 24.527344 5.519531 " clip-rule="nonzero"/></clipPath><clipPath id="4041d07050"><rect x="0" width="42" y="0" height="36"/></clipPath><clipPath id="17a4a0b7b0"><path d="M 27 56 L 31 56 L 31 60 L 27 60 Z M 27 56 " clip-rule="nonzero"/></clipPath><clipPath id="a196149764"><path d="M 28.925781 56.523438 L 31.300781 58.308594 L 29.785156 60.324219 L 27.410156 58.539062 Z M 28.925781 56.523438 " clip-rule="nonzero"/></clipPath><clipPath id="04184739e8"><path d="M 30.753906 59.03125 C 28.4375 59.914062 27.679688 58.859375 27.710938 58.300781 C 27.757812 57.847656 28.738281 56.933594 29.234375 56.917969 C 29.730469 56.902344 30.816406 58.300781 30.816406 58.300781 " clip-rule="nonzero"/></clipPath><clipPath id="3700f6437d"><path d="M 0.601562 0.878906 L 3.960938 0.878906 L 3.960938 4 L 0.601562 4 Z M 0.601562 0.878906 " clip-rule="nonzero"/></clipPath><clipPath id="93745cc7b1"><path d="M 1.925781 0.523438 L 4.300781 2.308594 L 2.785156 4.324219 L 0.410156 2.539062 Z M 1.925781 0.523438 " clip-rule="nonzero"/></clipPath><clipPath id="e80cdc6d88"><path d="M 3.753906 3.03125 C 1.4375 3.914062 0.679688 2.859375 0.710938 2.300781 C 0.757812 1.847656 1.738281 0.933594 2.234375 0.917969 C 2.730469 0.902344 3.816406 2.300781 3.816406 2.300781 " clip-rule="nonzero"/></clipPath><clipPath id="813781118e"><rect x="0" width="4" y="0" height="4"/></clipPath><clipPath id="3aad529415"><path d="M 40 66 L 44 66 L 44 69 L 40 69 Z M 40 66 " clip-rule="nonzero"/></clipPath><clipPath id="af039d7e95"><path d="M 41.394531 65.890625 L 43.71875 67.636719 L 42.203125 69.652344 L 39.878906 67.910156 Z M 41.394531 65.890625 " clip-rule="nonzero"/></clipPath><clipPath id="9c7d2805fc"><path d="M 43.164062 68.355469 C 40.847656 69.238281 40.089844 68.183594 40.183594 67.671875 C 40.230469 67.21875 41.207031 66.304688 41.707031 66.289062 C 42.203125 66.273438 43.226562 67.625 43.226562 67.625 " clip-rule="nonzero"/></clipPath><clipPath id="668285e107"><path d="M 0.078125 0.238281 L 3.441406 0.238281 L 3.441406 3 L 0.078125 3 Z M 0.078125 0.238281 " clip-rule="nonzero"/></clipPath><clipPath id="8417414dc8"><path d="M 1.394531 -0.109375 L 3.71875 1.636719 L 2.203125 3.652344 L -0.121094 1.910156 Z M 1.394531 -0.109375 " clip-rule="nonzero"/></clipPath><clipPath id="f17ae777d3"><path d="M 3.164062 2.355469 C 0.847656 3.238281 0.0898438 2.183594 0.183594 1.671875 C 0.230469 1.21875 1.207031 0.304688 1.707031 0.289062 C 2.203125 0.273438 3.226562 1.625 3.226562 1.625 " clip-rule="nonzero"/></clipPath><clipPath id="6c3d5e13b2"><rect x="0" width="4" y="0" height="3"/></clipPath><clipPath id="4fa6a34d71"><path d="M 19 77 L 70 77 L 70 84 L 19 84 Z M 19 77 " clip-rule="nonzero"/></clipPath><clipPath id="c3543886e9"><path d="M 69.707031 76.316406 L 70.09375 80.03125 L 19.9375 85.238281 L 19.550781 81.527344 Z M 69.707031 76.316406 " clip-rule="nonzero"/></clipPath><clipPath id="9bec1dd874"><path d="M 69.0625 80.136719 C 28.347656 84.164062 22.015625 84.367188 20.359375 83.480469 C 19.882812 83.230469 19.636719 82.800781 19.703125 82.492188 C 19.71875 82.136719 20.457031 81.503906 20.816406 81.570312 C 21.121094 81.585938 21.710938 82.382812 21.691406 82.6875 C 21.625 83.046875 20.824219 83.585938 20.464844 83.519531 C 20.160156 83.503906 19.699219 82.945312 19.664062 82.597656 C 19.679688 82.242188 20.085938 81.796875 20.664062 81.535156 C 22.5 80.789062 28.339844 82.148438 33.710938 81.945312 C 42.601562 81.625 65.359375 76.992188 68.855469 78.140625 C 69.585938 78.371094 69.980469 78.78125 69.964844 79.136719 C 69.996094 79.433594 69.0625 80.136719 69.0625 80.136719 " clip-rule="nonzero"/></clipPath><clipPath id="79dcef0028"><path d="M 0.441406 0 L 51 0 L 51 7 L 0.441406 7 Z M 0.441406 0 " clip-rule="nonzero"/></clipPath><clipPath id="a42399b77d"><path d="M 50.707031 -0.683594 L 51.09375 3.03125 L 0.9375 8.238281 L 0.550781 4.527344 Z M 50.707031 -0.683594 " clip-rule="nonzero"/></clipPath><clipPath id="cf8fa044db"><path d="M 50.0625 3.136719 C 9.347656 7.164062 3.015625 7.367188 1.359375 6.480469 C 0.882812 6.230469 0.636719 5.800781 0.703125 5.492188 C 0.71875 5.136719 1.457031 4.503906 1.816406 4.570312 C 2.121094 4.585938 2.710938 5.382812 2.691406 5.6875 C 2.625 6.046875 1.824219 6.585938 1.464844 6.519531 C 1.160156 6.503906 0.699219 5.945312 0.664062 5.597656 C 0.679688 5.242188 1.085938 4.796875 1.664062 4.535156 C 3.5 3.789062 9.339844 5.148438 14.710938 4.945312 C 23.601562 4.625 46.359375 -0.0078125 49.855469 1.140625 C 50.585938 1.371094 50.980469 1.78125 50.964844 2.136719 C 50.996094 2.433594 50.0625 3.136719 50.0625 3.136719 " clip-rule="nonzero"/></clipPath><clipPath id="d3c80e6519"><rect x="0" width="51" y="0" height="7"/></clipPath><clipPath id="3b714a2486"><path d="M 2 63.660156 L 27.308594 63.660156 L 27.308594 81.46875 L 2 81.46875 Z M 2 63.660156 " clip-rule="nonzero"/></clipPath><clipPath id="d11303381c"><path d="M 2.003906 79.457031 C 10.78125 65.617188 12.132812 63.964844 13.136719 63.714844 C 13.6875 63.613281 14.089844 63.761719 14.589844 64.214844 C 15.59375 65.066406 16.195312 68.125 17.75 70.230469 C 19.90625 73.191406 26.421875 77.953125 27.023438 79.808594 C 27.277344 80.359375 27.175781 80.910156 26.925781 81.113281 C 26.675781 81.363281 25.671875 81.210938 25.421875 81.011719 C 25.21875 80.8125 25.21875 80.308594 25.320312 80.007812 C 25.421875 79.757812 25.722656 79.457031 26.023438 79.40625 C 26.324219 79.355469 26.976562 79.65625 27.125 79.910156 C 27.277344 80.160156 27.277344 80.609375 27.125 80.859375 C 26.976562 81.113281 26.625 81.363281 26.375 81.414062 C 26.023438 81.414062 25.421875 81.0625 25.320312 80.761719 C 25.171875 80.460938 25.371094 79.808594 25.621094 79.609375 C 25.820312 79.40625 26.324219 79.355469 26.574219 79.457031 C 26.875 79.558594 27.277344 80.160156 27.226562 80.511719 C 27.226562 80.8125 26.875 81.3125 26.523438 81.363281 C 26.023438 81.460938 25.269531 80.960938 24.417969 80.308594 C 22.511719 78.855469 18.5 74.644531 16.496094 71.835938 C 14.839844 69.578125 12.585938 65.316406 12.785156 65.117188 C 12.886719 65.015625 13.6875 65.417969 13.738281 65.71875 C 13.738281 66.269531 12.132812 67.074219 11.132812 68.324219 C 9.175781 70.832031 5.363281 79.355469 3.710938 80.511719 C 3.207031 80.859375 2.707031 80.910156 2.40625 80.710938 C 2.105469 80.558594 2.003906 79.457031 2.003906 79.457031 " clip-rule="nonzero"/></clipPath><clipPath id="86e500792c"><path d="M 0 0.660156 L 25.308594 0.660156 L 25.308594 18.46875 L 0 18.46875 Z M 0 0.660156 " clip-rule="nonzero"/></clipPath><clipPath id="b61c93113e"><path d="M 0.00390625 16.457031 C 8.78125 2.617188 10.132812 0.964844 11.136719 0.714844 C 11.6875 0.613281 12.089844 0.761719 12.589844 1.214844 C 13.59375 2.066406 14.195312 5.125 15.75 7.230469 C 17.90625 10.191406 24.421875 14.953125 25.023438 16.808594 C 25.277344 17.359375 25.175781 17.910156 24.925781 18.113281 C 24.675781 18.363281 23.671875 18.210938 23.421875 18.011719 C 23.21875 17.8125 23.21875 17.308594 23.320312 17.007812 C 23.421875 16.757812 23.722656 16.457031 24.023438 16.40625 C 24.324219 16.355469 24.976562 16.65625 25.125 16.910156 C 25.277344 17.160156 25.277344 17.609375 25.125 17.859375 C 24.976562 18.113281 24.625 18.363281 24.375 18.414062 C 24.023438 18.414062 23.421875 18.0625 23.320312 17.761719 C 23.171875 17.460938 23.371094 16.808594 23.621094 16.609375 C 23.820312 16.40625 24.324219 16.355469 24.574219 16.457031 C 24.875 16.558594 25.277344 17.160156 25.226562 17.511719 C 25.226562 17.8125 24.875 18.3125 24.523438 18.363281 C 24.023438 18.460938 23.269531 17.960938 22.417969 17.308594 C 20.511719 15.855469 16.5 11.644531 14.496094 8.835938 C 12.839844 6.578125 10.585938 2.316406 10.785156 2.117188 C 10.886719 2.015625 11.6875 2.417969 11.738281 2.71875 C 11.738281 3.269531 10.132812 4.074219 9.132812 5.324219 C 7.175781 7.832031 3.363281 16.355469 1.710938 17.511719 C 1.207031 17.859375 0.707031 17.910156 0.40625 17.710938 C 0.105469 17.558594 0.00390625 16.457031 0.00390625 16.457031 " clip-rule="nonzero"/></clipPath><clipPath id="25bace2c24"><rect x="0" width="26" y="0" height="19"/></clipPath><clipPath id="d00be221fb"><path d="M 43 51 L 65 51 L 65 78 L 43 78 Z M 43 51 " clip-rule="nonzero"/></clipPath><clipPath id="bf419617a3"><path d="M 63.140625 78.117188 L 40.863281 54.707031 L 47.304688 48.582031 L 69.578125 71.988281 Z M 63.140625 78.117188 " clip-rule="nonzero"/></clipPath><clipPath id="18bd9c4205"><path d="M 62.308594 77.234375 C 57.773438 65.632812 56.816406 61.351562 54.292969 58.773438 C 51.769531 56.121094 44.882812 54.851562 43.894531 53.371094 C 43.585938 52.832031 43.601562 52.195312 43.824219 51.914062 C 44.007812 51.671875 44.71875 51.546875 45 51.695312 C 45.242188 51.808594 45.519531 52.171875 45.546875 52.488281 C 45.574219 52.738281 45.421875 53.160156 45.242188 53.332031 C 45.023438 53.539062 44.558594 53.636719 44.277344 53.558594 C 44.03125 53.515625 43.71875 53.191406 43.621094 52.9375 C 43.519531 52.6875 43.566406 52.226562 43.75 51.984375 C 43.96875 51.777344 44.363281 51.609375 44.894531 51.65625 C 46.628906 51.808594 52.75 55.117188 54.734375 56.621094 C 55.78125 57.425781 56.054688 57.714844 56.804688 58.941406 C 58.71875 61.964844 64.164062 74.019531 64.136719 76.464844 C 64.121094 77.101562 63.898438 77.523438 63.578125 77.621094 C 63.253906 77.789062 62.308594 77.234375 62.308594 77.234375 " clip-rule="nonzero"/></clipPath><clipPath id="518fd9062d"><path d="M 0.441406 0.359375 L 21.320312 0.359375 L 21.320312 27 L 0.441406 27 Z M 0.441406 0.359375 " clip-rule="nonzero"/></clipPath><clipPath id="5ebb5d29ca"><path d="M 20.140625 27.117188 L -2.136719 3.707031 L 4.304688 -2.417969 L 26.578125 20.988281 Z M 20.140625 27.117188 " clip-rule="nonzero"/></clipPath><clipPath id="f14c6b993d"><path d="M 19.308594 26.234375 C 14.773438 14.632812 13.816406 10.351562 11.292969 7.773438 C 8.769531 5.121094 1.882812 3.851562 0.894531 2.371094 C 0.585938 1.832031 0.601562 1.195312 0.824219 0.914062 C 1.007812 0.671875 1.71875 0.546875 2 0.695312 C 2.242188 0.808594 2.519531 1.171875 2.546875 1.488281 C 2.574219 1.738281 2.421875 2.160156 2.242188 2.332031 C 2.023438 2.539062 1.558594 2.636719 1.277344 2.558594 C 1.03125 2.515625 0.71875 2.191406 0.621094 1.9375 C 0.519531 1.6875 0.566406 1.226562 0.75 0.984375 C 0.96875 0.777344 1.363281 0.609375 1.894531 0.65625 C 3.628906 0.808594 9.75 4.117188 11.734375 5.621094 C 12.78125 6.425781 13.054688 6.714844 13.804688 7.941406 C 15.71875 10.964844 21.164062 23.019531 21.136719 25.464844 C 21.121094 26.101562 20.898438 26.523438 20.578125 26.621094 C 20.253906 26.789062 19.308594 26.234375 19.308594 26.234375 " clip-rule="nonzero"/></clipPath><clipPath id="8cb45d984e"><rect x="0" width="22" y="0" height="27"/></clipPath><clipPath id="722a6b89cc"><rect x="0" width="138" y="0" height="90"/></clipPath></defs><g transform="matrix(1, 0, 0, 1, 0, -0.00000000000000949)"><g clip-path="url(#722a6b89cc)"><g clip-path="url(#baa977ecb1)"><g clip-path="url(#c087253121)"><g transform="matrix(1, 0, 0, 1, 47, 8)"><g clip-path="url(#40c0d9506c)"><g clip-path="url(#31beee549b)"><g clip-path="url(#21504bd9fa)"><rect x="-97.232" width="238.464" fill="#ffffff" y="-40.76" height="155.519998" fill-opacity="1"/></g></g></g></g></g></g><g clip-path="url(#172a769a87)"><g clip-path="url(#fd78ea9580)"><g transform="matrix(1, 0, 0, 1, 48, 8)"><g clip-path="url(#397569d225)"><g clip-path="url(#9a835835c5)"><g clip-path="url(#62031f32fc)"><rect x="-98.232" width="238.464" fill="#ffffff" y="-40.76" height="155.519998" fill-opacity="1"/></g></g></g></g></g></g><g clip-path="url(#6fd4b6ef26)"><g clip-path="url(#55d2aff372)"><g transform="matrix(1, 0, 0, 1, 70, 17)"><g clip-path="url(#c00399796d)"><g clip-path="url(#45badad1af)"><g clip-path="url(#cc1aee2417)"><rect x="-120.232" width="238.464" fill="#ffffff" y="-49.76" height="155.519998" fill-opacity="1"/></g></g></g></g></g></g><g clip-path="url(#886fc5da1e)"><g clip-path="url(#2b347acc59)"><g transform="matrix(1, 0, 0, 1, 70, 3)"><g clip-path="url(#8fc20df5e4)"><g clip-path="url(#4fcf9b1e0b)"><g clip-path="url(#1863befd5f)"><rect x="-120.232" width="238.464" fill="#ffffff" y="-35.76" height="155.519998" fill-opacity="1"/></g></g></g></g></g></g><g clip-path="url(#daa0fe48a7)"><g clip-path="url(#a3d99d198b)"><g transform="matrix(1, 0, 0, 1, 84, 3)"><g clip-path="url(#db3344aa3b)"><g clip-path="url(#d34fcc78aa)"><g clip-path="url(#e356258678)"><rect x="-134.232" width="238.464" fill="#ffffff" y="-35.76" height="155.519998" fill-opacity="1"/></g></g></g></g></g></g><g clip-path="url(#f2d2759ae2)"><g clip-path="url(#b00ce84be0)"><g transform="matrix(1, 0, 0, 1, 89, 11)"><g clip-path="url(#aab13a1af5)"><g clip-path="url(#be761a1743)"><g clip-path="url(#8dee6b2466)"><rect x="-139.232" width="238.464" fill="#ffffff" y="-43.76" height="155.519998" fill-opacity="1"/></g></g></g></g></g></g><g clip-path="url(#f13959e748)"><g clip-path="url(#ff0eb1cb7d)"><g transform="matrix(1, 0, 0, 1, 120, 11)"><g clip-path="url(#22ebba63e5)"><g clip-path="url(#65323d5489)"><g clip-path="url(#cac3676438)"><rect x="-170.232" width="238.464" fill="#ffffff" y="-43.76" height="155.519998" fill-opacity="1"/></g></g></g></g></g></g><g clip-path="url(#0cbc459886)"><g clip-path="url(#47b015ef52)"><g transform="matrix(1, 0, 0, 1, 71, 36)"><g clip-path="url(#9cf6e2b4c5)"><g clip-path="url(#93c27df7fa)"><g clip-path="url(#6a1dca19f0)"><rect x="-121.232" width="238.464" fill="#ffffff" y="-68.76" height="155.519998" fill-opacity="1"/></g></g></g></g></g></g><g clip-path="url(#3d11a47620)"><g clip-path="url(#b0bdbb13a9)"><g transform="matrix(1, 0, 0, 1, 83, 44)"><g clip-path="url(#cba72979c9)"><g clip-path="url(#950ef6403c)"><g clip-path="url(#94b7201cae)"><rect x="-133.232" width="238.464" fill="#ffffff" y="-76.76" height="155.519998" fill-opacity="1"/></g></g></g></g></g></g><g clip-path="url(#dae88a483b)"><g clip-path="url(#83c62f39a1)"><g transform="matrix(1, 0, 0, 1, 97, 39)"><g clip-path="url(#f224af76ff)"><g clip-path="url(#f7efa2f922)"><g clip-path="url(#6a85f4d121)"><rect x="-147.232" width="238.464" fill="#ffffff" y="-71.76" height="155.519998" fill-opacity="1"/></g></g></g></g></g></g><g clip-path="url(#604b49a445)"><g clip-path="url(#64fbe42890)"><g transform="matrix(1, 0, 0, 1, 55, 33)"><g clip-path="url(#236849238f)"><g clip-path="url(#991d89d3e0)"><g clip-path="url(#0ed4cd00b7)"><rect x="-105.232" width="238.464" fill="#ffffff" y="-65.76" height="155.519998" fill-opacity="1"/></g></g></g></g></g></g><g clip-path="url(#df414ef9e4)"><g clip-path="url(#ff70c2ad2f)"><g clip-path="url(#fb36d1810d)"><g transform="matrix(1, 0, 0, 1, 12, 45)"><g clip-path="url(#4041d07050)"><g clip-path="url(#24b1185fc8)"><g clip-path="url(#225a10ec1b)"><g clip-path="url(#599424d614)"><path fill="#ffffff" d="M 11.496094 -10.105469 L 50.117188 18.914062 L 30.71875 44.730469 L -7.902344 15.710938 Z M 11.496094 -10.105469 " fill-opacity="1" fill-rule="nonzero"/></g></g></g></g></g></g></g></g><g clip-path="url(#17a4a0b7b0)"><g clip-path="url(#a196149764)"><g clip-path="url(#04184739e8)"><g transform="matrix(1, 0, 0, 1, 27, 56)"><g clip-path="url(#813781118e)"><g clip-path="url(#3700f6437d)"><g clip-path="url(#93745cc7b1)"><g clip-path="url(#e80cdc6d88)"><path fill="#ffffff" d="M 1.304688 -3.660156 L 8.574219 1.800781 L 3.257812 8.871094 L -4.007812 3.414062 Z M 1.304688 -3.660156 " fill-opacity="1" fill-rule="nonzero"/></g></g></g></g></g></g></g></g><g clip-path="url(#3aad529415)"><g clip-path="url(#af039d7e95)"><g clip-path="url(#9c7d2805fc)"><g transform="matrix(1, 0, 0, 1, 40, 66)"><g clip-path="url(#6c3d5e13b2)"><g clip-path="url(#668285e107)"><g clip-path="url(#8417414dc8)"><g clip-path="url(#f17ae777d3)"><path fill="#ffffff" d="M 0.777344 -4.289062 L 8.046875 1.171875 L 2.730469 8.242188 L -4.535156 2.785156 Z M 0.777344 -4.289062 " fill-opacity="1" fill-rule="nonzero"/></g></g></g></g></g></g></g></g><g clip-path="url(#4fa6a34d71)"><g clip-path="url(#c3543886e9)"><g clip-path="url(#9bec1dd874)"><g transform="matrix(1, 0, 0, 1, 19, 77)"><g clip-path="url(#d3c80e6519)"><g clip-path="url(#79dcef0028)"><g clip-path="url(#a42399b77d)"><g clip-path="url(#cf8fa044db)"><path fill="#ffffff" d="M 52.472656 -2.757812 L 53.277344 4.972656 L -0.832031 10.589844 L -1.636719 2.859375 Z M 52.472656 -2.757812 " fill-opacity="1" fill-rule="nonzero"/></g></g></g></g></g></g></g></g><g clip-path="url(#3b714a2486)"><g clip-path="url(#d11303381c)"><g transform="matrix(1, 0, 0, 1, 2, 63)"><g clip-path="url(#25bace2c24)"><g clip-path="url(#86e500792c)"><g clip-path="url(#b61c93113e)"><rect x="-52.232" width="238.464" fill="#ffffff" y="-95.76" height="155.519998" fill-opacity="1"/></g></g></g></g></g></g><g clip-path="url(#d00be221fb)"><g clip-path="url(#bf419617a3)"><g clip-path="url(#18bd9c4205)"><g transform="matrix(1, 0, 0, 1, 43, 51)"><g clip-path="url(#8cb45d984e)"><g clip-path="url(#518fd9062d)"><g clip-path="url(#5ebb5d29ca)"><g clip-path="url(#f14c6b993d)"><path fill="#ffffff" d="M 20.035156 29.90625 L -4.996094 3.601562 L 4.265625 -5.210938 L 29.296875 21.09375 Z M 20.035156 29.90625 " fill-opacity="1" fill-rule="nonzero"/></g></g></g></g></g></g></g></g></g></g></svg>