<svg xmlns="http://www.w3.org/2000/svg" xmlns:xlink="http://www.w3.org/1999/xlink" width="123" zoomAndPan="magnify" viewBox="0 0 92.25 168" height="224" preserveAspectRatio="xMidYMid meet" version="1.0"><defs><clipPath id="1953557344"><path d="M 17.855469 59.5 L 73.1875 59.5 L 73.1875 167.1875 L 17.855469 167.1875 Z M 17.855469 59.5 " clip-rule="nonzero"/></clipPath><clipPath id="fba9fc137b"><path d="M 0.855469 0.5 L 56.1875 0.5 L 56.1875 108.1875 L 0.855469 108.1875 Z M 0.855469 0.5 " clip-rule="nonzero"/></clipPath><clipPath id="d88cecf364"><rect x="0" width="57" y="0" height="109"/></clipPath><clipPath id="b70993c721"><path d="M 37.074219 43.875 L 54.1875 43.875 L 54.1875 59.5 L 37.074219 59.5 Z M 37.074219 43.875 " clip-rule="nonzero"/></clipPath><clipPath id="a2930b52ef"><path d="M 0.0742188 0.875 L 17.1875 0.875 L 17.1875 16.5 L 0.0742188 16.5 Z M 0.0742188 0.875 " clip-rule="nonzero"/></clipPath><clipPath id="cb13b98a03"><rect x="0" width="18" y="0" height="17"/></clipPath><clipPath id="3ad0ed8a32"><path d="M 30.757812 13.398438 L 59.910156 13.398438 L 59.910156 43.875 L 30.757812 43.875 Z M 30.757812 13.398438 " clip-rule="nonzero"/></clipPath><clipPath id="3b2c0ba469"><path d="M 0.757812 0.398438 L 29.910156 0.398438 L 29.910156 30.875 L 0.757812 30.875 Z M 0.757812 0.398438 " clip-rule="nonzero"/></clipPath><clipPath id="df9e918188"><rect x="0" width="30" y="0" height="31"/></clipPath><clipPath id="552a80a5c5"><path d="M 35.363281 22.644531 L 41.359375 22.644531 L 41.359375 28.636719 L 35.363281 28.636719 Z M 35.363281 22.644531 " clip-rule="nonzero"/></clipPath><clipPath id="c943bc9623"><path d="M 38.359375 22.644531 C 36.707031 22.644531 35.363281 23.984375 35.363281 25.640625 C 35.363281 27.292969 36.707031 28.636719 38.359375 28.636719 C 40.015625 28.636719 41.359375 27.292969 41.359375 25.640625 C 41.359375 23.984375 40.015625 22.644531 38.359375 22.644531 Z M 38.359375 22.644531 " clip-rule="nonzero"/></clipPath><clipPath id="59e5f314b6"><path d="M 0.363281 0.644531 L 6.359375 0.644531 L 6.359375 6.636719 L 0.363281 6.636719 Z M 0.363281 0.644531 " clip-rule="nonzero"/></clipPath><clipPath id="1dd5ca1909"><path d="M 3.359375 0.644531 C 1.707031 0.644531 0.363281 1.984375 0.363281 3.640625 C 0.363281 5.292969 1.707031 6.636719 3.359375 6.636719 C 5.015625 6.636719 6.359375 5.292969 6.359375 3.640625 C 6.359375 1.984375 5.015625 0.644531 3.359375 0.644531 Z M 3.359375 0.644531 " clip-rule="nonzero"/></clipPath><clipPath id="d84adff054"><rect x="0" width="7" y="0" height="7"/></clipPath><clipPath id="fc9d8fcef6"><path d="M 36.863281 24.003906 L 39.859375 24.003906 L 39.859375 27 L 36.863281 27 Z M 36.863281 24.003906 " clip-rule="nonzero"/></clipPath><clipPath id="f6f9360dad"><path d="M 38.359375 24.003906 C 37.53125 24.003906 36.863281 24.675781 36.863281 25.5 C 36.863281 26.328125 37.53125 27 38.359375 27 C 39.1875 27 39.859375 26.328125 39.859375 25.5 C 39.859375 24.675781 39.1875 24.003906 38.359375 24.003906 Z M 38.359375 24.003906 " clip-rule="nonzero"/></clipPath><clipPath id="c4812e67bc"><path d="M 0.863281 0.00390625 L 3.859375 0.00390625 L 3.859375 3 L 0.863281 3 Z M 0.863281 0.00390625 " clip-rule="nonzero"/></clipPath><clipPath id="eba5fc23f4"><path d="M 2.359375 0.00390625 C 1.53125 0.00390625 0.863281 0.675781 0.863281 1.5 C 0.863281 2.328125 1.53125 3 2.359375 3 C 3.1875 3 3.859375 2.328125 3.859375 1.5 C 3.859375 0.675781 3.1875 0.00390625 2.359375 0.00390625 Z M 2.359375 0.00390625 " clip-rule="nonzero"/></clipPath><clipPath id="94c9859445"><rect x="0" width="4" y="0" height="3"/></clipPath><clipPath id="9c2374b6d9"><path d="M 47.898438 22.503906 L 53.890625 22.503906 L 53.890625 28.496094 L 47.898438 28.496094 Z M 47.898438 22.503906 " clip-rule="nonzero"/></clipPath><clipPath id="11a957fe9f"><path d="M 50.894531 22.503906 C 49.238281 22.503906 47.898438 23.847656 47.898438 25.5 C 47.898438 27.15625 49.238281 28.496094 50.894531 28.496094 C 52.546875 28.496094 53.890625 27.15625 53.890625 25.5 C 53.890625 23.847656 52.546875 22.503906 50.894531 22.503906 Z M 50.894531 22.503906 " clip-rule="nonzero"/></clipPath><clipPath id="be7ceb963a"><path d="M 0.898438 0.503906 L 6.890625 0.503906 L 6.890625 6.496094 L 0.898438 6.496094 Z M 0.898438 0.503906 " clip-rule="nonzero"/></clipPath><clipPath id="cf9ebed7bf"><path d="M 3.894531 0.503906 C 2.238281 0.503906 0.898438 1.847656 0.898438 3.5 C 0.898438 5.15625 2.238281 6.496094 3.894531 6.496094 C 5.546875 6.496094 6.890625 5.15625 6.890625 3.5 C 6.890625 1.847656 5.546875 0.503906 3.894531 0.503906 Z M 3.894531 0.503906 " clip-rule="nonzero"/></clipPath><clipPath id="e6cb4ebc97"><rect x="0" width="7" y="0" height="7"/></clipPath><clipPath id="d1c6e6aa70"><path d="M 49.394531 23.863281 L 52.390625 23.863281 L 52.390625 26.859375 L 49.394531 26.859375 Z M 49.394531 23.863281 " clip-rule="nonzero"/></clipPath><clipPath id="5ae033d596"><path d="M 50.890625 23.863281 C 50.0625 23.863281 49.394531 24.535156 49.394531 25.363281 C 49.394531 26.191406 50.0625 26.859375 50.890625 26.859375 C 51.71875 26.859375 52.390625 26.191406 52.390625 25.363281 C 52.390625 24.535156 51.71875 23.863281 50.890625 23.863281 Z M 50.890625 23.863281 " clip-rule="nonzero"/></clipPath><clipPath id="89dd3cfbf0"><path d="M 0.394531 0.863281 L 3.390625 0.863281 L 3.390625 3.859375 L 0.394531 3.859375 Z M 0.394531 0.863281 " clip-rule="nonzero"/></clipPath><clipPath id="f436ed08de"><path d="M 1.890625 0.863281 C 1.0625 0.863281 0.394531 1.535156 0.394531 2.363281 C 0.394531 3.191406 1.0625 3.859375 1.890625 3.859375 C 2.71875 3.859375 3.390625 3.191406 3.390625 2.363281 C 3.390625 1.535156 2.71875 0.863281 1.890625 0.863281 Z M 1.890625 0.863281 " clip-rule="nonzero"/></clipPath><clipPath id="f8aea25213"><rect x="0" width="4" y="0" height="4"/></clipPath><clipPath id="6e73730eca"><path d="M 4 61 L 30 61 L 30 111 L 4 111 Z M 4 61 " clip-rule="nonzero"/></clipPath><clipPath id="08929377a3"><path d="M 23.347656 61.78125 L 29.582031 64.351562 L 10.554688 110.566406 L 4.320312 108 Z M 23.347656 61.78125 " clip-rule="nonzero"/></clipPath><clipPath id="dc6f489314"><path d="M 0.285156 0.621094 L 25.757812 0.621094 L 25.757812 49.664062 L 0.285156 49.664062 Z M 0.285156 0.621094 " clip-rule="nonzero"/></clipPath><clipPath id="103f0f59dd"><path d="M 19.347656 0.78125 L 25.582031 3.351562 L 6.554688 49.566406 L 0.320312 47 Z M 19.347656 0.78125 " clip-rule="nonzero"/></clipPath><clipPath id="703c06224b"><rect x="0" width="26" y="0" height="50"/></clipPath><clipPath id="c852cc43c4"><path d="M 62 61 L 91.507812 61 L 91.507812 111 L 62 111 Z M 62 61 " clip-rule="nonzero"/></clipPath><clipPath id="b0153f9da0"><path d="M 62.304688 64.816406 L 68.328125 61.78125 L 91.378906 107.53125 L 85.355469 110.566406 Z M 62.304688 64.816406 " clip-rule="nonzero"/></clipPath><clipPath id="26012badbc"><path d="M 0.136719 0.621094 L 29.417969 0.621094 L 29.417969 49.664062 L 0.136719 49.664062 Z M 0.136719 0.621094 " clip-rule="nonzero"/></clipPath><clipPath id="e9c1a3380f"><path d="M 0.304688 3.816406 L 6.328125 0.78125 L 29.378906 46.53125 L 23.355469 49.566406 Z M 0.304688 3.816406 " clip-rule="nonzero"/></clipPath><clipPath id="b6e8efa2ea"><rect x="0" width="30" y="0" height="50"/></clipPath><clipPath id="1db4d09a2e"><path d="M 36.957031 147.164062 L 43.441406 147.164062 L 43.441406 162.652344 L 36.957031 162.652344 Z M 36.957031 147.164062 " clip-rule="nonzero"/></clipPath><clipPath id="c0007b8700"><path d="M 0.957031 0.164062 L 7.441406 0.164062 L 7.441406 15.652344 L 0.957031 15.652344 Z M 0.957031 0.164062 " clip-rule="nonzero"/></clipPath><clipPath id="9a3ad6df30"><rect x="0" width="8" y="0" height="16"/></clipPath><clipPath id="68e9d3ec4a"><path d="M 57.5625 147.085938 L 64.050781 147.085938 L 64.050781 162.578125 L 57.5625 162.578125 Z M 57.5625 147.085938 " clip-rule="nonzero"/></clipPath><clipPath id="00ff336a1b"><path d="M 0.5625 0.0859375 L 7.050781 0.0859375 L 7.050781 15.578125 L 0.5625 15.578125 Z M 0.5625 0.0859375 " clip-rule="nonzero"/></clipPath><clipPath id="11a419faf3"><rect x="0" width="8" y="0" height="16"/></clipPath><clipPath id="1202aaf268"><path d="M 47.886719 156.015625 L 57.554688 156.015625 L 57.554688 162.5 L 47.886719 162.5 Z M 47.886719 156.015625 " clip-rule="nonzero"/></clipPath><clipPath id="970cf05c21"><path d="M 0.886719 0.015625 L 10.554688 0.015625 L 10.554688 6.5 L 0.886719 6.5 Z M 0.886719 0.015625 " clip-rule="nonzero"/></clipPath><clipPath id="e8d57c5f26"><rect x="0" width="11" y="0" height="7"/></clipPath><clipPath id="d2ede87163"><path d="M 27.28125 156.09375 L 36.945312 156.09375 L 36.945312 162.578125 L 27.28125 162.578125 Z M 27.28125 156.09375 " clip-rule="nonzero"/></clipPath><clipPath id="e44732fc75"><path d="M 0.28125 0.09375 L 9.945312 0.09375 L 9.945312 6.578125 L 0.28125 6.578125 Z M 0.28125 0.09375 " clip-rule="nonzero"/></clipPath><clipPath id="1484b23e05"><rect x="0" width="10" y="0" height="7"/></clipPath><clipPath id="12abbe1134"><path d="M 20.652344 3.476562 L 79 3.476562 L 79 45.640625 L 20.652344 45.640625 Z M 20.652344 3.476562 " clip-rule="nonzero"/></clipPath><clipPath id="15acf56b5c"><path d="M 35.113281 13.175781 C 29.535156 15.183594 28.789062 15.035156 28.046875 14.8125 C 27.304688 14.515625 26.558594 13.996094 26.039062 13.472656 C 25.515625 12.878906 25.144531 12.058594 24.921875 11.316406 C 24.699219 10.570312 24.625 9.753906 24.921875 8.933594 C 25.21875 7.96875 25.890625 6.628906 26.855469 6.035156 C 28.121094 5.289062 30.875 5.140625 32.214844 5.660156 C 33.328125 6.035156 34.296875 7.222656 34.742188 8.117188 C 35.113281 8.859375 35.261719 9.605469 35.1875 10.496094 C 35.113281 11.464844 34.445312 12.953125 33.777344 13.695312 C 33.253906 14.367188 32.511719 14.738281 31.765625 14.960938 C 31.023438 15.183594 29.832031 14.664062 29.386719 15.109375 C 28.789062 15.554688 29.3125 17.191406 28.714844 17.789062 C 28.046875 18.457031 26.261719 18.679688 25.21875 18.679688 C 24.402344 18.605469 23.65625 18.382812 22.988281 17.863281 C 22.167969 17.191406 21.203125 15.929688 20.90625 14.886719 C 20.609375 14.070312 20.683594 13.25 20.832031 12.507812 C 20.980469 11.6875 21.203125 10.945312 21.945312 10.347656 C 23.210938 9.234375 26.335938 8.488281 28.867188 8.042969 C 31.765625 7.523438 36.304688 7.371094 38.386719 7.597656 C 39.503906 7.746094 40.097656 7.820312 40.84375 8.265625 C 41.734375 8.859375 42.777344 10.050781 43.148438 11.167969 C 43.519531 12.207031 43.519531 13.769531 43.074219 14.8125 C 42.628906 15.855469 41.585938 16.820312 40.546875 17.492188 C 39.503906 18.160156 38.015625 18.605469 36.898438 18.828125 C 36.007812 18.980469 35.1875 19.128906 34.371094 18.902344 C 33.328125 18.605469 31.914062 17.789062 31.246094 16.820312 C 30.578125 15.929688 30.277344 14.367188 30.277344 13.25 C 30.351562 12.359375 30.652344 11.613281 31.097656 10.871094 C 31.542969 10.199219 32.140625 9.753906 32.957031 9.234375 C 34.296875 8.339844 36.898438 7.222656 38.910156 6.703125 C 40.84375 6.109375 43.371094 5.4375 44.859375 5.734375 C 45.828125 5.886719 46.496094 6.332031 47.09375 7 C 47.835938 7.820312 48.578125 9.234375 48.730469 10.421875 C 48.804688 11.613281 48.28125 13.175781 47.6875 14.070312 C 47.167969 14.8125 46.644531 15.332031 45.679688 15.707031 C 43.894531 16.300781 38.835938 16.003906 36.972656 15.40625 C 36.007812 15.035156 35.410156 14.664062 34.890625 13.917969 C 34.222656 13.027344 33.625 11.390625 33.625 10.347656 C 33.550781 9.457031 33.851562 8.5625 34.222656 7.820312 C 34.667969 7.074219 35.039062 6.480469 36.007812 5.960938 C 37.792969 4.84375 42.554688 3.726562 45.308594 3.726562 C 47.464844 3.800781 49.84375 4.472656 51.109375 5.289062 C 51.929688 5.8125 52.375 6.554688 52.746094 7.296875 C 53.117188 8.117188 53.265625 9.007812 53.265625 9.902344 C 53.191406 10.722656 52.894531 11.6875 52.523438 12.359375 C 52.078125 13.101562 51.480469 13.84375 50.664062 14.21875 C 49.695312 14.8125 46.867188 15.109375 46.867188 14.960938 C 46.792969 14.8125 52.226562 12.359375 52.375 12.582031 C 52.523438 12.804688 49.992188 15.183594 48.878906 15.855469 C 47.984375 16.300781 47.167969 16.523438 46.347656 16.597656 C 45.457031 16.671875 44.5625 16.523438 43.746094 16.078125 C 42.777344 15.554688 41.511719 14.441406 41.066406 13.324219 C 40.546875 12.207031 40.472656 10.644531 40.84375 9.457031 C 41.214844 8.339844 42.183594 7.074219 43.222656 6.40625 C 44.488281 5.660156 46.273438 5.660156 48.058594 5.511719 C 50.066406 5.289062 52.523438 5.214844 54.753906 5.363281 C 56.988281 5.585938 59.515625 5.585938 61.449219 6.628906 C 63.234375 7.671875 64.128906 10.796875 65.914062 11.539062 C 67.476562 12.207031 69.632812 10.945312 71.34375 11.390625 C 72.980469 11.761719 75.140625 12.359375 76.03125 13.84375 C 77.222656 15.929688 77.445312 21.953125 76.105469 23.738281 C 75.066406 25.152344 72.386719 25.449219 70.601562 25.300781 C 68.816406 25.003906 66.957031 23.515625 65.394531 22.253906 C 63.757812 20.988281 61.898438 18.980469 61.152344 17.566406 C 60.632812 16.597656 60.410156 15.78125 60.410156 14.960938 C 60.335938 14.070312 60.558594 13.101562 60.929688 12.28125 C 61.300781 11.539062 61.972656 10.722656 62.640625 10.199219 C 63.382812 9.679688 64.203125 9.234375 65.171875 9.160156 C 66.285156 9.085938 68.21875 9.605469 69.039062 9.976562 C 69.558594 10.273438 69.707031 10.273438 70.082031 10.871094 C 71.492188 12.878906 74.992188 22.921875 75.957031 26.9375 C 76.550781 29.320312 76.851562 31.179688 76.703125 32.742188 C 76.550781 33.707031 76.253906 34.527344 75.660156 35.195312 C 74.914062 36.089844 73.578125 37.207031 72.3125 37.429688 C 71.121094 37.726562 69.410156 37.429688 68.371094 36.90625 C 67.476562 36.535156 66.882812 35.792969 66.359375 35.046875 C 65.914062 34.378906 65.691406 33.707031 65.46875 32.519531 C 65.019531 30.359375 64.425781 25.078125 64.796875 22.921875 C 64.945312 21.804688 65.171875 21.136719 65.765625 20.390625 C 66.433594 19.5 67.921875 18.457031 69.039062 18.160156 C 69.929688 17.863281 70.898438 17.9375 71.71875 18.160156 C 72.609375 18.382812 73.503906 18.753906 74.171875 19.425781 C 74.992188 20.242188 76.105469 21.65625 76.03125 22.996094 C 75.882812 24.855469 72.164062 27.683594 71.195312 29.320312 C 70.675781 30.285156 70.824219 31.179688 70.304688 31.773438 C 69.78125 32.445312 68.816406 32.890625 67.996094 33.113281 C 67.105469 33.410156 66.136719 33.410156 65.246094 33.261719 C 64.425781 33.039062 63.535156 32.667969 62.789062 32.070312 C 61.972656 31.253906 61.078125 30.0625 60.855469 28.574219 C 60.410156 26.269531 61.078125 21.359375 62.195312 19.277344 C 62.9375 17.9375 64.054688 17.117188 65.246094 16.671875 C 66.359375 16.226562 68.144531 16.375 69.261719 16.671875 C 70.15625 16.96875 70.898438 17.492188 71.417969 18.234375 C 72.164062 19.203125 72.609375 20.316406 72.832031 22.027344 C 73.277344 25.375 72.980469 34.527344 71.417969 37.355469 C 70.675781 38.769531 69.484375 39.363281 68.445312 39.808594 C 67.550781 40.105469 66.65625 40.105469 65.765625 39.957031 C 64.945312 39.808594 64.054688 39.4375 63.382812 38.917969 C 62.714844 38.394531 62.121094 37.652344 61.746094 36.90625 C 61.375 36.089844 61.152344 35.421875 61.226562 34.304688 C 61.300781 32.296875 62.269531 27.757812 63.609375 26.121094 C 64.5 25.003906 65.914062 24.410156 67.03125 24.1875 C 67.921875 24.039062 68.816406 24.1875 69.632812 24.484375 C 70.453125 24.707031 71.269531 25.152344 71.867188 25.898438 C 72.535156 26.789062 72.980469 27.980469 73.355469 29.542969 C 73.875 32.148438 73.875 37.800781 73.355469 40.328125 C 73.054688 41.890625 72.535156 43.082031 71.792969 43.902344 C 71.121094 44.644531 70.304688 45.015625 69.484375 45.316406 C 68.667969 45.539062 67.699219 45.613281 66.882812 45.464844 C 66.0625 45.316406 65.171875 44.941406 64.5 44.421875 C 63.832031 43.902344 63.160156 43.082031 62.863281 42.339844 C 62.492188 41.519531 62.34375 40.851562 62.34375 39.734375 C 62.417969 37.578125 63.234375 32.519531 64.351562 30.359375 C 65.097656 29.023438 66.0625 28.054688 67.03125 27.535156 C 67.847656 27.085938 68.667969 26.863281 69.632812 26.9375 C 70.75 27.011719 72.386719 27.683594 73.203125 28.425781 C 73.949219 29.023438 74.394531 29.839844 74.691406 30.585938 C 74.992188 31.402344 75.363281 32.519531 74.992188 33.261719 C 74.320312 34.304688 71.417969 34.972656 69.929688 35.34375 C 68.742188 35.644531 67.03125 36.089844 66.734375 35.644531 C 66.433594 35.269531 67.105469 33.859375 67.625 33.113281 C 68.371094 32.222656 69.78125 31.179688 70.898438 30.808594 C 71.792969 30.585938 72.757812 30.585938 73.578125 30.808594 C 74.394531 31.03125 75.289062 31.476562 75.957031 32.070312 C 76.628906 32.59375 77.222656 33.410156 77.519531 34.230469 C 77.816406 35.046875 77.519531 36.757812 77.816406 36.90625 C 78.039062 36.980469 78.339844 36.460938 78.488281 36.535156 C 78.859375 36.757812 78.933594 38.394531 78.859375 39.214844 C 78.785156 40.105469 78.414062 41 77.964844 41.742188 C 77.445312 42.488281 76.703125 43.15625 75.957031 43.527344 C 75.214844 43.976562 74.320312 44.273438 73.355469 44.273438 C 72.238281 44.199219 70.527344 43.601562 69.632812 42.859375 C 68.890625 42.339844 68.445312 41.667969 68.070312 40.703125 C 67.476562 39.140625 66.957031 36.164062 67.03125 34.378906 C 67.105469 33.039062 67.550781 31.773438 68.070312 30.957031 C 68.371094 30.359375 68.742188 29.988281 69.335938 29.617188 C 70.15625 29.097656 71.640625 28.5 72.757812 28.5 C 73.875 28.574219 75.214844 29.023438 76.179688 29.691406 C 77.074219 30.433594 77.816406 31.847656 78.113281 32.742188 C 78.339844 33.410156 78.414062 33.859375 78.265625 34.527344 C 78.113281 35.496094 77.519531 37.132812 76.925781 37.875 C 76.476562 38.394531 76.105469 38.769531 75.511719 39.066406 C 74.617188 39.4375 72.980469 39.808594 72.015625 39.734375 C 71.269531 39.734375 70.75 39.511719 70.230469 39.214844 C 69.707031 38.992188 69.1875 38.691406 68.742188 38.171875 C 68.070312 37.503906 67.328125 35.941406 67.105469 34.972656 C 66.957031 34.304688 66.957031 33.859375 67.105469 33.1875 C 67.402344 32.222656 67.996094 30.808594 68.816406 29.988281 C 69.707031 29.246094 71.195312 28.722656 72.164062 28.574219 C 72.832031 28.425781 73.355469 28.574219 73.949219 28.648438 C 74.542969 28.796875 75.066406 28.949219 75.660156 29.394531 C 76.402344 29.914062 77.371094 30.882812 77.964844 32.148438 C 78.710938 33.859375 79.082031 37.503906 78.859375 39.214844 C 78.785156 40.328125 78.414062 41 77.964844 41.742188 C 77.445312 42.488281 76.703125 43.15625 75.957031 43.527344 C 75.214844 43.976562 74.246094 44.199219 73.355469 44.273438 C 72.460938 44.273438 71.566406 44.125 70.75 43.601562 C 69.78125 43.082031 68.667969 41.964844 67.996094 40.703125 C 67.253906 39.066406 66.65625 35.867188 67.03125 34.304688 C 67.253906 33.335938 67.773438 32.667969 68.519531 32.070312 C 69.410156 31.402344 70.972656 30.660156 72.238281 30.660156 C 73.503906 30.660156 75.066406 31.328125 75.957031 32.070312 C 76.703125 32.59375 77.222656 33.410156 77.519531 34.230469 C 77.816406 35.046875 77.890625 35.941406 77.816406 36.90625 C 77.742188 38.171875 77.519531 39.808594 76.703125 41.074219 C 75.660156 42.5625 73.652344 44.644531 71.792969 44.792969 C 69.855469 45.089844 66.359375 43.304688 65.097656 41.816406 C 64.128906 40.554688 64.128906 38.769531 63.980469 37.058594 C 63.832031 35.046875 63.683594 32.070312 64.351562 30.359375 C 64.871094 29.097656 65.914062 28.054688 67.03125 27.535156 C 68.144531 26.9375 69.855469 26.9375 70.898438 27.160156 C 71.792969 27.3125 72.609375 27.757812 73.203125 28.425781 C 74.023438 29.246094 74.765625 30.359375 74.992188 31.921875 C 75.289062 34.527344 73.949219 40.703125 72.609375 42.859375 C 71.792969 44.199219 70.527344 44.867188 69.484375 45.316406 C 68.667969 45.613281 67.699219 45.613281 66.882812 45.464844 C 66.0625 45.316406 65.171875 45.015625 64.5 44.421875 C 63.609375 43.679688 62.714844 41.964844 62.417969 41.074219 C 62.269531 40.554688 62.269531 39.734375 62.34375 39.734375 C 62.417969 39.734375 62.9375 41.519531 63.085938 41.445312 C 63.460938 41.371094 61.898438 31.03125 62.417969 28.5 C 62.640625 27.3125 62.9375 26.789062 63.609375 26.121094 C 64.351562 25.300781 65.914062 24.410156 67.03125 24.1875 C 67.921875 24.039062 68.816406 24.1875 69.632812 24.484375 C 70.453125 24.707031 71.269531 25.152344 71.867188 25.898438 C 72.535156 26.789062 73.203125 28.128906 73.355469 29.542969 C 73.503906 31.402344 72.757812 34.378906 72.015625 36.089844 C 71.417969 37.429688 70.675781 38.542969 69.632812 39.214844 C 68.59375 39.882812 67.03125 40.179688 65.765625 39.957031 C 64.574219 39.734375 63.234375 38.917969 62.417969 38.023438 C 61.671875 37.058594 61.449219 35.941406 61.226562 34.304688 C 60.78125 31.179688 60.707031 23.515625 61.671875 20.617188 C 62.195312 18.980469 63.085938 18.011719 63.980469 17.265625 C 64.722656 16.671875 65.617188 16.375 66.507812 16.375 C 67.699219 16.300781 69.484375 16.746094 70.453125 17.34375 C 71.269531 17.863281 71.867188 18.53125 72.238281 19.425781 C 72.683594 20.464844 72.757812 21.878906 72.683594 23.367188 C 72.609375 25.449219 72.089844 29.171875 71.195312 30.734375 C 70.675781 31.699219 70.082031 32.222656 69.261719 32.59375 C 68.21875 33.113281 66.507812 33.484375 65.246094 33.261719 C 64.054688 32.964844 62.640625 32.070312 61.898438 31.03125 C 61.152344 30.0625 60.707031 28.5 60.78125 27.238281 C 60.855469 25.824219 61.671875 24.484375 62.566406 23.144531 C 63.609375 21.65625 66.65625 18.679688 67.03125 18.902344 C 67.328125 19.128906 64.871094 24.335938 64.796875 24.335938 C 64.648438 24.261719 65.171875 21.433594 65.765625 20.390625 C 66.210938 19.574219 66.957031 19.054688 67.773438 18.605469 C 68.519531 18.234375 69.484375 17.9375 70.378906 18.011719 C 71.566406 18.085938 73.277344 18.679688 74.171875 19.425781 C 74.914062 20.019531 75.289062 20.539062 75.660156 21.65625 C 76.476562 23.890625 77 30.359375 76.703125 32.742188 C 76.476562 33.859375 76.253906 34.527344 75.660156 35.195312 C 74.914062 36.089844 73.578125 37.207031 72.3125 37.429688 C 71.121094 37.726562 69.484375 37.503906 68.371094 36.90625 C 67.253906 36.3125 66.507812 35.269531 65.765625 33.859375 C 64.722656 31.847656 63.832031 28.203125 63.535156 25.527344 C 63.308594 23.070312 63.90625 18.308594 64.054688 18.308594 C 64.203125 18.308594 64.871094 24.484375 64.425781 24.632812 C 63.980469 24.707031 61.078125 18.308594 60.558594 16.300781 C 60.335938 15.183594 60.335938 14.441406 60.484375 13.546875 C 60.707031 12.730469 61.078125 11.835938 61.671875 11.167969 C 62.195312 10.496094 63.011719 9.902344 63.832031 9.53125 C 64.648438 9.234375 65.617188 9.085938 66.507812 9.160156 C 67.402344 9.234375 68.445312 9.605469 69.039062 9.976562 C 69.484375 10.273438 69.855469 10.421875 70.082031 10.871094 C 70.527344 11.6875 70.898438 13.472656 70.527344 14.886719 C 70.003906 16.820312 67.847656 20.691406 66.0625 21.285156 C 64.648438 21.804688 62.863281 20.539062 61.152344 19.796875 C 59.144531 18.902344 56.988281 16.894531 54.828125 16.226562 C 52.894531 15.628906 50.589844 15.78125 48.878906 15.855469 C 47.390625 15.929688 46.125 16.671875 45.007812 16.523438 C 44.117188 16.375 43.296875 16.003906 42.628906 15.40625 C 41.808594 14.664062 40.84375 13.25 40.621094 12.058594 C 40.472656 10.871094 40.84375 9.234375 41.363281 8.265625 C 41.808594 7.449219 43.148438 6.332031 43.222656 6.40625 C 43.371094 6.480469 42.554688 7.597656 42.703125 7.746094 C 43.074219 8.042969 47.019531 4.25 48.730469 4.25 C 49.992188 4.25 51.332031 5.289062 52.078125 6.183594 C 52.820312 7.148438 53.339844 8.710938 53.265625 9.902344 C 53.191406 11.09375 52.523438 12.582031 51.703125 13.398438 C 50.8125 14.292969 49.398438 14.886719 48.207031 15.035156 C 46.867188 15.257812 45.53125 14.441406 44.042969 14.515625 C 42.332031 14.589844 39.726562 15.855469 38.238281 15.707031 C 37.273438 15.628906 36.527344 15.332031 35.859375 14.8125 C 35.039062 14.070312 34.074219 12.65625 33.699219 11.613281 C 33.476562 10.722656 33.550781 9.828125 33.777344 9.007812 C 34 8.191406 34.371094 7.371094 35.039062 6.777344 C 35.785156 6.035156 37.046875 5.289062 38.386719 5.066406 C 40.171875 4.695312 43.148438 5.066406 44.859375 5.734375 C 46.125 6.257812 47.242188 7.074219 47.910156 7.96875 C 48.429688 8.710938 48.65625 9.605469 48.730469 10.421875 C 48.804688 11.242188 48.65625 12.207031 48.28125 12.953125 C 47.984375 13.695312 47.6875 14.292969 46.792969 14.960938 C 44.859375 16.449219 38.015625 18.828125 35.636719 18.980469 C 34.519531 19.054688 33.925781 18.828125 33.179688 18.457031 C 32.4375 18.085938 31.765625 17.492188 31.246094 16.820312 C 30.800781 16.226562 30.425781 15.40625 30.351562 14.515625 C 30.203125 13.472656 30.578125 11.835938 31.097656 10.871094 C 31.542969 10.125 32.140625 9.679688 32.957031 9.234375 C 34.222656 8.488281 36.972656 7.671875 38.386719 7.597656 C 39.355469 7.597656 40.097656 7.894531 40.84375 8.265625 C 41.511719 8.710938 42.183594 9.308594 42.628906 9.976562 C 43.074219 10.644531 43.371094 11.539062 43.445312 12.359375 C 43.519531 13.175781 43.445312 14.070312 43.074219 14.8125 C 42.628906 15.78125 41.957031 16.820312 40.546875 17.492188 C 37.570312 18.902344 27.152344 19.425781 24.03125 18.382812 C 22.617188 17.9375 21.871094 17.042969 21.351562 16.078125 C 20.757812 15.035156 20.683594 13.472656 20.832031 12.507812 C 20.980469 11.613281 21.351562 11.019531 21.945312 10.347656 C 22.691406 9.382812 24.03125 8.414062 25.367188 7.671875 C 26.929688 6.703125 29.90625 5.363281 31.097656 5.289062 C 31.617188 5.289062 31.839844 5.363281 32.214844 5.660156 C 32.957031 6.109375 34.296875 7.148438 34.742188 8.117188 C 35.1875 9.160156 35.1875 10.644531 34.964844 11.6875 C 34.816406 12.433594 34.296875 13.175781 33.777344 13.695312 C 33.253906 14.21875 32.585938 14.8125 31.765625 14.960938 C 30.503906 15.183594 28.046875 14.8125 27.003906 14.21875 C 26.1875 13.84375 25.742188 13.175781 25.367188 12.433594 C 24.996094 11.761719 24.773438 10.945312 24.773438 10.125 C 24.773438 9.382812 24.921875 8.488281 25.292969 7.820312 C 25.667969 7.148438 26.113281 6.554688 26.855469 6.035156 C 28.121094 5.140625 31.171875 3.875 32.660156 3.652344 C 33.625 3.578125 34.296875 3.652344 35.039062 3.949219 C 35.710938 4.175781 36.453125 4.695312 36.972656 5.289062 C 37.496094 5.8125 37.941406 6.628906 38.089844 7.296875 C 38.3125 8.042969 38.3125 8.933594 38.164062 9.679688 C 37.941406 10.421875 37.570312 11.242188 37.046875 11.835938 C 36.601562 12.359375 35.113281 13.175781 35.113281 13.175781 " clip-rule="nonzero"/></clipPath><clipPath id="22341b8e56"><path d="M 0.652344 0.535156 L 59 0.535156 L 59 42.640625 L 0.652344 42.640625 Z M 0.652344 0.535156 " clip-rule="nonzero"/></clipPath><clipPath id="0c4597297b"><path d="M 15.113281 10.175781 C 9.535156 12.183594 8.789062 12.035156 8.046875 11.8125 C 7.304688 11.515625 6.558594 10.996094 6.039062 10.472656 C 5.515625 9.878906 5.144531 9.058594 4.921875 8.316406 C 4.699219 7.570312 4.625 6.753906 4.921875 5.933594 C 5.21875 4.96875 5.890625 3.628906 6.855469 3.035156 C 8.121094 2.289062 10.875 2.140625 12.214844 2.660156 C 13.328125 3.035156 14.296875 4.222656 14.742188 5.117188 C 15.113281 5.859375 15.261719 6.605469 15.1875 7.496094 C 15.113281 8.464844 14.445312 9.953125 13.777344 10.695312 C 13.253906 11.367188 12.511719 11.738281 11.765625 11.960938 C 11.023438 12.183594 9.832031 11.664062 9.386719 12.109375 C 8.789062 12.554688 9.3125 14.191406 8.714844 14.789062 C 8.046875 15.457031 6.261719 15.679688 5.21875 15.679688 C 4.402344 15.605469 3.65625 15.382812 2.988281 14.863281 C 2.167969 14.191406 1.203125 12.929688 0.90625 11.886719 C 0.609375 11.070312 0.683594 10.25 0.832031 9.507812 C 0.980469 8.6875 1.203125 7.945312 1.945312 7.347656 C 3.210938 6.234375 6.335938 5.488281 8.867188 5.042969 C 11.765625 4.523438 16.304688 4.371094 18.386719 4.597656 C 19.503906 4.746094 20.097656 4.820312 20.84375 5.265625 C 21.734375 5.859375 22.777344 7.050781 23.148438 8.167969 C 23.519531 9.207031 23.519531 10.769531 23.074219 11.8125 C 22.628906 12.855469 21.585938 13.820312 20.546875 14.492188 C 19.503906 15.160156 18.015625 15.605469 16.898438 15.828125 C 16.007812 15.980469 15.1875 16.128906 14.371094 15.902344 C 13.328125 15.605469 11.914062 14.789062 11.246094 13.820312 C 10.578125 12.929688 10.277344 11.367188 10.277344 10.25 C 10.351562 9.359375 10.652344 8.613281 11.097656 7.871094 C 11.542969 7.199219 12.140625 6.753906 12.957031 6.234375 C 14.296875 5.339844 16.898438 4.222656 18.910156 3.703125 C 20.84375 3.109375 23.371094 2.4375 24.859375 2.734375 C 25.828125 2.886719 26.496094 3.332031 27.09375 4 C 27.835938 4.820312 28.578125 6.234375 28.730469 7.421875 C 28.804688 8.613281 28.28125 10.175781 27.6875 11.070312 C 27.167969 11.8125 26.644531 12.332031 25.679688 12.707031 C 23.894531 13.300781 18.835938 13.003906 16.972656 12.40625 C 16.007812 12.035156 15.410156 11.664062 14.890625 10.917969 C 14.222656 10.027344 13.625 8.390625 13.625 7.347656 C 13.550781 6.457031 13.851562 5.5625 14.222656 4.820312 C 14.667969 4.074219 15.039062 3.480469 16.007812 2.960938 C 17.792969 1.84375 22.554688 0.726562 25.308594 0.726562 C 27.464844 0.800781 29.84375 1.472656 31.109375 2.289062 C 31.929688 2.8125 32.375 3.554688 32.746094 4.296875 C 33.117188 5.117188 33.265625 6.007812 33.265625 6.902344 C 33.191406 7.722656 32.894531 8.6875 32.523438 9.359375 C 32.078125 10.101562 31.480469 10.84375 30.664062 11.21875 C 29.695312 11.8125 26.867188 12.109375 26.867188 11.960938 C 26.792969 11.8125 32.226562 9.359375 32.375 9.582031 C 32.523438 9.804688 29.992188 12.183594 28.878906 12.855469 C 27.984375 13.300781 27.167969 13.523438 26.347656 13.597656 C 25.457031 13.671875 24.5625 13.523438 23.746094 13.078125 C 22.777344 12.554688 21.511719 11.441406 21.066406 10.324219 C 20.546875 9.207031 20.472656 7.644531 20.84375 6.457031 C 21.214844 5.339844 22.183594 4.074219 23.222656 3.40625 C 24.488281 2.660156 26.273438 2.660156 28.058594 2.511719 C 30.066406 2.289062 32.523438 2.214844 34.753906 2.363281 C 36.988281 2.585938 39.515625 2.585938 41.449219 3.628906 C 43.234375 4.671875 44.128906 7.796875 45.914062 8.539062 C 47.476562 9.207031 49.632812 7.945312 51.34375 8.390625 C 52.980469 8.761719 55.140625 9.359375 56.03125 10.84375 C 57.222656 12.929688 57.445312 18.953125 56.105469 20.738281 C 55.066406 22.152344 52.386719 22.449219 50.601562 22.300781 C 48.816406 22.003906 46.957031 20.515625 45.394531 19.253906 C 43.757812 17.988281 41.898438 15.980469 41.152344 14.566406 C 40.632812 13.597656 40.410156 12.78125 40.410156 11.960938 C 40.335938 11.070312 40.558594 10.101562 40.929688 9.28125 C 41.300781 8.539062 41.972656 7.722656 42.640625 7.199219 C 43.382812 6.679688 44.203125 6.234375 45.171875 6.160156 C 46.285156 6.085938 48.21875 6.605469 49.039062 6.976562 C 49.558594 7.273438 49.707031 7.273438 50.082031 7.871094 C 51.492188 9.878906 54.992188 19.921875 55.957031 23.9375 C 56.550781 26.320312 56.851562 28.179688 56.703125 29.742188 C 56.550781 30.707031 56.253906 31.527344 55.660156 32.195312 C 54.914062 33.089844 53.578125 34.207031 52.3125 34.429688 C 51.121094 34.726562 49.410156 34.429688 48.371094 33.90625 C 47.476562 33.535156 46.882812 32.792969 46.359375 32.046875 C 45.914062 31.378906 45.691406 30.707031 45.46875 29.519531 C 45.019531 27.359375 44.425781 22.078125 44.796875 19.921875 C 44.945312 18.804688 45.171875 18.136719 45.765625 17.390625 C 46.433594 16.5 47.921875 15.457031 49.039062 15.160156 C 49.929688 14.863281 50.898438 14.9375 51.71875 15.160156 C 52.609375 15.382812 53.503906 15.753906 54.171875 16.425781 C 54.992188 17.242188 56.105469 18.65625 56.03125 19.996094 C 55.882812 21.855469 52.164062 24.683594 51.195312 26.320312 C 50.675781 27.285156 50.824219 28.179688 50.304688 28.773438 C 49.78125 29.445312 48.816406 29.890625 47.996094 30.113281 C 47.105469 30.410156 46.136719 30.410156 45.246094 30.261719 C 44.425781 30.039062 43.535156 29.667969 42.789062 29.070312 C 41.972656 28.253906 41.078125 27.0625 40.855469 25.574219 C 40.410156 23.269531 41.078125 18.359375 42.195312 16.277344 C 42.9375 14.9375 44.054688 14.117188 45.246094 13.671875 C 46.359375 13.226562 48.144531 13.375 49.261719 13.671875 C 50.15625 13.96875 50.898438 14.492188 51.417969 15.234375 C 52.164062 16.203125 52.609375 17.316406 52.832031 19.027344 C 53.277344 22.375 52.980469 31.527344 51.417969 34.355469 C 50.675781 35.769531 49.484375 36.363281 48.445312 36.808594 C 47.550781 37.105469 46.65625 37.105469 45.765625 36.957031 C 44.945312 36.808594 44.054688 36.4375 43.382812 35.917969 C 42.714844 35.394531 42.121094 34.652344 41.746094 33.90625 C 41.375 33.089844 41.152344 32.421875 41.226562 31.304688 C 41.300781 29.296875 42.269531 24.757812 43.609375 23.121094 C 44.5 22.003906 45.914062 21.410156 47.03125 21.1875 C 47.921875 21.039062 48.816406 21.1875 49.632812 21.484375 C 50.453125 21.707031 51.269531 22.152344 51.867188 22.898438 C 52.535156 23.789062 52.980469 24.980469 53.355469 26.542969 C 53.875 29.148438 53.875 34.800781 53.355469 37.328125 C 53.054688 38.890625 52.535156 40.082031 51.792969 40.902344 C 51.121094 41.644531 50.304688 42.015625 49.484375 42.316406 C 48.667969 42.539062 47.699219 42.613281 46.882812 42.464844 C 46.0625 42.316406 45.171875 41.941406 44.5 41.421875 C 43.832031 40.902344 43.160156 40.082031 42.863281 39.339844 C 42.492188 38.519531 42.34375 37.851562 42.34375 36.734375 C 42.417969 34.578125 43.234375 29.519531 44.351562 27.359375 C 45.097656 26.023438 46.0625 25.054688 47.03125 24.535156 C 47.847656 24.085938 48.667969 23.863281 49.632812 23.9375 C 50.75 24.011719 52.386719 24.683594 53.203125 25.425781 C 53.949219 26.023438 54.394531 26.839844 54.691406 27.585938 C 54.992188 28.402344 55.363281 29.519531 54.992188 30.261719 C 54.320312 31.304688 51.417969 31.972656 49.929688 32.34375 C 48.742188 32.644531 47.03125 33.089844 46.734375 32.644531 C 46.433594 32.269531 47.105469 30.859375 47.625 30.113281 C 48.371094 29.222656 49.78125 28.179688 50.898438 27.808594 C 51.792969 27.585938 52.757812 27.585938 53.578125 27.808594 C 54.394531 28.03125 55.289062 28.476562 55.957031 29.070312 C 56.628906 29.59375 57.222656 30.410156 57.519531 31.230469 C 57.816406 32.046875 57.519531 33.757812 57.816406 33.90625 C 58.039062 33.980469 58.339844 33.460938 58.488281 33.535156 C 58.859375 33.757812 58.933594 35.394531 58.859375 36.214844 C 58.785156 37.105469 58.414062 38 57.964844 38.742188 C 57.445312 39.488281 56.703125 40.15625 55.957031 40.527344 C 55.214844 40.976562 54.320312 41.273438 53.355469 41.273438 C 52.238281 41.199219 50.527344 40.601562 49.632812 39.859375 C 48.890625 39.339844 48.445312 38.667969 48.070312 37.703125 C 47.476562 36.140625 46.957031 33.164062 47.03125 31.378906 C 47.105469 30.039062 47.550781 28.773438 48.070312 27.957031 C 48.371094 27.359375 48.742188 26.988281 49.335938 26.617188 C 50.15625 26.097656 51.640625 25.5 52.757812 25.5 C 53.875 25.574219 55.214844 26.023438 56.179688 26.691406 C 57.074219 27.433594 57.816406 28.847656 58.113281 29.742188 C 58.339844 30.410156 58.414062 30.859375 58.265625 31.527344 C 58.113281 32.496094 57.519531 34.132812 56.925781 34.875 C 56.476562 35.394531 56.105469 35.769531 55.511719 36.066406 C 54.617188 36.4375 52.980469 36.808594 52.015625 36.734375 C 51.269531 36.734375 50.75 36.511719 50.230469 36.214844 C 49.707031 35.992188 49.1875 35.691406 48.742188 35.171875 C 48.070312 34.503906 47.328125 32.941406 47.105469 31.972656 C 46.957031 31.304688 46.957031 30.859375 47.105469 30.1875 C 47.402344 29.222656 47.996094 27.808594 48.816406 26.988281 C 49.707031 26.246094 51.195312 25.722656 52.164062 25.574219 C 52.832031 25.425781 53.355469 25.574219 53.949219 25.648438 C 54.542969 25.796875 55.066406 25.949219 55.660156 26.394531 C 56.402344 26.914062 57.371094 27.882812 57.964844 29.148438 C 58.710938 30.859375 59.082031 34.503906 58.859375 36.214844 C 58.785156 37.328125 58.414062 38 57.964844 38.742188 C 57.445312 39.488281 56.703125 40.15625 55.957031 40.527344 C 55.214844 40.976562 54.246094 41.199219 53.355469 41.273438 C 52.460938 41.273438 51.566406 41.125 50.75 40.601562 C 49.78125 40.082031 48.667969 38.964844 47.996094 37.703125 C 47.253906 36.066406 46.65625 32.867188 47.03125 31.304688 C 47.253906 30.335938 47.773438 29.667969 48.519531 29.070312 C 49.410156 28.402344 50.972656 27.660156 52.238281 27.660156 C 53.503906 27.660156 55.066406 28.328125 55.957031 29.070312 C 56.703125 29.59375 57.222656 30.410156 57.519531 31.230469 C 57.816406 32.046875 57.890625 32.941406 57.816406 33.90625 C 57.742188 35.171875 57.519531 36.808594 56.703125 38.074219 C 55.660156 39.5625 53.652344 41.644531 51.792969 41.792969 C 49.855469 42.089844 46.359375 40.304688 45.097656 38.816406 C 44.128906 37.554688 44.128906 35.769531 43.980469 34.058594 C 43.832031 32.046875 43.683594 29.070312 44.351562 27.359375 C 44.871094 26.097656 45.914062 25.054688 47.03125 24.535156 C 48.144531 23.9375 49.855469 23.9375 50.898438 24.160156 C 51.792969 24.3125 52.609375 24.757812 53.203125 25.425781 C 54.023438 26.246094 54.765625 27.359375 54.992188 28.921875 C 55.289062 31.527344 53.949219 37.703125 52.609375 39.859375 C 51.792969 41.199219 50.527344 41.867188 49.484375 42.316406 C 48.667969 42.613281 47.699219 42.613281 46.882812 42.464844 C 46.0625 42.316406 45.171875 42.015625 44.5 41.421875 C 43.609375 40.679688 42.714844 38.964844 42.417969 38.074219 C 42.269531 37.554688 42.269531 36.734375 42.34375 36.734375 C 42.417969 36.734375 42.9375 38.519531 43.085938 38.445312 C 43.460938 38.371094 41.898438 28.03125 42.417969 25.5 C 42.640625 24.3125 42.9375 23.789062 43.609375 23.121094 C 44.351562 22.300781 45.914062 21.410156 47.03125 21.1875 C 47.921875 21.039062 48.816406 21.1875 49.632812 21.484375 C 50.453125 21.707031 51.269531 22.152344 51.867188 22.898438 C 52.535156 23.789062 53.203125 25.128906 53.355469 26.542969 C 53.503906 28.402344 52.757812 31.378906 52.015625 33.089844 C 51.417969 34.429688 50.675781 35.542969 49.632812 36.214844 C 48.59375 36.882812 47.03125 37.179688 45.765625 36.957031 C 44.574219 36.734375 43.234375 35.917969 42.417969 35.023438 C 41.671875 34.058594 41.449219 32.941406 41.226562 31.304688 C 40.78125 28.179688 40.707031 20.515625 41.671875 17.617188 C 42.195312 15.980469 43.085938 15.011719 43.980469 14.265625 C 44.722656 13.671875 45.617188 13.375 46.507812 13.375 C 47.699219 13.300781 49.484375 13.746094 50.453125 14.34375 C 51.269531 14.863281 51.867188 15.53125 52.238281 16.425781 C 52.683594 17.464844 52.757812 18.878906 52.683594 20.367188 C 52.609375 22.449219 52.089844 26.171875 51.195312 27.734375 C 50.675781 28.699219 50.082031 29.222656 49.261719 29.59375 C 48.21875 30.113281 46.507812 30.484375 45.246094 30.261719 C 44.054688 29.964844 42.640625 29.070312 41.898438 28.03125 C 41.152344 27.0625 40.707031 25.5 40.78125 24.238281 C 40.855469 22.824219 41.671875 21.484375 42.566406 20.144531 C 43.609375 18.65625 46.65625 15.679688 47.03125 15.902344 C 47.328125 16.128906 44.871094 21.335938 44.796875 21.335938 C 44.648438 21.261719 45.171875 18.433594 45.765625 17.390625 C 46.210938 16.574219 46.957031 16.054688 47.773438 15.605469 C 48.519531 15.234375 49.484375 14.9375 50.378906 15.011719 C 51.566406 15.085938 53.277344 15.679688 54.171875 16.425781 C 54.914062 17.019531 55.289062 17.539062 55.660156 18.65625 C 56.476562 20.890625 57 27.359375 56.703125 29.742188 C 56.476562 30.859375 56.253906 31.527344 55.660156 32.195312 C 54.914062 33.089844 53.578125 34.207031 52.3125 34.429688 C 51.121094 34.726562 49.484375 34.503906 48.371094 33.90625 C 47.253906 33.3125 46.507812 32.269531 45.765625 30.859375 C 44.722656 28.847656 43.832031 25.203125 43.535156 22.527344 C 43.308594 20.070312 43.90625 15.308594 44.054688 15.308594 C 44.203125 15.308594 44.871094 21.484375 44.425781 21.632812 C 43.980469 21.707031 41.078125 15.308594 40.558594 13.300781 C 40.335938 12.183594 40.335938 11.441406 40.484375 10.546875 C 40.707031 9.730469 41.078125 8.835938 41.671875 8.167969 C 42.195312 7.496094 43.011719 6.902344 43.832031 6.53125 C 44.648438 6.234375 45.617188 6.085938 46.507812 6.160156 C 47.402344 6.234375 48.445312 6.605469 49.039062 6.976562 C 49.484375 7.273438 49.855469 7.421875 50.082031 7.871094 C 50.527344 8.6875 50.898438 10.472656 50.527344 11.886719 C 50.003906 13.820312 47.847656 17.691406 46.0625 18.285156 C 44.648438 18.804688 42.863281 17.539062 41.152344 16.796875 C 39.144531 15.902344 36.988281 13.894531 34.828125 13.226562 C 32.894531 12.628906 30.589844 12.78125 28.878906 12.855469 C 27.390625 12.929688 26.125 13.671875 25.007812 13.523438 C 24.117188 13.375 23.296875 13.003906 22.628906 12.40625 C 21.808594 11.664062 20.84375 10.25 20.621094 9.058594 C 20.472656 7.871094 20.84375 6.234375 21.363281 5.265625 C 21.808594 4.449219 23.148438 3.332031 23.222656 3.40625 C 23.371094 3.480469 22.554688 4.597656 22.703125 4.746094 C 23.074219 5.042969 27.019531 1.25 28.730469 1.25 C 29.992188 1.25 31.332031 2.289062 32.078125 3.183594 C 32.820312 4.148438 33.339844 5.710938 33.265625 6.902344 C 33.191406 8.09375 32.523438 9.582031 31.703125 10.398438 C 30.8125 11.292969 29.398438 11.886719 28.207031 12.035156 C 26.867188 12.257812 25.53125 11.441406 24.042969 11.515625 C 22.332031 11.589844 19.726562 12.855469 18.238281 12.707031 C 17.273438 12.628906 16.527344 12.332031 15.859375 11.8125 C 15.039062 11.070312 14.074219 9.65625 13.699219 8.613281 C 13.476562 7.722656 13.550781 6.828125 13.777344 6.007812 C 14 5.191406 14.371094 4.371094 15.039062 3.777344 C 15.785156 3.035156 17.046875 2.289062 18.386719 2.066406 C 20.171875 1.695312 23.148438 2.066406 24.859375 2.734375 C 26.125 3.257812 27.242188 4.074219 27.910156 4.96875 C 28.429688 5.710938 28.65625 6.605469 28.730469 7.421875 C 28.804688 8.242188 28.65625 9.207031 28.28125 9.953125 C 27.984375 10.695312 27.6875 11.292969 26.792969 11.960938 C 24.859375 13.449219 18.015625 15.828125 15.636719 15.980469 C 14.519531 16.054688 13.925781 15.828125 13.179688 15.457031 C 12.4375 15.085938 11.765625 14.492188 11.246094 13.820312 C 10.800781 13.226562 10.425781 12.40625 10.351562 11.515625 C 10.203125 10.472656 10.578125 8.835938 11.097656 7.871094 C 11.542969 7.125 12.140625 6.679688 12.957031 6.234375 C 14.222656 5.488281 16.972656 4.671875 18.386719 4.597656 C 19.355469 4.597656 20.097656 4.894531 20.84375 5.265625 C 21.511719 5.710938 22.183594 6.308594 22.628906 6.976562 C 23.074219 7.644531 23.371094 8.539062 23.445312 9.359375 C 23.519531 10.175781 23.445312 11.070312 23.074219 11.8125 C 22.628906 12.78125 21.957031 13.820312 20.546875 14.492188 C 17.570312 15.902344 7.152344 16.425781 4.03125 15.382812 C 2.617188 14.9375 1.871094 14.042969 1.351562 13.078125 C 0.757812 12.035156 0.683594 10.472656 0.832031 9.507812 C 0.980469 8.613281 1.351562 8.019531 1.945312 7.347656 C 2.691406 6.382812 4.03125 5.414062 5.367188 4.671875 C 6.929688 3.703125 9.90625 2.363281 11.097656 2.289062 C 11.617188 2.289062 11.839844 2.363281 12.214844 2.660156 C 12.957031 3.109375 14.296875 4.148438 14.742188 5.117188 C 15.1875 6.160156 15.1875 7.644531 14.964844 8.6875 C 14.816406 9.433594 14.296875 10.175781 13.777344 10.695312 C 13.253906 11.21875 12.585938 11.8125 11.765625 11.960938 C 10.503906 12.183594 8.046875 11.8125 7.003906 11.21875 C 6.1875 10.84375 5.742188 10.175781 5.367188 9.433594 C 4.996094 8.761719 4.773438 7.945312 4.773438 7.125 C 4.773438 6.382812 4.921875 5.488281 5.292969 4.820312 C 5.667969 4.148438 6.113281 3.554688 6.855469 3.035156 C 8.121094 2.140625 11.171875 0.875 12.660156 0.652344 C 13.625 0.578125 14.296875 0.652344 15.039062 0.949219 C 15.710938 1.175781 16.453125 1.695312 16.972656 2.289062 C 17.496094 2.8125 17.941406 3.628906 18.089844 4.296875 C 18.3125 5.042969 18.3125 5.933594 18.164062 6.679688 C 17.941406 7.421875 17.570312 8.242188 17.046875 8.835938 C 16.601562 9.359375 15.113281 10.175781 15.113281 10.175781 " clip-rule="nonzero"/></clipPath><clipPath id="bf1bd38acd"><rect x="0" width="59" y="0" height="43"/></clipPath><clipPath id="3349c848bf"><path d="M 9.859375 4.507812 L 32.917969 4.507812 L 32.917969 45.320312 L 9.859375 45.320312 Z M 9.859375 4.507812 " clip-rule="nonzero"/></clipPath><clipPath id="753680b892"><path d="M 9.894531 38.769531 C 10.488281 31.773438 11.53125 29.839844 11.753906 29.023438 C 11.828125 28.796875 11.828125 28.648438 11.902344 28.425781 C 11.902344 28.277344 11.902344 27.980469 11.902344 27.832031 C 11.976562 27.757812 12.050781 27.683594 12.050781 27.609375 C 12.050781 27.535156 12.050781 27.460938 12.050781 27.386719 C 12.125 27.3125 12.125 27.085938 12.125 26.9375 C 12.125 26.714844 12.125 26.269531 12.125 26.269531 C 12.125 26.269531 12.273438 25.824219 12.347656 25.675781 C 12.425781 25.449219 12.5 25.300781 12.5 25.078125 C 12.648438 24.632812 12.722656 24.113281 12.796875 23.441406 C 12.945312 22.550781 12.945312 20.914062 12.945312 20.09375 C 12.945312 19.574219 12.796875 19.277344 12.871094 18.902344 C 12.871094 18.605469 13.019531 18.160156 13.019531 18.160156 C 13.019531 18.160156 13.167969 17.789062 13.316406 17.566406 C 13.390625 17.34375 13.539062 16.96875 13.539062 16.96875 C 13.539062 16.96875 13.761719 16.597656 13.910156 16.375 C 14.0625 16.226562 14.285156 15.855469 14.359375 15.855469 C 14.359375 15.855469 14.65625 15.554688 14.804688 15.40625 C 15.027344 15.257812 15.324219 15.035156 15.324219 15.035156 C 15.324219 15.035156 15.773438 14.8125 15.921875 14.738281 C 16.144531 14.589844 16.515625 14.441406 16.515625 14.441406 C 16.589844 14.441406 16.960938 14.292969 17.183594 14.292969 C 17.410156 14.21875 17.855469 14.144531 17.855469 14.144531 C 17.855469 14.144531 18.300781 14.144531 18.523438 14.144531 C 18.746094 14.144531 19.195312 14.144531 19.195312 14.144531 C 19.195312 14.144531 19.640625 14.292969 19.863281 14.367188 C 20.085938 14.441406 20.457031 14.515625 20.457031 14.515625 C 20.457031 14.515625 20.609375 14.664062 20.683594 14.664062 C 20.980469 14.515625 21.351562 12.878906 21.722656 11.910156 C 22.167969 10.722656 22.765625 8.785156 23.136719 7.894531 C 23.359375 7.371094 23.433594 7.148438 23.65625 6.777344 C 23.878906 6.480469 24.179688 6.183594 24.476562 5.886719 C 24.699219 5.585938 25.070312 5.363281 25.441406 5.140625 C 25.742188 4.992188 26.113281 4.84375 26.484375 4.695312 C 26.929688 4.621094 27.304688 4.546875 27.675781 4.546875 C 28.121094 4.546875 28.492188 4.546875 28.867188 4.621094 C 29.3125 4.769531 29.683594 4.84375 30.054688 5.066406 C 30.351562 5.214844 30.726562 5.4375 31.023438 5.660156 C 31.320312 5.960938 31.617188 6.257812 31.839844 6.554688 C 32.0625 6.851562 32.289062 7.222656 32.4375 7.597656 C 32.585938 7.96875 32.660156 8.339844 32.734375 8.785156 C 32.808594 9.160156 32.808594 9.605469 32.808594 9.976562 C 32.734375 10.347656 32.511719 11.167969 32.511719 11.167969 C 32.511719 11.167969 31.691406 13.695312 31.171875 15.183594 C 30.503906 16.894531 29.386719 19.574219 29.089844 20.839844 C 28.867188 21.433594 28.789062 21.878906 28.867188 22.175781 C 28.867188 22.328125 29.089844 22.402344 29.089844 22.402344 C 29.089844 22.476562 29.238281 22.847656 29.386719 22.996094 C 29.460938 23.21875 29.609375 23.589844 29.609375 23.589844 C 29.609375 23.589844 29.757812 23.964844 29.757812 24.1875 C 29.832031 24.410156 29.90625 24.855469 29.90625 24.855469 C 29.90625 24.855469 29.90625 25.226562 29.90625 25.449219 C 29.90625 25.675781 29.90625 26.121094 29.90625 26.121094 C 29.90625 26.121094 30.054688 31.179688 30.054688 33.484375 C 30.054688 35.34375 29.980469 37.800781 29.980469 38.769531 C 29.980469 39.140625 30.054688 39.511719 30.054688 39.511719 C 30.054688 39.511719 30.054688 39.957031 29.980469 40.179688 C 29.980469 40.40625 29.980469 40.777344 29.980469 40.851562 C 29.980469 40.851562 29.832031 41.222656 29.832031 41.445312 C 29.757812 41.667969 29.609375 42.042969 29.609375 42.042969 C 29.609375 42.042969 29.386719 42.414062 29.3125 42.636719 C 29.164062 42.785156 28.941406 43.15625 28.941406 43.15625 C 28.941406 43.15625 28.640625 43.453125 28.492188 43.679688 C 28.34375 43.828125 28.046875 44.125 28.046875 44.125 C 28.046875 44.125 27.675781 44.347656 27.527344 44.421875 C 27.304688 44.570312 26.929688 44.792969 26.929688 44.792969 C 26.929688 44.792969 26.558594 44.941406 26.335938 45.015625 C 26.113281 45.089844 25.742188 45.238281 25.742188 45.238281 C 25.742188 45.238281 25.292969 45.238281 25.070312 45.238281 C 24.847656 45.238281 24.476562 45.316406 24.402344 45.316406 C 24.402344 45.316406 24.03125 45.238281 23.804688 45.164062 C 23.582031 45.164062 23.136719 45.089844 23.136719 45.089844 C 23.136719 45.089844 22.765625 44.941406 22.542969 44.867188 C 22.394531 44.71875 21.945312 44.570312 21.945312 44.570312 C 21.945312 44.570312 21.648438 44.347656 21.425781 44.199219 C 21.277344 44.050781 20.90625 43.828125 20.90625 43.828125 C 20.90625 43.753906 20.683594 43.453125 20.53125 43.304688 C 20.382812 43.15625 20.085938 42.785156 20.085938 42.785156 C 20.085938 42.785156 19.9375 42.414062 19.863281 42.191406 C 19.714844 41.964844 19.566406 41.59375 19.566406 41.59375 C 19.566406 41.59375 19.492188 41.222656 19.417969 41 C 19.417969 40.777344 19.34375 40.328125 19.34375 40.328125 C 19.34375 40.328125 19.269531 39.214844 19.195312 38.992188 C 19.195312 38.917969 19.195312 38.84375 19.121094 38.84375 C 18.523438 38.769531 14.0625 43.453125 12.5 43.082031 C 11.234375 42.785156 9.894531 38.769531 9.894531 38.769531 " clip-rule="nonzero"/></clipPath><clipPath id="158cf25205"><path d="M 0.859375 0.507812 L 23.851562 0.507812 L 23.851562 41.320312 L 0.859375 41.320312 Z M 0.859375 0.507812 " clip-rule="nonzero"/></clipPath><clipPath id="cee63a2f86"><path d="M 0.894531 34.769531 C 1.488281 27.773438 2.53125 25.839844 2.753906 25.023438 C 2.828125 24.796875 2.828125 24.648438 2.902344 24.425781 C 2.902344 24.277344 2.902344 23.980469 2.902344 23.832031 C 2.976562 23.757812 3.050781 23.683594 3.050781 23.609375 C 3.050781 23.535156 3.050781 23.460938 3.050781 23.386719 C 3.125 23.3125 3.125 23.085938 3.125 22.9375 C 3.125 22.714844 3.125 22.269531 3.125 22.269531 C 3.125 22.269531 3.273438 21.824219 3.347656 21.675781 C 3.425781 21.449219 3.5 21.300781 3.5 21.078125 C 3.648438 20.632812 3.722656 20.113281 3.796875 19.441406 C 3.945312 18.550781 3.945312 16.914062 3.945312 16.09375 C 3.945312 15.574219 3.796875 15.277344 3.871094 14.902344 C 3.871094 14.605469 4.019531 14.160156 4.019531 14.160156 C 4.019531 14.160156 4.167969 13.789062 4.316406 13.566406 C 4.390625 13.34375 4.539062 12.96875 4.539062 12.96875 C 4.539062 12.96875 4.761719 12.597656 4.910156 12.375 C 5.0625 12.226562 5.285156 11.855469 5.359375 11.855469 C 5.359375 11.855469 5.65625 11.554688 5.804688 11.40625 C 6.027344 11.257812 6.324219 11.035156 6.324219 11.035156 C 6.324219 11.035156 6.773438 10.8125 6.921875 10.738281 C 7.144531 10.589844 7.515625 10.441406 7.515625 10.441406 C 7.589844 10.441406 7.960938 10.292969 8.183594 10.292969 C 8.410156 10.21875 8.855469 10.144531 8.855469 10.144531 C 8.855469 10.144531 9.300781 10.144531 9.523438 10.144531 C 9.746094 10.144531 10.195312 10.144531 10.195312 10.144531 C 10.195312 10.144531 10.640625 10.292969 10.863281 10.367188 C 11.085938 10.441406 11.457031 10.515625 11.457031 10.515625 C 11.457031 10.515625 11.609375 10.664062 11.683594 10.664062 C 11.980469 10.515625 12.351562 8.878906 12.722656 7.910156 C 13.167969 6.722656 13.765625 4.785156 14.136719 3.894531 C 14.359375 3.371094 14.433594 3.148438 14.65625 2.777344 C 14.878906 2.480469 15.179688 2.183594 15.476562 1.886719 C 15.699219 1.585938 16.070312 1.363281 16.441406 1.140625 C 16.742188 0.992188 17.113281 0.84375 17.484375 0.695312 C 17.929688 0.621094 18.304688 0.546875 18.675781 0.546875 C 19.121094 0.546875 19.492188 0.546875 19.867188 0.621094 C 20.3125 0.769531 20.683594 0.84375 21.054688 1.066406 C 21.351562 1.214844 21.726562 1.4375 22.023438 1.660156 C 22.320312 1.960938 22.617188 2.257812 22.839844 2.554688 C 23.0625 2.851562 23.289062 3.222656 23.4375 3.597656 C 23.585938 3.96875 23.660156 4.339844 23.734375 4.785156 C 23.808594 5.160156 23.808594 5.605469 23.808594 5.976562 C 23.734375 6.347656 23.511719 7.167969 23.511719 7.167969 C 23.511719 7.167969 22.691406 9.695312 22.171875 11.183594 C 21.503906 12.894531 20.386719 15.574219 20.089844 16.839844 C 19.867188 17.433594 19.789062 17.878906 19.867188 18.175781 C 19.867188 18.328125 20.089844 18.402344 20.089844 18.402344 C 20.089844 18.476562 20.238281 18.847656 20.386719 18.996094 C 20.460938 19.21875 20.609375 19.589844 20.609375 19.589844 C 20.609375 19.589844 20.757812 19.964844 20.757812 20.1875 C 20.832031 20.410156 20.90625 20.855469 20.90625 20.855469 C 20.90625 20.855469 20.90625 21.226562 20.90625 21.449219 C 20.90625 21.675781 20.90625 22.121094 20.90625 22.121094 C 20.90625 22.121094 21.054688 27.179688 21.054688 29.484375 C 21.054688 31.34375 20.980469 33.800781 20.980469 34.769531 C 20.980469 35.140625 21.054688 35.511719 21.054688 35.511719 C 21.054688 35.511719 21.054688 35.957031 20.980469 36.179688 C 20.980469 36.40625 20.980469 36.777344 20.980469 36.851562 C 20.980469 36.851562 20.832031 37.222656 20.832031 37.445312 C 20.757812 37.667969 20.609375 38.042969 20.609375 38.042969 C 20.609375 38.042969 20.386719 38.414062 20.3125 38.636719 C 20.164062 38.785156 19.941406 39.15625 19.941406 39.15625 C 19.941406 39.15625 19.640625 39.453125 19.492188 39.679688 C 19.34375 39.828125 19.046875 40.125 19.046875 40.125 C 19.046875 40.125 18.675781 40.347656 18.527344 40.421875 C 18.304688 40.570312 17.929688 40.792969 17.929688 40.792969 C 17.929688 40.792969 17.558594 40.941406 17.335938 41.015625 C 17.113281 41.089844 16.742188 41.238281 16.742188 41.238281 C 16.742188 41.238281 16.292969 41.238281 16.070312 41.238281 C 15.847656 41.238281 15.476562 41.316406 15.402344 41.316406 C 15.402344 41.316406 15.03125 41.238281 14.804688 41.164062 C 14.582031 41.164062 14.136719 41.089844 14.136719 41.089844 C 14.136719 41.089844 13.765625 40.941406 13.542969 40.867188 C 13.394531 40.71875 12.945312 40.570312 12.945312 40.570312 C 12.945312 40.570312 12.648438 40.347656 12.425781 40.199219 C 12.277344 40.050781 11.90625 39.828125 11.90625 39.828125 C 11.90625 39.753906 11.683594 39.453125 11.53125 39.304688 C 11.382812 39.15625 11.085938 38.785156 11.085938 38.785156 C 11.085938 38.785156 10.9375 38.414062 10.863281 38.191406 C 10.714844 37.964844 10.566406 37.59375 10.566406 37.59375 C 10.566406 37.59375 10.492188 37.222656 10.417969 37 C 10.417969 36.777344 10.34375 36.328125 10.34375 36.328125 C 10.34375 36.328125 10.269531 35.214844 10.195312 34.992188 C 10.195312 34.917969 10.195312 34.84375 10.121094 34.84375 C 9.523438 34.769531 5.0625 39.453125 3.5 39.082031 C 2.234375 38.785156 0.894531 34.769531 0.894531 34.769531 " clip-rule="nonzero"/></clipPath><clipPath id="4036b709b4"><rect x="0" width="24" y="0" height="42"/></clipPath><clipPath id="d571d63663"><path d="M 9.046875 5.246094 L 26.734375 5.246094 L 26.734375 55.542969 L 9.046875 55.542969 Z M 9.046875 5.246094 " clip-rule="nonzero"/></clipPath><clipPath id="449ed93b51"><path d="M 26.558594 11.761719 C 23.730469 24.039062 24.179688 30.957031 23.433594 36.3125 C 22.691406 41.371094 21.128906 47.917969 19.9375 50.96875 C 19.417969 52.382812 19.046875 53.273438 18.226562 54.019531 C 17.410156 54.761719 15.921875 55.210938 15.027344 55.359375 C 14.359375 55.507812 13.910156 55.433594 13.242188 55.210938 C 12.347656 54.910156 11.011719 54.242188 10.339844 53.347656 C 9.597656 52.457031 9.152344 51.191406 9.078125 50.074219 C 9.078125 48.960938 9.671875 47.546875 10.117188 46.726562 C 10.488281 46.132812 10.789062 45.835938 11.382812 45.464844 C 12.199219 44.941406 13.613281 44.421875 14.730469 44.421875 C 15.847656 44.496094 17.257812 45.089844 18.003906 45.613281 C 18.597656 45.984375 18.894531 46.355469 19.195312 46.953125 C 19.640625 47.769531 20.160156 49.257812 20.085938 50.375 C 19.9375 51.488281 19.417969 52.753906 18.671875 53.574219 C 17.929688 54.390625 16.515625 55.058594 15.621094 55.285156 C 14.953125 55.507812 14.507812 55.507812 13.835938 55.359375 C 12.945312 55.132812 11.457031 54.539062 10.714844 53.796875 C 9.894531 52.976562 9.300781 52.160156 9.152344 50.671875 C 8.703125 47.027344 12.5 37.652344 13.464844 31.625 C 14.285156 26.269531 14.136719 19.945312 14.804688 16.300781 C 15.175781 14.21875 15.621094 13.027344 16.21875 11.464844 C 16.738281 9.902344 17.257812 7.820312 18.226562 6.777344 C 19.121094 5.960938 20.457031 5.4375 21.5 5.363281 C 22.320312 5.214844 23.136719 5.4375 23.804688 5.734375 C 24.476562 6.035156 25.21875 6.628906 25.667969 7.222656 C 26.1875 7.820312 26.484375 8.636719 26.632812 9.382812 C 26.78125 10.125 26.558594 11.761719 26.558594 11.761719 " clip-rule="nonzero"/></clipPath><clipPath id="71e46f13fb"><path d="M 0.046875 0.246094 L 17.734375 0.246094 L 17.734375 50.542969 L 0.046875 50.542969 Z M 0.046875 0.246094 " clip-rule="nonzero"/></clipPath><clipPath id="6ae3f3438d"><path d="M 17.558594 6.761719 C 14.730469 19.039062 15.179688 25.957031 14.433594 31.3125 C 13.691406 36.371094 12.128906 42.917969 10.9375 45.96875 C 10.417969 47.382812 10.046875 48.273438 9.226562 49.019531 C 8.410156 49.761719 6.921875 50.210938 6.027344 50.359375 C 5.359375 50.507812 4.910156 50.433594 4.242188 50.210938 C 3.347656 49.910156 2.011719 49.242188 1.339844 48.347656 C 0.597656 47.457031 0.152344 46.191406 0.078125 45.074219 C 0.078125 43.960938 0.671875 42.546875 1.117188 41.726562 C 1.488281 41.132812 1.789062 40.835938 2.382812 40.464844 C 3.199219 39.941406 4.613281 39.421875 5.730469 39.421875 C 6.847656 39.496094 8.257812 40.089844 9.003906 40.613281 C 9.597656 40.984375 9.894531 41.355469 10.195312 41.953125 C 10.640625 42.769531 11.160156 44.257812 11.085938 45.375 C 10.9375 46.488281 10.417969 47.753906 9.671875 48.574219 C 8.929688 49.390625 7.515625 50.058594 6.621094 50.285156 C 5.953125 50.507812 5.507812 50.507812 4.835938 50.359375 C 3.945312 50.132812 2.457031 49.539062 1.714844 48.796875 C 0.894531 47.976562 0.300781 47.160156 0.152344 45.671875 C -0.296875 42.027344 3.5 32.652344 4.464844 26.625 C 5.285156 21.269531 5.136719 14.945312 5.804688 11.300781 C 6.175781 9.21875 6.621094 8.027344 7.21875 6.464844 C 7.738281 4.902344 8.257812 2.820312 9.226562 1.777344 C 10.121094 0.960938 11.457031 0.4375 12.5 0.363281 C 13.320312 0.214844 14.136719 0.4375 14.804688 0.734375 C 15.476562 1.035156 16.21875 1.628906 16.667969 2.222656 C 17.1875 2.820312 17.484375 3.636719 17.632812 4.382812 C 17.78125 5.125 17.558594 6.761719 17.558594 6.761719 " clip-rule="nonzero"/></clipPath><clipPath id="a3aafb22bb"><rect x="0" width="18" y="0" height="51"/></clipPath><clipPath id="72ef16b46c"><path d="M 2.867188 29.539062 L 27.710938 29.539062 L 27.710938 78 L 2.867188 78 Z M 2.867188 29.539062 " clip-rule="nonzero"/></clipPath><clipPath id="21ae71cb99"><path d="M 27.601562 35.121094 C 24.699219 47.546875 21.128906 52.976562 19.046875 58.109375 C 16.886719 63.542969 15.175781 72.023438 13.316406 75.074219 C 12.425781 76.335938 11.753906 77.007812 10.789062 77.453125 C 9.746094 77.898438 8.40625 78.121094 7.289062 77.824219 C 6.25 77.601562 5.058594 76.933594 4.316406 76.039062 C 3.570312 75.222656 3.125 73.734375 2.976562 72.839844 C 2.902344 72.171875 2.976562 71.726562 3.199219 71.054688 C 3.496094 70.164062 4.464844 68.824219 5.132812 68.152344 C 5.652344 67.707031 6.027344 67.484375 6.695312 67.335938 C 7.589844 67.113281 9.226562 67.113281 10.191406 67.335938 C 10.789062 67.484375 11.234375 67.707031 11.753906 68.152344 C 12.425781 68.75 13.390625 69.9375 13.6875 70.980469 C 13.984375 72.097656 13.835938 73.585938 13.539062 74.476562 C 13.316406 75.148438 13.09375 75.519531 12.648438 76.039062 C 11.976562 76.710938 10.714844 77.601562 9.671875 77.824219 C 8.554688 78.046875 7.214844 77.972656 6.175781 77.453125 C 5.207031 77.007812 4.167969 76.039062 3.644531 75.074219 C 3.125 74.105469 2.902344 73.210938 3.050781 71.652344 C 3.421875 67.855469 7.289062 58.78125 9.820312 52.902344 C 12.125 47.472656 16.070312 41.519531 17.410156 37.578125 C 18.152344 35.34375 17.632812 33.335938 18.449219 31.996094 C 19.121094 30.957031 20.308594 30.210938 21.277344 29.839844 C 22.09375 29.617188 22.839844 29.542969 23.65625 29.765625 C 24.625 30.0625 25.964844 30.808594 26.632812 31.699219 C 27.304688 32.59375 27.601562 35.121094 27.601562 35.121094 " clip-rule="nonzero"/></clipPath><clipPath id="22a4bae24d"><path d="M 0.867188 0.539062 L 25.617188 0.539062 L 25.617188 49 L 0.867188 49 Z M 0.867188 0.539062 " clip-rule="nonzero"/></clipPath><clipPath id="79d7441362"><path d="M 25.601562 6.121094 C 22.699219 18.546875 19.128906 23.976562 17.046875 29.109375 C 14.886719 34.542969 13.175781 43.023438 11.316406 46.074219 C 10.425781 47.335938 9.753906 48.007812 8.789062 48.453125 C 7.746094 48.898438 6.40625 49.121094 5.289062 48.824219 C 4.25 48.601562 3.058594 47.933594 2.316406 47.039062 C 1.570312 46.222656 1.125 44.734375 0.976562 43.839844 C 0.902344 43.171875 0.976562 42.726562 1.199219 42.054688 C 1.496094 41.164062 2.464844 39.824219 3.132812 39.152344 C 3.652344 38.707031 4.027344 38.484375 4.695312 38.335938 C 5.589844 38.113281 7.226562 38.113281 8.191406 38.335938 C 8.789062 38.484375 9.234375 38.707031 9.753906 39.152344 C 10.425781 39.75 11.390625 40.9375 11.6875 41.980469 C 11.984375 43.097656 11.835938 44.585938 11.539062 45.476562 C 11.316406 46.148438 11.09375 46.519531 10.648438 47.039062 C 9.976562 47.710938 8.714844 48.601562 7.671875 48.824219 C 6.554688 49.046875 5.214844 48.972656 4.175781 48.453125 C 3.207031 48.007812 2.167969 47.039062 1.644531 46.074219 C 1.125 45.105469 0.902344 44.210938 1.050781 42.652344 C 1.421875 38.855469 5.289062 29.78125 7.820312 23.902344 C 10.125 18.472656 14.070312 12.519531 15.410156 8.578125 C 16.152344 6.34375 15.632812 4.335938 16.449219 2.996094 C 17.121094 1.957031 18.308594 1.210938 19.277344 0.839844 C 20.09375 0.617188 20.839844 0.542969 21.65625 0.765625 C 22.625 1.0625 23.964844 1.808594 24.632812 2.699219 C 25.304688 3.59375 25.601562 6.121094 25.601562 6.121094 " clip-rule="nonzero"/></clipPath><clipPath id="23910deebb"><rect x="0" width="26" y="0" height="49"/></clipPath><clipPath id="04a5ffc04c"><path d="M 4.269531 33 L 24.566406 33 L 24.566406 66.601562 L 4.269531 66.601562 Z M 4.269531 33 " clip-rule="nonzero"/></clipPath><clipPath id="3c887d5112"><path d="M 24.03125 40.105469 C 12.425781 65.699219 11.679688 66.070312 10.714844 66.292969 C 9.746094 66.589844 8.480469 66.589844 7.515625 66.144531 C 6.324219 65.550781 4.835938 63.765625 4.464844 62.5 C 4.167969 61.457031 4.390625 60.269531 4.835938 59.300781 C 5.28125 58.40625 6.175781 57.515625 7.066406 56.996094 C 7.960938 56.546875 9.226562 56.324219 10.191406 56.472656 C 11.234375 56.695312 12.347656 57.144531 13.019531 58.035156 C 13.835938 59.078125 14.433594 61.308594 14.285156 62.574219 C 14.136719 63.617188 13.390625 64.65625 12.648438 65.328125 C 11.828125 65.996094 10.636719 66.441406 9.597656 66.515625 C 8.628906 66.515625 7.363281 66.292969 6.546875 65.625 C 5.503906 64.804688 4.464844 63.019531 4.390625 61.457031 C 4.167969 59.375 5.578125 57.21875 6.695312 54.316406 C 8.554688 49.480469 12.871094 38.917969 15.101562 35.792969 C 16.070312 34.453125 16.664062 33.785156 17.707031 33.410156 C 18.671875 32.964844 20.160156 32.890625 21.203125 33.261719 C 22.246094 33.632812 23.359375 34.675781 23.878906 35.496094 C 24.328125 36.238281 24.476562 37.058594 24.476562 37.800781 C 24.550781 38.542969 24.03125 40.105469 24.03125 40.105469 " clip-rule="nonzero"/></clipPath><clipPath id="5ba177b941"><path d="M 0.269531 0 L 20.566406 0 L 20.566406 33.601562 L 0.269531 33.601562 Z M 0.269531 0 " clip-rule="nonzero"/></clipPath><clipPath id="842793dea0"><path d="M 20.03125 7.105469 C 8.425781 32.699219 7.679688 33.070312 6.714844 33.292969 C 5.746094 33.589844 4.480469 33.589844 3.515625 33.144531 C 2.324219 32.550781 0.835938 30.765625 0.464844 29.5 C 0.167969 28.457031 0.390625 27.269531 0.835938 26.300781 C 1.28125 25.40625 2.175781 24.515625 3.066406 23.996094 C 3.960938 23.546875 5.226562 23.324219 6.191406 23.472656 C 7.234375 23.695312 8.347656 24.144531 9.019531 25.035156 C 9.835938 26.078125 10.433594 28.308594 10.285156 29.574219 C 10.136719 30.617188 9.390625 31.65625 8.648438 32.328125 C 7.828125 32.996094 6.636719 33.441406 5.597656 33.515625 C 4.628906 33.515625 3.363281 33.292969 2.546875 32.625 C 1.503906 31.804688 0.464844 30.019531 0.390625 28.457031 C 0.167969 26.375 1.578125 24.21875 2.695312 21.316406 C 4.554688 16.480469 8.871094 5.917969 11.101562 2.792969 C 12.070312 1.453125 12.664062 0.785156 13.707031 0.410156 C 14.671875 -0.0351562 16.160156 -0.109375 17.203125 0.261719 C 18.246094 0.632812 19.359375 1.675781 19.878906 2.496094 C 20.328125 3.238281 20.476562 4.058594 20.476562 4.800781 C 20.550781 5.542969 20.03125 7.105469 20.03125 7.105469 " clip-rule="nonzero"/></clipPath><clipPath id="53faa7e9ba"><rect x="0" width="21" y="0" height="34"/></clipPath><clipPath id="00861b1f05"><path d="M 23.953125 61.78125 L 66.984375 61.78125 L 66.984375 147.164062 L 23.953125 147.164062 Z M 23.953125 61.78125 " clip-rule="nonzero"/></clipPath><clipPath id="86866f72f6"><path d="M 0.953125 0.78125 L 43.984375 0.78125 L 43.984375 86.164062 L 0.953125 86.164062 Z M 0.953125 0.78125 " clip-rule="nonzero"/></clipPath><clipPath id="a80f9546f3"><rect x="0" width="44" y="0" height="87"/></clipPath><clipPath id="6a25def56e"><path d="M 14 61 L 30 61 L 30 86 L 14 86 Z M 14 61 " clip-rule="nonzero"/></clipPath><clipPath id="4baf1fa33c"><path d="M 23.445312 61.609375 L 29.683594 64.175781 L 20.703125 85.984375 L 14.46875 83.417969 Z M 23.445312 61.609375 " clip-rule="nonzero"/></clipPath><clipPath id="f7a22823c9"><path d="M 0.285156 0.382812 L 15.757812 0.382812 L 15.757812 25 L 0.285156 25 Z M 0.285156 0.382812 " clip-rule="nonzero"/></clipPath><clipPath id="ed12169bdd"><path d="M 9.445312 0.609375 L 15.683594 3.175781 L 6.703125 24.984375 L 0.46875 22.417969 Z M 9.445312 0.609375 " clip-rule="nonzero"/></clipPath><clipPath id="6c92202447"><rect x="0" width="16" y="0" height="25"/></clipPath><clipPath id="da24079246"><path d="M 62 61 L 79 61 L 79 86 L 62 86 Z M 62 61 " clip-rule="nonzero"/></clipPath><clipPath id="360b5ba182"><path d="M 62.304688 64.664062 L 68.402344 61.78125 L 78.484375 83.101562 L 72.390625 85.984375 Z M 62.304688 64.664062 " clip-rule="nonzero"/></clipPath><clipPath id="741f8f3178"><path d="M 0.136719 0.621094 L 16.5625 0.621094 L 16.5625 25 L 0.136719 25 Z M 0.136719 0.621094 " clip-rule="nonzero"/></clipPath><clipPath id="9a6bc749b0"><path d="M 0.304688 3.664062 L 6.402344 0.78125 L 16.484375 22.101562 L 10.390625 24.984375 Z M 0.304688 3.664062 " clip-rule="nonzero"/></clipPath><clipPath id="121a9c214d"><rect x="0" width="17" y="0" height="25"/></clipPath><clipPath id="d4e9d83a5f"><path d="M 27.566406 74.253906 L 31.800781 74.253906 L 31.800781 84.074219 L 27.566406 84.074219 Z M 27.566406 74.253906 " clip-rule="nonzero"/></clipPath><clipPath id="62baf7aae3"><path d="M 0.566406 0.253906 L 4.800781 0.253906 L 4.800781 10.074219 L 0.566406 10.074219 Z M 0.566406 0.253906 " clip-rule="nonzero"/></clipPath><clipPath id="c23937a7dc"><rect x="0" width="5" y="0" height="11"/></clipPath><clipPath id="11e7dc88fd"><path d="M 27.617188 84.074219 L 31.800781 84.074219 L 31.800781 97.628906 L 27.617188 97.628906 Z M 27.617188 84.074219 " clip-rule="nonzero"/></clipPath><clipPath id="baf3ffe149"><path d="M 29.710938 97.621094 L 31.800781 84.074219 L 27.617188 84.074219 Z M 29.710938 97.621094 " clip-rule="nonzero"/></clipPath><clipPath id="dc4fa50816"><path d="M 0.617188 0.0742188 L 4.800781 0.0742188 L 4.800781 13.628906 L 0.617188 13.628906 Z M 0.617188 0.0742188 " clip-rule="nonzero"/></clipPath><clipPath id="8d7a253b80"><path d="M 2.710938 13.621094 L 4.800781 0.0742188 L 0.617188 0.0742188 Z M 2.710938 13.621094 " clip-rule="nonzero"/></clipPath><clipPath id="93e52d1718"><rect x="0" width="5" y="0" height="14"/></clipPath><clipPath id="98a9d5a4ea"><path d="M 34.125 74.253906 L 38.359375 74.253906 L 38.359375 84.074219 L 34.125 84.074219 Z M 34.125 74.253906 " clip-rule="nonzero"/></clipPath><clipPath id="3edef2de72"><path d="M 0.125 0.253906 L 4.359375 0.253906 L 4.359375 10.074219 L 0.125 10.074219 Z M 0.125 0.253906 " clip-rule="nonzero"/></clipPath><clipPath id="33fe18a376"><rect x="0" width="5" y="0" height="11"/></clipPath><clipPath id="4c766737bf"><path d="M 34.125 84.074219 L 38.308594 84.074219 L 38.308594 97.628906 L 34.125 97.628906 Z M 34.125 84.074219 " clip-rule="nonzero"/></clipPath><clipPath id="19d5c6daf9"><path d="M 36.21875 97.621094 L 38.308594 84.074219 L 34.125 84.074219 Z M 36.21875 97.621094 " clip-rule="nonzero"/></clipPath><clipPath id="136efc6ab9"><path d="M 0.125 0.0742188 L 4.308594 0.0742188 L 4.308594 13.628906 L 0.125 13.628906 Z M 0.125 0.0742188 " clip-rule="nonzero"/></clipPath><clipPath id="7d678a81a2"><path d="M 2.21875 13.621094 L 4.308594 0.0742188 L 0.125 0.0742188 Z M 2.21875 13.621094 " clip-rule="nonzero"/></clipPath><clipPath id="79cadf3ecd"><rect x="0" width="5" y="0" height="14"/></clipPath><clipPath id="79784831f5"><path d="M 23 61 L 71 61 L 71 143 L 23 143 Z M 23 61 " clip-rule="nonzero"/></clipPath><clipPath id="a386397aec"><path d="M 66.929688 61.257812 L 70.234375 63.039062 L 27.253906 142.902344 L 23.949219 141.125 Z M 66.929688 61.257812 " clip-rule="nonzero"/></clipPath><clipPath id="8fb118c31d"><path d="M 0.804688 0.144531 L 47.46875 0.144531 L 47.46875 82 L 0.804688 82 Z M 0.804688 0.144531 " clip-rule="nonzero"/></clipPath><clipPath id="b148572587"><path d="M 43.929688 0.257812 L 47.234375 2.039062 L 4.253906 81.902344 L 0.949219 80.125 Z M 43.929688 0.257812 " clip-rule="nonzero"/></clipPath><clipPath id="d6db917fc4"><rect x="0" width="48" y="0" height="82"/></clipPath><clipPath id="dbac91bd6e"><path d="M 58 110 L 85 110 L 85 166 L 58 166 Z M 58 110 " clip-rule="nonzero"/></clipPath><clipPath id="8a17d89458"><path d="M 58.332031 112.957031 L 63.875 110.785156 L 84.367188 163.109375 L 78.824219 165.28125 Z M 58.332031 112.957031 " clip-rule="nonzero"/></clipPath><clipPath id="db0aeaa48c"><path d="M 0.324219 0.664062 L 26.511719 0.664062 L 26.511719 55.417969 L 0.324219 55.417969 Z M 0.324219 0.664062 " clip-rule="nonzero"/></clipPath><clipPath id="ab3cce4bb7"><path d="M 0.332031 2.957031 L 5.875 0.785156 L 26.367188 53.109375 L 20.824219 55.28125 Z M 0.332031 2.957031 " clip-rule="nonzero"/></clipPath><clipPath id="bbbabb0c15"><rect x="0" width="27" y="0" height="56"/></clipPath><clipPath id="bc1ba05369"><path d="M 45 102 L 76 102 L 76 118 L 45 118 Z M 45 102 " clip-rule="nonzero"/></clipPath><clipPath id="27a8ff1783"><path d="M 45.484375 113.136719 L 73.433594 102.191406 L 75.082031 106.398438 L 47.132812 117.34375 Z M 45.484375 113.136719 " clip-rule="nonzero"/></clipPath><clipPath id="67e4497ab6"><path d="M 0.46875 0.09375 L 30.226562 0.09375 L 30.226562 15.566406 L 0.46875 15.566406 Z M 0.46875 0.09375 " clip-rule="nonzero"/></clipPath><clipPath id="558ac0df43"><path d="M 0.484375 11.136719 L 28.433594 0.191406 L 30.082031 4.398438 L 2.132812 15.34375 Z M 0.484375 11.136719 " clip-rule="nonzero"/></clipPath><clipPath id="a20125f84e"><rect x="0" width="31" y="0" height="16"/></clipPath><clipPath id="68677c20ed"><path d="M 50 92 L 63 92 L 63 109 L 50 109 Z M 50 92 " clip-rule="nonzero"/></clipPath><clipPath id="b3c5b4945d"><path d="M 50.730469 94.621094 L 56.640625 92.308594 L 62.226562 106.578125 L 56.320312 108.890625 Z M 50.730469 94.621094 " clip-rule="nonzero"/></clipPath><clipPath id="a033cb9827"><path d="M 0.707031 0.09375 L 12.371094 0.09375 L 12.371094 16.996094 L 0.707031 16.996094 Z M 0.707031 0.09375 " clip-rule="nonzero"/></clipPath><clipPath id="ae4f43fd8e"><path d="M 0.730469 2.621094 L 6.640625 0.308594 L 12.226562 14.578125 L 6.320312 16.890625 Z M 0.730469 2.621094 " clip-rule="nonzero"/></clipPath><clipPath id="819f081198"><rect x="0" width="13" y="0" height="17"/></clipPath></defs><g clip-path="url(#1953557344)"><g transform="matrix(1, 0, 0, 1, 17, 59)"><g clip-path="url(#d88cecf364)"><g clip-path="url(#fba9fc137b)"><path fill="#3d2500" d="M 0.855469 0.5 L 56.1875 0.5 L 56.1875 108.132812 L 0.855469 108.132812 Z M 0.855469 0.5 " fill-opacity="1" fill-rule="nonzero"/></g></g></g></g><g clip-path="url(#b70993c721)"><g transform="matrix(1, 0, 0, 1, 37, 43)"><g clip-path="url(#cb13b98a03)"><g clip-path="url(#a2930b52ef)"><path fill="#ffe7c2" d="M 0.0742188 0.875 L 17.164062 0.875 L 17.164062 16.5 L 0.0742188 16.5 Z M 0.0742188 0.875 " fill-opacity="1" fill-rule="nonzero"/></g></g></g></g><g clip-path="url(#3ad0ed8a32)"><g transform="matrix(1, 0, 0, 1, 30, 13)"><g clip-path="url(#df9e918188)"><g clip-path="url(#3b2c0ba469)"><path fill="#ffe7c2" d="M 0.757812 0.398438 L 29.910156 0.398438 L 29.910156 30.914062 L 0.757812 30.914062 Z M 0.757812 0.398438 " fill-opacity="1" fill-rule="nonzero"/></g></g></g></g><g clip-path="url(#552a80a5c5)"><g clip-path="url(#c943bc9623)"><g transform="matrix(1, 0, 0, 1, 35, 22)"><g clip-path="url(#d84adff054)"><g clip-path="url(#59e5f314b6)"><g clip-path="url(#1dd5ca1909)"><path fill="#000000" d="M 0.363281 0.644531 L 6.359375 0.644531 L 6.359375 6.636719 L 0.363281 6.636719 Z M 0.363281 0.644531 " fill-opacity="1" fill-rule="nonzero"/></g></g></g></g></g></g><g clip-path="url(#fc9d8fcef6)"><g clip-path="url(#f6f9360dad)"><g transform="matrix(1, 0, 0, 1, 36, 24)"><g clip-path="url(#94c9859445)"><g clip-path="url(#c4812e67bc)"><g clip-path="url(#eba5fc23f4)"><path fill="#ffffff" d="M 0.863281 0.00390625 L 3.859375 0.00390625 L 3.859375 3 L 0.863281 3 Z M 0.863281 0.00390625 " fill-opacity="1" fill-rule="nonzero"/></g></g></g></g></g></g><g clip-path="url(#9c2374b6d9)"><g clip-path="url(#11a957fe9f)"><g transform="matrix(1, 0, 0, 1, 47, 22)"><g clip-path="url(#e6cb4ebc97)"><g clip-path="url(#be7ceb963a)"><g clip-path="url(#cf9ebed7bf)"><path fill="#000000" d="M 0.898438 0.503906 L 6.890625 0.503906 L 6.890625 6.496094 L 0.898438 6.496094 Z M 0.898438 0.503906 " fill-opacity="1" fill-rule="nonzero"/></g></g></g></g></g></g><g clip-path="url(#d1c6e6aa70)"><g clip-path="url(#5ae033d596)"><g transform="matrix(1, 0, 0, 1, 49, 23)"><g clip-path="url(#f8aea25213)"><g clip-path="url(#89dd3cfbf0)"><g clip-path="url(#f436ed08de)"><path fill="#ffffff" d="M 0.394531 0.863281 L 3.390625 0.863281 L 3.390625 3.859375 L 0.394531 3.859375 Z M 0.394531 0.863281 " fill-opacity="1" fill-rule="nonzero"/></g></g></g></g></g></g><g clip-path="url(#6e73730eca)"><g clip-path="url(#08929377a3)"><g transform="matrix(1, 0, 0, 1, 4, 61)"><g clip-path="url(#703c06224b)"><g clip-path="url(#dc6f489314)"><g clip-path="url(#103f0f59dd)"><path fill="#ffe7c2" d="M 19.347656 0.78125 L 25.582031 3.351562 L 6.550781 49.578125 L 0.3125 47.007812 Z M 19.347656 0.78125 " fill-opacity="1" fill-rule="nonzero"/></g></g></g></g></g></g><g clip-path="url(#c852cc43c4)"><g clip-path="url(#b0153f9da0)"><g transform="matrix(1, 0, 0, 1, 62, 61)"><g clip-path="url(#b6e8efa2ea)"><g clip-path="url(#26012badbc)"><g clip-path="url(#e9c1a3380f)"><path fill="#ffe7c2" d="M 0.304688 3.816406 L 6.328125 0.78125 L 29.378906 46.535156 L 23.355469 49.566406 Z M 0.304688 3.816406 " fill-opacity="1" fill-rule="nonzero"/></g></g></g></g></g></g><g clip-path="url(#1db4d09a2e)"><g transform="matrix(1, 0, 0, 1, 36, 147)"><g clip-path="url(#9a3ad6df30)"><g clip-path="url(#c0007b8700)"><path fill="#7a4900" d="M 0.957031 0.164062 L 7.441406 0.164062 L 7.441406 15.644531 L 0.957031 15.644531 Z M 0.957031 0.164062 " fill-opacity="1" fill-rule="nonzero"/></g></g></g></g><g clip-path="url(#68e9d3ec4a)"><g transform="matrix(1, 0, 0, 1, 57, 147)"><g clip-path="url(#11a419faf3)"><g clip-path="url(#00ff336a1b)"><path fill="#7a4900" d="M 0.5625 0.0859375 L 7.050781 0.0859375 L 7.050781 15.566406 L 0.5625 15.566406 Z M 0.5625 0.0859375 " fill-opacity="1" fill-rule="nonzero"/></g></g></g></g><g clip-path="url(#1202aaf268)"><g transform="matrix(1, 0, 0, 1, 47, 156)"><g clip-path="url(#e8d57c5f26)"><g clip-path="url(#970cf05c21)"><path fill="#7a4900" d="M 10.554688 0.015625 L 10.554688 6.5 L 0.878906 6.5 L 0.878906 0.015625 Z M 10.554688 0.015625 " fill-opacity="1" fill-rule="nonzero"/></g></g></g></g><g clip-path="url(#d2ede87163)"><g transform="matrix(1, 0, 0, 1, 27, 156)"><g clip-path="url(#1484b23e05)"><g clip-path="url(#e44732fc75)"><path fill="#7a4900" d="M 9.945312 0.09375 L 9.945312 6.578125 L 0.269531 6.578125 L 0.269531 0.09375 Z M 9.945312 0.09375 " fill-opacity="1" fill-rule="nonzero"/></g></g></g></g><path stroke-linecap="butt" transform="matrix(0.743952, 0, 0, 0.743952, 32.123949, 19.529396)" fill="none" stroke-linejoin="miter" d="M 0.00141233 1.99775 L 13.31188 1.99775 " stroke="#000000" stroke-width="4" stroke-opacity="1" stroke-miterlimit="4"/><path stroke-linecap="butt" transform="matrix(-0.743952, 0, 0, -0.743952, 55.320442, 22.505202)" fill="none" stroke-linejoin="miter" d="M 0.000174051 2.00225 L 11.908711 2.00225 " stroke="#000000" stroke-width="4" stroke-opacity="1" stroke-miterlimit="4"/><g clip-path="url(#12abbe1134)"><g clip-path="url(#15acf56b5c)"><g transform="matrix(1, 0, 0, 1, 20, 3)"><g clip-path="url(#bf1bd38acd)"><g clip-path="url(#22341b8e56)"><g clip-path="url(#0c4597297b)"><rect x="-40.295" width="132.84" fill="#14ae5c" height="241.92" y="-39.96" fill-opacity="1"/></g></g></g></g></g></g><g clip-path="url(#3349c848bf)"><g clip-path="url(#753680b892)"><g transform="matrix(1, 0, 0, 1, 9, 4)"><g clip-path="url(#4036b709b4)"><g clip-path="url(#158cf25205)"><g clip-path="url(#cee63a2f86)"><rect x="-29.295" width="132.84" fill="#14ae5c" height="241.92" y="-40.96" fill-opacity="1"/></g></g></g></g></g></g><g clip-path="url(#d571d63663)"><g clip-path="url(#449ed93b51)"><g transform="matrix(1, 0, 0, 1, 9, 5)"><g clip-path="url(#a3aafb22bb)"><g clip-path="url(#71e46f13fb)"><g clip-path="url(#6ae3f3438d)"><rect x="-29.295" width="132.84" fill="#14ae5c" height="241.92" y="-41.96" fill-opacity="1"/></g></g></g></g></g></g><g clip-path="url(#72ef16b46c)"><g clip-path="url(#21ae71cb99)"><g transform="matrix(1, 0, 0, 1, 2, 29)"><g clip-path="url(#23910deebb)"><g clip-path="url(#22a4bae24d)"><g clip-path="url(#79d7441362)"><rect x="-22.295" width="132.84" fill="#14ae5c" height="241.92" y="-65.96" fill-opacity="1"/></g></g></g></g></g></g><g clip-path="url(#04a5ffc04c)"><g clip-path="url(#3c887d5112)"><g transform="matrix(1, 0, 0, 1, 4, 33)"><g clip-path="url(#53faa7e9ba)"><g clip-path="url(#5ba177b941)"><g clip-path="url(#842793dea0)"><rect x="-24.295" width="132.84" fill="#14ae5c" height="241.92" y="-69.96" fill-opacity="1"/></g></g></g></g></g></g><g clip-path="url(#00861b1f05)"><g transform="matrix(1, 0, 0, 1, 23, 61)"><g clip-path="url(#a80f9546f3)"><g clip-path="url(#86866f72f6)"><path fill="#7a4900" d="M 0.953125 0.78125 L 43.984375 0.78125 L 43.984375 86.175781 L 0.953125 86.175781 Z M 0.953125 0.78125 " fill-opacity="1" fill-rule="nonzero"/></g></g></g></g><g clip-path="url(#6a25def56e)"><g clip-path="url(#4baf1fa33c)"><g transform="matrix(1, 0, 0, 1, 14, 61)"><g clip-path="url(#6c92202447)"><g clip-path="url(#f7a22823c9)"><g clip-path="url(#ed12169bdd)"><path fill="#7a4900" d="M 9.445312 0.609375 L 15.683594 3.175781 L 6.707031 24.976562 L 0.472656 22.410156 Z M 9.445312 0.609375 " fill-opacity="1" fill-rule="nonzero"/></g></g></g></g></g></g><g clip-path="url(#da24079246)"><g clip-path="url(#360b5ba182)"><g transform="matrix(1, 0, 0, 1, 62, 61)"><g clip-path="url(#121a9c214d)"><g clip-path="url(#741f8f3178)"><g clip-path="url(#9a6bc749b0)"><path fill="#7a4900" d="M 0.304688 3.664062 L 6.402344 0.78125 L 16.480469 22.09375 L 10.386719 24.976562 Z M 0.304688 3.664062 " fill-opacity="1" fill-rule="nonzero"/></g></g></g></g></g></g><g clip-path="url(#d4e9d83a5f)"><g transform="matrix(1, 0, 0, 1, 27, 74)"><g clip-path="url(#c23937a7dc)"><g clip-path="url(#62baf7aae3)"><path fill="#3d2500" d="M 0.566406 0.253906 L 4.800781 0.253906 L 4.800781 10.066406 L 0.566406 10.066406 Z M 0.566406 0.253906 " fill-opacity="1" fill-rule="nonzero"/></g></g></g></g><g clip-path="url(#11e7dc88fd)"><g clip-path="url(#baf3ffe149)"><g transform="matrix(1, 0, 0, 1, 27, 84)"><g clip-path="url(#93e52d1718)"><g clip-path="url(#dc4fa50816)"><g clip-path="url(#8d7a253b80)"><path fill="#b4b4b4" d="M 0.617188 0.0742188 L 4.800781 0.0742188 L 4.800781 13.628906 L 0.617188 13.628906 Z M 0.617188 0.0742188 " fill-opacity="1" fill-rule="nonzero"/></g></g></g></g></g></g><g clip-path="url(#98a9d5a4ea)"><g transform="matrix(1, 0, 0, 1, 34, 74)"><g clip-path="url(#33fe18a376)"><g clip-path="url(#3edef2de72)"><path fill="#3d2500" d="M 0.125 0.253906 L 4.359375 0.253906 L 4.359375 10.066406 L 0.125 10.066406 Z M 0.125 0.253906 " fill-opacity="1" fill-rule="nonzero"/></g></g></g></g><g clip-path="url(#4c766737bf)"><g clip-path="url(#19d5c6daf9)"><g transform="matrix(1, 0, 0, 1, 34, 84)"><g clip-path="url(#79cadf3ecd)"><g clip-path="url(#136efc6ab9)"><g clip-path="url(#7d678a81a2)"><path fill="#b4b4b4" d="M 0.125 0.0742188 L 4.308594 0.0742188 L 4.308594 13.628906 L 0.125 13.628906 Z M 0.125 0.0742188 " fill-opacity="1" fill-rule="nonzero"/></g></g></g></g></g></g><path stroke-linecap="butt" transform="matrix(0.743353, 0.0298446, -0.0298446, 0.743353, 33.935239, 31.43908)" fill="none" stroke-linejoin="miter" d="M 1.203168 1.62063 C 10.21973 8.405302 19.431504 8.403305 28.838699 1.619886 " stroke="#000000" stroke-width="4" stroke-opacity="1" stroke-miterlimit="4"/><g clip-path="url(#79784831f5)"><g clip-path="url(#a386397aec)"><g transform="matrix(1, 0, 0, 1, 23, 61)"><g clip-path="url(#d6db917fc4)"><g clip-path="url(#8fb118c31d)"><g clip-path="url(#b148572587)"><path fill="#3d2500" d="M 43.929688 0.257812 L 47.234375 2.039062 L 4.25 81.90625 L 0.949219 80.128906 Z M 43.929688 0.257812 " fill-opacity="1" fill-rule="nonzero"/></g></g></g></g></g></g><g clip-path="url(#dbac91bd6e)"><g clip-path="url(#8a17d89458)"><g transform="matrix(1, 0, 0, 1, 58, 110)"><g clip-path="url(#bbbabb0c15)"><g clip-path="url(#db0aeaa48c)"><g clip-path="url(#ab3cce4bb7)"><path fill="#b4b4b4" d="M 0.332031 2.957031 L 5.875 0.785156 L 26.367188 53.109375 L 20.824219 55.28125 Z M 0.332031 2.957031 " fill-opacity="1" fill-rule="nonzero"/></g></g></g></g></g></g><g clip-path="url(#bc1ba05369)"><g clip-path="url(#27a8ff1783)"><g transform="matrix(1, 0, 0, 1, 45, 102)"><g clip-path="url(#a20125f84e)"><g clip-path="url(#67e4497ab6)"><g clip-path="url(#558ac0df43)"><path fill="#ffde59" d="M 0.484375 11.136719 L 28.433594 0.191406 L 30.082031 4.398438 L 2.132812 15.34375 Z M 0.484375 11.136719 " fill-opacity="1" fill-rule="nonzero"/></g></g></g></g></g></g><g clip-path="url(#68677c20ed)"><g clip-path="url(#b3c5b4945d)"><g transform="matrix(1, 0, 0, 1, 50, 92)"><g clip-path="url(#819f081198)"><g clip-path="url(#a033cb9827)"><g clip-path="url(#ae4f43fd8e)"><path fill="#3d2500" d="M 0.730469 2.621094 L 6.640625 0.308594 L 12.226562 14.570312 L 6.316406 16.886719 Z M 0.730469 2.621094 " fill-opacity="1" fill-rule="nonzero"/></g></g></g></g></g></g></svg>