<svg xmlns="http://www.w3.org/2000/svg" xmlns:xlink="http://www.w3.org/1999/xlink" width="205" zoomAndPan="magnify" viewBox="0 0 153.75 225.749993" height="301" preserveAspectRatio="xMidYMid meet" version="1.0"><defs><clipPath id="513614fbd4"><path d="M 80.285156 93.449219 L 133.449219 93.449219 L 133.449219 209.746094 L 80.285156 209.746094 Z M 80.285156 93.449219 " clip-rule="nonzero"/></clipPath><clipPath id="f46717586b"><path d="M 0.285156 0.449219 L 53.449219 0.449219 L 53.449219 116.746094 L 0.285156 116.746094 Z M 0.285156 0.449219 " clip-rule="nonzero"/></clipPath><clipPath id="0fd795dcce"><rect x="0" width="54" y="0" height="117"/></clipPath><clipPath id="a0aa71edb5"><path d="M 98.257812 77.722656 L 115.480469 77.722656 L 115.480469 93.449219 L 98.257812 93.449219 Z M 98.257812 77.722656 " clip-rule="nonzero"/></clipPath><clipPath id="538217b862"><path d="M 0.257812 0.722656 L 17.480469 0.722656 L 17.480469 16.449219 L 0.257812 16.449219 Z M 0.257812 0.722656 " clip-rule="nonzero"/></clipPath><clipPath id="53bf88a021"><rect x="0" width="18" y="0" height="17"/></clipPath><clipPath id="33ca286f4e"><path d="M 91.898438 47.046875 L 121.238281 47.046875 L 121.238281 77.722656 L 91.898438 77.722656 Z M 91.898438 47.046875 " clip-rule="nonzero"/></clipPath><clipPath id="e00e7dd3b8"><path d="M 0.898438 0.046875 L 30.238281 0.046875 L 30.238281 30.722656 L 0.898438 30.722656 Z M 0.898438 0.046875 " clip-rule="nonzero"/></clipPath><clipPath id="d106ca4646"><rect x="0" width="31" y="0" height="31"/></clipPath><clipPath id="3320a72ca4"><path d="M 64.289062 69.355469 L 109.9375 69.355469 L 109.9375 73.851562 L 64.289062 73.851562 Z M 64.289062 69.355469 " clip-rule="nonzero"/></clipPath><clipPath id="3f90154dc3"><path d="M 0.289062 0.355469 L 45.9375 0.355469 L 45.9375 4.851562 L 0.289062 4.851562 Z M 0.289062 0.355469 " clip-rule="nonzero"/></clipPath><clipPath id="35830023ee"><rect x="0" width="46" y="0" height="5"/></clipPath><clipPath id="4fa24baf0a"><path d="M 59.351562 63.835938 L 64.289062 63.835938 L 64.289062 73.851562 L 59.351562 73.851562 Z M 59.351562 63.835938 " clip-rule="nonzero"/></clipPath><clipPath id="3cf8c3b496"><path d="M 0.351562 0.835938 L 5.289062 0.835938 L 5.289062 10.851562 L 0.351562 10.851562 Z M 0.351562 0.835938 " clip-rule="nonzero"/></clipPath><clipPath id="f67baa5614"><rect x="0" width="6" y="0" height="11"/></clipPath><clipPath id="e9100e1e88"><path d="M 59.949219 64.585938 L 63.691406 64.585938 L 63.691406 68.84375 L 59.949219 68.84375 Z M 59.949219 64.585938 " clip-rule="nonzero"/></clipPath><clipPath id="035d94beb7"><path d="M 0.949219 0.585938 L 4.691406 0.585938 L 4.691406 4.84375 L 0.949219 4.84375 Z M 0.949219 0.585938 " clip-rule="nonzero"/></clipPath><clipPath id="978d47a1b7"><rect x="0" width="5" y="0" height="5"/></clipPath><clipPath id="080cf21067"><path d="M 80.285156 147.808594 L 135.558594 147.808594 L 135.558594 209.746094 L 80.285156 209.746094 Z M 80.285156 147.808594 " clip-rule="nonzero"/></clipPath><clipPath id="4a8b821f84"><path d="M 0.285156 0.808594 L 55.558594 0.808594 L 55.558594 62.746094 L 0.285156 62.746094 Z M 0.285156 0.808594 " clip-rule="nonzero"/></clipPath><clipPath id="9bf5058571"><rect x="0" width="56" y="0" height="63"/></clipPath><clipPath id="f04cadf1d3"><path d="M 80.285156 147.808594 L 135.558594 147.808594 L 135.558594 155.78125 L 80.285156 155.78125 Z M 80.285156 147.808594 " clip-rule="nonzero"/></clipPath><clipPath id="8422025452"><path d="M 0.285156 0.808594 L 55.558594 0.808594 L 55.558594 8.78125 L 0.285156 8.78125 Z M 0.285156 0.808594 " clip-rule="nonzero"/></clipPath><clipPath id="69a0c6128c"><rect x="0" width="56" y="0" height="9"/></clipPath><clipPath id="eaba49a5f5"><path d="M 79.988281 41.261719 L 131.152344 41.261719 L 131.152344 52.832031 L 79.988281 52.832031 Z M 79.988281 41.261719 " clip-rule="nonzero"/></clipPath><clipPath id="51601c910b"><path d="M 105.550781 41.261719 C 91.433594 41.261719 79.988281 43.851562 79.988281 47.046875 C 79.988281 50.242188 91.433594 52.832031 105.550781 52.832031 C 119.667969 52.832031 131.113281 50.242188 131.113281 47.046875 C 131.113281 43.851562 119.667969 41.261719 105.550781 41.261719 Z M 105.550781 41.261719 " clip-rule="nonzero"/></clipPath><clipPath id="c5eccae959"><path d="M 0.988281 0.261719 L 52.152344 0.261719 L 52.152344 11.832031 L 0.988281 11.832031 Z M 0.988281 0.261719 " clip-rule="nonzero"/></clipPath><clipPath id="5fd371dd9d"><path d="M 26.550781 0.261719 C 12.433594 0.261719 0.988281 2.851562 0.988281 6.046875 C 0.988281 9.242188 12.433594 11.832031 26.550781 11.832031 C 40.667969 11.832031 52.113281 9.242188 52.113281 6.046875 C 52.113281 2.851562 40.667969 0.261719 26.550781 0.261719 Z M 26.550781 0.261719 " clip-rule="nonzero"/></clipPath><clipPath id="359d7cc205"><rect x="0" width="53" y="0" height="12"/></clipPath><clipPath id="9dfcc47f70"><path d="M 90.71875 5.632812 L 120.382812 5.632812 L 120.382812 43.414062 L 90.71875 43.414062 Z M 90.71875 5.632812 " clip-rule="nonzero"/></clipPath><clipPath id="c00737f1f3"><path d="M 105.550781 5.632812 L 120.382812 43.304688 L 90.71875 43.304688 Z M 105.550781 5.632812 " clip-rule="nonzero"/></clipPath><clipPath id="858c3ca23b"><path d="M 0.71875 0.632812 L 30.382812 0.632812 L 30.382812 38.414062 L 0.71875 38.414062 Z M 0.71875 0.632812 " clip-rule="nonzero"/></clipPath><clipPath id="a4d8165379"><path d="M 15.550781 0.632812 L 30.382812 38.304688 L 0.71875 38.304688 Z M 15.550781 0.632812 " clip-rule="nonzero"/></clipPath><clipPath id="6b3c055a27"><rect x="0" width="31" y="0" height="39"/></clipPath><clipPath id="416e4f2c3e"><path d="M 96.535156 56.355469 L 102.566406 56.355469 L 102.566406 62.386719 L 96.535156 62.386719 Z M 96.535156 56.355469 " clip-rule="nonzero"/></clipPath><clipPath id="0e7faa7d4b"><path d="M 99.550781 56.355469 C 97.882812 56.355469 96.535156 57.703125 96.535156 59.371094 C 96.535156 61.035156 97.882812 62.386719 99.550781 62.386719 C 101.214844 62.386719 102.566406 61.035156 102.566406 59.371094 C 102.566406 57.703125 101.214844 56.355469 99.550781 56.355469 Z M 99.550781 56.355469 " clip-rule="nonzero"/></clipPath><clipPath id="daef585331"><path d="M 0.535156 0.355469 L 6.566406 0.355469 L 6.566406 6.386719 L 0.535156 6.386719 Z M 0.535156 0.355469 " clip-rule="nonzero"/></clipPath><clipPath id="4a3c19dad4"><path d="M 3.550781 0.355469 C 1.882812 0.355469 0.535156 1.703125 0.535156 3.371094 C 0.535156 5.035156 1.882812 6.386719 3.550781 6.386719 C 5.214844 6.386719 6.566406 5.035156 6.566406 3.371094 C 6.566406 1.703125 5.214844 0.355469 3.550781 0.355469 Z M 3.550781 0.355469 " clip-rule="nonzero"/></clipPath><clipPath id="75094d365d"><rect x="0" width="7" y="0" height="7"/></clipPath><clipPath id="a0932c2f4a"><path d="M 98.039062 57.722656 L 101.058594 57.722656 L 101.058594 60.738281 L 98.039062 60.738281 Z M 98.039062 57.722656 " clip-rule="nonzero"/></clipPath><clipPath id="8debb2468c"><path d="M 99.550781 57.722656 C 98.714844 57.722656 98.039062 58.398438 98.039062 59.230469 C 98.039062 60.0625 98.714844 60.738281 99.550781 60.738281 C 100.382812 60.738281 101.058594 60.0625 101.058594 59.230469 C 101.058594 58.398438 100.382812 57.722656 99.550781 57.722656 Z M 99.550781 57.722656 " clip-rule="nonzero"/></clipPath><clipPath id="110ce78841"><path d="M 0.0390625 0.722656 L 3.058594 0.722656 L 3.058594 3.738281 L 0.0390625 3.738281 Z M 0.0390625 0.722656 " clip-rule="nonzero"/></clipPath><clipPath id="40142265bd"><path d="M 1.550781 0.722656 C 0.714844 0.722656 0.0390625 1.398438 0.0390625 2.230469 C 0.0390625 3.0625 0.714844 3.738281 1.550781 3.738281 C 2.382812 3.738281 3.058594 3.0625 3.058594 2.230469 C 3.058594 1.398438 2.382812 0.722656 1.550781 0.722656 Z M 1.550781 0.722656 " clip-rule="nonzero"/></clipPath><clipPath id="630cbf828e"><rect x="0" width="4" y="0" height="4"/></clipPath><clipPath id="0de8ae1aa3"><path d="M 109.148438 56.214844 L 115.179688 56.214844 L 115.179688 62.246094 L 109.148438 62.246094 Z M 109.148438 56.214844 " clip-rule="nonzero"/></clipPath><clipPath id="491cc7853c"><path d="M 112.164062 56.214844 C 110.496094 56.214844 109.148438 57.5625 109.148438 59.230469 C 109.148438 60.894531 110.496094 62.246094 112.164062 62.246094 C 113.828125 62.246094 115.179688 60.894531 115.179688 59.230469 C 115.179688 57.5625 113.828125 56.214844 112.164062 56.214844 Z M 112.164062 56.214844 " clip-rule="nonzero"/></clipPath><clipPath id="904bd79029"><path d="M 0.148438 0.214844 L 6.179688 0.214844 L 6.179688 6.246094 L 0.148438 6.246094 Z M 0.148438 0.214844 " clip-rule="nonzero"/></clipPath><clipPath id="3024e85c96"><path d="M 3.164062 0.214844 C 1.496094 0.214844 0.148438 1.5625 0.148438 3.230469 C 0.148438 4.894531 1.496094 6.246094 3.164062 6.246094 C 4.828125 6.246094 6.179688 4.894531 6.179688 3.230469 C 6.179688 1.5625 4.828125 0.214844 3.164062 0.214844 Z M 3.164062 0.214844 " clip-rule="nonzero"/></clipPath><clipPath id="f4d6435a11"><rect x="0" width="7" y="0" height="7"/></clipPath><clipPath id="2502794ada"><path d="M 110.652344 57.582031 L 113.671875 57.582031 L 113.671875 60.597656 L 110.652344 60.597656 Z M 110.652344 57.582031 " clip-rule="nonzero"/></clipPath><clipPath id="ecf78bff85"><path d="M 112.160156 57.582031 C 111.328125 57.582031 110.652344 58.257812 110.652344 59.089844 C 110.652344 59.921875 111.328125 60.597656 112.160156 60.597656 C 112.996094 60.597656 113.671875 59.921875 113.671875 59.089844 C 113.671875 58.257812 112.996094 57.582031 112.160156 57.582031 Z M 112.160156 57.582031 " clip-rule="nonzero"/></clipPath><clipPath id="9f657b5681"><path d="M 0.652344 0.582031 L 3.671875 0.582031 L 3.671875 3.597656 L 0.652344 3.597656 Z M 0.652344 0.582031 " clip-rule="nonzero"/></clipPath><clipPath id="600c44e529"><path d="M 2.160156 0.582031 C 1.328125 0.582031 0.652344 1.257812 0.652344 2.089844 C 0.652344 2.921875 1.328125 3.597656 2.160156 3.597656 C 2.996094 3.597656 3.671875 2.921875 3.671875 2.089844 C 3.671875 1.257812 2.996094 0.582031 2.160156 0.582031 Z M 2.160156 0.582031 " clip-rule="nonzero"/></clipPath><clipPath id="72ff4eb647"><rect x="0" width="4" y="0" height="4"/></clipPath><clipPath id="ccc0c4d3e1"><path d="M 65 95 L 91 95 L 91 145 L 65 145 Z M 65 95 " clip-rule="nonzero"/></clipPath><clipPath id="6fb757706b"><path d="M 84.441406 95.746094 L 90.714844 98.332031 L 71.5625 144.847656 L 65.285156 142.261719 Z M 84.441406 95.746094 " clip-rule="nonzero"/></clipPath><clipPath id="27bed72149"><path d="M 0.175781 0.664062 L 25.8125 0.664062 L 25.8125 50 L 0.175781 50 Z M 0.175781 0.664062 " clip-rule="nonzero"/></clipPath><clipPath id="4b59b179d9"><path d="M 19.441406 0.746094 L 25.714844 3.332031 L 6.5625 49.847656 L 0.285156 47.261719 Z M 19.441406 0.746094 " clip-rule="nonzero"/></clipPath><clipPath id="2e39b67d15"><rect x="0" width="26" y="0" height="50"/></clipPath><clipPath id="8162d71dec"><path d="M 123 95 L 153 95 L 153 145 L 123 145 Z M 123 95 " clip-rule="nonzero"/></clipPath><clipPath id="322098b47f"><path d="M 123.652344 98.800781 L 129.710938 95.746094 L 152.910156 141.792969 L 146.851562 144.847656 Z M 123.652344 98.800781 " clip-rule="nonzero"/></clipPath><clipPath id="3c0fb544c0"><path d="M 0.640625 0.664062 L 30 0.664062 L 30 50 L 0.640625 50 Z M 0.640625 0.664062 " clip-rule="nonzero"/></clipPath><clipPath id="f960e23cf4"><path d="M 0.652344 3.800781 L 6.710938 0.746094 L 29.910156 46.792969 L 23.851562 49.847656 Z M 0.652344 3.800781 " clip-rule="nonzero"/></clipPath><clipPath id="f176930c2b"><rect x="0" width="30" y="0" height="50"/></clipPath><clipPath id="74a1df72c9"><path d="M 94.777344 209.746094 L 101.304688 209.746094 L 101.304688 225.335938 L 94.777344 225.335938 Z M 94.777344 209.746094 " clip-rule="nonzero"/></clipPath><clipPath id="d4ad128976"><path d="M 0.777344 0.746094 L 7.304688 0.746094 L 7.304688 16.335938 L 0.777344 16.335938 Z M 0.777344 0.746094 " clip-rule="nonzero"/></clipPath><clipPath id="2be18554e9"><rect x="0" width="8" y="0" height="17"/></clipPath><clipPath id="4175b2ddd2"><path d="M 120.382812 209.746094 L 126.910156 209.746094 L 126.910156 225.335938 L 120.382812 225.335938 Z M 120.382812 209.746094 " clip-rule="nonzero"/></clipPath><clipPath id="da32e87210"><path d="M 0.382812 0.746094 L 6.910156 0.746094 L 6.910156 16.335938 L 0.382812 16.335938 Z M 0.382812 0.746094 " clip-rule="nonzero"/></clipPath><clipPath id="06d3b45874"><rect x="0" width="7" y="0" height="17"/></clipPath><clipPath id="e8864d5b92"><path d="M 110.644531 218.734375 L 120.375 218.734375 L 120.375 225.261719 L 110.644531 225.261719 Z M 110.644531 218.734375 " clip-rule="nonzero"/></clipPath><clipPath id="d0a76070a5"><path d="M 0.644531 0.734375 L 10.375 0.734375 L 10.375 7.261719 L 0.644531 7.261719 Z M 0.644531 0.734375 " clip-rule="nonzero"/></clipPath><clipPath id="dfe464a17f"><rect x="0" width="11" y="0" height="8"/></clipPath><clipPath id="1d3c375e17"><path d="M 85.039062 218.734375 L 94.769531 218.734375 L 94.769531 225.261719 L 85.039062 225.261719 Z M 85.039062 218.734375 " clip-rule="nonzero"/></clipPath><clipPath id="762cf42f1f"><path d="M 0.0390625 0.734375 L 9.769531 0.734375 L 9.769531 7.261719 L 0.0390625 7.261719 Z M 0.0390625 0.734375 " clip-rule="nonzero"/></clipPath><clipPath id="71b77a3760"><rect x="0" width="10" y="0" height="8"/></clipPath><clipPath id="c49dd09bf0"><path d="M 51.066406 54.714844 L 56.757812 54.714844 L 56.757812 60.410156 L 51.066406 60.410156 Z M 51.066406 54.714844 " clip-rule="nonzero"/></clipPath><clipPath id="e23d3c62fe"><path d="M 53.910156 54.714844 C 52.339844 54.714844 51.066406 55.992188 51.066406 57.5625 C 51.066406 59.136719 52.339844 60.410156 53.910156 60.410156 C 55.484375 60.410156 56.757812 59.136719 56.757812 57.5625 C 56.757812 55.992188 55.484375 54.714844 53.910156 54.714844 Z M 53.910156 54.714844 " clip-rule="nonzero"/></clipPath><clipPath id="13b40a9d1f"><path d="M 0.0664062 0.714844 L 5.757812 0.714844 L 5.757812 6.410156 L 0.0664062 6.410156 Z M 0.0664062 0.714844 " clip-rule="nonzero"/></clipPath><clipPath id="38adbb2506"><path d="M 2.910156 0.714844 C 1.339844 0.714844 0.0664062 1.992188 0.0664062 3.5625 C 0.0664062 5.136719 1.339844 6.410156 2.910156 6.410156 C 4.484375 6.410156 5.757812 5.136719 5.757812 3.5625 C 5.757812 1.992188 4.484375 0.714844 2.910156 0.714844 Z M 2.910156 0.714844 " clip-rule="nonzero"/></clipPath><clipPath id="c77ef6679f"><rect x="0" width="6" y="0" height="7"/></clipPath><clipPath id="8e0f03d687"><path d="M 17.164062 7.328125 L 66.207031 7.328125 L 66.207031 62.980469 L 17.164062 62.980469 Z M 17.164062 7.328125 " clip-rule="nonzero"/></clipPath><clipPath id="ee199e3611"><path d="M 60.519531 62.074219 C 53.855469 58.628906 53.554688 57.804688 53.480469 57.054688 C 53.328125 56.53125 53.40625 55.933594 53.628906 55.410156 C 53.929688 54.734375 54.601562 53.835938 55.351562 53.539062 C 56.175781 53.164062 58.570312 53.460938 58.570312 53.539062 C 58.570312 53.613281 54.675781 54.285156 54.527344 53.988281 C 54.453125 53.6875 55.875 52.5625 56.699219 52.1875 C 57.671875 51.738281 59.09375 51.367188 59.992188 51.664062 C 60.96875 51.964844 61.941406 53.3125 62.242188 54.0625 C 62.539062 54.660156 62.464844 55.257812 62.316406 55.785156 C 62.089844 56.53125 61.789062 57.355469 60.96875 57.953125 C 59.320312 59.078125 54.976562 60.277344 52.058594 60.351562 C 49.210938 60.351562 44.34375 59.675781 43.671875 58.179688 C 43.070312 57.054688 44.269531 54.660156 45.84375 53.460938 C 48.6875 51.140625 59.695312 49.121094 62.988281 49.867188 C 64.488281 50.167969 65.460938 51.214844 65.910156 52.039062 C 66.207031 52.714844 66.132812 53.6875 65.835938 54.359375 C 65.535156 55.035156 65.234375 55.410156 64.261719 56.007812 C 60.890625 57.953125 42.246094 62.523438 38.429688 62.746094 C 37.304688 62.746094 36.855469 62.820312 36.257812 62.449219 C 35.660156 62 34.835938 60.875 34.761719 60.050781 C 34.683594 59.226562 34.984375 58.40625 35.808594 57.503906 C 37.679688 55.410156 46.214844 50.992188 48.761719 50.46875 C 49.808594 50.316406 50.410156 50.390625 51.007812 50.765625 C 51.609375 51.066406 52.28125 51.738281 52.507812 52.414062 C 52.730469 53.089844 52.730469 53.988281 52.507812 54.660156 C 52.28125 55.335938 51.832031 55.933594 51.007812 56.308594 C 49.285156 57.207031 43.222656 57.953125 41.347656 57.132812 C 40.300781 56.683594 39.628906 55.632812 39.402344 54.808594 C 39.179688 54.0625 39.179688 53.164062 39.703125 52.488281 C 40.601562 51.214844 43.59375 50.242188 46.066406 49.269531 C 49.359375 47.996094 55.5 45.375 57.898438 46.050781 C 59.246094 46.347656 60.292969 47.773438 60.519531 48.671875 C 60.742188 49.417969 60.519531 50.316406 60.144531 50.917969 C 59.769531 51.589844 59.320312 51.890625 58.273438 52.339844 C 54.453125 54.0625 33.414062 57.355469 29.367188 57.355469 C 28.320312 57.28125 27.871094 57.28125 27.347656 56.90625 C 26.824219 56.53125 26.222656 55.933594 26.074219 55.257812 C 25.925781 54.511719 26.074219 53.539062 26.597656 52.640625 C 27.496094 51.214844 29.96875 49.417969 32.0625 48.222656 C 34.160156 47.023438 36.558594 46.421875 39.328125 45.523438 C 42.773438 44.476562 48.761719 42.15625 51.160156 42.457031 C 52.28125 42.53125 53.105469 42.980469 53.480469 43.652344 C 53.929688 44.402344 53.929688 46.125 53.480469 46.875 C 53.179688 47.472656 52.65625 47.695312 51.832031 48.070312 C 50.335938 48.671875 47.039062 48.894531 44.34375 49.195312 C 41.273438 49.492188 36.40625 49.941406 34.3125 49.570312 C 33.414062 49.417969 32.8125 49.269531 32.363281 48.894531 C 31.839844 48.445312 31.390625 47.695312 31.316406 47.023438 C 31.316406 46.125 31.839844 44.925781 32.886719 43.953125 C 35.058594 42.007812 42.773438 40.507812 46.367188 38.9375 C 48.835938 37.8125 50.710938 35.792969 52.429688 35.640625 C 53.703125 35.566406 55.203125 36.089844 55.726562 36.914062 C 56.324219 37.738281 56.101562 39.683594 55.726562 40.433594 C 55.5 40.957031 55.203125 41.183594 54.601562 41.40625 C 53.179688 42.007812 48.164062 42.53125 46.367188 42.15625 C 45.394531 41.929688 44.792969 41.558594 44.34375 41.03125 C 43.894531 40.507812 43.59375 39.609375 43.59375 38.859375 C 43.59375 38.1875 43.820312 37.589844 44.417969 36.765625 C 45.992188 34.667969 55.726562 28.304688 55.5 27.929688 C 55.277344 27.628906 50.335938 30.925781 48.164062 31.671875 C 46.441406 32.121094 44.945312 32.195312 43.445312 32.273438 C 42.246094 32.347656 40.898438 32.644531 39.925781 32.195312 C 39.101562 31.824219 38.203125 30.925781 38.054688 30.101562 C 37.828125 29.277344 38.054688 28.226562 38.652344 27.253906 C 39.703125 25.757812 43.070312 24.035156 45.242188 22.835938 C 47.113281 21.789062 49.285156 20.589844 50.710938 20.367188 C 51.609375 20.292969 52.355469 20.367188 52.957031 20.816406 C 53.703125 21.339844 54.527344 22.539062 54.527344 23.4375 C 54.601562 24.335938 54.152344 25.382812 53.253906 26.132812 C 51.757812 27.554688 48.011719 28.226562 44.269531 29.277344 C 38.355469 31 24.425781 34.519531 20.90625 34.667969 C 19.859375 34.742188 19.410156 34.742188 18.8125 34.367188 C 18.210938 33.992188 17.464844 32.945312 17.386719 32.121094 C 17.3125 31.296875 17.613281 30.476562 18.363281 29.652344 C 20.007812 27.929688 24.578125 26.207031 28.769531 24.632812 C 34.761719 22.386719 47.265625 18.644531 51.308594 18.34375 C 52.730469 18.269531 53.554688 18.195312 54.226562 18.71875 C 54.976562 19.242188 55.652344 20.742188 55.652344 21.5625 C 55.574219 22.238281 55.203125 22.761719 54.675781 23.285156 C 53.777344 24.109375 52.207031 24.632812 50.335938 25.308594 C 47.339844 26.355469 40.675781 28.675781 38.203125 28.378906 C 37.007812 28.226562 36.183594 27.777344 35.808594 27.03125 C 35.285156 26.207031 35.285156 24.558594 35.882812 23.660156 C 36.632812 22.460938 38.726562 21.9375 40.976562 21.039062 C 44.71875 19.617188 53.777344 16.847656 56.625 16.621094 C 57.597656 16.546875 58.121094 16.546875 58.722656 16.921875 C 59.320312 17.222656 59.917969 17.894531 60.144531 18.496094 C 60.367188 19.167969 60.367188 20.066406 60.144531 20.664062 C 59.917969 21.265625 59.542969 21.789062 58.722656 22.238281 C 56.398438 23.4375 47.339844 24.710938 43.746094 23.886719 C 41.425781 23.359375 38.726562 22.011719 38.503906 20.589844 C 38.203125 19.019531 40.527344 16.695312 42.695312 14.898438 C 45.917969 12.128906 54.601562 7.113281 57.597656 7.335938 C 59.019531 7.414062 60.070312 8.535156 60.519531 9.285156 C 60.816406 9.957031 60.742188 10.855469 60.519531 11.53125 C 60.292969 12.128906 59.917969 12.578125 59.09375 13.179688 C 56.625 14.675781 45.316406 17.820312 42.472656 17.746094 C 41.425781 17.671875 40.898438 17.445312 40.375 16.996094 C 39.851562 16.546875 39.402344 15.796875 39.328125 15.125 C 39.179688 14.449219 39.402344 13.550781 39.777344 12.953125 C 40.152344 12.429688 40.675781 11.980469 41.5 11.679688 C 43.445312 11.082031 48.988281 10.332031 51.234375 11.457031 C 53.03125 12.355469 54.601562 14.675781 54.753906 16.398438 C 54.902344 18.046875 53.554688 19.691406 52.355469 21.640625 C 50.710938 24.335938 44.121094 29.277344 44.867188 30.699219 C 45.84375 32.421875 59.621094 28.003906 62.242188 28.753906 C 63.214844 29.050781 63.589844 29.5 63.886719 30.175781 C 64.261719 30.847656 64.410156 32.046875 63.960938 32.945312 C 63.363281 34.367188 61.417969 35.34375 59.019531 36.914062 C 53.703125 40.285156 36.03125 49.792969 32.140625 50.542969 C 31.089844 50.691406 30.640625 50.617188 30.117188 50.390625 C 29.519531 50.09375 28.917969 49.492188 28.695312 48.894531 C 28.46875 48.296875 28.394531 47.472656 28.621094 46.875 C 28.84375 46.273438 29.21875 45.601562 29.894531 45.300781 C 31.089844 44.703125 34.683594 44.777344 35.808594 45.375 C 36.480469 45.75 36.855469 46.421875 37.007812 47.097656 C 37.082031 47.847656 37.007812 48.820312 36.257812 49.792969 C 34.761719 51.738281 27.195312 55.707031 24.800781 56.234375 C 23.828125 56.457031 23.230469 56.308594 22.554688 56.007812 C 21.957031 55.707031 21.28125 55.109375 21.058594 54.359375 C 20.832031 53.460938 21.058594 52.039062 21.882812 50.917969 C 23.304688 48.96875 28.246094 47.695312 31.390625 45.601562 C 34.835938 43.277344 39.925781 39.757812 41.574219 37.363281 C 42.472656 36.089844 43.222656 34.667969 42.773438 33.84375 C 42.171875 32.722656 37.378906 33.46875 36.109375 32.496094 C 35.359375 31.824219 34.984375 30.625 34.984375 29.726562 C 35.058594 29.050781 35.433594 28.226562 35.957031 27.777344 C 36.632812 27.253906 37.679688 27.480469 38.804688 26.957031 C 40.976562 26.058594 45.09375 23.511719 47.714844 21.640625 C 50.035156 20.066406 52.058594 16.996094 53.855469 16.695312 C 55.050781 16.472656 56.550781 17.144531 57.074219 17.894531 C 57.597656 18.71875 57.746094 20.589844 57.074219 21.414062 C 56.175781 22.460938 52.355469 22.761719 50.859375 22.6875 C 50.109375 22.613281 49.511719 22.386719 49.0625 22.011719 C 48.539062 21.640625 48.089844 20.964844 47.9375 20.367188 C 47.789062 19.765625 47.789062 19.019531 48.089844 18.417969 C 48.460938 17.746094 49.4375 16.773438 50.257812 16.621094 C 51.082031 16.472656 52.429688 16.847656 53.03125 17.445312 C 53.628906 17.96875 54.078125 19.316406 53.929688 20.140625 C 53.777344 20.964844 52.957031 22.089844 52.132812 22.386719 C 51.382812 22.761719 50.035156 22.539062 49.285156 22.238281 C 48.6875 21.9375 48.3125 21.265625 48.089844 20.742188 C 47.863281 20.140625 47.714844 19.394531 47.9375 18.71875 C 48.238281 18.046875 49.210938 16.921875 49.960938 16.695312 C 50.710938 16.472656 51.683594 17.371094 52.582031 17.371094 C 53.480469 17.371094 54.527344 16.546875 55.277344 16.695312 C 56.023438 16.847656 56.699219 17.296875 57.074219 17.894531 C 57.523438 18.644531 57.746094 19.84375 57.449219 20.742188 C 57.074219 21.9375 55.726562 22.988281 54.304688 24.183594 C 52.132812 25.980469 48.089844 28.453125 45.167969 30.027344 C 42.546875 31.375 39.101562 33.320312 37.457031 33.09375 C 36.632812 33.019531 36.03125 32.496094 35.582031 31.898438 C 35.210938 31.375 34.984375 30.476562 34.984375 29.726562 C 35.058594 29.050781 35.507812 28.226562 35.957031 27.777344 C 36.480469 27.253906 37.15625 26.957031 38.054688 26.878906 C 39.777344 26.804688 43.894531 28.078125 45.617188 29.277344 C 46.816406 30.101562 47.640625 31.148438 48.089844 32.347656 C 48.460938 33.621094 48.460938 35.265625 48.089844 36.691406 C 47.714844 38.261719 46.664062 39.835938 45.542969 41.257812 C 44.269531 42.90625 42.773438 44.253906 40.675781 45.972656 C 37.679688 48.519531 32.0625 52.789062 28.695312 54.4375 C 26.671875 55.484375 24.578125 56.457031 23.304688 56.234375 C 22.480469 56.15625 21.882812 55.558594 21.429688 55.035156 C 21.058594 54.4375 20.757812 53.613281 20.90625 52.863281 C 20.980469 52.113281 21.507812 51.289062 22.480469 50.46875 C 24.425781 48.746094 31.242188 44.777344 33.785156 44.851562 C 35.132812 44.851562 36.257812 45.75 36.707031 46.421875 C 37.15625 47.023438 37.15625 47.921875 36.929688 48.519531 C 36.78125 49.121094 36.40625 49.867188 35.734375 50.242188 C 34.835938 50.765625 32.589844 50.765625 31.464844 50.617188 C 30.640625 50.542969 29.96875 50.46875 29.519531 50.019531 C 28.996094 49.492188 28.46875 48.296875 28.46875 47.546875 C 28.46875 46.875 28.621094 46.421875 29.367188 45.675781 C 32.363281 42.53125 55.800781 28.753906 60.816406 28.601562 C 62.390625 28.601562 63.4375 29.351562 63.886719 30.175781 C 64.335938 31 64.039062 32.871094 63.589844 33.621094 C 63.214844 34.144531 62.691406 34.292969 61.714844 34.59375 C 59.171875 35.417969 50.785156 36.539062 46.816406 36.390625 C 44.195312 36.316406 41.722656 36.164062 40.226562 35.191406 C 39.179688 34.519531 38.429688 33.320312 38.277344 32.121094 C 38.054688 30.625 39.101562 28.675781 40.152344 26.730469 C 41.574219 23.960938 47.265625 18.34375 46.589844 17.296875 C 46.214844 16.695312 43.59375 17.894531 42.472656 17.746094 C 41.648438 17.671875 40.898438 17.519531 40.375 16.996094 C 39.777344 16.472656 39.253906 15.199219 39.328125 14.375 C 39.328125 13.703125 39.476562 13.027344 40.226562 12.429688 C 42.398438 10.632812 53.929688 7.636719 56.847656 7.414062 C 57.972656 7.335938 58.496094 7.261719 59.09375 7.636719 C 59.84375 8.160156 60.742188 9.808594 60.667969 10.78125 C 60.667969 11.605469 59.992188 12.28125 59.09375 13.179688 C 56.925781 15.050781 49.0625 20.292969 46.441406 20.066406 C 45.09375 19.917969 43.445312 18.34375 43.59375 17.746094 C 43.96875 16.621094 55.425781 15.574219 58.046875 16.621094 C 59.320312 17.144531 60.21875 18.269531 60.292969 19.242188 C 60.441406 20.140625 59.84375 21.339844 58.722656 22.238281 C 55.875 24.632812 42.171875 28.078125 38.953125 28.304688 C 37.90625 28.378906 37.378906 28.378906 36.855469 28.003906 C 36.183594 27.554688 35.359375 26.507812 35.285156 25.683594 C 35.285156 24.785156 35.808594 23.585938 36.929688 22.6875 C 39.402344 20.816406 49.585938 18.570312 52.28125 18.417969 C 53.253906 18.34375 53.703125 18.34375 54.226562 18.71875 C 54.753906 19.019531 55.351562 19.617188 55.5 20.214844 C 55.726562 20.816406 55.652344 21.640625 55.425781 22.164062 C 55.203125 22.761719 54.902344 23.210938 54.078125 23.660156 C 51.980469 24.785156 44.71875 25.308594 40.601562 26.429688 C 37.082031 27.40625 34.085938 28.453125 30.867188 29.800781 C 27.496094 31.148438 23.003906 34.367188 20.90625 34.667969 C 20.007812 34.816406 19.410156 34.742188 18.8125 34.367188 C 18.210938 33.992188 17.464844 32.871094 17.386719 32.121094 C 17.238281 31.449219 17.539062 30.625 17.914062 30.101562 C 18.285156 29.578125 18.660156 29.425781 19.632812 28.976562 C 22.855469 27.628906 36.632812 25.160156 42.324219 23.4375 C 45.84375 22.386719 48.761719 20.515625 50.710938 20.367188 C 51.683594 20.292969 52.355469 20.367188 52.957031 20.816406 C 53.703125 21.339844 54.527344 22.539062 54.527344 23.4375 C 54.601562 24.335938 54.152344 25.308594 53.253906 26.132812 C 51.683594 27.703125 45.992188 28.527344 43.894531 29.875 C 42.695312 30.699219 42.324219 32.121094 41.425781 32.421875 C 40.75 32.570312 39.851562 32.273438 39.328125 31.898438 C 38.726562 31.523438 38.203125 30.773438 38.054688 30.101562 C 37.828125 29.425781 37.980469 28.527344 38.277344 27.929688 C 38.578125 27.253906 39.027344 26.878906 39.925781 26.429688 C 42.171875 25.382812 49.734375 24.183594 53.703125 24.484375 C 56.847656 24.785156 61.191406 25.457031 61.941406 27.03125 C 62.539062 28.453125 60.890625 30.925781 59.394531 32.945312 C 57 35.941406 49.960938 42.007812 47.113281 42.15625 C 45.765625 42.304688 44.417969 41.257812 43.894531 40.359375 C 43.445312 39.609375 43.59375 38.1875 43.96875 37.363281 C 44.417969 36.613281 45.394531 36.089844 46.515625 35.714844 C 48.3125 35.191406 52.28125 35.042969 53.929688 35.640625 C 54.976562 36.015625 55.800781 36.765625 56.101562 37.589844 C 56.398438 38.410156 56.25 39.609375 55.726562 40.433594 C 55.125 41.480469 53.855469 42.007812 52.132812 42.90625 C 48.539062 44.777344 37.304688 49.570312 34.3125 49.570312 C 33.335938 49.570312 32.8125 49.269531 32.363281 48.894531 C 31.839844 48.445312 31.464844 47.621094 31.316406 47.023438 C 31.242188 46.347656 31.464844 45.449219 31.839844 44.925781 C 32.214844 44.402344 32.589844 44.027344 33.5625 43.726562 C 36.332031 42.753906 48.089844 41.78125 51.160156 42.457031 C 52.355469 42.679688 53.105469 42.980469 53.480469 43.652344 C 53.929688 44.402344 54.226562 45.898438 53.480469 46.875 C 51.757812 49.417969 39.179688 51.066406 34.910156 53.3125 C 32.363281 54.585938 30.792969 56.980469 29.367188 57.355469 C 28.546875 57.503906 27.871094 57.28125 27.347656 56.90625 C 26.824219 56.53125 26.296875 55.859375 26.074219 55.257812 C 25.925781 54.660156 25.925781 53.761719 26.222656 53.238281 C 26.597656 52.5625 27.195312 52.113281 28.394531 51.589844 C 32.511719 49.792969 53.554688 44.625 57.898438 46.050781 C 59.46875 46.5 60.367188 47.621094 60.519531 48.671875 C 60.742188 49.644531 60.144531 50.992188 59.019531 52.039062 C 56.476562 54.285156 45.019531 57.65625 42.097656 57.355469 C 41.050781 57.207031 40.527344 56.757812 40.078125 56.234375 C 39.628906 55.632812 39.179688 54.734375 39.328125 53.988281 C 39.402344 53.011719 40.300781 51.589844 41.5 50.992188 C 43.445312 49.941406 49.210938 49.867188 51.007812 50.765625 C 51.980469 51.214844 52.507812 52.339844 52.65625 53.164062 C 52.804688 53.835938 52.730469 54.511719 52.132812 55.335938 C 50.558594 57.429688 41.050781 62.222656 38.429688 62.746094 C 37.457031 62.898438 36.855469 62.820312 36.257812 62.449219 C 35.660156 62 34.761719 60.875 34.761719 60.050781 C 34.683594 59.152344 35.210938 58.03125 36.40625 57.054688 C 39.851562 54.359375 58.644531 49.042969 62.988281 49.867188 C 64.5625 50.167969 65.609375 51.066406 65.910156 52.039062 C 66.207031 53.011719 65.984375 54.660156 64.9375 55.558594 C 62.765625 57.582031 50.558594 60.277344 49.136719 58.777344 C 48.3125 57.878906 49.359375 54.585938 50.710938 53.386719 C 52.429688 51.816406 58.046875 50.992188 59.992188 51.664062 C 61.191406 52.039062 61.941406 53.164062 62.242188 54.0625 C 62.539062 54.886719 62.316406 55.933594 62.015625 56.605469 C 61.789062 57.207031 61.566406 57.503906 60.96875 57.953125 C 59.84375 58.703125 56.550781 60.203125 55.277344 59.828125 C 54.378906 59.453125 53.554688 58.03125 53.480469 57.054688 C 53.328125 56.15625 53.929688 54.660156 54.601562 53.988281 C 55.203125 53.460938 55.949219 53.089844 57 53.164062 C 58.644531 53.164062 62.613281 54.960938 63.960938 56.082031 C 64.710938 56.757812 65.085938 57.429688 65.234375 58.179688 C 65.386719 58.929688 65.234375 59.902344 64.859375 60.574219 C 64.488281 61.25 63.738281 61.921875 62.988281 62.148438 C 62.242188 62.371094 60.519531 62.074219 60.519531 62.074219 " clip-rule="nonzero"/></clipPath><clipPath id="67acb0f7a8"><path d="M 0.164062 0.328125 L 49.207031 0.328125 L 49.207031 55.980469 L 0.164062 55.980469 Z M 0.164062 0.328125 " clip-rule="nonzero"/></clipPath><clipPath id="ae81879a79"><path d="M 43.519531 55.074219 C 36.855469 51.628906 36.554688 50.804688 36.480469 50.054688 C 36.328125 49.53125 36.40625 48.933594 36.628906 48.410156 C 36.929688 47.734375 37.601562 46.835938 38.351562 46.539062 C 39.175781 46.164062 41.570312 46.460938 41.570312 46.539062 C 41.570312 46.613281 37.675781 47.285156 37.527344 46.988281 C 37.453125 46.6875 38.875 45.5625 39.699219 45.1875 C 40.671875 44.738281 42.09375 44.367188 42.992188 44.664062 C 43.96875 44.964844 44.941406 46.3125 45.242188 47.0625 C 45.539062 47.660156 45.464844 48.257812 45.316406 48.785156 C 45.089844 49.53125 44.789062 50.355469 43.96875 50.953125 C 42.320312 52.078125 37.976562 53.277344 35.058594 53.351562 C 32.210938 53.351562 27.34375 52.675781 26.671875 51.179688 C 26.070312 50.054688 27.269531 47.660156 28.84375 46.460938 C 31.6875 44.140625 42.695312 42.121094 45.988281 42.867188 C 47.488281 43.167969 48.460938 44.214844 48.910156 45.039062 C 49.207031 45.714844 49.132812 46.6875 48.835938 47.359375 C 48.535156 48.035156 48.234375 48.410156 47.261719 49.007812 C 43.890625 50.953125 25.246094 55.523438 21.429688 55.746094 C 20.304688 55.746094 19.855469 55.820312 19.257812 55.449219 C 18.660156 55 17.835938 53.875 17.761719 53.050781 C 17.683594 52.226562 17.984375 51.40625 18.808594 50.503906 C 20.679688 48.410156 29.214844 43.992188 31.761719 43.46875 C 32.808594 43.316406 33.410156 43.390625 34.007812 43.765625 C 34.609375 44.066406 35.28125 44.738281 35.507812 45.414062 C 35.730469 46.089844 35.730469 46.988281 35.507812 47.660156 C 35.28125 48.335938 34.832031 48.933594 34.007812 49.308594 C 32.285156 50.207031 26.222656 50.953125 24.347656 50.132812 C 23.300781 49.683594 22.628906 48.632812 22.402344 47.808594 C 22.179688 47.0625 22.179688 46.164062 22.703125 45.488281 C 23.601562 44.214844 26.59375 43.242188 29.066406 42.269531 C 32.359375 40.996094 38.5 38.375 40.898438 39.050781 C 42.246094 39.347656 43.292969 40.773438 43.519531 41.671875 C 43.742188 42.417969 43.519531 43.316406 43.144531 43.917969 C 42.769531 44.589844 42.320312 44.890625 41.273438 45.339844 C 37.453125 47.0625 16.414062 50.355469 12.367188 50.355469 C 11.320312 50.28125 10.871094 50.28125 10.347656 49.90625 C 9.824219 49.53125 9.222656 48.933594 9.074219 48.257812 C 8.925781 47.511719 9.074219 46.539062 9.597656 45.640625 C 10.496094 44.214844 12.96875 42.417969 15.0625 41.222656 C 17.160156 40.023438 19.558594 39.421875 22.328125 38.523438 C 25.773438 37.476562 31.761719 35.15625 34.160156 35.457031 C 35.28125 35.53125 36.105469 35.980469 36.480469 36.652344 C 36.929688 37.402344 36.929688 39.125 36.480469 39.875 C 36.179688 40.472656 35.65625 40.695312 34.832031 41.070312 C 33.335938 41.671875 30.039062 41.894531 27.34375 42.195312 C 24.273438 42.492188 19.40625 42.941406 17.3125 42.570312 C 16.414062 42.417969 15.8125 42.269531 15.363281 41.894531 C 14.839844 41.445312 14.390625 40.695312 14.316406 40.023438 C 14.316406 39.125 14.839844 37.925781 15.886719 36.953125 C 18.058594 35.007812 25.773438 33.507812 29.367188 31.9375 C 31.835938 30.8125 33.710938 28.792969 35.429688 28.640625 C 36.703125 28.566406 38.203125 29.089844 38.726562 29.914062 C 39.324219 30.738281 39.101562 32.683594 38.726562 33.433594 C 38.5 33.957031 38.203125 34.183594 37.601562 34.40625 C 36.179688 35.007812 31.164062 35.53125 29.367188 35.15625 C 28.394531 34.929688 27.792969 34.558594 27.34375 34.03125 C 26.894531 33.507812 26.59375 32.609375 26.59375 31.859375 C 26.59375 31.1875 26.820312 30.589844 27.417969 29.765625 C 28.992188 27.667969 38.726562 21.304688 38.5 20.929688 C 38.277344 20.628906 33.335938 23.925781 31.164062 24.671875 C 29.441406 25.121094 27.945312 25.195312 26.445312 25.273438 C 25.246094 25.347656 23.898438 25.644531 22.925781 25.195312 C 22.101562 24.824219 21.203125 23.925781 21.054688 23.101562 C 20.828125 22.277344 21.054688 21.226562 21.652344 20.253906 C 22.703125 18.757812 26.070312 17.035156 28.242188 15.835938 C 30.113281 14.789062 32.285156 13.589844 33.710938 13.367188 C 34.609375 13.292969 35.355469 13.367188 35.957031 13.816406 C 36.703125 14.339844 37.527344 15.539062 37.527344 16.4375 C 37.601562 17.335938 37.152344 18.382812 36.253906 19.132812 C 34.757812 20.554688 31.011719 21.226562 27.269531 22.277344 C 21.355469 24 7.425781 27.519531 3.90625 27.667969 C 2.859375 27.742188 2.410156 27.742188 1.8125 27.367188 C 1.210938 26.992188 0.464844 25.945312 0.386719 25.121094 C 0.3125 24.296875 0.613281 23.476562 1.363281 22.652344 C 3.007812 20.929688 7.578125 19.207031 11.769531 17.632812 C 17.761719 15.386719 30.265625 11.644531 34.308594 11.34375 C 35.730469 11.269531 36.554688 11.195312 37.226562 11.71875 C 37.976562 12.242188 38.652344 13.742188 38.652344 14.5625 C 38.574219 15.238281 38.203125 15.761719 37.675781 16.285156 C 36.777344 17.109375 35.207031 17.632812 33.335938 18.308594 C 30.339844 19.355469 23.675781 21.675781 21.203125 21.378906 C 20.007812 21.226562 19.183594 20.777344 18.808594 20.03125 C 18.285156 19.207031 18.285156 17.558594 18.882812 16.660156 C 19.632812 15.460938 21.726562 14.9375 23.976562 14.039062 C 27.71875 12.617188 36.777344 9.847656 39.625 9.621094 C 40.597656 9.546875 41.121094 9.546875 41.722656 9.921875 C 42.320312 10.222656 42.917969 10.894531 43.144531 11.496094 C 43.367188 12.167969 43.367188 13.066406 43.144531 13.664062 C 42.917969 14.265625 42.542969 14.789062 41.722656 15.238281 C 39.398438 16.4375 30.339844 17.710938 26.746094 16.886719 C 24.425781 16.359375 21.726562 15.011719 21.503906 13.589844 C 21.203125 12.019531 23.527344 9.695312 25.695312 7.898438 C 28.917969 5.128906 37.601562 0.113281 40.597656 0.335938 C 42.019531 0.414062 43.070312 1.535156 43.519531 2.285156 C 43.816406 2.957031 43.742188 3.855469 43.519531 4.53125 C 43.292969 5.128906 42.917969 5.578125 42.09375 6.179688 C 39.625 7.675781 28.316406 10.820312 25.472656 10.746094 C 24.425781 10.671875 23.898438 10.445312 23.375 9.996094 C 22.851562 9.546875 22.402344 8.796875 22.328125 8.125 C 22.179688 7.449219 22.402344 6.550781 22.777344 5.953125 C 23.152344 5.429688 23.675781 4.980469 24.5 4.679688 C 26.445312 4.082031 31.988281 3.332031 34.234375 4.457031 C 36.03125 5.355469 37.601562 7.675781 37.753906 9.398438 C 37.902344 11.046875 36.554688 12.691406 35.355469 14.640625 C 33.710938 17.335938 27.121094 22.277344 27.867188 23.699219 C 28.84375 25.421875 42.621094 21.003906 45.242188 21.753906 C 46.214844 22.050781 46.589844 22.5 46.886719 23.175781 C 47.261719 23.847656 47.410156 25.046875 46.960938 25.945312 C 46.363281 27.367188 44.417969 28.34375 42.019531 29.914062 C 36.703125 33.285156 19.03125 42.792969 15.140625 43.542969 C 14.089844 43.691406 13.640625 43.617188 13.117188 43.390625 C 12.519531 43.09375 11.917969 42.492188 11.695312 41.894531 C 11.46875 41.296875 11.394531 40.472656 11.621094 39.875 C 11.84375 39.273438 12.21875 38.601562 12.894531 38.300781 C 14.089844 37.703125 17.683594 37.777344 18.808594 38.375 C 19.480469 38.75 19.855469 39.421875 20.007812 40.097656 C 20.082031 40.847656 20.007812 41.820312 19.257812 42.792969 C 17.761719 44.738281 10.195312 48.707031 7.800781 49.234375 C 6.828125 49.457031 6.230469 49.308594 5.554688 49.007812 C 4.957031 48.707031 4.28125 48.109375 4.058594 47.359375 C 3.832031 46.460938 4.058594 45.039062 4.882812 43.917969 C 6.304688 41.96875 11.246094 40.695312 14.390625 38.601562 C 17.835938 36.277344 22.925781 32.757812 24.574219 30.363281 C 25.472656 29.089844 26.222656 27.667969 25.773438 26.84375 C 25.171875 25.722656 20.378906 26.46875 19.109375 25.496094 C 18.359375 24.824219 17.984375 23.625 17.984375 22.726562 C 18.058594 22.050781 18.433594 21.226562 18.957031 20.777344 C 19.632812 20.253906 20.679688 20.480469 21.804688 19.957031 C 23.976562 19.058594 28.09375 16.511719 30.714844 14.640625 C 33.035156 13.066406 35.058594 9.996094 36.855469 9.695312 C 38.050781 9.472656 39.550781 10.144531 40.074219 10.894531 C 40.597656 11.71875 40.746094 13.589844 40.074219 14.414062 C 39.175781 15.460938 35.355469 15.761719 33.859375 15.6875 C 33.109375 15.613281 32.511719 15.386719 32.0625 15.011719 C 31.539062 14.640625 31.089844 13.964844 30.9375 13.367188 C 30.789062 12.765625 30.789062 12.019531 31.089844 11.417969 C 31.460938 10.746094 32.4375 9.773438 33.257812 9.621094 C 34.082031 9.472656 35.429688 9.847656 36.03125 10.445312 C 36.628906 10.96875 37.078125 12.316406 36.929688 13.140625 C 36.777344 13.964844 35.957031 15.089844 35.132812 15.386719 C 34.382812 15.761719 33.035156 15.539062 32.285156 15.238281 C 31.6875 14.9375 31.3125 14.265625 31.089844 13.742188 C 30.863281 13.140625 30.714844 12.394531 30.9375 11.71875 C 31.238281 11.046875 32.210938 9.921875 32.960938 9.695312 C 33.710938 9.472656 34.683594 10.371094 35.582031 10.371094 C 36.480469 10.371094 37.527344 9.546875 38.277344 9.695312 C 39.023438 9.847656 39.699219 10.296875 40.074219 10.894531 C 40.523438 11.644531 40.746094 12.84375 40.449219 13.742188 C 40.074219 14.9375 38.726562 15.988281 37.304688 17.183594 C 35.132812 18.980469 31.089844 21.453125 28.167969 23.027344 C 25.546875 24.375 22.101562 26.320312 20.457031 26.09375 C 19.632812 26.019531 19.03125 25.496094 18.582031 24.898438 C 18.210938 24.375 17.984375 23.476562 17.984375 22.726562 C 18.058594 22.050781 18.507812 21.226562 18.957031 20.777344 C 19.480469 20.253906 20.15625 19.957031 21.054688 19.878906 C 22.777344 19.804688 26.894531 21.078125 28.617188 22.277344 C 29.816406 23.101562 30.640625 24.148438 31.089844 25.347656 C 31.460938 26.621094 31.460938 28.265625 31.089844 29.691406 C 30.714844 31.261719 29.664062 32.835938 28.542969 34.257812 C 27.269531 35.90625 25.773438 37.253906 23.675781 38.972656 C 20.679688 41.519531 15.0625 45.789062 11.695312 47.4375 C 9.671875 48.484375 7.578125 49.457031 6.304688 49.234375 C 5.480469 49.15625 4.882812 48.558594 4.429688 48.035156 C 4.058594 47.4375 3.757812 46.613281 3.90625 45.863281 C 3.980469 45.113281 4.507812 44.289062 5.480469 43.46875 C 7.425781 41.746094 14.242188 37.777344 16.785156 37.851562 C 18.132812 37.851562 19.257812 38.75 19.707031 39.421875 C 20.15625 40.023438 20.15625 40.921875 19.929688 41.519531 C 19.78125 42.121094 19.40625 42.867188 18.734375 43.242188 C 17.835938 43.765625 15.589844 43.765625 14.464844 43.617188 C 13.640625 43.542969 12.96875 43.46875 12.519531 43.019531 C 11.996094 42.492188 11.46875 41.296875 11.46875 40.546875 C 11.46875 39.875 11.621094 39.421875 12.367188 38.675781 C 15.363281 35.53125 38.800781 21.753906 43.816406 21.601562 C 45.390625 21.601562 46.4375 22.351562 46.886719 23.175781 C 47.335938 24 47.039062 25.871094 46.589844 26.621094 C 46.214844 27.144531 45.691406 27.292969 44.714844 27.59375 C 42.171875 28.417969 33.785156 29.539062 29.816406 29.390625 C 27.195312 29.316406 24.722656 29.164062 23.226562 28.191406 C 22.179688 27.519531 21.429688 26.320312 21.277344 25.121094 C 21.054688 23.625 22.101562 21.675781 23.152344 19.730469 C 24.574219 16.960938 30.265625 11.34375 29.589844 10.296875 C 29.214844 9.695312 26.59375 10.894531 25.472656 10.746094 C 24.648438 10.671875 23.898438 10.519531 23.375 9.996094 C 22.777344 9.472656 22.253906 8.199219 22.328125 7.375 C 22.328125 6.703125 22.476562 6.027344 23.226562 5.429688 C 25.398438 3.632812 36.929688 0.636719 39.847656 0.414062 C 40.972656 0.335938 41.496094 0.261719 42.09375 0.636719 C 42.84375 1.160156 43.742188 2.808594 43.667969 3.78125 C 43.667969 4.605469 42.992188 5.28125 42.09375 6.179688 C 39.925781 8.050781 32.0625 13.292969 29.441406 13.066406 C 28.09375 12.917969 26.445312 11.34375 26.59375 10.746094 C 26.96875 9.621094 38.425781 8.574219 41.046875 9.621094 C 42.320312 10.144531 43.21875 11.269531 43.292969 12.242188 C 43.441406 13.140625 42.84375 14.339844 41.722656 15.238281 C 38.875 17.632812 25.171875 21.078125 21.953125 21.304688 C 20.90625 21.378906 20.378906 21.378906 19.855469 21.003906 C 19.183594 20.554688 18.359375 19.507812 18.285156 18.683594 C 18.285156 17.785156 18.808594 16.585938 19.929688 15.6875 C 22.402344 13.816406 32.585938 11.570312 35.28125 11.417969 C 36.253906 11.34375 36.703125 11.34375 37.226562 11.71875 C 37.753906 12.019531 38.351562 12.617188 38.5 13.214844 C 38.726562 13.816406 38.652344 14.640625 38.425781 15.164062 C 38.203125 15.761719 37.902344 16.210938 37.078125 16.660156 C 34.980469 17.785156 27.71875 18.308594 23.601562 19.429688 C 20.082031 20.40625 17.085938 21.453125 13.867188 22.800781 C 10.496094 24.148438 6.003906 27.367188 3.90625 27.667969 C 3.007812 27.816406 2.410156 27.742188 1.8125 27.367188 C 1.210938 26.992188 0.464844 25.871094 0.386719 25.121094 C 0.238281 24.449219 0.539062 23.625 0.914062 23.101562 C 1.285156 22.578125 1.660156 22.425781 2.632812 21.976562 C 5.855469 20.628906 19.632812 18.160156 25.324219 16.4375 C 28.84375 15.386719 31.761719 13.515625 33.710938 13.367188 C 34.683594 13.292969 35.355469 13.367188 35.957031 13.816406 C 36.703125 14.339844 37.527344 15.539062 37.527344 16.4375 C 37.601562 17.335938 37.152344 18.308594 36.253906 19.132812 C 34.683594 20.703125 28.992188 21.527344 26.894531 22.875 C 25.695312 23.699219 25.324219 25.121094 24.425781 25.421875 C 23.75 25.570312 22.851562 25.273438 22.328125 24.898438 C 21.726562 24.523438 21.203125 23.773438 21.054688 23.101562 C 20.828125 22.425781 20.980469 21.527344 21.277344 20.929688 C 21.578125 20.253906 22.027344 19.878906 22.925781 19.429688 C 25.171875 18.382812 32.734375 17.183594 36.703125 17.484375 C 39.847656 17.785156 44.191406 18.457031 44.941406 20.03125 C 45.539062 21.453125 43.890625 23.925781 42.394531 25.945312 C 40 28.941406 32.960938 35.007812 30.113281 35.15625 C 28.765625 35.304688 27.417969 34.257812 26.894531 33.359375 C 26.445312 32.609375 26.59375 31.1875 26.96875 30.363281 C 27.417969 29.613281 28.394531 29.089844 29.515625 28.714844 C 31.3125 28.191406 35.28125 28.042969 36.929688 28.640625 C 37.976562 29.015625 38.800781 29.765625 39.101562 30.589844 C 39.398438 31.410156 39.25 32.609375 38.726562 33.433594 C 38.125 34.480469 36.855469 35.007812 35.132812 35.90625 C 31.539062 37.777344 20.304688 42.570312 17.3125 42.570312 C 16.335938 42.570312 15.8125 42.269531 15.363281 41.894531 C 14.839844 41.445312 14.464844 40.621094 14.316406 40.023438 C 14.242188 39.347656 14.464844 38.449219 14.839844 37.925781 C 15.214844 37.402344 15.589844 37.027344 16.5625 36.726562 C 19.332031 35.753906 31.089844 34.78125 34.160156 35.457031 C 35.355469 35.679688 36.105469 35.980469 36.480469 36.652344 C 36.929688 37.402344 37.226562 38.898438 36.480469 39.875 C 34.757812 42.417969 22.179688 44.066406 17.910156 46.3125 C 15.363281 47.585938 13.792969 49.980469 12.367188 50.355469 C 11.546875 50.503906 10.871094 50.28125 10.347656 49.90625 C 9.824219 49.53125 9.296875 48.859375 9.074219 48.257812 C 8.925781 47.660156 8.925781 46.761719 9.222656 46.238281 C 9.597656 45.5625 10.195312 45.113281 11.394531 44.589844 C 15.511719 42.792969 36.554688 37.625 40.898438 39.050781 C 42.46875 39.5 43.367188 40.621094 43.519531 41.671875 C 43.742188 42.644531 43.144531 43.992188 42.019531 45.039062 C 39.476562 47.285156 28.019531 50.65625 25.097656 50.355469 C 24.050781 50.207031 23.527344 49.757812 23.078125 49.234375 C 22.628906 48.632812 22.179688 47.734375 22.328125 46.988281 C 22.402344 46.011719 23.300781 44.589844 24.5 43.992188 C 26.445312 42.941406 32.210938 42.867188 34.007812 43.765625 C 34.980469 44.214844 35.507812 45.339844 35.65625 46.164062 C 35.804688 46.835938 35.730469 47.511719 35.132812 48.335938 C 33.558594 50.429688 24.050781 55.222656 21.429688 55.746094 C 20.457031 55.898438 19.855469 55.820312 19.257812 55.449219 C 18.660156 55 17.761719 53.875 17.761719 53.050781 C 17.683594 52.152344 18.210938 51.03125 19.40625 50.054688 C 22.851562 47.359375 41.644531 42.042969 45.988281 42.867188 C 47.5625 43.167969 48.609375 44.066406 48.910156 45.039062 C 49.207031 46.011719 48.984375 47.660156 47.9375 48.558594 C 45.765625 50.582031 33.558594 53.277344 32.136719 51.777344 C 31.3125 50.878906 32.359375 47.585938 33.710938 46.386719 C 35.429688 44.816406 41.046875 43.992188 42.992188 44.664062 C 44.191406 45.039062 44.941406 46.164062 45.242188 47.0625 C 45.539062 47.886719 45.316406 48.933594 45.015625 49.605469 C 44.789062 50.207031 44.566406 50.503906 43.96875 50.953125 C 42.84375 51.703125 39.550781 53.203125 38.277344 52.828125 C 37.378906 52.453125 36.554688 51.03125 36.480469 50.054688 C 36.328125 49.15625 36.929688 47.660156 37.601562 46.988281 C 38.203125 46.460938 38.949219 46.089844 40 46.164062 C 41.644531 46.164062 45.613281 47.960938 46.960938 49.082031 C 47.710938 49.757812 48.085938 50.429688 48.234375 51.179688 C 48.386719 51.929688 48.234375 52.902344 47.859375 53.574219 C 47.488281 54.25 46.738281 54.921875 45.988281 55.148438 C 45.242188 55.371094 43.519531 55.074219 43.519531 55.074219 " clip-rule="nonzero"/></clipPath><clipPath id="0546bc75b0"><rect x="0" width="50" y="0" height="56"/></clipPath><clipPath id="b2c6fb2a0a"><path d="M 2.859375 2.726562 L 53.96875 2.726562 L 53.96875 46.210938 L 2.859375 46.210938 Z M 2.859375 2.726562 " clip-rule="nonzero"/></clipPath><clipPath id="b24b16b229"><path d="M 41.78125 41.390625 C 45.078125 32.332031 32.496094 40.042969 29.054688 39.820312 C 27.480469 39.667969 26.28125 38.996094 25.757812 38.171875 C 25.308594 37.421875 25.382812 35.925781 25.757812 35.175781 C 26.058594 34.503906 26.433594 34.054688 27.40625 33.605469 C 30.324219 32.332031 44.402344 31.808594 47.699219 32.179688 C 48.746094 32.257812 49.269531 32.40625 49.792969 32.78125 C 50.394531 33.230469 50.84375 34.054688 50.992188 34.726562 C 51.140625 35.402344 50.917969 36.300781 50.617188 36.898438 C 50.242188 37.496094 49.867188 37.796875 48.820312 38.320312 C 45.078125 40.117188 23.8125 44.6875 19.320312 44.535156 C 17.972656 44.460938 17.296875 44.3125 16.773438 43.789062 C 16.171875 43.261719 15.722656 42.066406 15.875 41.242188 C 16.023438 40.492188 16.472656 39.96875 17.445312 39.144531 C 20.890625 36.300781 39.085938 29.558594 44.550781 26.265625 C 47.25 24.695312 48.671875 22.597656 50.09375 22.148438 C 50.84375 21.921875 51.515625 21.996094 52.039062 22.222656 C 52.640625 22.523438 53.3125 23.046875 53.539062 23.644531 C 53.761719 24.394531 53.835938 25.964844 53.015625 26.789062 C 51.066406 28.660156 39.835938 28.886719 36.617188 28.660156 C 35.269531 28.585938 34.445312 28.4375 33.695312 27.988281 C 33.097656 27.539062 32.570312 26.941406 32.496094 26.191406 C 32.421875 25.292969 32.796875 24.167969 33.695312 22.972656 C 35.640625 20.425781 43.730469 14.210938 46.800781 13.613281 C 48.222656 13.3125 49.570312 13.761719 50.242188 14.359375 C 50.84375 14.882812 51.066406 15.78125 51.066406 16.457031 C 51.140625 17.128906 51.066406 18.027344 50.316406 18.554688 C 48.597656 19.902344 38.9375 19.828125 36.464844 19.226562 C 35.417969 19.003906 34.894531 18.628906 34.445312 18.027344 C 33.996094 17.429688 33.695312 16.53125 33.769531 15.78125 C 33.769531 15.109375 33.996094 14.511719 34.667969 13.6875 C 36.316406 11.738281 43.578125 6.871094 45.976562 5.824219 C 46.949219 5.300781 47.546875 5.148438 48.222656 5.226562 C 48.820312 5.226562 49.269531 5.375 49.71875 5.75 C 50.316406 6.273438 51.214844 7.546875 51.214844 8.445312 C 51.214844 9.34375 50.917969 10.464844 49.792969 11.214844 C 47.097656 13.164062 32.796875 14.511719 29.578125 13.984375 C 28.527344 13.761719 28.078125 13.460938 27.628906 12.9375 C 27.105469 12.261719 26.582031 11.066406 26.882812 10.09375 C 27.40625 8.519531 31.375 4.777344 32.421875 5.148438 C 33.171875 5.375 33.769531 8.746094 33.171875 9.644531 C 32.570312 10.542969 30.625 10.464844 28.828125 10.691406 C 26.132812 11.140625 20.742188 11.664062 18.570312 11.363281 C 17.523438 11.214844 16.847656 10.992188 16.324219 10.542969 C 15.722656 10.09375 15.199219 9.269531 15.125 8.445312 C 15.050781 7.621094 15.574219 6.125 16.171875 5.523438 C 16.699219 4.925781 18.34375 4.550781 18.34375 4.625 C 18.421875 4.699219 15.574219 6.648438 15.425781 6.496094 C 15.351562 6.421875 16.324219 5 16.921875 4.476562 C 17.523438 4.027344 18.421875 3.652344 19.167969 3.652344 C 19.917969 3.578125 20.890625 4.027344 21.414062 4.402344 C 21.863281 4.777344 22.164062 5.226562 22.386719 5.75 C 22.613281 6.421875 22.613281 7.472656 22.386719 8.144531 C 22.238281 8.667969 22.015625 9.042969 21.488281 9.492188 C 20.589844 10.242188 18.644531 10.914062 16.921875 11.589844 C 14.75 12.414062 9.585938 14.136719 9.507812 13.910156 C 9.433594 13.761719 12.207031 11.515625 13.402344 11.738281 C 14.824219 12.113281 17.371094 15.183594 17.371094 17.28125 C 17.296875 19.976562 9.359375 25.066406 10.109375 26.640625 C 10.855469 28.210938 17.894531 27.164062 21.117188 27.089844 C 23.660156 27.015625 26.355469 25.667969 27.929688 26.339844 C 28.976562 26.863281 29.875 28.363281 30.027344 29.335938 C 30.101562 30.007812 29.726562 30.910156 29.277344 31.433594 C 28.828125 31.957031 28.304688 32.179688 27.253906 32.554688 C 24.410156 33.453125 13.402344 35.101562 10.332031 34.425781 C 9.058594 34.203125 8.238281 33.679688 7.863281 32.929688 C 7.414062 32.179688 7.339844 30.757812 7.636719 30.007812 C 7.9375 29.261719 8.386719 28.886719 9.285156 28.363281 C 11.605469 27.015625 20.140625 25.816406 23.738281 24.394531 C 25.984375 23.496094 27.554688 21.847656 29.054688 21.472656 C 30.175781 21.25 31.300781 21.175781 31.972656 21.699219 C 32.722656 22.296875 33.46875 24.019531 33.394531 24.917969 C 33.246094 25.816406 32.722656 26.789062 31.523438 27.164062 C 28.378906 28.289062 14.003906 24.394531 9.808594 22.148438 C 7.710938 20.949219 5.992188 19.828125 5.914062 18.179688 C 5.691406 16.15625 8.460938 12.9375 11.082031 10.765625 C 14.824219 7.621094 24.1875 3.578125 27.628906 3.128906 C 29.054688 2.980469 30.175781 3.128906 30.773438 3.726562 C 31.375 4.25 31.671875 5.523438 31.597656 6.273438 C 31.523438 6.945312 31.222656 7.398438 30.550781 8.070312 C 28.453125 10.015625 18.496094 15.707031 15.199219 16.308594 C 13.703125 16.53125 12.578125 16.382812 11.90625 15.78125 C 11.230469 15.109375 10.933594 13.3125 11.230469 12.488281 C 11.382812 11.8125 11.980469 11.214844 12.65625 10.992188 C 13.554688 10.691406 15.425781 11.066406 16.546875 11.589844 C 17.671875 12.113281 18.269531 13.011719 19.242188 14.0625 C 20.742188 15.558594 23.660156 18.105469 24.1875 19.828125 C 24.484375 20.875 24.335938 22.074219 23.960938 22.746094 C 23.585938 23.34375 22.988281 23.792969 22.386719 24.019531 C 21.566406 24.242188 20.140625 24.09375 19.46875 23.644531 C 18.792969 23.121094 18.121094 21.847656 18.195312 20.949219 C 18.195312 20.125 18.945312 18.929688 19.617188 18.402344 C 20.140625 18.027344 20.890625 17.878906 21.566406 17.953125 C 22.164062 18.027344 22.914062 18.328125 23.363281 18.703125 C 23.886719 19.152344 24.261719 19.828125 24.410156 20.5 C 24.484375 21.097656 24.484375 21.921875 24.109375 22.445312 C 23.660156 23.195312 22.539062 24.019531 21.714844 24.167969 C 21.039062 24.320312 20.441406 24.167969 19.769531 23.792969 C 18.644531 23.195312 16.996094 21.398438 16.25 20.050781 C 15.574219 18.851562 15.875 16.757812 15.199219 16.308594 C 14.675781 15.933594 13.703125 16.679688 13.105469 16.457031 C 12.503906 16.308594 11.757812 15.859375 11.457031 15.257812 C 11.082031 14.585938 10.933594 13.238281 11.15625 12.488281 C 11.382812 11.890625 11.832031 11.589844 12.65625 10.992188 C 14.976562 9.269531 24.859375 3.878906 27.628906 3.128906 C 28.527344 2.902344 29.054688 2.828125 29.652344 3.054688 C 30.25 3.203125 30.925781 3.726562 31.222656 4.328125 C 31.523438 4.851562 31.671875 5.675781 31.597656 6.273438 C 31.449219 6.945312 31.222656 7.398438 30.550781 8.070312 C 28.378906 9.941406 18.121094 14.359375 14.75 15.558594 C 13.179688 16.15625 11.230469 16.082031 11.304688 16.457031 C 11.304688 17.128906 21.9375 17.953125 25.085938 19.152344 C 26.882812 19.828125 27.929688 21.175781 29.054688 21.472656 C 29.875 21.699219 30.625 21.097656 31.300781 21.398438 C 32.046875 21.699219 33.097656 22.671875 33.320312 23.496094 C 33.546875 24.242188 33.394531 25.441406 32.722656 26.265625 C 31.671875 27.761719 28.527344 28.960938 25.683594 30.160156 C 21.714844 31.808594 14.078125 34.425781 11.082031 34.425781 C 9.808594 34.425781 8.910156 34.128906 8.3125 33.527344 C 7.710938 32.929688 7.1875 31.582031 7.414062 30.683594 C 7.636719 29.785156 8.609375 28.8125 10.035156 28.136719 C 13.105469 26.714844 24.035156 25.441406 27.179688 26.191406 C 28.453125 26.492188 29.203125 27.089844 29.652344 27.839844 C 30.027344 28.4375 30.101562 29.410156 29.953125 30.085938 C 29.800781 30.757812 29.277344 31.507812 28.679688 31.957031 C 27.929688 32.480469 26.957031 32.554688 25.609375 32.78125 C 23.0625 33.230469 17.894531 33.828125 14.675781 33.679688 C 11.980469 33.527344 9.210938 33.304688 7.339844 32.257812 C 5.914062 31.433594 4.640625 30.085938 4.117188 28.660156 C 3.519531 27.3125 3.519531 25.515625 3.820312 24.09375 C 4.117188 22.746094 4.792969 21.699219 5.765625 20.425781 C 6.964844 18.703125 10.035156 14.808594 11.007812 15.035156 C 11.679688 15.257812 12.355469 18.027344 11.90625 18.476562 C 11.15625 19.152344 6.589844 17.503906 5.089844 16.15625 C 3.894531 15.109375 2.769531 13.3125 2.996094 11.964844 C 3.292969 10.390625 5.617188 8.820312 7.710938 7.546875 C 10.558594 5.824219 16.847656 3.578125 19.167969 3.652344 C 20.21875 3.652344 20.890625 3.878906 21.414062 4.402344 C 22.089844 5.074219 22.613281 6.496094 22.613281 7.320312 C 22.539062 8.144531 21.566406 9.492188 21.488281 9.492188 C 21.414062 9.492188 21.789062 8.746094 21.640625 8.667969 C 21.339844 8.445312 18.792969 11.214844 17.746094 11.289062 C 16.996094 11.289062 16.171875 10.542969 15.722656 9.941406 C 15.273438 9.34375 15.050781 8.371094 15.125 7.621094 C 15.125 7.097656 15.273438 6.574219 15.648438 6.125 C 16.023438 5.597656 16.546875 5.074219 17.523438 4.699219 C 20.066406 3.800781 28.527344 3.128906 32.121094 3.878906 C 34.445312 4.402344 37.066406 5.375 37.4375 6.648438 C 37.738281 7.847656 35.867188 10.167969 34.59375 11.363281 C 33.246094 12.5625 30.851562 13.984375 29.578125 13.984375 C 28.753906 13.910156 28.078125 13.460938 27.628906 12.9375 C 27.105469 12.414062 26.730469 11.589844 26.804688 10.839844 C 26.882812 9.867188 27.554688 8.667969 28.828125 7.847656 C 31.824219 6.046875 44.253906 5.074219 47.472656 5.226562 C 48.597656 5.226562 49.121094 5.300781 49.71875 5.75 C 50.316406 6.125 50.917969 6.945312 51.140625 7.695312 C 51.292969 8.371094 51.292969 9.195312 50.84375 10.015625 C 50.019531 11.515625 46.949219 13.535156 44.703125 15.109375 C 42.382812 16.679688 39.011719 19.078125 37.214844 19.300781 C 36.316406 19.378906 35.566406 19.078125 34.96875 18.554688 C 34.367188 18.027344 33.769531 16.679688 33.769531 15.78125 C 33.695312 15.035156 34.144531 14.210938 34.667969 13.6875 C 35.191406 13.164062 35.941406 12.9375 36.765625 12.710938 C 37.886719 12.488281 39.3125 12.414062 40.734375 12.5625 C 42.382812 12.710938 44.703125 13.984375 46.125 13.984375 C 47.023438 13.984375 47.546875 13.238281 48.296875 13.386719 C 49.195312 13.613281 50.691406 14.808594 50.992188 15.707031 C 51.292969 16.53125 51.066406 17.503906 50.316406 18.554688 C 48.597656 21.175781 38.488281 27.988281 35.792969 28.4375 C 34.820312 28.660156 34.292969 28.363281 33.695312 27.988281 C 33.171875 27.613281 32.648438 26.863281 32.496094 26.191406 C 32.347656 25.59375 32.421875 24.695312 32.722656 24.09375 C 33.097656 23.496094 33.46875 23.046875 34.367188 22.671875 C 36.167969 21.847656 41.035156 21.773438 44.101562 21.699219 C 46.875 21.625 50.46875 21.472656 52.039062 22.222656 C 53.015625 22.746094 53.539062 23.496094 53.761719 24.242188 C 53.914062 25.066406 53.6875 25.890625 53.015625 26.789062 C 51.292969 29.035156 44.628906 32.179688 39.609375 34.875 C 33.621094 38.097656 22.914062 44.238281 19.320312 44.535156 C 18.046875 44.609375 17.296875 44.3125 16.773438 43.789062 C 16.171875 43.261719 15.722656 42.066406 15.875 41.242188 C 16.097656 40.417969 16.773438 39.667969 18.121094 38.921875 C 22.3125 36.523438 42.980469 31.433594 47.699219 32.179688 C 49.34375 32.40625 50.242188 33.230469 50.765625 33.976562 C 51.140625 34.652344 51.140625 35.550781 50.917969 36.226562 C 50.691406 36.898438 50.46875 37.496094 49.496094 38.023438 C 46.722656 39.519531 31.824219 40.71875 28.304688 39.820312 C 26.957031 39.445312 26.207031 38.84375 25.757812 38.171875 C 25.382812 37.496094 25.234375 36.597656 25.457031 35.925781 C 25.683594 35.101562 26.28125 34.425781 27.40625 33.605469 C 30.25 31.730469 41.257812 28.363281 45 27.988281 C 46.648438 27.839844 47.621094 28.0625 48.746094 28.511719 C 49.792969 28.886719 51.066406 29.484375 51.664062 30.535156 C 52.488281 31.808594 52.789062 34.128906 52.339844 36.148438 C 51.664062 39.070312 48.445312 44.761719 46.351562 45.882812 C 45.078125 46.484375 43.429688 46.109375 42.605469 45.660156 C 41.933594 45.210938 41.558594 44.386719 41.40625 43.636719 C 41.257812 42.964844 41.78125 41.390625 41.78125 41.390625 " clip-rule="nonzero"/></clipPath><clipPath id="c845c0ea49"><path d="M 0.859375 0.726562 L 51.914062 0.726562 L 51.914062 44.210938 L 0.859375 44.210938 Z M 0.859375 0.726562 " clip-rule="nonzero"/></clipPath><clipPath id="699487f9a3"><path d="M 39.78125 39.390625 C 43.078125 30.332031 30.496094 38.042969 27.054688 37.820312 C 25.480469 37.667969 24.28125 36.996094 23.757812 36.171875 C 23.308594 35.421875 23.382812 33.925781 23.757812 33.175781 C 24.058594 32.503906 24.433594 32.054688 25.40625 31.605469 C 28.324219 30.332031 42.402344 29.808594 45.699219 30.179688 C 46.746094 30.257812 47.269531 30.40625 47.792969 30.78125 C 48.394531 31.230469 48.84375 32.054688 48.992188 32.726562 C 49.140625 33.402344 48.917969 34.300781 48.617188 34.898438 C 48.242188 35.496094 47.867188 35.796875 46.820312 36.320312 C 43.078125 38.117188 21.8125 42.6875 17.320312 42.535156 C 15.972656 42.460938 15.296875 42.3125 14.773438 41.789062 C 14.171875 41.261719 13.722656 40.066406 13.875 39.242188 C 14.023438 38.492188 14.472656 37.96875 15.445312 37.144531 C 18.890625 34.300781 37.085938 27.558594 42.550781 24.265625 C 45.25 22.695312 46.671875 20.597656 48.09375 20.148438 C 48.84375 19.921875 49.515625 19.996094 50.039062 20.222656 C 50.640625 20.523438 51.3125 21.046875 51.539062 21.644531 C 51.761719 22.394531 51.835938 23.964844 51.015625 24.789062 C 49.066406 26.660156 37.835938 26.886719 34.617188 26.660156 C 33.269531 26.585938 32.445312 26.4375 31.695312 25.988281 C 31.097656 25.539062 30.570312 24.941406 30.496094 24.191406 C 30.421875 23.292969 30.796875 22.167969 31.695312 20.972656 C 33.640625 18.425781 41.730469 12.210938 44.800781 11.613281 C 46.222656 11.3125 47.570312 11.761719 48.242188 12.359375 C 48.84375 12.882812 49.066406 13.78125 49.066406 14.457031 C 49.140625 15.128906 49.066406 16.027344 48.316406 16.554688 C 46.597656 17.902344 36.9375 17.828125 34.464844 17.226562 C 33.417969 17.003906 32.894531 16.628906 32.445312 16.027344 C 31.996094 15.429688 31.695312 14.53125 31.769531 13.78125 C 31.769531 13.109375 31.996094 12.511719 32.667969 11.6875 C 34.316406 9.738281 41.578125 4.871094 43.976562 3.824219 C 44.949219 3.300781 45.546875 3.148438 46.222656 3.226562 C 46.820312 3.226562 47.269531 3.375 47.71875 3.75 C 48.316406 4.273438 49.214844 5.546875 49.214844 6.445312 C 49.214844 7.34375 48.917969 8.464844 47.792969 9.214844 C 45.097656 11.164062 30.796875 12.511719 27.578125 11.984375 C 26.527344 11.761719 26.078125 11.460938 25.628906 10.9375 C 25.105469 10.261719 24.582031 9.066406 24.882812 8.09375 C 25.40625 6.519531 29.375 2.777344 30.421875 3.148438 C 31.171875 3.375 31.769531 6.746094 31.171875 7.644531 C 30.570312 8.542969 28.625 8.464844 26.828125 8.691406 C 24.132812 9.140625 18.742188 9.664062 16.570312 9.363281 C 15.523438 9.214844 14.847656 8.992188 14.324219 8.542969 C 13.722656 8.09375 13.199219 7.269531 13.125 6.445312 C 13.050781 5.621094 13.574219 4.125 14.171875 3.523438 C 14.699219 2.925781 16.34375 2.550781 16.34375 2.625 C 16.421875 2.699219 13.574219 4.648438 13.425781 4.496094 C 13.351562 4.421875 14.324219 3 14.921875 2.476562 C 15.523438 2.027344 16.421875 1.652344 17.167969 1.652344 C 17.917969 1.578125 18.890625 2.027344 19.414062 2.402344 C 19.863281 2.777344 20.164062 3.226562 20.386719 3.75 C 20.613281 4.421875 20.613281 5.472656 20.386719 6.144531 C 20.238281 6.667969 20.015625 7.042969 19.488281 7.492188 C 18.589844 8.242188 16.644531 8.914062 14.921875 9.589844 C 12.75 10.414062 7.585938 12.136719 7.507812 11.910156 C 7.433594 11.761719 10.207031 9.515625 11.402344 9.738281 C 12.824219 10.113281 15.371094 13.183594 15.371094 15.28125 C 15.296875 17.976562 7.359375 23.066406 8.109375 24.640625 C 8.855469 26.210938 15.894531 25.164062 19.117188 25.089844 C 21.660156 25.015625 24.355469 23.667969 25.929688 24.339844 C 26.976562 24.863281 27.875 26.363281 28.027344 27.335938 C 28.101562 28.007812 27.726562 28.910156 27.277344 29.433594 C 26.828125 29.957031 26.304688 30.179688 25.253906 30.554688 C 22.410156 31.453125 11.402344 33.101562 8.332031 32.425781 C 7.058594 32.203125 6.238281 31.679688 5.863281 30.929688 C 5.414062 30.179688 5.339844 28.757812 5.636719 28.007812 C 5.9375 27.261719 6.386719 26.886719 7.285156 26.363281 C 9.605469 25.015625 18.140625 23.816406 21.738281 22.394531 C 23.984375 21.496094 25.554688 19.847656 27.054688 19.472656 C 28.175781 19.25 29.300781 19.175781 29.972656 19.699219 C 30.722656 20.296875 31.46875 22.019531 31.394531 22.917969 C 31.246094 23.816406 30.722656 24.789062 29.523438 25.164062 C 26.378906 26.289062 12.003906 22.394531 7.808594 20.148438 C 5.710938 18.949219 3.992188 17.828125 3.914062 16.179688 C 3.691406 14.15625 6.460938 10.9375 9.082031 8.765625 C 12.824219 5.621094 22.1875 1.578125 25.628906 1.128906 C 27.054688 0.980469 28.175781 1.128906 28.773438 1.726562 C 29.375 2.25 29.671875 3.523438 29.597656 4.273438 C 29.523438 4.945312 29.222656 5.398438 28.550781 6.070312 C 26.453125 8.015625 16.496094 13.707031 13.199219 14.308594 C 11.703125 14.53125 10.578125 14.382812 9.90625 13.78125 C 9.230469 13.109375 8.933594 11.3125 9.230469 10.488281 C 9.382812 9.8125 9.980469 9.214844 10.65625 8.992188 C 11.554688 8.691406 13.425781 9.066406 14.546875 9.589844 C 15.671875 10.113281 16.269531 11.011719 17.242188 12.0625 C 18.742188 13.558594 21.660156 16.105469 22.1875 17.828125 C 22.484375 18.875 22.335938 20.074219 21.960938 20.746094 C 21.585938 21.34375 20.988281 21.792969 20.386719 22.019531 C 19.566406 22.242188 18.140625 22.09375 17.46875 21.644531 C 16.792969 21.121094 16.121094 19.847656 16.195312 18.949219 C 16.195312 18.125 16.945312 16.929688 17.617188 16.402344 C 18.140625 16.027344 18.890625 15.878906 19.566406 15.953125 C 20.164062 16.027344 20.914062 16.328125 21.363281 16.703125 C 21.886719 17.152344 22.261719 17.828125 22.410156 18.5 C 22.484375 19.097656 22.484375 19.921875 22.109375 20.445312 C 21.660156 21.195312 20.539062 22.019531 19.714844 22.167969 C 19.039062 22.320312 18.441406 22.167969 17.769531 21.792969 C 16.644531 21.195312 14.996094 19.398438 14.25 18.050781 C 13.574219 16.851562 13.875 14.757812 13.199219 14.308594 C 12.675781 13.933594 11.703125 14.679688 11.105469 14.457031 C 10.503906 14.308594 9.757812 13.859375 9.457031 13.257812 C 9.082031 12.585938 8.933594 11.238281 9.15625 10.488281 C 9.382812 9.890625 9.832031 9.589844 10.65625 8.992188 C 12.976562 7.269531 22.859375 1.878906 25.628906 1.128906 C 26.527344 0.902344 27.054688 0.828125 27.652344 1.054688 C 28.25 1.203125 28.925781 1.726562 29.222656 2.328125 C 29.523438 2.851562 29.671875 3.675781 29.597656 4.273438 C 29.449219 4.945312 29.222656 5.398438 28.550781 6.070312 C 26.378906 7.941406 16.121094 12.359375 12.75 13.558594 C 11.179688 14.15625 9.230469 14.082031 9.304688 14.457031 C 9.304688 15.128906 19.9375 15.953125 23.085938 17.152344 C 24.882812 17.828125 25.929688 19.175781 27.054688 19.472656 C 27.875 19.699219 28.625 19.097656 29.300781 19.398438 C 30.046875 19.699219 31.097656 20.671875 31.320312 21.496094 C 31.546875 22.242188 31.394531 23.441406 30.722656 24.265625 C 29.671875 25.761719 26.527344 26.960938 23.683594 28.160156 C 19.714844 29.808594 12.078125 32.425781 9.082031 32.425781 C 7.808594 32.425781 6.910156 32.128906 6.3125 31.527344 C 5.710938 30.929688 5.1875 29.582031 5.414062 28.683594 C 5.636719 27.785156 6.609375 26.8125 8.035156 26.136719 C 11.105469 24.714844 22.035156 23.441406 25.179688 24.191406 C 26.453125 24.492188 27.203125 25.089844 27.652344 25.839844 C 28.027344 26.4375 28.101562 27.410156 27.953125 28.085938 C 27.800781 28.757812 27.277344 29.507812 26.679688 29.957031 C 25.929688 30.480469 24.957031 30.554688 23.609375 30.78125 C 21.0625 31.230469 15.894531 31.828125 12.675781 31.679688 C 9.980469 31.527344 7.210938 31.304688 5.339844 30.257812 C 3.914062 29.433594 2.640625 28.085938 2.117188 26.660156 C 1.519531 25.3125 1.519531 23.515625 1.820312 22.09375 C 2.117188 20.746094 2.792969 19.699219 3.765625 18.425781 C 4.964844 16.703125 8.035156 12.808594 9.007812 13.035156 C 9.679688 13.257812 10.355469 16.027344 9.90625 16.476562 C 9.15625 17.152344 4.589844 15.503906 3.089844 14.15625 C 1.894531 13.109375 0.769531 11.3125 0.996094 9.964844 C 1.292969 8.390625 3.617188 6.820312 5.710938 5.546875 C 8.558594 3.824219 14.847656 1.578125 17.167969 1.652344 C 18.21875 1.652344 18.890625 1.878906 19.414062 2.402344 C 20.089844 3.074219 20.613281 4.496094 20.613281 5.320312 C 20.539062 6.144531 19.566406 7.492188 19.488281 7.492188 C 19.414062 7.492188 19.789062 6.746094 19.640625 6.667969 C 19.339844 6.445312 16.792969 9.214844 15.746094 9.289062 C 14.996094 9.289062 14.171875 8.542969 13.722656 7.941406 C 13.273438 7.34375 13.050781 6.371094 13.125 5.621094 C 13.125 5.097656 13.273438 4.574219 13.648438 4.125 C 14.023438 3.597656 14.546875 3.074219 15.523438 2.699219 C 18.066406 1.800781 26.527344 1.128906 30.121094 1.878906 C 32.445312 2.402344 35.066406 3.375 35.4375 4.648438 C 35.738281 5.847656 33.867188 8.167969 32.59375 9.363281 C 31.246094 10.5625 28.851562 11.984375 27.578125 11.984375 C 26.753906 11.910156 26.078125 11.460938 25.628906 10.9375 C 25.105469 10.414062 24.730469 9.589844 24.804688 8.839844 C 24.882812 7.867188 25.554688 6.667969 26.828125 5.847656 C 29.824219 4.046875 42.253906 3.074219 45.472656 3.226562 C 46.597656 3.226562 47.121094 3.300781 47.71875 3.75 C 48.316406 4.125 48.917969 4.945312 49.140625 5.695312 C 49.292969 6.371094 49.292969 7.195312 48.84375 8.015625 C 48.019531 9.515625 44.949219 11.535156 42.703125 13.109375 C 40.382812 14.679688 37.011719 17.078125 35.214844 17.300781 C 34.316406 17.378906 33.566406 17.078125 32.96875 16.554688 C 32.367188 16.027344 31.769531 14.679688 31.769531 13.78125 C 31.695312 13.035156 32.144531 12.210938 32.667969 11.6875 C 33.191406 11.164062 33.941406 10.9375 34.765625 10.710938 C 35.886719 10.488281 37.3125 10.414062 38.734375 10.5625 C 40.382812 10.710938 42.703125 11.984375 44.125 11.984375 C 45.023438 11.984375 45.546875 11.238281 46.296875 11.386719 C 47.195312 11.613281 48.691406 12.808594 48.992188 13.707031 C 49.292969 14.53125 49.066406 15.503906 48.316406 16.554688 C 46.597656 19.175781 36.488281 25.988281 33.792969 26.4375 C 32.820312 26.660156 32.292969 26.363281 31.695312 25.988281 C 31.171875 25.613281 30.648438 24.863281 30.496094 24.191406 C 30.347656 23.59375 30.421875 22.695312 30.722656 22.09375 C 31.097656 21.496094 31.46875 21.046875 32.367188 20.671875 C 34.167969 19.847656 39.035156 19.773438 42.101562 19.699219 C 44.875 19.625 48.46875 19.472656 50.039062 20.222656 C 51.015625 20.746094 51.539062 21.496094 51.761719 22.242188 C 51.914062 23.066406 51.6875 23.890625 51.015625 24.789062 C 49.292969 27.035156 42.628906 30.179688 37.609375 32.875 C 31.621094 36.097656 20.914062 42.238281 17.320312 42.535156 C 16.046875 42.609375 15.296875 42.3125 14.773438 41.789062 C 14.171875 41.261719 13.722656 40.066406 13.875 39.242188 C 14.097656 38.417969 14.773438 37.667969 16.121094 36.921875 C 20.3125 34.523438 40.980469 29.433594 45.699219 30.179688 C 47.34375 30.40625 48.242188 31.230469 48.765625 31.976562 C 49.140625 32.652344 49.140625 33.550781 48.917969 34.226562 C 48.691406 34.898438 48.46875 35.496094 47.496094 36.023438 C 44.722656 37.519531 29.824219 38.71875 26.304688 37.820312 C 24.957031 37.445312 24.207031 36.84375 23.757812 36.171875 C 23.382812 35.496094 23.234375 34.597656 23.457031 33.925781 C 23.683594 33.101562 24.28125 32.425781 25.40625 31.605469 C 28.25 29.730469 39.257812 26.363281 43 25.988281 C 44.648438 25.839844 45.621094 26.0625 46.746094 26.511719 C 47.792969 26.886719 49.066406 27.484375 49.664062 28.535156 C 50.488281 29.808594 50.789062 32.128906 50.339844 34.148438 C 49.664062 37.070312 46.445312 42.761719 44.351562 43.882812 C 43.078125 44.484375 41.429688 44.109375 40.605469 43.660156 C 39.933594 43.210938 39.558594 42.386719 39.40625 41.636719 C 39.257812 40.964844 39.78125 39.390625 39.78125 39.390625 " clip-rule="nonzero"/></clipPath><clipPath id="e376dc271f"><rect x="0" width="52" y="0" height="45"/></clipPath></defs><g clip-path="url(#513614fbd4)"><g transform="matrix(1, 0, 0, 1, 80, 93)"><g clip-path="url(#0fd795dcce)"><g clip-path="url(#f46717586b)"><path fill="#a6a6a6" d="M 0.285156 0.449219 L 53.449219 0.449219 L 53.449219 116.742188 L 0.285156 116.742188 Z M 0.285156 0.449219 " fill-opacity="1" fill-rule="nonzero"/></g></g></g></g><g clip-path="url(#a0aa71edb5)"><g transform="matrix(1, 0, 0, 1, 98, 77)"><g clip-path="url(#53bf88a021)"><g clip-path="url(#538217b862)"><path fill="#ffe7c2" d="M 0.257812 0.722656 L 17.457031 0.722656 L 17.457031 16.449219 L 0.257812 16.449219 Z M 0.257812 0.722656 " fill-opacity="1" fill-rule="nonzero"/></g></g></g></g><g clip-path="url(#33ca286f4e)"><g transform="matrix(1, 0, 0, 1, 91, 47)"><g clip-path="url(#d106ca4646)"><g clip-path="url(#e00e7dd3b8)"><path fill="#ffe7c2" d="M 0.898438 0.046875 L 30.238281 0.046875 L 30.238281 30.761719 L 0.898438 30.761719 Z M 0.898438 0.046875 " fill-opacity="1" fill-rule="nonzero"/></g></g></g></g><g clip-path="url(#3320a72ca4)"><g transform="matrix(1, 0, 0, 1, 64, 69)"><g clip-path="url(#35830023ee)"><g clip-path="url(#3f90154dc3)"><path fill="#3d2500" d="M 0.289062 0.355469 L 45.929688 0.355469 L 45.929688 4.851562 L 0.289062 4.851562 Z M 0.289062 0.355469 " fill-opacity="1" fill-rule="nonzero"/></g></g></g></g><g clip-path="url(#4fa24baf0a)"><g transform="matrix(1, 0, 0, 1, 59, 63)"><g clip-path="url(#f67baa5614)"><g clip-path="url(#3cf8c3b496)"><path fill="#3d2500" d="M 0.351562 0.835938 L 5.289062 0.835938 L 5.289062 10.847656 L 0.351562 10.847656 Z M 0.351562 0.835938 " fill-opacity="1" fill-rule="nonzero"/></g></g></g></g><g clip-path="url(#e9100e1e88)"><g transform="matrix(1, 0, 0, 1, 59, 64)"><g clip-path="url(#978d47a1b7)"><g clip-path="url(#035d94beb7)"><path fill="#ffa51f" d="M 0.949219 0.585938 L 4.691406 0.585938 L 4.691406 4.839844 L 0.949219 4.839844 Z M 0.949219 0.585938 " fill-opacity="1" fill-rule="nonzero"/></g></g></g></g><g clip-path="url(#080cf21067)"><g transform="matrix(1, 0, 0, 1, 80, 147)"><g clip-path="url(#9bf5058571)"><g clip-path="url(#4a8b821f84)"><path fill="#b4b4b4" d="M 0.285156 0.808594 L 55.558594 0.808594 L 55.558594 62.773438 L 0.285156 62.773438 Z M 0.285156 0.808594 " fill-opacity="1" fill-rule="nonzero"/></g></g></g></g><g clip-path="url(#f04cadf1d3)"><g transform="matrix(1, 0, 0, 1, 80, 147)"><g clip-path="url(#69a0c6128c)"><g clip-path="url(#8422025452)"><path fill="#7a4900" d="M 0.285156 0.808594 L 55.5625 0.808594 L 55.5625 8.78125 L 0.285156 8.78125 Z M 0.285156 0.808594 " fill-opacity="1" fill-rule="nonzero"/></g></g></g></g><g clip-path="url(#eaba49a5f5)"><g clip-path="url(#51601c910b)"><g transform="matrix(1, 0, 0, 1, 79, 41)"><g clip-path="url(#359d7cc205)"><g clip-path="url(#c5eccae959)"><g clip-path="url(#5fd371dd9d)"><path fill="#a6a6a6" d="M 0.988281 0.261719 L 52.105469 0.261719 L 52.105469 11.832031 L 0.988281 11.832031 Z M 0.988281 0.261719 " fill-opacity="1" fill-rule="nonzero"/></g></g></g></g></g></g><g clip-path="url(#9dfcc47f70)"><g clip-path="url(#c00737f1f3)"><g transform="matrix(1, 0, 0, 1, 90, 5)"><g clip-path="url(#6b3c055a27)"><g clip-path="url(#858c3ca23b)"><g clip-path="url(#a4d8165379)"><path fill="#b4b4b4" d="M 0.71875 0.632812 L 30.382812 0.632812 L 30.382812 38.296875 L 0.71875 38.296875 Z M 0.71875 0.632812 " fill-opacity="1" fill-rule="nonzero"/></g></g></g></g></g></g><g clip-path="url(#416e4f2c3e)"><g clip-path="url(#0e7faa7d4b)"><g transform="matrix(1, 0, 0, 1, 96, 56)"><g clip-path="url(#75094d365d)"><g clip-path="url(#daef585331)"><g clip-path="url(#4a3c19dad4)"><path fill="#000000" d="M 0.535156 0.355469 L 6.566406 0.355469 L 6.566406 6.386719 L 0.535156 6.386719 Z M 0.535156 0.355469 " fill-opacity="1" fill-rule="nonzero"/></g></g></g></g></g></g><g clip-path="url(#a0932c2f4a)"><g clip-path="url(#8debb2468c)"><g transform="matrix(1, 0, 0, 1, 98, 57)"><g clip-path="url(#630cbf828e)"><g clip-path="url(#110ce78841)"><g clip-path="url(#40142265bd)"><path fill="#ffffff" d="M 0.0390625 0.722656 L 3.058594 0.722656 L 3.058594 3.738281 L 0.0390625 3.738281 Z M 0.0390625 0.722656 " fill-opacity="1" fill-rule="nonzero"/></g></g></g></g></g></g><g clip-path="url(#0de8ae1aa3)"><g clip-path="url(#491cc7853c)"><g transform="matrix(1, 0, 0, 1, 109, 56)"><g clip-path="url(#f4d6435a11)"><g clip-path="url(#904bd79029)"><g clip-path="url(#3024e85c96)"><path fill="#000000" d="M 0.148438 0.214844 L 6.179688 0.214844 L 6.179688 6.246094 L 0.148438 6.246094 Z M 0.148438 0.214844 " fill-opacity="1" fill-rule="nonzero"/></g></g></g></g></g></g><g clip-path="url(#2502794ada)"><g clip-path="url(#ecf78bff85)"><g transform="matrix(1, 0, 0, 1, 110, 57)"><g clip-path="url(#72ff4eb647)"><g clip-path="url(#9f657b5681)"><g clip-path="url(#600c44e529)"><path fill="#ffffff" d="M 0.652344 0.582031 L 3.671875 0.582031 L 3.671875 3.597656 L 0.652344 3.597656 Z M 0.652344 0.582031 " fill-opacity="1" fill-rule="nonzero"/></g></g></g></g></g></g><g clip-path="url(#ccc0c4d3e1)"><g clip-path="url(#6fb757706b)"><g transform="matrix(1, 0, 0, 1, 65, 95)"><g clip-path="url(#2e39b67d15)"><g clip-path="url(#27bed72149)"><g clip-path="url(#4b59b179d9)"><path fill="#a6a6a6" d="M 19.441406 0.746094 L 25.714844 3.332031 L 6.558594 49.859375 L 0.28125 47.273438 Z M 19.441406 0.746094 " fill-opacity="1" fill-rule="nonzero"/></g></g></g></g></g></g><g clip-path="url(#8162d71dec)"><g clip-path="url(#322098b47f)"><g transform="matrix(1, 0, 0, 1, 123, 95)"><g clip-path="url(#f176930c2b)"><g clip-path="url(#3c0fb544c0)"><g clip-path="url(#f960e23cf4)"><path fill="#a6a6a6" d="M 0.652344 3.800781 L 6.710938 0.746094 L 29.910156 46.792969 L 23.851562 49.847656 Z M 0.652344 3.800781 " fill-opacity="1" fill-rule="nonzero"/></g></g></g></g></g></g><g clip-path="url(#74a1df72c9)"><g transform="matrix(1, 0, 0, 1, 94, 209)"><g clip-path="url(#2be18554e9)"><g clip-path="url(#d4ad128976)"><path fill="#7a4900" d="M 0.777344 0.746094 L 7.304688 0.746094 L 7.304688 16.324219 L 0.777344 16.324219 Z M 0.777344 0.746094 " fill-opacity="1" fill-rule="nonzero"/></g></g></g></g><g clip-path="url(#4175b2ddd2)"><g transform="matrix(1, 0, 0, 1, 120, 209)"><g clip-path="url(#06d3b45874)"><g clip-path="url(#da32e87210)"><path fill="#7a4900" d="M 0.382812 0.746094 L 6.910156 0.746094 L 6.910156 16.324219 L 0.382812 16.324219 Z M 0.382812 0.746094 " fill-opacity="1" fill-rule="nonzero"/></g></g></g></g><g clip-path="url(#e8864d5b92)"><g transform="matrix(1, 0, 0, 1, 110, 218)"><g clip-path="url(#dfe464a17f)"><g clip-path="url(#d0a76070a5)"><path fill="#7a4900" d="M 10.375 0.734375 L 10.375 7.261719 L 0.632812 7.261719 L 0.632812 0.734375 Z M 10.375 0.734375 " fill-opacity="1" fill-rule="nonzero"/></g></g></g></g><g clip-path="url(#1d3c375e17)"><g transform="matrix(1, 0, 0, 1, 85, 218)"><g clip-path="url(#71b77a3760)"><g clip-path="url(#762cf42f1f)"><path fill="#7a4900" d="M 9.769531 0.734375 L 9.769531 7.261719 L 0.0273438 7.261719 L 0.0273438 0.734375 Z M 9.769531 0.734375 " fill-opacity="1" fill-rule="nonzero"/></g></g></g></g><path stroke-linecap="butt" transform="matrix(0.748782, 0, 0, 0.748782, 93.272392, 53.219128)" fill="none" stroke-linejoin="miter" d="M 0.00139616 1.997531 L 13.314676 1.997531 " stroke="#000000" stroke-width="4" stroke-opacity="1" stroke-miterlimit="4"/><path stroke-linecap="butt" transform="matrix(-0.748782, 0, 0, -0.748782, 116.619515, 56.214257)" fill="none" stroke-linejoin="miter" d="M -0.00210882 2.002469 L 11.907851 2.002469 " stroke="#000000" stroke-width="4" stroke-opacity="1" stroke-miterlimit="4"/><g clip-path="url(#c49dd09bf0)"><g clip-path="url(#e23d3c62fe)"><g transform="matrix(1, 0, 0, 1, 51, 54)"><g clip-path="url(#c77ef6679f)"><g clip-path="url(#13b40a9d1f)"><g clip-path="url(#38adbb2506)"><path fill="#ffffff" d="M 0.0664062 0.714844 L 5.757812 0.714844 L 5.757812 6.410156 L 0.0664062 6.410156 Z M 0.0664062 0.714844 " fill-opacity="1" fill-rule="nonzero"/></g></g></g></g></g></g><g clip-path="url(#8e0f03d687)"><g clip-path="url(#ee199e3611)"><g transform="matrix(1, 0, 0, 1, 17, 7)"><g clip-path="url(#0546bc75b0)"><g clip-path="url(#67acb0f7a8)"><g clip-path="url(#ae81879a79)"><rect x="-50.825" width="221.4" fill="#666363" height="325.07999" y="-56.664998" fill-opacity="1"/></g></g></g></g></g></g><g clip-path="url(#b2c6fb2a0a)"><g clip-path="url(#b24b16b229)"><g transform="matrix(1, 0, 0, 1, 2, 2)"><g clip-path="url(#e376dc271f)"><g clip-path="url(#c845c0ea49)"><g clip-path="url(#699487f9a3)"><rect x="-35.825" width="221.4" fill="#666363" height="325.07999" y="-51.664998" fill-opacity="1"/></g></g></g></g></g></g></svg>